<svg transform="scale(1)" id="Igni5xBp10" xmlns="http://www.w3.org/2000/svg" viewBox="0 0 500 500" class="pbimage_pbimage__wrapper__image__0LEis false"><title>Question 8</title><defs><style> .cls-1{fill:#fff;} .cls-2{fill:#f5d94a;} .cls-3{opacity:.11;} .cls-4{fill:#231f20;}
 .cls-4{fill:#231F20;}
 .cls-2{fill:#7d0808;}
 .cls-1{fill:#FFFFFF;}</style></defs><g id="question-mark"><path class="cls-2" d="M176.84,90.99c-.57-5.17,1.55-10.13,5.19-13.76,3.21-3.2,7.98-5.61,12.59-4.72,.82,.16,2.97,.3,3.23-.88,3.01-13.37,17.16-24.76,31.16-22.65,.75,.11,2.68,.33,3.12-.58,3.29-6.81,8.98-12.43,15.93-15.47,6.85-2.99,14.38-3.15,21.37-.51,4.11,1.56,7.8,4.03,10.88,7.15,.86,.87,3.35,1.11,4.31,.3,2.69-2.28,5.89-3.81,9.39-4.33s6.52,.41,9.78,1.67c3.82,1.48,7.66,1.08,10.8-1.57,2.54-2.14,4.75-4.56,8.33-4.51,4.11,.05,8.16,2.17,11.71,4.04,1,.53,2.47,.69,3.53,.25,.88-.37,1.03-1.13,.11-1.62-7.11-3.74-17.15-7.82-24.56-2.49-1.48,1.06-2.7,2.44-4.16,3.52-.51,.38-1.24,.95-1.9,.99,0,0-.19-.04-.41-.11-.6-.21-1.19-.45-1.78-.69-3.93-1.62-8.23-2.27-12.46-1.8-4.6,.51-9.05,2.18-12.6,5.2,1.44,.1,2.87,.2,4.31,.3-12.73-12.87-34.61-14.07-48.52-2.46-3.69,3.08-6.72,6.86-8.81,11.19,1.04-.19,2.08-.39,3.12-.58-12.84-1.93-26.28,3.73-33.48,14.65-1.96,2.97-3.37,6.29-4.15,9.77,1.08-.29,2.16-.59,3.23-.88-6.23-1.21-12.78,.5-17.56,4.68-4.43,3.88-7.35,9.57-6.69,15.56,.19,1.71,5.15,1.78,4.99,.35h0Z" fill="#7d0808"></path><path class="cls-2" d="M197.58,115.15c8.59,3.27,18.14,5.43,27.19,2.55,6.59-2.1,12.79-7.83,12.36-15.24l-4.98,.47c4.46,5.5,12.68,6.09,19.03,3.99,3.37-1.12,5.6-3.34,7.83-6.01,1.12-1.34,2.26-2.71,3.69-3.73,.56-.4,1.63-.97,2.02-1.03,.58-.1,2,.05,2.88,.09,4.17,.18,8.33-.26,12-2.37,2.89-1.66,5.32-3.97,8.08-5.81,1.22-.81,2.85-1.93,4.37-2.06,.2-.02,1.28,.16,1.79,.28,1.11,.24,2.2,.61,3.25,1.03,3.62,1.46,6.92,3.69,10.63,4.92,3.72,1.24,7.77,1.38,11.62,.7,3.31-.59,6.43-1.97,7.75-5.27-1.63,.2-3.25,.39-4.88,.59,2.53,2.73,5.21,5.36,8.3,7.45,2.76,1.87,5.79,3.23,8.92,4.35,3.34,1.19,6.62,2.36,10.19,2.43,3.68,.07,7.36-.39,11.02-.78,3.18-.35,6.51-1.08,9.62-.19,1.04,.3,2.38,.07,3.42-.15,.33-.07,1.8-.46,.83-.73-3.13-.9-6.66-.55-9.85-.28-3.41,.28-7.02,.81-10.3,1.02-1.27,.08-2.45,.16-3.74-.04-1.71-.26-3.41-.95-5.04-1.5-3.24-1.08-6.42-2.37-9.32-4.18-3.5-2.19-6.47-5.08-9.27-8.09-.55-.59-4.55-.22-4.88,.59-.82,2.04-2.94,3.97-5.01,4.14-2.46,.2-5.44-.95-7.76-2.07-3.37-1.63-6.63-3.55-10.26-4.56-3.76-1.05-8.03-.91-11.73,.34-2.93,.99-5.4,2.86-7.81,4.74-1.22,.95-2.44,1.9-3.75,2.74-1.13,.72-2.55,1.62-3.92,1.78-1.64,.19-3.77-.19-5.56-.14-2.15,.06-4.38,.33-6.39,1.14-2.99,1.2-4.86,3.89-6.89,6.24-1.76,2.03-4.41,4.51-7.22,4.43-3.29-.09-6.63-1.93-8.68-4.46-.49-.61-5.02-.3-4.98,.47,.35,6.1-3.98,11.35-9.33,13.79-6.47,2.94-14.24,.1-20.46-2.27-.94-.36-2.13-.19-3.09-.04-.21,.03-2.12,.58-1.68,.75h0Z" fill="#7d0808"></path><path class="cls-2" d="M379.47,109.89c5.91,3.07,8.71,9.19,10.68,15.24,1.22,3.76,2.39,7.65,2.93,11.57,.3,2.15,.29,4.38-.25,6.5-.51,1.98-1.47,3.78-2.33,5.62s-1.64,3.68-1.93,5.71-.15,4.15,.09,6.24c.44,3.77,1.43,7.85-.57,11.36-1.87,3.28-4.98,5.61-7.46,8.41-2.48,2.8-4.43,6.01-5.86,9.47-3.25,7.84-3.24,16.66-.41,24.62l.02-2.07c-5.08,5.62-10.16,11.25-15.24,16.87-4.03,4.46-8.3,10.61-15.08,10-3.44-.31-6.68-1.67-10.08-2.19-2.68-.4-5.44-.41-8.12-.03-5.25,.74-10.42,2.95-14.49,6.38-4.46,3.75-7.5,8.78-8.05,14.63l2.41-.91c-6.74-5.58-15.4-8.72-24.08-9.34-4.35-.31-8.76-.05-13.01,.94-2.06,.48-4.07,1.14-6.03,1.95-2.23,.92-4.28,2.18-6.46,3.22-2.42,1.15-4.9,1.6-7.57,1.38-2.76-.23-5.49-.78-8.26-1.03-5.7-.52-11.45-.43-17.15,0s-11.41,1.2-17.09,2.01c-4.19,.59-8.36,1.28-12.44,2.4-7.62,2.1-16.69,6.04-18.37,14.68,.62-.23,1.24-.47,1.86-.7-4.25-2.28-9.6-2.09-13.46,.89-1.91,1.48-3.54,3.37-5.13,5.18s-3.23,3.84-4.72,5.86c-5.83,7.86-10.39,16.69-13.39,26.01-1.67,5.2-2.79,10.53-3.47,15.94-.26,2.06,3.43,4.8,3.8,1.79,2.26-18.1,10.77-35.15,23.24-48.38,1.71-1.81,3.65-3.51,6.14-4.06,2.38-.53,4.8-.2,6.94,.96,.67,.36,1.69,.15,1.86-.7,1.37-7.04,8.61-10.52,14.84-12.45,3.8-1.17,7.72-1.95,11.65-2.54,5.27-.79,10.56-1.51,15.86-2.04,5.55-.55,11.15-.86,16.73-.58,2.73,.14,5.44,.44,8.15,.84,2.57,.38,5.23,.76,7.82,.37,4.62-.7,8.42-3.86,12.76-5.38,3.88-1.36,8-2.04,12.11-2.13,9.22-.22,18.73,2.6,25.87,8.52,1.07,.89,2.28,.46,2.41-.91,.96-10.23,11.51-17.11,20.94-18.31,2.65-.34,5.31-.27,7.94,.25,3.31,.65,6.5,1.91,9.9,2.05,6.64,.28,10.77-4.56,14.84-9.07,5.64-6.25,11.29-12.5,16.93-18.74,.48-.53,.23-1.5,.02-2.07-2.49-6.98-2.05-14.68,.82-21.48,1.49-3.52,3.72-6.74,6.36-9.49,2.64-2.75,5.66-5.24,7.21-8.82,1.71-3.96,.83-8.33,.31-12.43-.24-1.91-.39-3.91,.06-5.8,.48-2.04,1.47-3.89,2.35-5.77,.93-1.99,1.72-3.97,2.04-6.15,.34-2.34,.22-4.67-.12-7-.6-4.13-1.88-8.21-3.15-12.18-2.5-7.81-6.53-15.35-14.07-19.27-.99-.52-1.88,.16-1.92,1.2-.05,1.21,.84,2.46,1.88,3h0Z" fill="#7d0808"></path><path class="cls-2" d="M188.86,322c3.34-9.61,11.68-16.67,21.31-19.54,4.75-1.42,9.86-1.73,14.73-.77,6.13,1.2,11.26,5.13,17.36,6.44,6.71,1.44,13.96-.05,19.61-3.94-.74-.54-1.48-1.08-2.22-1.61,3.43,5.29,8.86,8.64,15.18,9.13,5.81,.45,11.7-1.62,15.43-6.19-.81-.46-1.62-.92-2.43-1.39,5.75,9.28,14.96,16.01,25.65,18.37,10.26,2.26,21.12-.31,29.55-6.5,4.66-3.42,8.55-7.88,11.19-13.03l-2.43-1.39c2.18,4.02,5.98,6.79,10.46,7.63,4.01,.76,8.44-.26,11.36-3.2,1.23-1.24-1.55-5.28-2.48-4.34-2.53,2.54-6.04,3.58-9.57,3.22-3.1-.31-6.43-1.88-7.81-4.43-.21-.39-1.83-2.55-2.43-1.39-4.47,8.69-12.47,15.23-21.76,18.18-9.43,2.98-19.86,1.63-28.37-3.36-4.56-2.68-8.6-6.37-11.4-10.88-.36-.58-1.62-2.39-2.43-1.39-3.25,3.97-8.45,5.81-13.49,5.64-4.52-.15-9.83-2.07-12.25-5.81-.31-.48-1.41-2.17-2.22-1.61-5.14,3.54-11.45,4.99-17.62,4.05-6.32-.97-11.58-5.07-17.78-6.49-9.82-2.25-20.55,.73-28.29,7.05-4.4,3.6-7.88,8.27-9.75,13.65-.36,1.04,.22,2.23,.84,3.06,.24,.31,1.72,1.84,2.07,.83h0Z" fill="#7d0808"></path><path class="cls-2" d="M358.01,39.99c10.76-4.27,23.79-.9,32.09,6.9,2.4,2.26,4.41,4.9,5.93,7.82,.27,.51,1.68-.15,1.96-.28,5-2.4,11.38,.18,15.44,3.3,4.71,3.62,8.16,8.66,11.71,13.35,3.86,5.09,7.96,10.08,11.48,15.42,3.44,5.22,5.76,11.06,6.27,17.33,.24,2.92-.49,6.25,.5,9.05,.88,2.49,3.34,4.06,5,6,3.19,3.75,5.26,8.4,6.09,13.24,.83,4.82,.39,9.9-1.37,14.48-.91,2.39-2.92,4.73-3.07,7.34s1.74,4.75,2.63,7.08c1.74,4.58,1.35,9.75-.51,14.23-1.67,4.02-4.66,7.7-8.69,9.02-.91,.3-2.4,1.02-2.83,1.94s.79,.62,1.3,.46c9.24-3.04,16.37-11.89,16.23-21.79-.03-2.21-.42-4.44-1.22-6.5-1.05-2.7-3.24-5.01-2.18-8.07,.48-1.39,1.36-2.65,1.97-3.98,.55-1.18,1.02-2.4,1.39-3.65,.73-2.47,1.11-5.05,1.13-7.62,.05-5.17-1.24-10.38-3.85-14.86-1.29-2.22-2.9-4.18-4.75-5.96-1.06-1.02-2.19-2.07-2.78-3.45-.68-1.57-.56-3.29-.52-4.96,.17-6.46-1.29-12.83-4.4-18.5-3.26-5.95-7.79-11.23-11.87-16.61s-8.27-11.8-14.01-15.99c-5.49-4.02-12.43-5.23-18.68-2.24l1.96-.28c-5.72-10.97-18.25-17.45-30.47-16.87-3.54,.17-7.06,.93-10.35,2.24-.92,.36-2.38,.98-2.83,1.94s.78,.66,1.3,.46h0Z" fill="#7d0808"></path><path class="cls-2" d="M428.85,161.05c1.21,.6,2.4,1.6,3.25,2.75,.96,1.32,1.62,2.94,1.79,4.57,.36,3.49-1.19,7.05-3.93,9.21-2.21,1.74,1.26,5.29,3.28,3.7,3.82-3.02,5.91-7.89,5.26-12.75s-3.97-9.2-8.43-11.4c-1.01-.5-2.5-.19-2.87,.98-.39,1.26,.62,2.43,1.67,2.94h0Z" fill="#7d0808"></path><path class="cls-2" d="M345.29,119.83c2.92,3.95,7.13,6.94,12.07,7.67,4.33,.64,8.85-.37,12.17-3.31-1.21-1.11-2.42-2.21-3.63-3.32-2.73,8.83,3.29,18.73,11.42,22.28,.84,.37,1.23,0,.84-.84-.43-.97-1.52-2.07-2.5-2.5-5.93-2.59-7.86-9.98-6.04-15.84,.3-.97-2.72-4.12-3.63-3.32-2.71,2.4-6.24,3.47-9.83,3.31-2.81-.13-6.45-1.18-8.06-3.37-.59-.8-1.56-2.06-2.63-2.21s-.55,.96-.18,1.45h0Z" fill="#7d0808"></path><path class="cls-2" d="M392.45,292.26c4.72-1.18,8.36-5.08,8.72-9.98l-2.98,1.75c7.65-.33,14.28-3.96,19.8-9.1,5.4-5.02,10.67-11.1,13.35-18.05,1.49-3.87,1.96-8.12,.55-12.08l-1.66,1.59c12.14-2.92,20.72-16.83,16.39-28.9-.38-1.06-1.64-1.25-2.65-1.12-.6,.07-2.68,.69-2.31,1.72,3.63,10.1-2.33,23.12-13.08,25.71-.5,.12-1.93,.81-1.66,1.59,3.05,8.56-2.81,17-8.18,23.19-4.92,5.68-11.58,12.19-19.58,12.54-1.13,.05-2.87,.34-2.98,1.75-.23,3.06-2.38,6.03-5.41,6.79-.82,.2-2.05,.98-1.52,1.96s2.31,.84,3.17,.62h0Z" fill="#7d0808"></path><path class="cls-2" d="M177.97,330.21c.88,5.15-3.96,11.09-9.33,10.68-1.23-.09-3.01,.69-2.48,2.28,2.23,6.66-.59,14.84-7.17,17.87-6.58,3.03-14.47,.45-17.42-6.26-1.56-3.55-1.54-7.66,.03-11.19,1.1-2.46-3.56-4.28-4.67-1.8-3.8,8.53,.37,18.85,8.62,22.89,4.23,2.07,9.32,2.37,13.81,1.03,4.47-1.33,8.06-4.42,10.27-8.49,2.37-4.35,2.88-9.74,1.3-14.44-.83,.76-1.65,1.52-2.48,2.28,8.3,.64,15.72-6.87,14.29-15.24-.44-2.57-5.28-2.59-4.77,.38h0Z" fill="#7d0808"></path><path class="cls-2" d="M317.73,263.97c-.58-2.81,1.8-5.89,4.66-6.2,2.98-.33,5.68,2.33,7.23,4.56,.8,1.15,3.77,1.9,4.57,.33,1.63-3.18,4.6-5.39,8.08-6.16,3.23-.72,6.37-.26,8.97,1.92,.91,.77,2.38,1.06,3.49,.55,.97-.45,1.22-1.54,.36-2.26-7.46-6.27-20.9-4.68-25.52,4.35,1.52,.11,3.05,.22,4.57,.33-3-4.32-8.03-7.52-13.46-6.82-4.54,.59-8.85,4.67-7.84,9.5,.42,2.03,5.38,2.25,4.9-.1h0Z" fill="#7d0808"></path><path class="cls-2" d="M120.5,397.9c-5.06-.77-10.45,1.4-13.82,5.2-3.21,3.63-3.96,8.99-1.85,13.35,.98-.84,1.96-1.69,2.94-2.53-7.87,1.62-12.56,8.37-14.62,15.7-2.02,7.19-2.83,18.75,5.88,21.93l-.26-.52c-.75,3.75-1.47,7.82-.19,11.54,1.2,3.47,4.2,5.62,7.53,6.81,3.24,1.16,6.81,1.82,10.24,2.01,3.9,.21,7.84-.81,10.5-3.83-1.39,.41-2.77,.81-4.16,1.22,3.18,7.85,13.08,9.99,20.17,6.41,.57-.29,2.17-1.24,1.74-2.1s-2.21-.12-2.73,.14c-5.38,2.72-12.59-1.44-14.71-6.69-.24-.6-1.43-.32-1.82-.21-.88,.25-1.73,.74-2.34,1.43-1.22,1.39-4.64,.64-6.32,.38-2.88-.45-5.85-.96-8.49-2.26-2.72-1.34-4.69-3.51-5.42-6.49-.8-3.26-.08-6.78,.56-10,.02-.23-.07-.4-.26-.52-7.74-2.82-7.28-12.65-5.79-19.22,1.11-4.86,3.72-11.8,9.07-12.9,.76-.16,3.53-1.32,2.94-2.53-1.55-3.19-1.52-7.1,.37-10.16,1.63-2.65,4.46-3.68,7.47-3.22,1.12,.17,2.41-.46,3.23-1.18,.48-.42,1.27-1.57,.13-1.74h0Z" fill="#7d0808"></path><path class="cls-2" d="M128.7,398.12c2.59-3.15,6.17-6.05,10.36-6.53,3.14-.36,6.72,.98,7.87,4.11,.4,1.1,2.08,2.56,3.38,2.02,2.62-1.08,5.83-1.1,8.11,.8s2.95,4.97,2.4,7.69c-.38,1.86,1.82,3.25,3.45,3.03,3.34-.45,6.77,1.12,8.42,4.08,.9,1.61,1.25,3.59,1.09,5.42-.08,.87-.29,1.75-.59,2.57-.37,1.02-.98,1.96-1.16,3.05-.37,2.21,1.01,3.74,1.9,5.59,.65,1.35,1,2.85,1.11,4.34,.22,3.04-.51,6.19-2.02,8.84-1.75,3.07-4.42,5.58-7.83,6.64-.4,.13-.95,.46-1,.94-.77,6.88-8.83,13.03-15.69,10.28-.94-.38-2.31-.48-2.68,.72-.34,1.11,.82,2.42,1.77,2.8,4.49,1.8,9.41,1.39,13.61-1.01,3.9-2.23,6.93-6.18,7.44-10.7l-1,.94c7.46-2.32,12.17-9.92,11.98-17.58-.05-1.89-.42-3.82-1.12-5.57-.34-.84-.74-1.67-1.2-2.45-.74-1.25-.95-1.77-.34-3.15,1.95-4.39,1.84-9.36-.94-13.43-3.15-4.61-8.68-7.03-14.19-6.29l3.45,3.03c.94-4.64-.9-9.36-4.5-12.38-3.48-2.92-8.67-3.91-12.91-2.17,1.13,.67,2.26,1.35,3.38,2.02-1.87-5.1-7.22-8.29-12.55-8.31-5.67-.03-10.57,3.51-14.04,7.72-1.48,1.8,2.53,4.78,4.04,2.94h0Z" fill="#7d0808"></path><path class="cls-2" d="M119.13,422.24c-4.51,2.53-6.63,8.4-6,13.38,.67,5.29,6.07,9.75,11.48,8.01-1.13-.76-2.26-1.53-3.39-2.29-.81,5.43,1.55,10.95,6,14.17,4.67,3.37,11.24,3.8,16.35,1.21,1.04-.53,1.28-1.73,.5-2.6s-2.39-1.21-3.47-.66c-3.4,1.73-7.53,1.51-10.58-.87-3.05-2.38-4.44-6.55-3.87-10.3,.25-1.66-2-2.74-3.39-2.29-3.25,1.05-4.78-3.1-4.76-5.64,.02-3.1,1.26-7.22,4.13-8.83,2.72-1.52-.86-4.46-2.98-3.27h0Z" fill="#7d0808"></path><path class="cls-2" d="M152.2,428.14c.13-.05,.26-.09,.4-.13,.21-.06,.66-.09-.1,0,.24-.03,.47-.07,.71-.08,.08,0,.16,0,.24,0,.24,0,.16,0-.25-.01,.12,.02,.24,.02,.36,.03,.26,.03,.51,.09,.77,.14,.17,.04,.08,.02-.27-.08,.08,.02,.15,.05,.23,.08,.11,.04,.22,.08,.34,.13,.24,.1,.47,.23,.69,.35,.15,.09,.07,.04-.23-.14,.07,.04,.13,.09,.2,.14,.1,.07,.19,.14,.28,.22,.21,.18,.41,.38,.6,.59l-.37-.44c.35,.41,.62,.86,.84,1.36l-.22-.53c.17,.42,.3,.86,.38,1.31,.01,.09,.04,.46,.02,.09s0,0,0,.09c0,.23,0,.46-.01,.68,0,.1-.02,.21-.03,.31-.04,.38,.1-.41,.03-.15-.05,.22-.11,.44-.18,.66-.03,.1-.07,.19-.11,.29-.18,.43,.09-.13,.08-.15,.04,.06-.34,.58-.38,.64-.66,.97-.39,2.5,.76,2.96,1.24,.5,2.59-.06,3.32-1.13,1.77-2.6,1.85-6.49-.19-8.98-1.12-1.36-2.51-2.21-4.21-2.66-1.52-.41-3.23-.3-4.7,.24-.61,.23-1.18,.63-1.53,1.19-.28,.46-.47,1.15-.31,1.69,.36,1.2,1.7,1.76,2.86,1.33h0Z" fill="#7d0808"></path><path class="cls-2" d="M142.51,407.97c.27-.39,.64-.69,1.07-.89l-.22,.1c.51-.22,1.06-.29,1.62-.24l-.32-.03c.34,.03,.65,.12,.98,.21,.17,.05-.39-.16-.23-.09,.04,.02,.07,.03,.11,.05,.07,.03,.15,.07,.22,.1,.3,.15-.47-.29-.19-.11,.03,.02,.07,.04,.1,.06,.16,.1,.33,.29-.32-.23,.06,.05,.12,.1,.18,.15s-.58-.53-.37-.32-.38-.42-.33-.36c.02,.03,.05,.06,.08,.09,.17,.21-.29-.4-.26-.34,.04,.06,.08,.14,.13,.19,.02,.02-.28-.51-.18-.3,.02,.03,.04,.07,.05,.1,.16,.31-.12-.37-.04-.1,.05,.16,.09,.32,.11,.49l-.04-.32c0,.08,.02,.16,.02,.24,.02,.43,.24,.82,.47,1.16,.35,.51,.83,1.02,1.32,1.4,.39,.3,.85,.68,1.34,.76,.23,.04,.65,.07,.63-.29-.04-.93-.4-1.75-.91-2.51-.72-1.06-1.72-2.02-2.82-2.69-1.21-.73-2.76-1.3-4.18-.87-.65,.2-1.23,.55-1.62,1.11-.2,.28-.02,.68,.11,.94,.25,.51,.69,1.02,1.1,1.41s.9,.82,1.44,1.05c.22,.09,.75,.35,.94,.08h0Z" fill="#7d0808"></path><path class="cls-2" d="M340.69,212.21c-3.42,.04-5.86,3.5-5.7,6.73,.19,3.85,3.21,7.12,6.44,8.88,3.44,1.87,7.32,2.22,10.53-.26,2.62-2.03,4.73-5.21,6.01-8.24,.92-2.17,.71-4.46-.84-6.28-.78-.91-1.82-1.56-2.86-2.12-.3-.16-.81-.39-.86-.51-.16-.32-.03,.17,.05-.11,.46-1.66-1.7-3.42-3.25-3.24-2.49,.29-4.91,1.06-7.11,2.26s1.3,4.77,3.13,3.76c1.96-1.07,4.01-1.73,6.22-1.99-1.08-1.08-2.17-2.16-3.25-3.24-.53,1.9,.6,3.72,1.99,4.95,.62,.55,1.34,.97,2.07,1.37,.28,.15,.55,.3,.82,.46,.48,.29,.18,.13,.1,.07-.23-.19,.04,.01,.05,.06,.04,.98-.52,2.27-1.05,3.23-.69,1.23-1.45,2.44-2.31,3.56-1.39,1.82-3.35,3.85-5.83,3.8-.72-.01-1.43-.22-2.08-.51-.22-.1-.44-.21-.65-.33-.16-.09-.32-.19-.47-.28-.32-.19-.07-.03-.25-.16-.94-.7-1.54-1.3-1.94-2.29-.95-2.35,.6-5.49,3.29-5.52,1.21-.01,1.16-1.53,.74-2.28-.6-1.1-1.76-1.77-2.99-1.75h0Z" fill="#7d0808"></path><path class="cls-2" d="M259.26,116.86c-1.23-2.04-3.89-3.67-6.28-2.56-1.78,.82-2.26,3.11-2.63,4.83-.42,1.92-.57,4,.27,5.83,1.03,2.25,3.35,3.75,5.72,4.22,2.18,.42,4.51,.02,6.69-.17s4.51-.11,6.47-1.02c3.82-1.77,3.73-6.96,1.9-10.11-2.27-3.9-7.18-7.15-11.83-6.07-2.33,.54,1.07,4,2.71,3.62,.5-.12,1.03-.21,1.53-.19,.67,.02,1,.13,1.54,.32,.37,.13-.26-.13,.09,.04,.11,.05,.21,.11,.32,.16,.43,.21,.16,.08,.05,.01,.14,.08,.27,.18,.4,.27s.26,.19,.38,.29c-.09-.08-.3-.3,.03,.05,.08,.09,.17,.17,.26,.26,.11,.12,.11,.12,0-.01l.15,.19c.39,.5,.5,.65,.79,1.26,.24,.51,.38,1.02,.46,1.58,.18,1.2-.08,2.53-.73,3.56-.8,1.25-2.03,1.67-3.44,1.84-1.73,.21-3.47,.31-5.2,.46-1.36,.12-2.85,.4-4.21,.09-.11-.02-.31-.21-.22-.06,.06,.09,.45,.59,.17,.11-.1-.18-.28-.9-.31-1.34-.1-1.4,.28-2.88,.64-4.22,.2-.74,.46-1.56,1.04-2.1,.2-.19,.42-.24,.65-.38,.05-.03,.18,.01,.23-.03h-.06c-.64-.23-1.16-.64-1.56-1.27,.61,1.01,1.64,1.92,2.87,2.07,.94,.11,1.67-.6,1.1-1.53h0Z" fill="#7d0808"></path><path class="cls-2" d="M188.31,90.92c.56-3.19,2.1-6.71,5.26-8.09,2.37-1.03,5.3-.34,6.67,1.97,.95,1.6,4.16,1.31,4.56-.62,.89-4.25,1.76-9.08,4.74-12.44,2.28-2.57,6.1-4.06,9.18-2.1,1.28,.81,3.21-.03,3.65-1.39,.61-1.9,1.7-3.46,3.22-4.75,.96-.82,.87-2.33-.06-3.12-1.01-.86-2.55-.77-3.53,.07-2.1,1.78-3.62,4.1-4.46,6.72,1.22-.46,2.43-.93,3.65-1.39-4.56-2.91-10.7-1.26-14.49,2.17-4.24,3.85-5.61,9.77-6.73,15.15l4.56-.62c-2.43-4.1-8.02-5.44-12.35-3.9-4.81,1.71-7.84,6.39-8.7,11.26-.22,1.28,.51,2.39,1.8,2.68,1.1,.25,2.82-.31,3.04-1.6h0Z" fill="#7d0808"></path><path class="cls-2" d="M251.06,50.8c1.1-.98,2.44-1.41,3.82-1.47,1.54-.06,3.03,.77,4.5,1.54,3.86,2.01,8.33,1.87,12.18-.08,1.08-.55,1.39-2.06,.64-2.98-.87-1.06-2.36-1.03-3.47-.46-1.47,.75-3.21,.92-4.82,.57-1.87-.41-3.39-1.71-5.2-2.28-4-1.27-8.31-.3-11.43,2.47-.93,.83-.69,2.32,.27,3,1.09,.78,2.56,.54,3.52-.31h0Z" fill="#7d0808"></path><path class="cls-2" d="M348.44,25c-1.36-.16-2.9-.3-4.26,0-.55,.12-1.01,.44-1.35,.89-.66,.88-.85,2.19-.35,3.19,.62,1.25,2.02,1.9,3.3,2.23,2.2,.57,4.61,.6,6.87,.5,3.17-.13,6.81-.92,8.64-3.8,1.44-2.26,1.46-5.74-1.14-7.18-.65-.36-1.4-.53-2.13-.64-1.49-.23-3.05-.29-4.55-.18-1.42,.1-2.8,.53-3.52,1.86-.07,.12,2.3,.36,2.49,.37,.59,.02,1.18,.04,1.77,0,.17-.01,.65,.01,.74-.15,.41-.76,1.08-1.29,1.93-1.51,.69-.17-.31-.07-1.11-.1-.96-.04-1.77-.21-1.09,.01,.42,.14,.83,.36,1.17,.63,1.66,1.32,1.72,3.83,.98,5.65-.91,2.24-2.97,3.59-5.24,4.19-.56,.15-1.13,.24-1.71,.3-.22,.02-.21,0-.31,.02-.31,.05,.15,0,.21,0,.3,0,.63-.04,.91,.07-.4-.15-.84-.18-1.25-.36-.54-.23-1.05-.55-1.45-.99-.68-.74-.92-1.69-.71-2.67,.1-.44,.28-.87,.55-1.23,.15-.19,.32-.38,.53-.51,.08-.05,.17-.08,.24-.13l.13-.05c1.08-.31,.14-.33-2.83-.07,1.08,.12,2.35,.28,3.42,.05,.22-.05,.33,0,.26-.19-.06-.16-1.06-.19-1.14-.2h0Z" fill="#7d0808"></path><path class="cls-2" d="M153.27,471.67c-1.01,.58-2.12,1.04-2.74,2.07-.49,.82-.59,1.73-.45,2.67,.39,2.77,3.36,4.2,5.87,4.48,2.42,.27,5.15-.51,6.48-2.68,1.21-1.97,1.24-4.72-.5-6.42-1.39-1.36-3.33-2.04-5.25-2.16-1.45-.09-3.08,.18-4.11,1.31-.69,.75,.83,1.53,1.37,1.73,.6,.22,1.25,.38,1.9,.36,.41-.01,.98-.03,1.27-.35,.19-.21,.4-.39,.65-.54l-.31,.19c.18-.1,.36-.18,.54-.25,.34-.14-.23,.03-.08,.02,.09,0,.19-.03,.28-.05,.44-.08-.47,0-.11,0,.2,0,.5,.08-.23-.03,.08,.01,.21,.05,.28,.03-.09,.02-.74-.14-.28-.05,.4,.08-.64-.24-.27-.09,.21,.09,.37,.24-.2-.1,.07,.04,.17,.1,.25,.14-.52-.21-.3-.2-.13-.08,.07,.05,.14,.14,.22,.18-.21-.2-.25-.24-.12-.11l.06,.07c.16,.19,.3,.39,.43,.6l-.18-.31c.33,.6,.5,1.25,.54,1.93l-.02-.3c.03,.99-.21,1.95-.71,2.8l.16-.26c-.41,.67-.96,1.21-1.62,1.63l.31-.19c-.23,.14-.47,.27-.71,.37-.09,.04-.19,.08-.28,.11-.06,.02-.13,.04-.19,.06-.18,.05-.13,.04,.15-.04-.2,0-.48,.08-.68,.12,.65-.11,.23-.03,.04-.02-.4,0,.65,.06,.17,0s.63,.15,.22,.04,.73,.24,.17,.05c-.37-.12,.53,.29,.2,.09-.46-.27,.31,.25,.06,.05-.09-.07-.17-.15-.26-.21,.12,.08,.29,.3,.09,.07-.15-.17-.27-.35-.39-.55l.18,.31c-.29-.52-.45-1.1-.49-1.69l.02,.3c-.03-.66,.09-1.32,.42-1.9l-.16,.26c.21-.35,.49-.64,.83-.87l-.31,.19c.5-.31,1.01-.59,1.52-.88,.3-.17,.56-.36,.45-.75s-.64-.75-.96-.91c-.57-.3-1.2-.51-1.84-.57-.48-.05-1.14-.13-1.57,.12h0Z" fill="#7d0808"></path><path class="cls-2" d="M185.75,346.76c2.92-1.06,5.66-2.77,7.32-5.46,.7-1.13,1.22-2.36,1.44-3.67,.25-1.45,0-2.76-.17-4.2-.19-1.77,1.43-2.66,2.49-3.84,.99-1.1,1.84-2.31,2.57-3.6,1.56-2.75,2.42-5.81,2.55-8.97,.04-1.12-4.54,.32-4.59,1.53-.1,2.69-.74,5.32-1.91,7.75-.58,1.21-1.3,2.33-2.13,3.38-.87,1.09-2,1.92-2.86,3s-.78,2.22-.58,3.53c.19,1.23,.2,2.41-.11,3.63-.42,1.67-1.61,4.38-3.4,5.03-.67,.24-2.5,.84-2.61,1.71s1.68,.29,1.98,.18h0Z" fill="#7d0808"></path><path class="cls-2" d="M119.21,324.97c-1.47,1.21-1.79,3.49-1.04,5.19,.66,1.51,1.96,2.55,3.38,3.33,1.31,.72,2.88,1.32,4.4,1.17,1.93-.19,3.95-1.4,4.25-3.46,.49-3.28-2.68-5.59-5.42-6.56-1.34-.47-2.87-.57-4.12,.2-1.09,.68-1.74,1.65-1.79,2.94-.01,.29,.65,.8,.81,.92,.49,.39,1.09,.73,1.66,.97,.45,.19,.98,.44,1.47,.41,.29-.01,.47-.04,.49-.37v-.09c0,.07,0,.14,0,.21,.07-.93,.57-1.73,1.3-2.3l-.17,.13c.51-.38,1.06-.6,1.67-.72,.21-.04-.11-.02,.01,0,.07,.01,.16,0,.23,0,.08,0,.15,.02,.23,.01,.18,0-.41-.06-.1,0s-.41-.13-.19-.06c.17,.05,.44,.19-.26-.11,.36,.15-.49-.25-.56-.3-.22-.13-.28-.17-.17-.1,.04,.02,.08,.05,.11,.07,0,0-.51-.37-.27-.18-.5-.4-.23-.21-.12-.1,.04,.04,.08,.1,.13,.13-.16-.19-.2-.24-.13-.14,.03,.04,.06,.07,.09,.11,.09,.12,.18,.25,.26,.38,.03,.05,.06,.11,.09,.16-.13-.23-.02-.04,0,.02,.25,.59,.38,1.2,.36,1.84v-.21c-.05,1.13-.63,2.1-1.52,2.78l.17-.13c-.58,.42-1.24,.71-1.94,.84-.08,.02-.17,.03-.25,.04,.3-.04,.04,0-.04,0-.18,0-.37,0-.55-.01-.34-.02,.23,.06,.08,.01-.03,0-.27-.08-.29-.06l.34,.09c-.05-.02-.11-.03-.16-.05,.09,0,.63,.25,.25,.09,.45,.23,.59,.29,.41,.2-.18-.1-.05-.02,.39,.23-.32-.21,.51,.38,.21,.15-.27-.21,.36,.35,.14,.12-.06-.06-.11-.13-.18-.18,.35,.29,.13,.15,.04,.02-.05-.07-.1-.14-.14-.21s-.08-.15-.13-.22c-.04-.08-.03-.05,.04,.08-.02-.05-.05-.1-.07-.15-.29-.66-.4-1.37-.37-2.08v.21c.06-1.11,.51-2.17,1.38-2.89,.21-.17-.37-.76-.4-.8-.4-.41-.96-.76-1.46-1.02s-1.08-.55-1.66-.65c-.32-.06-.62-.12-.89,.1h0Z" fill="#7d0808"></path></g><g id="rocket"><g><g><path class="cls-4" d="M165.08,156.8c10.12,2.88,21.29-1.1,29.12-8.12,7.83-7.02,12.79-16.69,16.53-26.53-5.19,1.2-10.39,2.4-15.58,3.6-.88,.2-1.78,.41-2.57,.87-1.12,.64-1.92,1.71-2.73,2.71-3.43,4.25-7.61,7.83-11.76,11.38-5.96,5.09-11.91,10.19-17.87,15.28,.93,.43,1.97,.63,2.99,.56"></path><path class="cls-4" d="M163.89,157.39c8.12,2.24,16.92,.45,24.2-3.54,7.58-4.16,13.35-10.74,17.66-18.15,2.55-4.39,4.6-9.04,6.41-13.78,.24-.63-1.42-.29-1.57-.26-4.3,.99-8.6,1.99-12.9,2.98-1.87,.43-3.88,.73-5.62,1.57-1.58,.76-2.61,2.06-3.69,3.39-5.2,6.37-11.91,11.46-18.13,16.78-3.78,3.24-7.57,6.47-11.35,9.71-.25,.22-.1,.41,.14,.51,1.16,.49,2.32,.64,3.56,.6,.51-.01,1.65-.21,1.93-.71,.3-.52-.26-.56-.7-.55-.86,.02-1.64-.19-2.43-.52l.14,.51c6.19-5.29,12.38-10.58,18.56-15.88,2.94-2.52,5.87-5.06,8.52-7.88,1.24-1.32,2.34-2.76,3.53-4.11,.57-.64,1.17-1.22,1.99-1.51,.91-.31,1.9-.46,2.84-.68,4.62-1.07,9.25-2.14,13.87-3.2l-1.57-.26c-5.45,14.28-14.32,29.87-30.26,33.92-4.2,1.07-8.59,1.05-12.77-.11-.64-.17-1.46,.05-2.03,.35-.27,.14-.98,.65-.34,.82h0Z"></path></g><g><path class="cls-4" d="M127.95,96.37c2.01-10.33,10.6-18.49,20.41-22.31,9.8-3.81,20.67-3.87,31.13-2.75-3.42,4.09-6.83,8.18-10.25,12.27-.58,.7-1.18,1.4-1.93,1.9-1.08,.71-2.39,.94-3.65,1.21-5.34,1.14-10.42,3.25-15.47,5.34-7.24,3.01-14.47,6.02-21.71,9.03,.04-1.03,.33-2.04,.85-2.92"></path><path class="cls-4" d="M129.42,96.27c1.43-7.07,5.99-13.02,11.79-17.15,6.64-4.74,14.74-6.74,22.79-7.23,5-.3,10.01-.03,14.99,.49l-.72-1.5c-2.67,3.2-5.34,6.39-8.01,9.59-1.15,1.37-2.29,3.25-3.79,4.25s-3.67,1.07-5.37,1.52c-7.71,2.04-15.04,5.55-22.39,8.61-4.3,1.79-8.59,3.57-12.89,5.36l2.11,.76c.07-.97,.31-1.79,.77-2.64,.78-1.44-2.16-1.49-2.77-.35-.54,1.01-.85,2.06-.93,3.2s1.43,1.04,2.11,.76c7.81-3.25,15.62-6.52,23.44-9.75,3.7-1.53,7.43-2.99,11.31-4,1.83-.47,3.81-.67,5.52-1.52s2.72-2.24,3.86-3.61c3.15-3.77,6.3-7.54,9.45-11.31,.56-.67,.08-1.42-.72-1.5-17.06-1.79-36.82-.07-48.11,14.59-2.65,3.44-4.53,7.38-5.39,11.64-.29,1.44,2.67,1.1,2.94-.21h0Z"></path></g></g><g><path class="cls-2" d="M128.85,181.09c-5.68,3.58-11.61,6.71-17.9,9.09-21.74,8.25-68.28,1.82-67.88-.05-1.84-.49,13.46-44.91,30.64-60.57,4.97-4.53,10.44-8.4,16.2-11.86,6.06-3.78,12.49-6.97,18.96-10.02,19.02-8.97,38.51-16.95,58.36-23.91l26.83,43.68c-15.18,14.56-31.11,28.33-47.71,41.25-5.64,4.39-11.39,8.69-17.51,12.38Z"></path><path class="cls-2" d="M127.73,181.01c-6.84,4.29-14.22,8.32-22.11,10.27-5.97,1.48-12.18,2.01-18.31,2.25-11.75,.46-23.7-.19-35.33-1.98-1.85-.28-3.72-.6-5.54-1.06-.51-.13-1.05-.26-1.54-.47-.13-.06-.11-.02-.31-.16-.13-.09-.08-.09-.09,.03,.03-.21-.04-.27-.25-.34,.34,.12,.06,.13,.12-.18,.05-.26,.03-.55,.07-.81,.15-.96,.41-1.91,.67-2.85,.89-3.24,2.01-6.42,3.19-9.57,3.36-9.03,7.32-17.87,11.97-26.31,4.84-8.78,10.42-16.95,18.23-23.34,12.04-9.83,26.34-16.46,40.41-22.8,15.99-7.22,32.29-13.72,48.84-19.53-.65,0-1.31,0-1.96,.01,6.01,9.79,12.02,19.57,18.03,29.36,2.78,4.52,5.56,9.04,8.33,13.57,.09,.15,.28,.35,.32,.53,.13,.47,.04-.12-.07,.25-.15,.5-1.3,1.24-1.72,1.64-.69,.65-1.38,1.31-2.07,1.96-1.38,1.3-2.77,2.6-4.16,3.88-5.57,5.15-11.25,10.2-17.01,15.14-6.42,5.5-12.95,10.87-19.6,16.1-6.49,5.11-13.06,10.14-20.12,14.43-.53,.32-.29,.61,.19,.7,.64,.13,1.51-.22,2.05-.55,9.35-5.68,17.93-12.59,26.43-19.46,8.55-6.91,16.92-14.05,25.09-21.42,4.7-4.23,9.33-8.54,13.9-12.92,.1-.08,.14-.18,.13-.3-3.01-4.91-6.03-9.82-9.04-14.72-4.81-7.84-9.63-15.67-14.44-23.51-1.12-1.82-2.23-3.63-3.35-5.45-.33-.54-1.55-.13-1.96,.01-15.11,5.3-30.02,11.2-44.67,17.66-14.35,6.33-28.9,12.84-41.65,22.1-4.69,3.4-9.13,7.14-12.81,11.64-3.15,3.86-5.89,8.06-8.4,12.36-5.1,8.73-9.35,17.99-12.98,27.42-1.33,3.44-2.58,6.91-3.63,10.45-.33,1.12-.65,2.24-.88,3.39-.1,.51-.38,1.36-.21,1.89,.08,.23,.16,.34,.4,.43l-.25-.34c-.17,1.33,5.37,1.92,6.13,2.05,5.25,.91,10.56,1.47,15.87,1.88,13.43,1.02,27.42,1.26,40.64-1.65,9.21-2.03,17.76-6.51,25.69-11.48,.52-.33,.3-.61-.19-.7-.64-.13-1.52,.22-2.05,.55Z"></path></g><g><path class="cls-1" d="M108.88,107.69c.3-.14,.6-.28,.9-.42-2.06,12.54-3,25.27-2.79,37.98,.03,2,.16,4.17,1.47,5.68,1,1.14,2.5,1.69,3.93,2.18,10.85,3.77,21.71,7.54,32.56,11.31,1.59,.55,3.17,1.1,4.76,1.64-1.11,.88-2.22,1.77-3.35,2.64-5.64,4.39-11.39,8.69-17.51,12.38-5.68,3.58-11.61,6.71-17.9,9.09-21.74,8.25-68.28,1.82-67.88-.05-1.84-.49,13.46-44.91,30.64-60.57,4.97-4.53,10.44-8.4,16.2-11.86,6.06-3.78,12.49-6.97,18.96-10.02Z"></path><path class="cls-2" d="M109.51,108.53c.3-.14,.6-.28,.9-.42l-2.1-.72c-1.94,11.91-2.9,23.96-2.82,36.02,.02,2.38-.17,5.08,1.01,7.24s3.4,2.86,5.51,3.59c5.82,2.02,11.64,4.04,17.46,6.06,6.46,2.24,12.92,4.51,19.39,6.72l-.12-1.61c-8.9,7.03-17.99,13.87-28.04,19.19-4.16,2.2-8.5,4.27-13.02,5.6-3.26,.96-6.62,1.58-9.99,2.02-14.28,1.86-29.08,1.19-43.33-.69-2.54-.34-5.09-.7-7.59-1.26-.39-.09-1.33-.31-1.92-.52-.12-.04-.23-.09-.35-.13-.31-.12,.02-.03-.03-.01-.12,.03-.2-.27-.09-.04,.04,.08,.19,.22,.17,.45,.05-.42-.26-.72-.63-.85,.36,.13,.33,.31,.5,.45,0,0-.04-.15-.03-.16-.03,.02,0,.3,.01,.02,0-.11,.01-.22,.02-.32,.06-.58,.19-1.16,.32-1.72,.45-1.92,1.05-3.8,1.67-5.67,1.97-5.93,4.31-11.74,6.86-17.45,3.07-6.88,6.47-13.64,10.44-20.05,3.76-6.09,8.07-11.7,13.56-16.31,9.66-8.11,20.9-14.06,32.26-19.42,.53-.25,1.1-.88,.69-1.47s-1.42-.46-1.96-.2c-10.55,4.98-20.99,10.47-30.23,17.65-3.32,2.58-6.5,5.34-9.25,8.53-2.36,2.74-4.47,5.69-6.44,8.72-7.87,12.09-13.96,25.64-18.56,39.3-.76,2.25-1.5,4.53-2.02,6.85-.21,.95-.77,2.75,.49,3.2l-.63-.85c-.14,1.11,1.66,1.49,2.43,1.7,2,.54,4.06,.89,6.11,1.21,6.58,1.03,13.24,1.61,19.89,1.93,8.06,.39,16.18,.39,24.21-.4,3.77-.37,7.55-.93,11.24-1.8,4.16-.99,8.13-2.55,12-4.36,12.06-5.62,22.79-13.6,33.17-21.81,.6-.47,.74-1.32-.12-1.61-11.04-3.78-22.05-7.65-33.08-11.48-1.34-.46-2.67-.93-4.01-1.39-1.15-.4-2.42-.78-3.35-1.6-1.83-1.63-1.65-4.49-1.68-6.71-.06-5.78,.12-11.57,.53-17.34,.46-6.5,1.23-12.98,2.28-19.42,.18-1.1-1.52-.99-2.1-.72-.3,.14-.6,.28-.9,.42-.53,.25-1.1,.89-.69,1.47s1.42,.46,1.96,.2Z"></path></g><g><g><path class="cls-4" d="M71.25,194.08c-15.45-.69-28.39-2.95-28.17-3.94-.98-.26,2.85-12.82,9.22-26.91l18.96,30.86Z"></path><path class="cls-2" d="M71.83,193.32c-6.4-.29-12.8-.83-19.14-1.76-2.01-.29-4.02-.62-5.99-1.08-.56-.13-1.12-.26-1.65-.47-.17-.07-.34-.14-.51-.22,0,0,0-.13-.01,.14,.02-.23-.05-.36-.28-.46,.27,.12,.13,.22,.14-.06,0-.16,.01-.3,.03-.46,.06-.6,.21-1.2,.35-1.79,.48-2.02,1.12-4.01,1.78-5.99,2.07-6.18,4.53-12.22,7.2-18.16-.96,.2-1.93,.39-2.89,.59,5.53,9.01,11.07,18.02,16.6,27.03,.78,1.28,1.57,2.55,2.35,3.83,.55,.89,3.3-.13,2.9-.78-5.53-9.01-11.07-18.02-16.6-27.03-.78-1.28-1.57-2.55-2.35-3.83-.53-.87-2.54-.19-2.89,.59-2.81,6.24-5.4,12.61-7.52,19.12-.63,1.93-1.25,3.88-1.65,5.86-.13,.62-.58,2.05,.23,2.39l-.28-.46c-.06,.89,1.53,1.16,2.16,1.33,2,.55,4.06,.89,6.12,1.21,6.87,1.07,13.82,1.64,20.76,1.96,.55,.03,1.64-.22,1.92-.76,.3-.58-.26-.72-.76-.75Z"></path></g><g><path class="cls-4" d="M155.76,87.94c3.81-1.42,7.64-2.82,11.48-4.17l26.83,43.68c-2.94,2.82-5.91,5.6-8.9,8.36l-29.4-47.86Z"></path><path class="cls-2" d="M156.28,88.34c3.81-1.42,7.64-2.82,11.48-4.17h-1.97c3.41,5.55,6.83,11.1,10.24,16.66,4.92,8.01,9.85,16.03,14.77,24.04,.5,.81,1.41,1.82,1.68,2.74,.02,.06,.13,.14,.13,.2,0-.13-.79,.57-.56,.38-.56,.46-1.07,1.02-1.59,1.51-2.19,2.07-4.39,4.12-6.61,6.16,.92-.15,1.85-.31,2.77-.46-3.32-5.4-6.63-10.8-9.95-16.2-5.28-8.6-10.56-17.19-15.84-25.79-1.2-1.96-2.41-3.92-3.61-5.88-.48-.78-3.19,.29-2.9,.78,3.32,5.4,6.63,10.8,9.95,16.2,5.28,8.6,10.56,17.19,15.84,25.79,1.2,1.96,2.41,3.92,3.61,5.88,.47,.76,2.31-.03,2.77-.46,2.99-2.76,5.97-5.54,8.9-8.36,.1-.08,.14-.19,.13-.32-3.01-4.91-6.03-9.82-9.04-14.72-4.81-7.84-9.63-15.67-14.44-23.51-1.12-1.82-2.23-3.63-3.35-5.45-.34-.55-1.53-.16-1.97,0-3.84,1.35-7.66,2.74-11.48,4.17-.35,.13-1.12,.45-.84,.91,.25,.42,1.6,0,1.88-.11Z"></path></g></g><g><path class="cls-4" d="M145.14,131.74c-1.94,.75-5.55,.04-5.41-.99-.98-.34,.02-3.88,1.56-5.27,3.99-7.86,12.2-15.69,21.55-20.93,10.92-6.13,23.05-8.87,33.16-8.38,0,0-.01,.01-.02,.02,0,0,.02,0,.03,0-4.14,9.24-12.06,18.82-22.46,25.79-8.9,5.97-19.6,9.76-28.41,9.76Z"></path><path class="cls-1" d="M144.63,131.39c-.69,.24-3.43,.03-3.45-1.03l-.09-.11c-1.05-.55,.36-3.29,.75-3.92,.42-.67,.92-1.19,1.3-1.9,.5-.92,1.05-1.82,1.63-2.7,2.51-3.78,5.67-7.13,9.11-10.09,7.5-6.45,16.57-11.03,26.18-13.35,4.9-1.19,9.97-1.74,15.01-1.52l-.38-.51-.02,.02c-.62,.72,1.2,.43,1.44,.37h.03c-.52-.08-1.04-.15-1.56-.22-6.7,14.81-20.29,26.88-35.58,32.24-4.15,1.45-8.52,2.43-12.93,2.46-.65,0-1.53,.12-2.05,.55-.36,.3-.47,.67,.18,.66,8.71-.05,17.36-2.92,24.97-7.02,8.07-4.35,15.28-10.34,20.96-17.54,2.89-3.66,5.39-7.6,7.31-11.85,.26-.58-1.45-.24-1.56-.22h-.03c.48,.13,.96,.25,1.44,.37l.02-.02c.3-.34-.04-.49-.38-.51-11.86-.53-23.97,2.77-34.33,8.44-5.28,2.89-10.19,6.46-14.46,10.71-2,1.98-3.84,4.12-5.48,6.42-.76,1.07-1.48,2.18-2.13,3.32-.57,1.01-1.34,1.88-1.86,2.91-.67,1.33-1.37,3.42,.06,4.5,1.77,1.33,4.98,.88,6.89,.22,.31-.11,1.14-.42,.86-.85-.26-.39-1.59,.06-1.87,.15Z"></path></g><g><path class="cls-4" d="M79.37,170.91c-7.16-8.29-8.43-21.02-3.45-30.81,4.97-9.79,15.72-16.26,26.7-16.53,10.98-.27,21.8,5.46,28.11,14.41,1.78,2.53,3.24,5.33,3.95,8.35,.63,2.67,.65,5.46,.31,8.18-1.44,11.75-10.02,22.36-21.22,26.25-11.2,3.89-24.49,.88-32.87-7.45"></path><path class="cls-4" d="M80.72,170.35c-7.58-8.91-8.42-22.62-2.18-32.49,6.25-9.89,18.23-15.15,29.72-12.99,5.92,1.11,11.48,3.93,15.97,7.92,4.69,4.17,8.66,9.81,9.38,16.17,1.33,11.62-5.83,23.53-15.79,29.16-11.41,6.44-26.37,3.66-35.58-5.37-.7-.68-3.43,.39-2.7,1.11,9.07,8.9,23.06,11.61,34.96,7.39,11.4-4.04,20.36-14.71,21.91-26.76,.48-3.69,.29-7.47-1.03-10.98-1.17-3.12-3.05-6.01-5.21-8.54-4.23-4.94-9.92-8.68-16.13-10.63-12.14-3.8-25.84-.34-34.62,8.92-8.7,9.17-10.54,23.53-4.05,34.48,.78,1.31,1.66,2.54,2.65,3.7,.62,.73,3.4-.29,2.7-1.11h0Z"></path></g><g><path class="cls-1" d="M82.49,168.6c-6.24-7.23-7.35-18.34-3.01-26.88,4.34-8.54,13.72-14.19,23.3-14.42,9.58-.24,19.02,4.77,24.53,12.58,1.56,2.21,2.83,4.65,3.45,7.28,.55,2.33,.57,4.76,.27,7.14-1.26,10.25-8.74,19.51-18.52,22.91-9.78,3.4-21.37,.77-28.69-6.5"></path><path class="cls-4" d="M83.82,167.97c-6.56-7.74-7.27-19.47-1.88-28.04,5.29-8.39,15.54-12.85,25.27-11.3,5.08,.81,9.86,3.15,13.79,6.44,4.15,3.47,7.77,8.41,8.56,13.87,1.46,10.09-4.85,20.73-13.54,25.58-9.89,5.52-22.85,3.41-30.88-4.45-.89-.88-3.64,.29-2.66,1.25,7.92,7.76,20.16,10.43,30.61,6.7s18.06-13.09,19.39-23.85c.41-3.31,.18-6.71-1.06-9.84-1.13-2.86-2.89-5.49-4.94-7.77-3.71-4.12-8.54-7.24-13.84-8.9-10.69-3.37-22.72-.24-30.38,7.98-8.51,9.13-9.28,23.96-1.11,33.59,.81,.96,3.58-.17,2.66-1.25h0Z"></path></g></g><g id="character"><g><path class="cls-2" d="M81.99,146.19c-1.44-4.6,2.16-9.57,6.66-11.28,4.5-1.71,9.53-.98,14.24,.03,3.26,.7,6.49,1.51,9.68,2.45,3.39,.99,6.83,2.17,9.5,4.48,4.67,4.06,5.98,11.18,4,17.05s-6.83,10.46-12.39,13.19c-3.01,1.47-6.33,2.47-9.67,2.23-4.32-.31-8.25-2.65-11.62-5.37-6.48-5.22-10.31-14.44-10.39-22.77"></path><path class="cls-2" d="M82.72,145.99c-1.11-3.9,1.22-7.79,4.51-9.82,4.15-2.56,9.54-1.89,14.08-1,4.67,.92,9.4,2.06,13.89,3.65,4.1,1.46,7.72,3.82,9.58,7.89,3.44,7.49,.38,15.89-5.56,21.09-3.31,2.9-7.58,5.26-11.97,5.89-4.72,.68-9.06-1.26-12.8-3.99-7.41-5.4-11.57-14.47-11.72-23.57-.01-.74-1.48-.51-1.47,.12,.14,8.69,3.83,17.74,10.72,23.25,3.67,2.94,8.04,5.38,12.86,5.38,4.86,0,9.67-2.19,13.54-5.01,6.86-5.01,11.29-13.59,8.43-22.06-1.44-4.26-4.55-7.25-8.61-9.07-4.79-2.15-10.18-3.28-15.29-4.36-5.28-1.11-11.37-1.92-16.26,.93-3.78,2.2-6.66,6.61-5.39,11.08,.18,.65,1.63,.26,1.45-.39h0Z"></path></g><path class="cls-1" d="M67.07,133.98c.82,1.4,2.65,1.97,4.1,1.27,2.02,2.7,4.74,4.8,7.83,6.05,1.94,.79,4.22,1.22,6.24,.29,1.63-.76,2.86-2.34,3.59-4.06,.74-1.74,1.02-3.64,1.24-5.52,.53-4.45,.74-9.12-.61-13.32-.88-2.76-2.57-5.32-5.14-6.2-1.87-.64-4.01-.3-5.95,.5-1.91,.79-3.66,2-5.37,3.18-3.08,2.13-6.25,5.06-6.43,9.24-.06,1.4,1.13,2.84,.95,4.01-.1,.69-.84,1.38-.92,2.24-.08,.81,.07,1.65,.47,2.32Z"></path><path class="cls-4" d="M69.57,130.5c-1.44,.15-2.72,1.05-2.87,2.57-.12,1.23,.54,2.43,1.69,2.91,1.38,.57,2.87-.18,3.94-1.04,.27-.21,.51-.45,.63-.78,.11-.3,.14-.65,.14-.96,.01-.65-.14-1.3-.45-1.87s-.83-1.15-1.52-1.3c-.8-.17-1.9,.12-2.42,.77-.19,.25,.17,.28,.35,.27,.28-.02,.78-.11,.97-.35,.03-.04,.17-.15,.19-.19,.12-.31-.23,.14-.29,.09,.04,.03,.17,.04,.23,.06,.12,.04,.22,.11,.32,.18,.38,.28,.66,.67,.85,1.09s.31,.9,.33,1.37,0,1.03-.29,1.4c-.26,.33-.72,.63-1.09,.81-.1,.05-.1,.04-.02,.02,.06-.02-.06,0-.07,0-.19,0-.39-.06-.56-.13-.81-.33-1.33-1.15-1.45-1.99-.08-.54,0-1.1,.24-1.58,.11-.22,.25-.41,.44-.57,.06-.05,.12-.1,.18-.14,.1-.07,.02-.01-.08,0,.31-.03,.76-.1,.97-.35s-.18-.28-.35-.27h0Z"></path><path class="cls-4" d="M72.68,131.81c.29-.3,.57-.59,.86-.89,.06-.06,.09-.13,.1-.21,.03-.07,.03-.15,0-.22-.04-.15-.17-.27-.31-.32-.18-.06-.37-.07-.55-.02l-.19,.07c-.11,.05-.2,.13-.28,.22-.29,.3-.57,.59-.86,.89-.06,.06-.09,.13-.1,.21-.03,.07-.03,.15,0,.22,.04,.15,.17,.27,.31,.32,.18,.06,.37,.07,.55,.02l.19-.07c.11-.05,.2-.13,.28-.22h0Z"></path><path class="cls-4" d="M74.03,125.66c-1.33,.52-2.1,1.96-1.98,3.35,.06,.7,.36,1.4,.84,1.93,.54,.61,1.2,.9,2.02,.83,1.48-.11,3.03-.55,3.74-1.98,.61-1.22,.53-2.87-.25-4-.45-.66-1.19-1.1-1.99-1.2-.75-.09-2.18,.14-2.23,1.12-.04,.75,1.43,.55,1.47-.11,0,.02-.17,.09-.17,.1,0-.04,.23-.05,.26-.05,.17,0,.36,.03,.53,.1,.42,.17,.74,.52,.96,.92,.45,.84,.48,1.97,.1,2.83s-1.16,1.07-2.03,1.17c-.19,.02-.4,.07-.58,0-.2-.08-.38-.26-.52-.42-.33-.38-.54-.82-.64-1.31-.19-.95,.24-2.09,1.13-2.44,.27-.11,.55-.47,.34-.75-.22-.31-.69-.22-.98-.11h0Z"></path><path class="cls-4" d="M68.21,133.48c.37,.26,.74,.52,1.11,.78,.13,.09,.34,.11,.49,.1,.18-.02,.4-.08,.55-.2,.11-.09,.25-.21,.26-.37,0-.14-.05-.25-.17-.34-.37-.26-.74-.52-1.11-.78-.13-.09-.34-.11-.49-.1-.18,.02-.4,.08-.55,.2-.11,.09-.25,.21-.26,.37,0,.14,.05,.25,.17,.34h0Z"></path><path class="cls-4" d="M73.6,128.82c.09,.15,.19,.3,.31,.43s.27,.23,.43,.33c.07,.03,.14,.04,.21,.04,.09,.01,.17,0,.26,0,.1-.01,.2-.04,.29-.07,.09-.03,.18-.06,.26-.11l.13-.09c.07-.05,.12-.12,.15-.2v-.1c-.02-.07-.07-.12-.14-.14-.01,0-.02-.01-.03-.02l.09,.06c-.22-.14-.4-.33-.53-.55l.05,.08s-.02-.03-.03-.04c-.02-.05-.05-.09-.1-.11-.05-.04-.11-.06-.18-.07-.08-.01-.17-.02-.25,0-.1,0-.19,.02-.29,.05l-.19,.06c-.11,.04-.21,.1-.3,.17l-.1,.1c-.05,.06-.07,.12-.05,.2h0Z"></path><path class="cls-4" d="M73.32,133.54c.03,.65,.09,1.29,.42,1.86s1.02,.86,1.68,.83c.45-.02,.94-.23,1.24-.59,.09-.1,.16-.24,.13-.38-.04-.13-.17-.23-.3-.26-.18-.05-.37-.05-.55,0s-.36,.13-.48,.27c-.01,.02-.03,.03-.04,.05-.07,.08,.04-.05,.06-.05-.01,0-.04,.03-.05,.04-.09,.07,.07-.05,.09-.05-.02,0-.04,.02-.06,.03-.06,.03,.21-.06,.11-.04-.02,0-.04,0-.06,.01-.06,.02,.22-.03,.11-.02-.02,0-.03,0-.05,0-.11,.01,.19,.01,.09,0-.04,0-.08,0-.11-.01-.07,0,.17,.04,.08,.01-.02,0-.04-.01-.06-.02-.05-.01-.09-.03-.14-.05l.14,.06c-.11-.05-.22-.12-.31-.2l.1,.09c-.13-.12-.23-.27-.32-.43l.06,.11c-.22-.43-.28-.92-.31-1.4v.13s0-.09,0-.13c0-.15-.04-.24-.17-.33s-.34-.11-.49-.09c-.19,.02-.39,.08-.55,.2-.1,.08-.27,.22-.26,.36h0Z"></path><path class="cls-4" d="M70.36,135.56c2.28,3.24,5.61,5.53,9.36,6.77,.33,.11,.8-.01,1.02-.27s.15-.53-.17-.64c-3.57-1.18-6.71-3.38-8.88-6.47-.34-.49-1.73,.04-1.33,.61h0Z"></path><path class="cls-4" d="M68.61,128.83c-.58-.7-.89-1.69-.89-2.58,0-.14-.04-.24-.16-.31-.13-.08-.34-.1-.49-.08-.19,.02-.39,.08-.55,.19-.1,.08-.26,.2-.26,.35,0,1.1,.32,2.18,1.02,3.04,.21,.26,.71,.19,.97,.06,.22-.11,.59-.39,.36-.67h0Z"></path><path class="cls-4" d="M68.39,126.35c-.51,1.17-1.56,3.08-3.11,2.76-1.08-.22-1.76-1.21-1.92-2.24-.08-.48-1.24,0-1.39,.2-1.04,1.35-2.46-.6-2.78-1.44-.37-1-.31-1.94-.28-2.99,.02-.86-.62-1.27-1.02-2.08-.45-.91-.72-1.93-.62-2.95,.11-1.14,.58-1.7,1.34-2.5,.5-.52,.49-.93,.51-1.61,.08-2.45,1.76-5.52,4.64-4.05,.37,.19,1.13-.05,1.3-.43,.42-.9,1.09-1.5,1.97-1.95,.72-.37,2.12-1.16,2.35,.09,.09,.47,1.35,.04,1.45-.3,.34-1.19,1.04-2.41,2.33-2.67s2.29,.61,2.88,1.66c.22,.39,1.2,.13,1.39-.2,.97-1.66,2.73-2.23,4.48-1.37,1.72,.84,2.89,2.55,3.85,4.14,.15,.25,.57,.2,.81,.13,4.19-1.28,6.66,3.27,5.95,6.83-.09,.45,.82,.22,1,.16,1.48-.5,2.84,1.7,3.26,2.78,.39,.99,.54,2.06,.51,3.11-.08,2.3-1.04,4.57-2.83,6.04-.14,.11-.24,.34,0,.42,2.09,.7,.72,3.74-.33,4.7-2.08,1.88-4.7,.06-4.86-2.39-.03-.41-1.48-.12-1.45,.39,.22,3.31,3.86,4.34,6.45,2.9,1.21-.68,2.29-1.86,2.6-3.24,.27-1.17,.01-2.58-1.25-3.01v.42c2.29-1.89,3.43-4.92,3.08-7.87-.35-2.92-2.52-5.85-5.72-4.77l1,.16c.45-2.26-.06-4.8-1.89-6.33-1.59-1.33-3.74-1.53-5.67-.94l.81,.13c-1.31-2.17-3.06-4.58-5.78-4.89-2.08-.24-4.26,.69-5.33,2.52l1.39-.2c-2.12-3.72-7.06-2.04-8.1,1.6l1.45-.3c-.33-1.79-2.5-1.04-3.6-.57-1.53,.64-2.89,1.48-3.61,3.02l1.3-.43c-2.31-1.17-5.19-.2-6.47,2.01-.33,.57-.57,1.2-.69,1.86-.17,.92,.1,1.73-.57,2.47-.9,1-1.42,1.93-1.39,3.34,.02,.8,.22,1.57,.55,2.29,.29,.64,1.03,1.39,1.11,2.08,.07,.63-.1,1.29-.02,1.94,.09,.71,.3,1.41,.68,2.02,1.14,1.83,3.86,1.96,5.18,.26l-1.39,.2c.28,1.81,1.99,2.9,3.77,2.63,2.04-.31,3.37-1.95,4.15-3.74,.17-.39-1.25-.24-1.44,.2h0Z"></path><path class="cls-4" d="M86.63,129.94c1.1,.25,2.31-.17,3.16-.87,.85-.7,1.33-1.75,1.36-2.85,.02-1-.27-2.11-1.03-2.8-.91-.83-2.27-.67-3.26-.06-1.18,.74-1.69,1.99-2.13,3.25-.11,.31,.46,.32,.62,.3,.29-.04,.72-.18,.82-.49,.33-.94,.73-2.25,1.71-2.72,.23-.11,.5-.02,.75,.16,.39,.29,.66,.73,.83,1.18,.36,.96,.34,2.11-.18,3.02-.22,.39-.53,.74-.93,.97-.13,.08-.3,.14-.35,.15-.17,.03-.3,.02-.48-.02-.33-.08-.77,.05-1.02,.27-.23,.21-.16,.43,.13,.5h0Z"></path><path class="cls-4" d="M67.62,123.33c1.65,1.28,3.92,1.2,5.72,.26s2.99-3.02,2.88-5.11l-1.45,.39c1.58,2.53,5.19,.26,6.82-.97l-1.38,.26c.15,2.09,.78,5.77,3.49,5.76,.31,0,.78-.06,1.02-.27,.17-.15,.25-.29-.08-.29-1.28,0-1.85-1.15-2.25-2.18-.43-1.09-.65-2.24-.74-3.4-.02-.33-1.26,.17-1.38,.26-.64,.49-1.45,1.23-2.27,1.36-.72,.11-1.42-.32-1.79-.91-.17-.28-1.47,.06-1.45,.39,.08,1.46-.47,2.93-1.51,3.97-1.26,1.25-2.93,1.05-4.27,.01-.3-.23-1.55,.34-1.37,.48h0Z"></path><path class="cls-4" d="M59.01,121.09c-.92,1.83,.11,3.99,2.26,3.93,.68-.02,1.18-.91,.31-1.09-1.28-.27-1.39-2.19-.89-3.11,.36-.67-.85-.74-1.18-.44-1.1,.99-1.65,2.64-1.03,4.05s2.14,1.97,3.55,1.56c.31-.09,.95-.66,.42-.94-1.69-.89-2.2-3.11-1.59-4.82l-1.43-.04c-.23,2.02,.42,4.78,2.91,4.86,.38,.01,1.31-.33,.91-.87-1.22-1.62-2.31-3.32-3.26-5.11-.25-.47-1.01-.16-1.27,.1,.06-.06-.28-.32-.32-.39-.14-.22-.17-.49-.18-.74-.03-.62,.15-1.23,.34-1.82,.25-.82-1.13-.79-1.39-.19-1,2.33-.02,5.55,2.66,6.14,.44,.1,1.45-.58,.8-.97-1.45-.88-1.8-2.87-1.21-4.38l-1.43-.04c.12,2.01,.97,3.92,2.69,5.05,.36,.23,1.56,0,1.28-.62-.49-1.08-1.35-1.67-2.11-2.53-.56-.64-1.21-2.12-.37-2.8l-1.21-.15c-.09,.21-.04,.3,.15,.27l.05,.66c.64-.93,1.75-1.57,2.84-.96l.8-.97c-1.93-.25-1.71-3.55,.02-3.96l-.87-.47c-.45,1.66-1.14,3.25-2.09,4.69l1.27-.1c-.44-.79-.08-2.02,.63-2.54,1.02-.74,2.21,.37,2.78,1.16l1.22-.75c-1.1-.6-2.2-1.2-3.3-1.8-.41-.22-1.45-.05-1.28,.62,.56,2.18,1.13,4.37,1.69,6.55,.48-.13,.97-.26,1.45-.39-.63-1.72-1.4-3.37-2.34-4.94-.32-.54-1.52-.11-1.39,.52,.63,2.89,1.5,5.71,2.64,8.44,.28,.66,1.7,.28,1.45-.39-1.06-2.76-2.42-5.38-4.1-7.8-.34-.49-1.55-.13-1.39,.52,.76,3.05,1.85,5.99,3.28,8.78l1.32-.65c-1.33-2.52-2.65-5.04-3.98-7.56-.29-.54-1.56-.1-1.39,.52,.58,2.11,1.39,4.16,2.44,6.08,.5,.91,1.05,1.79,1.66,2.62,.52,.71,1.07,1.46,2.01,1.51,.35,.02,1.15-.22,.97-.74-.83-2.42-2.12-4.65-3.9-6.5-.36-.37-1.68-.15-1.39,.52,1.05,2.42,2.46,4.63,4.29,6.53,.36,.38,1.63,.18,1.39-.52-.76-2.17-1.9-4.17-3.46-5.87-.37-.4-1.6-.17-1.39,.52,.51,1.63,1.15,3.2,1.93,4.72,.63,1.23,1.28,2.52,2.73,2.84,.33,.07,.98-.18,.98-.59,0-1.67-1.21-3.99-3.2-3.82-2.3,.19-.86,3.24,.31,3.95,1.29,.77,3.64-.23,3.28-1.94-.4-1.92-2.99-1.41-3.61,.07-.75,1.79,.87,3.4,2.65,3.21,1.83-.2,3.42-2.14,2.79-3.99-.58-1.69-3.17-1.68-3.74,.02-.23,.69,0,1.56,.68,1.9,.8,.4,1.78-.05,2.29-.71,.63-.83,.59-2,.52-2.98-.09-1.15-.34-2.28-.79-3.34-.62-1.46-2.11-4.06-4.06-2.86s-.4,4.23,.29,5.66c.45,.94,.99,2.04,1.76,2.76,.62,.58,1.62,.61,2.16-.1,.57-.75,.2-1.91,0-2.73-.29-1.16-.7-2.27-1.23-3.34-.36-.74-.85-2.06-1.76-2.25-.79-.16-1.42,.44-1.63,1.14-.3,.97-.03,2.16,.13,3.14,.2,1.21,.52,2.4,.95,3.55,.37,1,.81,2.21,1.48,3.06,.52,.66,1.51,.59,2.03-.04,.61-.76,.4-2,.28-2.88-.12-.92-.32-2.43-1.01-3.12-.57-.58-1.5-.22-1.9,.37-.52,.77-.4,1.92-.25,2.79,.17,1,.59,2.05,1.27,2.82,.54,.62,1.48,.82,2.1,.17,.61-.65,.36-1.83,.23-2.62-.17-1.05-.52-2.07-1.01-3.02s-1.1-1.72-1.85-2.44c-.37-.36-1.22,0-1.29,.48-.16,1.11,.24,4.07,2,3.5,.69-.22,.85-.86,.8-1.51-.08-1.03-.36-2.08-.67-3.06-.6-1.87-1.53-3.67-2.79-5.18-.48-.58-1.04-1.15-1.86-.99-.74,.14-1.11,.78-1.01,1.5,.27,1.93,1.31,3.97,2.46,5.51,.83,1.11,2.61,2.33,3.76,.83,1.05-1.36-.26-3.86-.95-5.11-.6-1.08-2.04-3.3-3.53-2.03-.8,.69-.35,1.87-.12,2.72,.3,1.12,.7,2.21,1.2,3.26,.76,1.61,1.88,4.22,4.05,3.8,.23-.05,.6-.29,.6-.57,.01-3.66-1.37-7.31-4.23-9.68-.39-.32-1.46,.02-1.28,.62,.95,3.15,2.44,6.11,4.53,8.65,.4,.48,1.48,.15,1.39-.52-.44-3.19-1.99-6-3.57-8.75-.3-.52-1.63-.09-1.39,.52,.83,2.09,1.79,4.13,2.9,6.09,.53,.94,1.07,1.93,1.73,2.79,.55,.71,1.22,.92,2.05,.58,.25-.1,.45-.37,.4-.64-.37-2.02-1-3.96-1.92-5.79-.71-1.42-1.67-3.41-3.55-3.26-.36,.03-.88,.3-.78,.74,.58,2.57,1.75,4.98,3.58,6.9,.39,.41,1.55,.19,1.39-.52-.22-.93-.9-1.56-1.86-1.65-.45-.04-1.22,.32-.91,.87,1.13,2,3.31,4.46,5.85,2.93,.89-.53,1.08-1.52,.03-1.91-1.54-.58-3.27-.87-4.87-1.29-.37-.1-1.35,.11-1.14,.7,.9,2.52,3.6,3.99,6.2,3.23,.88-.26,2.77-1.35,1.69-2.45-.46-.47-1.29-.51-1.9-.53-.9-.04-1.78,.1-2.64,.38-.28,.09-.69,.35-.59,.71,.44,1.47,1.54,2.71,3.19,2.6,1.63-.1,2.81-1.45,2.87-3.05,.14-3.65-4.65-5.76-7.6-6.4-.41-.09-1.27,.37-.91,.87,1.43,1.98,3.27,3.54,5.48,4.59,.4,.19,1.54-.3,1.08-.83-2.05-2.32-4.52-4.18-7.37-5.43-.34-.15-1.39,.16-1.14,.7,.86,1.78,1.99,3.38,3.49,4.68,1.08,.94,3.08,2.62,4.62,1.78,1.81-1-.36-3.17-1.27-3.97-1.47-1.3-3.31-2.1-5.1-2.85-.47-.2-1.42,.23-1.08,.83,1.13,1.96,2.59,3.7,4.37,5.1,1.27,.99,3.54,2.67,4.92,.94,.13-.17,.17-.36,.05-.55-1.4-2.25-3.41-4.01-5.88-4.99-.42-.17-1.5,.25-1.08,.83,.79,1.06,1.64,2.05,2.58,2.97,.84,.82,1.8,1.68,3.04,1.7,.94,.02,2.03-.44,1.95-1.54-.07-.98-.83-1.99-1.55-2.61s-1.71-1.03-2.68-1.07c-.76-.03-1.88,.24-1.99,1.16-.12,.96,.94,2.27,1.53,2.93,.74,.83,1.62,1.46,2.63,1.91,.38,.17,1.12-.07,1.15-.55,.07-1.42-.6-2.73-1.81-3.5-1.41-.89-3.17-.83-4.78-.76-.38,.02-1.03,.42-.72,.87,1.31,1.91,4.44,5.38,7.05,3.78,.41-.25,.59-.69,.09-.95-1.27-.66-2.68-.98-4.11-.92-.85,.03-2.68,.14-2.66,1.34,.01,1.09,1.65,2.03,2.54,2.34,1.12,.39,2.49,.43,3.56-.14,.87-.46,1.65-1.62,1.1-2.6-.6-1.06-2.36-.95-3.37-.8-.82,.12-3.01,.48-2.77,1.72,.2,1.04,1.73,1.71,2.65,1.85s2.77-.12,2.87-1.39c.05-.64-.54-.95-1.03-1.19-.8-.4-1.62-.68-2.49-.89-.39-.09-1.3,.39-.91,.87,.84,1.02,1.93,1.65,3.24,1.85,.44,.07,1.44-.53,.8-.97-.69-.47-1.43-.75-2.26-.84-.42-.05-1.06,.22-.97,.74,.14,.79,.86,.99,1.56,.82,.32-.08,.8-.47,.52-.84-1.17-1.53-2.55-2.89-4.15-3.95-.75-.5-1.61-.88-2.29-1.48-.78-.69-1.14-1.65-1.27-2.66-.09-.69-1.54-.33-1.45,.39,.26,2.06,1.49,3.16,3.19,4.16,1.82,1.08,3.37,2.51,4.65,4.19l.52-.84,.17-.17-.97,.74c.62,.07,1.12,.26,1.64,.61l.8-.97c-.98-.15-1.78-.64-2.41-1.41l-.91,.87c.35,.08,2.53,.67,2.47,1.08-.1,.67-1.65-.02-1.97-.26-.15-.12-.31-.25-.43-.4-.04-.1-.12-.13-.22-.1l.35-.15c.39-.14,.79-.24,1.2-.28,.68-.07,2.34-.12,1.82,1.02-.35,.77-1.48,.71-2.17,.53-.77-.2-1.39-.64-1.93-1.22-.01-.01-.27-.31-.27-.31,.03-.07,.58-.09,.67-.1,.42-.04,.84-.04,1.26,0,.91,.09,1.77,.38,2.58,.8l.09-.95c-.94,.57-2.22-.56-2.93-1.14-.83-.69-1.53-1.5-2.14-2.39-.24,.29-.48,.58-.72,.87,1.26-.06,2.66-.16,3.79,.51,.97,.58,1.51,1.63,1.45,2.74l1.15-.55c-1.21-.55-2.2-1.45-2.9-2.58-.14-.22-.57-.77-.53-1.03,.05-.37,.15-.32,.51-.24,.61,.13,1.17,.46,1.61,.89,.4,.39,.94,1.05,1.02,1.62,.14,1.08-1.4-.12-1.73-.41-1.13-.98-2.11-2.15-3-3.35l-1.08,.83c2.28,.91,4.1,2.56,5.39,4.63l.05-.55c-.51,.64-3.43-2.02-3.83-2.42-1.15-1.12-2.11-2.42-2.91-3.81l-1.08,.83c1.27,.54,2.55,1.09,3.71,1.86,.59,.4,1.16,.84,1.64,1.37,.14,.15,1.32,1.57,1.14,1.72-.23,.19-1.57-.81-1.78-.96-.59-.42-1.16-.89-1.66-1.4-1.03-1.05-1.87-2.28-2.5-3.6l-1.14,.7c2.65,1.16,4.96,2.92,6.87,5.08l1.08-.83c-2.01-.96-3.68-2.43-4.98-4.23l-.91,.87c2.19,.48,4.96,1.71,6.16,3.73,.54,.91,.77,2.5-.16,3.27-1.17,.97-2.23-.65-2.52-1.62l-.59,.71c.52-.16,2.67-.74,2.93-.03,.24,.65-1.51,.73-1.95,.67-1.49-.19-2.67-1.3-3.16-2.69l-1.14,.7c.86,.23,1.72,.46,2.59,.69,.43,.12,.87,.23,1.3,.35,.25,.07,1.32,.14,.75,.45-.71,.39-1.78-.47-2.21-.94-.52-.57-.91-1.25-1.29-1.92l-.91,.87c.54,.05,.79,.46,.91,.95l1.39-.52c-1.77-1.86-2.89-4.14-3.45-6.64l-.78,.74c.74-.06,1.26,.9,1.59,1.44,.45,.73,.84,1.5,1.18,2.28,.64,1.48,1.08,3.03,1.37,4.62l.4-.64-.21,.08,.57-.1c-.58-.04-1.22-1.51-1.48-1.94-.45-.73-.87-1.48-1.28-2.23-.82-1.54-1.55-3.14-2.19-4.76l-1.39,.52c1.54,2.68,3.02,5.39,3.45,8.49l1.39-.52c-2.03-2.48-3.48-5.33-4.4-8.39l-1.28,.62c2.62,2.16,3.89,5.58,3.88,8.92l.6-.57c-.54,.1-1.21-1.19-1.44-1.55-.37-.6-.71-1.22-1-1.86s-.53-1.24-.74-1.88c-.24-.72-.31-1.59-.61-2.28,.03-.16-.04-.27-.19-.31-.22-.13-.2-.12,.06,.03,.26,.26,.48,.53,.69,.83,.4,.58,.75,1.19,1.03,1.84,.29,.68,.57,1.43,.69,2.16,.03,.16,.13,.77-.03,.9-.21,.16-.52-.14-.7-.31-1.03-.94-1.75-2.47-2.24-3.74-.1-.27-.2-.55-.29-.82s-.13-.91-.31-1.14c.02-.26-.09-.3-.35-.13,.14,.14,.27,.29,.4,.45,.17,.21,.34,.42,.5,.63,.84,1.15,1.51,2.41,1.99,3.75,.22,.62,.41,1.26,.56,1.9,.1,.43,.55,1.72,.2,2.07l.47-.29-.13,.04h.55c-.32-.11-.52-.78-.6-1.07-.14-.51-.14-1.01-.07-1.53l-1.29,.48c.92,.88,1.61,1.99,2.05,3.18,.21,.59,.37,1.19,.47,1.81,.05,.31,.09,.62,.11,.93,.01,.16,.01,.32,0,.48-.1,.29-.08,.35,.07,.16h.55c-.73-.22-1.15-1.56-1.32-2.21-.1-.37-.52-2.38,0-2.59l-.57,.1c.21,.03,.6,2.03,.64,2.26,.09,.5,.48,2.18-.05,2.54l.54-.2c-.07,.01-.84-1.65-.93-1.86-.33-.75-.61-1.53-.83-2.32s-.39-1.53-.51-2.31c-.06-.35-.1-.69-.14-1.04-.05-.46,.02-.94-.02-1.38l.04-.13c.12-.23-.02-.26-.42-.1,0,0,.33,.5,.27,.41,.21,.33,.4,.66,.58,1.01,.39,.74,.71,1.52,.97,2.32,.24,.75,.49,1.55,.58,2.34,.01,.09-.01,.4,.02,.51l.16,.03c.25,.08,.23,0-.07-.21-.21-.36-.5-.68-.72-1.03-.82-1.31-1.55-2.89-1.78-4.44-.03-.21-.12-.94,.1-1.09,.29-.2,.74,.41,.88,.58,.47,.59,.84,1.3,1.11,2,.54,1.39,.98,3.23,.6,4.71-.08,.32-.33,.95-.52,.37-.11-.31,0-.81,.39-.75,.85,.12,.59,1.69,.32,2.16-.4,.72-1.29,1.17-2.01,.61-.32-.25-.51-.62-.54-1.02-.01-.23,.06-1.02,.38-1.08,.58-.1,.7,1.62-.3,1.2-.46-.19-1.49-1.71-1.05-2.18l-.47,.29c.47-.15,1.12,.61,1.34,.94,.37,.55,.54,1.18,.54,1.84l.98-.59c-1.09-.24-1.78-2.13-2.2-3-.6-1.25-1.09-2.54-1.51-3.86l-1.39,.52c1.49,1.63,2.6,3.53,3.33,5.61l1.39-.52c-1.76-1.82-3.16-3.94-4.17-6.26l-1.39,.52c1.72,1.78,2.97,3.9,3.77,6.24l.97-.74c-.74-.04-1.37-1.32-1.74-1.87-.5-.75-.96-1.52-1.37-2.32-.88-1.69-1.54-3.48-2.05-5.32l-1.39,.52c1.33,2.52,2.65,5.04,3.98,7.56,.31,.6,1.68,.05,1.32-.65-1.39-2.71-2.42-5.57-3.16-8.52l-1.39,.52c1.63,2.35,2.95,4.87,3.98,7.54l1.45-.39c-1.14-2.73-2.01-5.55-2.64-8.44l-1.39,.52c.89,1.49,1.62,3.05,2.21,4.68,.24,.67,1.63,.31,1.45-.39-.56-2.18-1.13-4.37-1.69-6.55l-1.28,.62,3.3,1.8c.42,.23,1.69-.09,1.22-.75-1.08-1.49-3.01-2.46-4.75-1.43-1.36,.8-2.1,2.68-1.31,4.1,.23,.41,1.06,.23,1.27-.1,1.07-1.63,1.83-3.37,2.34-5.24,.13-.47-.62-.53-.87-.47-1.44,.34-2.55,1.7-2.6,3.19s.93,2.7,2.36,2.89c.4,.05,1.49-.59,.8-.97-1.81-1.01-4.02-.31-5.18,1.36-.17,.24-.16,.46,.05,.66,1,.93,2.66-.31,2.41-1.52-.1-.51-.92-.38-1.21-.15-.95,.77-1.05,2.04-.61,3.13,.55,1.35,2.02,1.97,2.61,3.28l1.28-.62c-1.45-.95-2.23-2.58-2.33-4.29-.04-.72-1.21-.61-1.43-.04-.72,1.87-.32,4.32,1.49,5.42l.8-.97c-1.99-.44-2.43-3.29-1.76-4.87l-1.39-.19c-.36,1.16-.84,2.73,.18,3.7,.78,.75,1.86,.61,2.6-.11l-1.27,.1c.96,1.79,2.04,3.49,3.26,5.11l.91-.87c-1.88-.06-2.09-2.47-1.93-3.87,.08-.73-1.24-.57-1.43-.04-.74,2.06-.2,4.77,1.87,5.86l.42-.94c-2.18,.65-2.5-2.77-1.27-3.88l-1.18-.44c-.9,1.65-.14,3.98,1.79,4.38l.31-1.09c-1.37,.04-1.42-1.78-.99-2.64,.37-.75-1.09-.78-1.39-.19h0Z"></path><path class="cls-4" d="M89.72,129.84c.4,.9,.91,1.68,1.61,2.38l1.34-.6c-.66-.56-1.31-1.13-1.97-1.69-.37-.32-1.76,.04-1.34,.6l1.12,1.47,1.24-.68c-.61-.38-1.02-.84-1.38-1.45l-1.34,.6,1.89,1.74c.38,.35,1.78-.1,1.34-.6-.68-.77-1.27-1.58-1.8-2.47-.45,.2-.89,.4-1.34,.6,.93,.87,1.87,1.75,2.8,2.62,.37,.35,1.75-.05,1.34-.6-.8-1.05-1.6-2.1-2.39-3.14l-1.24,.68c1.13,.84,2.26,1.69,3.38,2.53,.35,.26,1.63-.16,1.24-.68-.97-1.26-1.95-2.52-2.92-3.79-.33-.43-1.7,.03-1.34,.6,.94,1.47,2.15,2.64,3.65,3.54,.35,.21,1.64-.13,1.24-.68-1.01-1.36-2.11-2.63-3.3-3.83-.38-.38-1.77,.12-1.34,.6,1.2,1.32,2.54,2.45,4.04,3.4,.35,.22,1.67-.17,1.24-.68-1.19-1.39-2.37-2.77-3.56-4.16-.36-.42-1.75,.1-1.34,.6,1.09,1.33,2.33,2.49,3.72,3.5,.35,.26,1.62-.15,1.24-.68-1.32-1.83-2.63-3.66-3.95-5.49l-1.34,.6c1.26,1.51,2.72,2.77,4.41,3.78,.36,.22,1.61-.12,1.24-.68-1.42-2.12-2.99-4.12-4.72-6.01-.36-.39-1.68,0-1.34,.6,1.03,1.77,2.4,3.23,4.1,4.37,.33,.22,1.44-.04,1.29-.57-.58-2.21-1.79-4.08-3.59-5.49-.35-.28-1.37,.06-1.29,.57,.36,2.42,2.08,4.4,4.51,4.9,.39,.08,1.21-.09,1.16-.63-.32-3.11-1.8-5.89-4.29-7.8-.35-.27-1.37,.05-1.29,.57,.28,1.85,1.21,3.41,2.4,4.81,.81,.95,2.01,2.74,3.49,2.19,1.58-.59,.52-2.84,.08-3.89-.72-1.74-1.83-3.26-3.26-4.48-.32-.28-1.36-.17-1.4,.37-.19,3.13,1.57,6.11,4.66,6.98,.39,.11,1.21-.11,1.16-.63-.27-2.88-1.59-5.45-3.86-7.26-.35-.28-1.37,.06-1.29,.57,.37,2.48,1.96,4.49,4.35,5.28,.33,.11,1.3-.13,1.16-.63-.64-2.29-1.99-4.21-4-5.51-.3-.19-1.51,.05-1.29,.57,.59,1.44,1.68,2.24,3.2,2.47,.23,.04,1.21-.24,.99-.65-1.14-2.16-3.2-3.5-5.67-3.49-.33,0-1.27,.26-.94,.76,.42,.64,.62,1.28,.7,2.03l1.39-.49c-1.25-1.1-2.49-2.2-3.74-3.3-.37-.33-1.73,0-1.34,.6,1.6,2.43,3.19,4.87,4.79,7.3l1.34-.6c-2-2.33-4.01-4.66-6.01-6.99-.35-.41-1.69,.02-1.34,.6,1.7,2.81,3.4,5.62,5.1,8.43l1.34-.6c-1.93-2.28-3.87-4.56-5.8-6.85-.35-.41-1.71,.03-1.34,.6,1.73,2.65,3.59,5.19,5.59,7.64l1.34-.6c-1.44-1.59-3-3.02-4.69-4.33-.36-.28-1.59,.14-1.24,.68,.59,.9,1.18,1.79,1.77,2.69l1.34-.6c-1.84-1.6-3.49-3.39-4.95-5.34-.27-.37-1.37-.11-1.4,.37-.09,1.75,.13,3.43,.74,5.07l1.39-.49c-.69-1.07-1.24-2.2-1.67-3.4-.2-.56-1.63-.17-1.45,.39,.67,2.11,1.6,4.09,2.81,5.93l1.34-.6c-1.51-1.78-2.57-3.81-3.23-6.05l-1.39,.49c1.26,1.97,2.35,4.02,3.29,6.16,.24,.54,1.65,.16,1.45-.39-.95-2.63-1.73-5.32-2.34-8.05l-1.45,.39c1.24,2.58,2.68,5.03,4.34,7.36,.28,.39,1.62,.01,1.39-.49-1.21-2.72-2.42-5.43-3.63-8.15-.25-.55-1.67-.13-1.45,.39,.97,2.24,2.21,4.33,3.74,6.24,.32,.4,1.46,.06,1.39-.49-.52-4.11-3.73-6.94-5.46-10.52l-1.45,.39c1.9,3.56,4.56,6.53,8,8.65,.34,.21,1.43-.02,1.29-.57-.91-3.55-3.16-6.4-5.47-9.16-.35-.42-1.73,.07-1.34,.6,1.8,2.38,3.91,4.45,6.32,6.21,.3,.22,1.5-.06,1.29-.57-1.32-3.33-3.69-5.94-6.13-8.5l-1.34,.6c2.2,2.16,4.4,4.33,6.6,6.49,.37,.37,1.68,.02,1.34-.6-1.41-2.56-3.16-5.53-6.31-6.02l-.7,.89c3.13,.45,5.46,2.92,6.4,5.84,.18,.56,1.6,.19,1.45-.39-.75-2.95-2.77-5.35-5.68-6.34l-.7,.89c2.05,0,3.51,1.49,4.02,3.39l1.29-.57c-3.4-2.49-7.14-4.92-11.53-3.98-.18,.04-.89,.42-.56,.71,2.03,1.76,4.3,3.11,6.83,4.02,.29,.1,1.58-.34,1.1-.73-1.67-1.35-3.45-2.46-5.43-3.3-.31-.13-1.72,.15-1.24,.68,1.59,1.75,3.36,3.29,5.3,4.63,.35,.24,1.68-.22,1.24-.68-2.36-2.43-5.47-3.85-8.87-3.89-.32,0-1.27,.27-.94,.76,1.54,2.25,3.54,4.08,5.97,5.32l1-.81c-2.84-.58-5.67-1.23-8.48-1.96-.38-.1-1.63,.34-1,.81,2.12,1.58,4.41,2.83,6.87,3.78l.7-.89c-2.69-.33-5.38-.65-8.07-.98-.32-.04-1.47,.47-.84,.83,1.65,.95,3.38,1.67,5.21,2.18,.37,.1,1.68-.48,1-.81-1.73-.84-3.47-1.03-5.35-.68-.3,.06-.92,.51-.46,.79,2.13,1.31,4.51,1.64,6.94,1.16,.35-.07,.99-.73,.32-.85-1.6-.27-3.17-.3-4.77-.04-.21,.03-1.15,.38-.75,.75,1.66,1.55,4.18,.99,5.5-.71,.22-.29-.19-.48-.41-.5-1.38-.09-2.61,.26-3.76,1.02-.26,.18-.42,.62,.03,.69,2.55,.41,4.86-1.3,5.42-3.79,.07-.33-.43-.41-.64-.38-2.16,.34-4.32,.67-6.47,1.01-1.57,.24-4.09,1.13-5.09-.58l-1.1,.73c2.95,1.13,6.09,1.4,9.2,.87,.49-.08,1.31-.85,.35-.91-3.39-.23-6.77-.46-10.16-.69l.19,.72c2.7-1.56,5.65-2.45,8.76-2.67l-.03-.87c-3.44,.98-6.95,1.33-10.5,.95l.46,.38c.38-1.11,2.81-1.11,3.75-1.2,1.25-.12,2.5-.11,3.75,0s2.52,.35,3.75,.7c.89,.25,2.96,.56,3.16,1.63l.81-.65c-4.78,.59-9.6,.54-14.35-.27l-.32,.85c3.64-1.28,7.44-1.54,11.22-.77l.52-.88c-4.19,.59-8.37,.26-12.39-1.06l-.13,.78c2.07-.85,4.62-.51,6.81-.5,2.18,0,4.36,0,6.54,.01l.35-.91c-4.49,.24-8.97,.48-13.46,.71-.76,.04-1.17,.96-.17,.91,4.49-.24,8.97-.48,13.46-.71,.56-.03,1.26-.91,.35-.91-2.66,0-5.32-.01-7.98-.02-2.21,0-4.43-.13-6.52,.72-.37,.15-.64,.61-.13,.78,4.23,1.39,8.68,1.73,13.09,1.11,.33-.05,1.33-.72,.52-.88-4.13-.85-8.33-.6-12.31,.8-.29,.1-1.03,.73-.32,.85,4.99,.85,10.03,.93,15.05,.32,.29-.04,.89-.24,.81-.65-.26-1.39-2.63-1.79-3.74-2.1-1.75-.49-3.57-.78-5.39-.83-1.73-.05-3.46,.1-5.15,.44-1.25,.25-2.57,.58-3.03,1.9-.09,.26,.29,.36,.46,.38,3.8,.4,7.59,.02,11.26-1.03,.68-.19,.85-.93-.03-.87-3.5,.24-6.82,1.29-9.86,3.05-.44,.25-.27,.69,.19,.72,3.39,.23,6.77,.46,10.16,.69l.35-.91c-2.9,.5-5.75,.23-8.5-.82-.37-.14-1.41,.2-1.1,.73,.91,1.54,2.83,1.42,4.37,1.19,2.79-.42,5.57-.87,8.36-1.31l-.64-.38c-.31,1.39-1.45,3.04-3.09,2.78l.03,.69c.73-.49,1.41-.69,2.3-.63l-.41-.5c-.76,.98-1.93,1.01-2.8,.2l-.75,.75c1.37-.22,2.71-.23,4.07,0l.32-.85c-1.97,.39-3.88-.04-5.58-1.09l-.46,.79c1.4-.26,2.72-.02,3.99,.6l1-.81c-1.74-.48-3.37-1.17-4.94-2.07l-.84,.83c2.69,.33,5.38,.65,8.07,.98,.46,.06,1.5-.58,.7-.89-2.37-.91-4.57-2.15-6.6-3.67l-1,.81c2.81,.73,5.63,1.38,8.48,1.96,.34,.07,1.7-.45,1-.81-2.36-1.21-4.27-2.98-5.77-5.16l-.94,.76c3.11,.04,5.91,1.36,8.07,3.57l1.24-.68c-1.88-1.29-3.57-2.79-5.1-4.47l-1.24,.68c1.89,.8,3.63,1.84,5.23,3.14l1.1-.73c-2.35-.85-4.48-2.12-6.36-3.75l-.56,.71c3.78-.8,7.29,1.8,10.17,3.91,.33,.24,1.44-.05,1.29-.57-.62-2.29-2.53-3.92-4.93-3.91-.4,0-1.56,.6-.7,.89,2.65,.9,4.42,3.21,5.09,5.86l1.45-.39c-1.08-3.37-3.78-5.86-7.31-6.36-.48-.07-1.5,.76-.7,.89,2.92,.46,4.53,3.39,5.84,5.76l1.34-.6c-2.2-2.16-4.4-4.33-6.6-6.49-.39-.39-1.78,.14-1.34,.6,2.39,2.49,4.73,5.04,6.02,8.29l1.29-.57c-2.34-1.7-4.38-3.74-6.12-6.05l-1.34,.6c2.26,2.7,4.47,5.47,5.36,8.95,.43-.19,.86-.38,1.29-.57-3.28-2.02-5.88-4.89-7.69-8.29-.28-.53-1.69-.12-1.45,.39,1.72,3.57,4.94,6.44,5.46,10.52,.46-.16,.93-.33,1.39-.49-1.48-1.85-2.68-3.86-3.63-6.03l-1.45,.39c1.21,2.72,2.42,5.43,3.63,8.15l1.39-.49c-1.62-2.26-3.03-4.64-4.23-7.15-.25-.52-1.58-.21-1.45,.39,.61,2.73,1.39,5.42,2.34,8.05l1.45-.39c-.96-2.21-2.09-4.34-3.4-6.37-.26-.41-1.55-.04-1.39,.49,.68,2.31,1.78,4.42,3.34,6.26,.35,.41,1.71-.03,1.34-.6-1.17-1.78-2.06-3.69-2.7-5.72l-1.45,.39c.45,1.28,1.04,2.47,1.78,3.61,.26,.41,1.59,.02,1.39-.49-.58-1.57-.82-3.16-.73-4.84l-1.4,.37c1.46,1.95,3.11,3.74,4.95,5.34,.37,.32,1.73,0,1.34-.6-.59-.9-1.18-1.79-1.77-2.69l-1.24,.68c1.62,1.26,3.11,2.65,4.49,4.18,.37,.4,1.75-.09,1.34-.6-2-2.45-3.86-5-5.59-7.64-.45,.2-.89,.4-1.34,.6,1.93,2.28,3.87,4.56,5.8,6.85,.35,.41,1.69-.02,1.34-.6-1.7-2.81-3.4-5.62-5.1-8.43l-1.34,.6,6.01,6.99c.35,.41,1.71-.03,1.34-.6-1.6-2.43-3.19-4.87-4.79-7.3l-1.34,.6c1.25,1.1,2.49,2.2,3.74,3.3,.37,.33,1.46,.12,1.39-.49-.09-.85-.34-1.54-.81-2.24l-.94,.76c2.07,0,3.8,1.15,4.76,2.96l.99-.65c-1.11-.17-1.88-.95-2.29-1.95l-1.29,.57c1.87,1.21,3.09,3.01,3.69,5.14l1.16-.63c-2.14-.71-3.44-2.64-3.77-4.8l-1.29,.57c2.13,1.69,3.3,4.21,3.55,6.89,.39-.21,.77-.42,1.16-.63-2.72-.77-4.24-3.55-4.07-6.27l-1.4,.37c1.04,.89,1.92,1.93,2.59,3.12,.34,.61,1.88,3.51,1.14,4.12l.68-.3c-.44,.04-1.28-1.1-1.53-1.37-.43-.47-.84-.95-1.22-1.47-.82-1.12-1.37-2.33-1.58-3.71l-1.29,.57c2.35,1.8,3.68,4.52,3.98,7.43l1.16-.63c-2.19-.45-3.61-2.27-3.93-4.42l-1.29,.57c1.67,1.3,2.74,3.09,3.28,5.12l1.29-.57c-1.63-1.1-2.91-2.52-3.9-4.21-.45,.2-.89,.4-1.34,.6,1.72,1.88,3.29,3.89,4.72,6.01,.41-.23,.83-.45,1.24-.68-1.62-.97-3.01-2.18-4.21-3.62-.35-.42-1.73,.06-1.34,.6,1.32,1.83,2.63,3.66,3.95,5.49,.41-.23,.83-.45,1.24-.68-1.32-.97-2.48-2.08-3.52-3.34l-1.34,.6c1.19,1.39,2.37,2.77,3.56,4.16,.41-.23,.83-.45,1.24-.68-1.43-.91-2.7-1.99-3.84-3.24l-1.34,.6c1.2,1.2,2.29,2.47,3.3,3.83l1.24-.68c-1.43-.86-2.55-1.98-3.45-3.38l-1.34,.6c.97,1.26,1.95,2.52,2.92,3.79l1.24-.68c-1.13-.84-2.26-1.69-3.38-2.53-.35-.26-1.63,.16-1.24,.68,.8,1.05,1.6,2.1,2.39,3.14l1.34-.6c-.93-.87-1.87-1.75-2.8-2.62-.37-.35-1.7-.01-1.34,.6,.53,.89,1.11,1.7,1.8,2.47l1.34-.6-1.89-1.74c-.37-.35-1.69-.02-1.34,.6,.41,.7,.9,1.19,1.58,1.61,.35,.22,1.64-.14,1.24-.68l-1.12-1.47-1.34,.6c.66,.56,1.31,1.13,1.97,1.69,.4,.34,1.79-.14,1.34-.6-.64-.65-1.12-1.33-1.5-2.17-.25-.56-1.68-.12-1.45,.39h0Z"></path><path class="cls-4" d="M64.39,110.57c-.4,0-.8,0-1.21,0-.13,0-1.45,.35-1.15,.53,1.95,1.2,4.06,1.87,6.34,2.08,.18,.02,1.42-.41,1.15-.53-1.36-.66-2.72-1.31-4.08-1.97l-1.15,.53c1.46,.15,2.93,.31,4.39,.46,.22,.02,1.52-.41,1.07-.57-1.25-.43-2.51-.68-3.83-.77l.18,.23c.59-.6,1.21-1.07,2.01-1.35l-.9-.1c-.56,.53-1.69,.8-2.4,.47l-.13,.26c1.08-.74,2.19-1.42,3.33-2.05l-1.27,.11c-.29,.45-.64,.91-1.2,1.04l.77,.09c.43-1.14,1.53-1.56,2.65-.97,.62,.33,1.15,.8,1.68,1.26l1.28-.52-4.35-.54c-.19-.02-1.56,.35-1.28,.52,2.37,1.46,4.97,2.29,7.74,2.55,.16,.01,1.44-.36,1.15-.53-2.6-1.62-5.58-2.08-8.57-1.53-.09,.02-1.08,.3-.82,.5,3.06,2.36,6.86,2.83,10.55,1.91,.03,0,.88-.32,.63-.46-2.33-1.24-4.97-1-7.51-.71-.12,.01-1.41,.45-.91,.56,2.6,.59,5.24,.55,7.85,0,.06-.01,1.1-.35,.82-.5-1.01-.56-2.06-1.06-3.15-1.46-.43-.16-1.08-.24-1.46-.48-.72-.46,.32-1.3,.92-1.44l-.78-.02c.01,1.01-.83,1.41-1.74,.83-.5-.32-.43-.74-.13-1.22,.71-1.15,2.11-1.16,3.03-.29l.13-.26c-.78,.54-1.55,.03-2.01-.57l-.48,.35c1.56-.51,3.17,.42,4.07,1.64l1.04-.48c-1.85,.23-3.53-.39-4.86-1.67l-.27,.33c2.02-.93,4.43-.04,5.73,1.67,.26,.34,.47,.7,.59,1.11,.23,.75-.01,.59-.66,.43-1.07-.27-2.1-.67-3.08-1.19-.41-.22-.83-.44-1.2-.72-.52-.39-.9-.76-.05-.81,.9-.06,2.13,.61,2.91,1,1.83,.93,3.35,2.32,4.53,3.99l1.32-.47c-3.33-.54-6.42-1.81-9.16-3.79l-.82,.5c3.37-.55,6.72,.25,9.55,2.12l1.15-.53c-1.33-.11-2.62-.4-3.85-.92-.49-.2-.96-.45-1.41-.72-.42-.25-1.75-1.02-.26-.94,2.17,.12,4.47,1.64,6.06,3l1.37-.49c-2.5-1.32-5-2.65-7.5-3.97l-1,.53c1.8-.07,3.52,.3,5.15,1.05l1-.53c-1.16,.14-2.1-.24-2.93-1.01l-.43,.4c.84-.27,1.87-.18,2.64,.25,.14,.08,1.02,.7,.68,.86-.29,.13-1.15-.59-1.35-.79-.37-.36-.48-.83-.89-.95-.54-.15,.65,.61,.75,.69,.37,.28,.73,.57,1.07,.88,.84,.75,1.57,1.59,2.25,2.49l1.41-.44c-1.29-.54-2.58-1.08-3.86-1.62-.7-.29-1.46-.54-2.13-.89-.21-.11-.69-.24-.7-.56-.01-.76,1.32-.63,1.76-.47,2.27,.81,4.01,2.97,5.01,5.06,.47-.15,.94-.29,1.41-.44-.96-.73-1.93-1.45-2.89-2.18-.22-.16-1.55,.21-1.41,.44,1.16,1.91,2.31,3.82,3.47,5.73l1.41-.44c-1.64-1.7-3.27-3.4-4.91-5.1-.24-.25-1.58,.23-1.37,.49,1.45,1.75,2.9,3.5,4.35,5.26l1.37-.49c-1.2-.6-2.28-1.34-3.29-2.22-.25-.22-1.58,.23-1.37,.49,1.01,1.2,2.09,2.33,3.26,3.38,.25,.23,1.58-.23,1.37-.49-1.3-1.57-2.69-3.05-4.16-4.46-.25-.23-1.52,.29-1.41,.44,.85,1.1,1.69,2.2,2.54,3.29l1.41-.44c-2.65-2.16-5.54-4.16-9.12-3.77-.15,.02-1.25,.26-1,.53,1.51,1.62,3.49,2.28,5.67,2.14,.14,0,1.25-.43,1-.53-2.32-.93-4.73-1.47-7.23-1.62-.21-.01-1.53,.41-1.07,.57,.83,.28,1.67,.5,2.53,.67,.34,.06,1.58-.48,1.19-.55-.86-.17-1.7-.39-2.53-.67l-1.07,.57c2.35,.14,4.62,.65,6.81,1.53l1-.53c-1.93,.12-3.64-.67-4.94-2.06l-1,.53c3.25-.35,6.01,1.75,8.39,3.69,.25,.2,1.54-.27,1.41-.44-.85-1.1-1.69-2.2-2.54-3.29l-1.41,.44c1.48,1.4,2.86,2.89,4.16,4.46l1.37-.49c-1.16-1.06-2.24-2.18-3.26-3.38l-1.37,.49c1.01,.89,2.09,1.62,3.29,2.22,.24,.12,1.62-.18,1.37-.49-1.45-1.75-2.9-3.5-4.35-5.26l-1.37,.49c1.64,1.7,3.27,3.4,4.91,5.1,.22,.22,1.53-.23,1.41-.44-1.16-1.91-2.31-3.82-3.47-5.73l-1.41,.44c.96,.73,1.93,1.45,2.89,2.18,.21,.16,1.54-.16,1.41-.44-1.07-2.22-2.81-4.22-5.13-5.19-1.63-.68-3.96-.23-4.64,1.57-.02,.05-.01,.09,.03,.12,2.28,.96,4.56,1.91,6.84,2.87,.2,.08,1.59-.2,1.41-.44-.74-.99-1.55-1.91-2.48-2.72-.67-.59-1.61-1.56-2.57-1.62-.45-.03-1.34,.13-1.61,.55-.44,.7,.66,1.65,1.18,1.98,.7,.45,3.95,1.09,3.7-.59-.14-.9-1.61-1.24-2.34-1.33-1.02-.13-2.01,.07-2.98,.38-.1,.03-.62,.23-.43,.4,1.04,.96,2.28,1.25,3.67,1.09,.12-.01,1.27-.4,1-.53-1.87-.87-3.82-1.21-5.88-1.13-.14,0-1.27,.39-1,.53,2.5,1.32,5,2.65,7.5,3.97,.28,.15,1.61-.28,1.37-.49-2.07-1.77-7.22-4.9-9.65-2.04-.05,.06-.11,.13-.03,.19,2.03,1.5,4.33,2.3,6.83,2.5,.15,.01,1.44-.35,1.15-.53-3.19-2.11-6.9-2.76-10.64-2.15-.08,.01-1.09,.31-.82,.5,2.78,2.01,5.94,3.3,9.33,3.85,.15,.02,1.5-.21,1.32-.47-1.91-2.71-4.98-4.99-8.39-5.27-.69-.06-2.33,.14-2.5,1.01-.12,.59,.64,.92,1.03,1.17,.8,.5,1.66,.92,2.54,1.25,1.2,.45,2.74,1.05,4.02,.5,1.4-.6,.8-1.88,.02-2.79-1.97-2.28-5.19-2.34-7.77-1.15-.1,.05-.41,.19-.27,.33,1.53,1.48,3.51,2.02,5.6,1.75,.09-.01,1.2-.26,1.04-.48-1.47-2.01-3.77-2.31-6.01-1.57-.05,.01-.57,.23-.48,.35,1.14,1.46,3.18,1.17,4.57,.21,.08-.06,.24-.15,.13-.26-1.56-1.48-5.45-.75-6.05,1.51-.49,1.84,5.01,2.21,4.98-.73,0-.21-.73-.03-.78-.02-1.23,.29-2.17,.96-2.73,2.11-.04,.09,.05,.13,.12,.15,1.77,.47,3.44,1.16,5.05,2.05l.82-.5c-2.32,.49-4.62,.49-6.93-.03l-.91,.56c2.3-.27,4.65-.5,6.77,.63l.63-.46c-3.2,.8-6.48,.03-9.07-1.96l-.82,.5c2.63-.48,5.22,.09,7.48,1.49l1.15-.53c-2.62-.24-5.08-1.08-7.32-2.46l-1.28,.52c1.45,.18,2.9,.36,4.35,.54,.17,.02,1.58-.27,1.28-.52-1.22-1.05-2.48-1.96-4.15-1.7-1.3,.2-2.49,.89-2.97,2.16-.11,.28,.71,.1,.77,.09,1.08-.25,1.91-.8,2.51-1.73,.18-.28-1.16,.06-1.27,.11-1.15,.63-2.25,1.31-3.33,2.05-.04,.03-.28,.19-.13,.26,1.71,.8,3.75,.17,5.07-1.07,.36-.34-.81-.13-.9-.1-1.09,.39-2.01,.96-2.82,1.78-.16,.17,.03,.22,.18,.23,1.24,.09,2.41,.34,3.58,.74l1.07-.57c-1.46-.15-2.93-.31-4.39-.46-.18-.02-1.41,.41-1.15,.53,1.36,.66,2.72,1.31,4.08,1.97l1.15-.53c-2.12-.19-4.1-.87-5.92-1.98l-1.15,.53c.4,0,.8,0,1.21,0,.3,0,1.64-.58,.94-.58h0Z"></path><path class="cls-4" d="M69.81,128.48c-1.29,.1-2.5,.64-3.37,1.6-.07,.08-.08,.19,0,.26,.08,.09,.28,.1,.38,.1,.34-.01,.73-.12,.96-.38,.04-.04,.07-.08,.11-.12,.04-.04,.01-.02-.01,0,.02-.02,.04-.04,.06-.06,.08-.07,.16-.14,.24-.21,.04-.03,.08-.06,.13-.1,.02-.02,.04-.03,.06-.05,.07-.05,0,.01-.03,.02,.1-.05,.19-.12,.29-.17,.02-.01,.05-.02,.07-.04,.08-.04-.14,.06-.06,.03,.05-.02,.09-.04,.14-.06s.1-.04,.14-.05c.15-.05-.16,.05,0,0,.05-.01,.1-.03,.15-.04,.02,0,.05-.01,.07-.02,.09-.02-.18,.03-.08,.02,.05,0,.1-.02,.15-.02,.06,0,.25-.03,.03,0,.2-.02,.38-.04,.57-.12,.12-.05,.31-.14,.39-.26,.05-.08,.1-.18,0-.26-.1-.08-.26-.11-.38-.1h0Z"></path><path class="cls-4" d="M74.85,123.68c-1.03,.08-1.98,.56-2.69,1.29-.1,.1-.15,.28-.12,.41s.17,.26,.31,.3c.37,.12,.76,0,1.02-.27,.02-.02,.09-.07,.09-.1,0,.01-.12,.11-.05,.05,.02-.01,.03-.03,.05-.04,.07-.06,.15-.12,.22-.18,.04-.03,.07-.05,.11-.08,.02-.01,.04-.02,.06-.04,.07-.05-.15,.09-.07,.05,.08-.05,.16-.09,.25-.13,.08-.04,.16-.07,.24-.1,0,0-.19,.07-.1,.04,.02,0,.04-.01,.06-.02,.04-.01,.08-.03,.12-.04s.08-.02,.12-.03c.04,0,.21-.04,.06-.01s0,0,.04,0c.05,0,.09,0,.14-.01,.19-.01,.39-.08,.54-.2,.11-.09,.25-.24,.25-.39,.02-.36-.36-.51-.67-.49h0Z"></path><path class="cls-4" d="M79.24,137.35c1.26-.81,2.11-2.27,2.06-3.79l-.99,.55s.25,.05,.11,0c.07,.02,.14,.04,.21,.06,.06,.03,.07,.03,.01,0,.03,.01,.06,.03,.1,.05,.06,.03,.13,.07,.19,.11,.14,.1,.16,.11,.27,.23,.1,.11,.19,.22,.27,.35,.29,.44,.4,1.02,.26,1.55-.02,.06,0,.05-.05,.14-.03,.07-.06,.13-.1,.2s-.08,.13-.12,.19c.07-.09-.07,.08-.08,.09-.05,.05-.1,.11-.16,.16,.11-.1-.06,.05-.09,.07-.06,.04-.12,.08-.19,.12,.16-.1-.05,.02-.09,.04-.04,.02-.26,.14-.07,.04-.06,.03-.15,.05-.22,.06-.04,0-.07,.02-.11,.03,.1-.02,.12-.02,.03,0-.07,0-.15,.01-.22,.02-.08,0-.07,0,.02,0-.04,0-.07,0-.11,0-.07,0-.15-.01-.22-.02q-.07-.01,0,0s-.07-.02-.11-.03c-.07-.02-.14-.04-.21-.07-.33-.12-.8,.03-1.02,.27s-.13,.52,.17,.63c1.27,.48,2.88,.04,3.79-.95,.41-.45,.69-1.04,.69-1.65s-.2-1.19-.58-1.66c-.45-.57-1.11-.92-1.83-.98-.23-.02-.45,.04-.65,.15-.13,.07-.35,.23-.34,.4,.02,.63-.1,1.24-.39,1.8s-.66,.96-1.15,1.28c-.24,.15-.38,.5-.1,.68,.31,.2,.75,.07,1.03-.1h0Z"></path><path class="cls-1" d="M88.17,145.22c.19,.15,.38,.31,.57,.46,.05,.03,.1,.05,.15,.05,.07,.02,.15,.02,.22,.01,.09,0,.19-.02,.28-.04,.1-.02,.19-.05,.29-.08l.17-.07c.09-.04,.17-.09,.24-.16l.06-.08c.02-.05,.01-.1-.04-.13-.19-.15-.38-.31-.57-.46-.05-.03-.1-.05-.15-.05-.07-.02-.15-.02-.22-.01-.09,0-.19,.02-.28,.04-.1,.02-.19,.05-.29,.08l-.17,.07c-.09,.04-.17,.09-.24,.16l-.06,.08c-.02,.05-.01,.1,.04,.13h0Z"></path><path class="cls-1" d="M87.3,152.02l.54,.63s.1,.04,.15,.05c.07,.01,.15,.02,.22,0,.09,0,.19-.02,.28-.04,.1-.02,.19-.05,.29-.08l.17-.07c.09-.04,.17-.09,.24-.16l.06-.08c.02-.05,.01-.09-.03-.13l-.54-.63s-.1-.04-.15-.05c-.07-.01-.15-.02-.22,0-.09,0-.19,.02-.28,.04-.1,.02-.19,.05-.29,.08l-.17,.07c-.09,.04-.17,.09-.24,.16l-.06,.08c-.02,.05-.01,.09,.03,.13h0Z"></path><path class="cls-1" d="M96.82,153.21c.51,.17,1.02,.35,1.53,.52,.18,.06,.37,.07,.55,.02,.17-.04,.37-.15,.47-.29,.09-.12,.16-.28,.11-.44s-.16-.27-.31-.32c-.51-.17-1.02-.35-1.53-.52-.18-.06-.37-.07-.55-.02-.17,.04-.37,.15-.47,.29-.09,.12-.16,.28-.11,.44s.16,.27,.31,.32h0Z"></path><path class="cls-1" d="M107.85,149.25c.07,0,.15,.02,.22,.03l-.13-.03c.18,.04,.35,.1,.51,.19l-.09-.05c.2,.11,.38,.25,.53,.42,.05,.04,.1,.06,.16,.06,.07,.02,.15,.03,.22,.02,.18,0,.4-.05,.57-.12,.14-.06,.31-.12,.4-.25l.05-.09c.02-.06,0-.11-.04-.15-.37-.42-.92-.66-1.47-.72-.18-.02-.36,0-.53,.05-.16,.04-.36,.11-.49,.22-.07,.05-.2,.16-.16,.26s.17,.14,.27,.14h0Z"></path><path class="cls-1" d="M114.29,158.36l1.62,1.75c.11,.12,.25,.19,.41,.21,.18,.02,.41-.01,.57-.1,.15-.08,.31-.19,.37-.35,.05-.13,.07-.3-.03-.41-.54-.58-1.08-1.17-1.62-1.75-.11-.12-.25-.19-.41-.21-.18-.02-.41,.01-.57,.1-.15,.08-.31,.19-.37,.35-.05,.13-.07,.3,.03,.41h0Z"></path><path class="cls-1" d="M114.12,165.03c.1,.2,.19,.39,.29,.59,.02,.04,.04,.06,.08,.06,.05,.02,.11,.03,.17,.02,.08,0,.16,0,.24-.02,.1-.01,.19-.03,.28-.06l.19-.06c.11-.04,.21-.08,.31-.14l.1-.07s.07-.07,.07-.13c-.1-.2-.19-.39-.29-.59-.02-.04-.04-.06-.08-.06-.05-.02-.11-.03-.17-.02-.08,0-.16,0-.24,.02-.1,.01-.19,.03-.28,.06l-.19,.06c-.11,.04-.21,.08-.31,.14l-.1,.07s-.07,.07-.07,.13h0Z"></path><path class="cls-1" d="M103.79,161.71c.12,.37,.25,.73,.37,1.1,.04,.13,.16,.2,.29,.23,.17,.05,.38,.03,.54-.02s.36-.12,.48-.26c.08-.09,.18-.22,.13-.35-.12-.37-.25-.73-.37-1.1-.04-.13-.16-.2-.29-.23-.17-.05-.38-.03-.54,.02s-.36,.12-.48,.26c-.08,.09-.18,.22-.13,.35h0Z"></path><path class="cls-1" d="M101.34,167.57c.24,.25,.48,.49,.73,.74,.05,.04,.1,.07,.16,.07,.07,.02,.15,.03,.23,.03,.09,0,.19-.01,.28-.03,.1-.02,.19-.04,.29-.08l.16-.08c.09-.05,.16-.11,.23-.18l.05-.1c.02-.07,0-.12-.05-.17-.24-.25-.48-.49-.73-.74-.05-.04-.1-.07-.16-.07-.07-.02-.15-.03-.23-.03-.09,0-.19,.01-.28,.03-.1,.02-.19,.04-.29,.08l-.16,.08c-.09,.05-.16,.11-.23,.18l-.05,.1c-.02,.07,0,.12,.05,.17h0Z"></path><path class="cls-1" d="M94.17,161.98c.82,0,1.12-1.04,.13-1.04-.82,0-1.12,1.04-.13,1.04h0Z"></path><path class="cls-1" d="M116.99,148.92l.66,.22s.1,.03,.15,.03c.07,0,.14,0,.22,0,.09,0,.19-.03,.28-.05,.1-.02,.19-.05,.29-.08l.17-.07c.09-.04,.17-.08,.24-.14l.06-.07s.02-.08-.03-.11l-.66-.22s-.1-.03-.15-.03c-.07,0-.14,0-.22,0-.09,0-.19,.03-.28,.05-.1,.02-.19,.05-.29,.08l-.17,.07c-.09,.04-.17,.08-.24,.14l-.06,.07s-.02,.08,.03,.11h0Z"></path><g class="cls-3"><path class="cls-4" d="M104.74,136.41c3.35,1.11,6.69,2.22,10.04,3.33,2.85,.95,5.89,2.03,7.67,4.45,1.48,2.03,1.82,4.64,2.11,7.14,.22,1.88,.43,3.8-.03,5.63-.46,1.83-1.76,3.57-3.6,4-1.13,.26-2.32,.01-3.41-.39-3.51-1.3-6.26-4.06-8.88-6.73-3.06-3.13-6.13-6.26-9.19-9.39-.79-.81-1.63-1.71-1.77-2.84-.16-1.32,.75-2.59,1.9-3.27s2.5-.89,3.82-1.08"></path><g><path class="cls-4" d="M103.14,136.08c.12,0,.05-.2,.06-.24-.19,.07-.04,.29-.06,.24Z"></path><polygon class="cls-4" points="101.28 136.9 101.29 136.81 101.05 137.09 101.28 136.9"></polygon><path class="cls-4" d="M99.45,137.57c.32,.23,.62-.37,1-.36l.08,.06,.06-.32c-.4,.17-.83,.56-1.14,.62Z"></path><path class="cls-4" d="M98.04,137.59c.15,.06-.14,.26,.26-.15-.03,0-.04,0-.06,0-.04,.03-.09,.08-.19,.15Z"></path><path class="cls-4" d="M98.23,137.44c.2-.16-.2,0,0,0h0Z"></path><path class="cls-4" d="M97.45,138.29c.04-.11,.09-.22,.13-.33-.11-.01-.33,.21-.3,.08-.18,.31-.07,.31,.16,.25Z"></path><path class="cls-4" d="M97.45,138.69l.06-.16s-.08,.03-.06,.16Z"></path><path class="cls-4" d="M97.67,138.19c-.06,.11-.1,.23-.15,.34,.08,0,.16,.07,.07-.15,.06,.09,.03-.03,.08-.19Z"></path><path class="cls-4" d="M97.85,138.09c.18-.07,.38-.18,.24,.12,.4-.42,.18-.57-.24-.12Z"></path><path class="cls-4" d="M99.54,137.94h.22s.1-.18,.1-.18c-.05,.09-.38,.09-.32,.18Z"></path><path class="cls-4" d="M96.23,140.1c.07,.04,.23-.06,.33-.06,0-.09,0-.18,0-.27-.1,.1-.22,.34-.34,.33Z"></path><path class="cls-4" d="M96.56,140.04c0,.14,0,.27,.02,.41,.1-.33,.07-.4-.02-.41Z"></path><path class="cls-4" d="M97.74,138.98c.03-.2,.08-.39,.14-.59-.08,.22-.15,.45-.2,.68l.06-.08Z"></path><path class="cls-4" d="M96.07,141.74l-.19-.24c.1,.15,.19,.3,.31,.42-.04-.06-.08-.12-.11-.18Z"></path><path class="cls-4" d="M96.34,142.79c-.2-.12-.15,.31-.3,.17,.13,.27,.35,.44,.55,.56-.16-.16-.25-.39-.25-.73Z"></path><path class="cls-4" d="M96.9,143.72c-.08-.07-.19-.13-.31-.2,.08,.09,.18,.15,.31,.2Z"></path><path class="cls-4" d="M96.46,141.11s-.17,.08-.22,.32c.07-.06,.14-.11,.21-.16,0-.05,0-.1,0-.16Z"></path><path class="cls-4" d="M96.45,141.26h0c-.01,.18,0,.3,0,.35,0-.04-.01-.15,0-.35Z"></path><path class="cls-4" d="M96.46,141.07v.04s.03-.02,0-.04Z"></path><path class="cls-4" d="M97.11,139.62c0,.24,0,.66,.3,.37-.08-.19-.27-.02-.3-.37Z"></path><path class="cls-4" d="M96.74,140.9c.03-.13,.07-.25,.11-.37-.06,0-.15,.05-.19-.07,.02,.15,.04,.3,.08,.44Z"></path><path class="cls-4" d="M96.79,141.1c-.02-.06-.03-.13-.05-.19l-.03,.14,.08,.05Z"></path><path class="cls-4" d="M96.76,143.04c.15,.12,.24,.27,.36,.43-.07-.2-.15-.41-.24-.6-.07,0-.23-.04-.12,.17Z"></path><path class="cls-4" d="M96.53,142.2l.02,.04s.01-.05-.02-.04Z"></path><polygon class="cls-4" points="98.2 144.86 98.21 144.82 98.18 144.84 98.2 144.86"></polygon><path class="cls-4" d="M96.9,142.81c-.02-.17-.11-.24-.2-.32,.06,.12,.12,.23,.18,.37,.03,0,.05,0,.02-.05Z"></path><path class="cls-4" d="M97.29,144.11c-.01-.09-.03-.18-.06-.29-.01,.11,0,.29,.06,.29Z"></path><path class="cls-4" d="M96.51,142.31l-.02-.02c-.03,.07-.01,.06,.02,.02Z"></path><path class="cls-4" d="M96.51,142.31c.05,.08,.13,.13,.19,.19-.05-.09-.1-.18-.15-.26,0,.03-.03,.05-.04,.07Z"></path><path class="cls-4" d="M99.52,144.26c-.16,.12-.52,.01-.55-.34-.3-.11-.67,.46-.75,.9,.07-.05,.13-.1,.42,.03,0-.15-.27-.66,.04-.59,.34,.21,.17,.28,.22,.49,.07-.28,.59,.1,.8-.22l-.32-.15s.18-.02,.16-.12Z"></path><path class="cls-4" d="M97.83,144.36l-.1-.09c.07,.14,.08,.27,.1,.53,.22,.1,.3,.08,.36,.04-.14-.16-.27-.32-.4-.5l.05,.02Z"></path><path class="cls-4" d="M97.35,143.77c.24-.03,.5,.17,.57-.12-.23-.3-.3-.12-.51-.27,.4,.52-.21-.09-.04,.38-.1-.09-.18-.19-.25-.28,.04,.12,.08,.24,.11,.36v-.02s0,0,0,0h0s.01-.06,.02-.02h.01s.06,0,.08-.01c.08,.19-.03,.06-.08,.02-.01,0-.02,0-.03,.01h0c.16,.17,.33,.33,.49,.47-.06-.12-.17-.25-.38-.5Z"></path><path class="cls-4" d="M97.74,140.46s-.04,0-.05,0c.01,.04,.03,.06,.05,0Z"></path><path class="cls-4" d="M97.55,140.65s-.1-.11-.03-.24c.1-.1,.1,.03,.17,.05-.03-.09-.05-.34-.24-.11l.02,.05c-.15,.2-.46,.52-.48,.47,.2-.06,.35-.1,.57-.22Z"></path><path class="cls-4" d="M97.15,142.14c.08,.17,.18,.33,.28,.49,.02-.11,.05-.21,.08-.32l-.1,.05c-.05-.3-.16-.2-.25-.22Z"></path><polygon class="cls-4" points="98.16 144.98 97.95 145.09 98.38 145.07 98.16 144.98"></polygon><polygon class="cls-4" points="98.62 145.41 98.46 145.53 98.66 145.56 98.62 145.41"></polygon><path class="cls-4" d="M123.48,156.21l-.03-.12c0,.06,.02,.1,.03,.12Z"></path><path class="cls-4" d="M123.27,157l.09,.05c-.04-.05-.07-.08-.09-.05Z"></path><path class="cls-4" d="M108.99,155.96c.01,.27-.03,.64,.11,.46l.11-.2c-.13-.07-.19-.17-.22-.26Z"></path><path class="cls-4" d="M118.13,160.73l-.04-.08c-.07,.06-.13,.11-.19,.16,.07-.02,.15-.05,.23-.08Z"></path><path class="cls-4" d="M118.51,159.9l.19,.2c-.04-.06-.1-.12-.19-.2Z"></path><path class="cls-4" d="M123.12,151.23l-.24-.13c.03,.24,.13,.12,.24,.13Z"></path><path class="cls-4" d="M102.99,149.76c.06,.18,.13,.3,.21,.4-.06-.23-.04-.48-.21-.4Z"></path><path class="cls-4" d="M125.65,157.05c-.02-.1-.05-.15-.1-.16,.02,.1,.04,.16,.1,.16Z"></path><path class="cls-4" d="M103.54,150.51s-.02-.07-.03-.1c-.11-.06-.22-.13-.32-.25,.04,.17,.12,.34,.35,.35Z"></path><path class="cls-4" d="M111.32,139.9s-.03-.02-.03-.04c-.01,.03,0,.03,.03,.04Z"></path><path class="cls-4" d="M106.61,136.03c.06,0,.14,.03,.23,.06-.04-.03-.1-.05-.23-.06Z"></path><path class="cls-4" d="M100.24,147.21c-.1-.08-.03,0,0,0h0Z"></path><path class="cls-4" d="M100.42,146.16s.07,0,.11-.04c-.04,.03-.08,.04-.11,.04Z"></path><path class="cls-4" d="M105.39,150.47h0s0-.04,0,0Z"></path><path class="cls-4" d="M100.18,147c.01,.05,.04,.11,.07,.16,0-.03-.03-.08-.07-.16Z"></path><path class="cls-4" d="M100.12,147.09s-.04-.07-.06-.09c-.04,.01-.04,.04,.06,.09Z"></path><path class="cls-4" d="M100.38,147.33c-.05-.05-.09-.11-.13-.16,0,.03,0,.04,0,.04,.03,.03,.07,.06,.13,.12Z"></path><path class="cls-4" d="M120.8,143.38s0-.02,0-.03c-.15,0-.1,.01,0,.03Z"></path><polygon class="cls-4" points="112.95 156.58 112.93 156.58 112.94 156.6 112.95 156.58"></polygon><path class="cls-4" d="M113.39,156.74c-.32,.09-.38,0-.45-.14l-.29,.57,.74-.43Z"></path><path class="cls-4" d="M123.55,154.11l-.19,.3c-.32-.34-.23-.6-.49-.32,.69,.03,.07,1.09,.73,1.16l-.16,.18c.01-.05-.03-.06-.02-.12-.35,.32,.47,.31,.31,.78-.08,.16-.2,.25-.26,.12,.04,.13,.07,.26,.09,.38-.04,.1-.14,.05-.11-.05-.02,.18-.05,.35-.09,.52h-.02c.08,.09,.18,.32,.21,.42-.14,.09-.04-.09-.13-.09,.01,.11,.03,.23,.03,.34-.21,.04-.26-.26-.17-.43-.73-.02,.08,.31-.55,.64l.05-.27c-.42-.03-.38,.2-.73,.28,.13,.04,.81-.15,.8,.19-.09,.05-.17,.13-.15,.34-.2-.14-.24,.02-.35,.18l-.24-.22c-.06,.21,.07,.3,.09,.5-.19,.14-.39,0-.56-.14-.29,.17,.44,.15,.16,.46-.31,.08-.39,.29-.65,.61-.23-.03-.04-.19-.14-.25-.02,.1-.05,.2-.08,.3-.05,0-.05-.07-.06-.11-.12,.13,.09,.31-.15,.46,0,.18-.17,.09-.35-.02-.19-.1-.37-.21-.55-.02-.08-.09,.05-.19,.02-.32-.46,.23-.39,.17-.85,.45-.1-.09-.2-.19-.3-.28,.2,.29-.19,.5-.57,.63,.06,.14,.12,.26,.17,.32-.18,0-.37,.01-.56,.01-.04-.07,.04-.16,.16-.26-.04,.02-.08,.03-.11,.04-.14-.17,.02-.31,.19-.44,.04,.08,.07,.16,.11,.24,.18-.15,.34-.33,.37-.51-.04,.03-.1,.04-.17,.04,.04-.04,.08-.08,.07-.12,0-.04-.07,.02-.17,.07v-.37s-.06,.13-.06,.13c-.17-.13-.34-.28-.5-.43-.54,.17-1.14,.49-1.88,.26,.29-.14,.24-.36,.39-.63,.02,.38,.56,.14,.87,.35-.16-.11-.06-.23,0-.25-.24,0-.48,0-.72-.02,.13-.22-.04-.23-.14-.4-.13,.5-.6,.05-.91,.03,.07-.15,.22-.26,.48-.06-.12-.5-.71,.25-.85-.21,.07,.04,.1,.09,.17,.03-.25,.03-.57-.34-.39-.4l.07,.04c-.42-.34-1.33-.99-1.66-.71,.03-.05,.38-.35,.46-.4-.55,.17-1.11,.32-1.69,.46,.3-.22,.62-1.09,1.1-.95-.07-.12-.15-.28-.44-.36,.03,.1-.18,.54-.3,.49,.02-.53-.03-.32-.11-.86,.05,.15-.45,.47-.6,.31,.08-.04,.37-.43,.47-.42l-.77,.05c.17,.02,.34-.33,.37-.53-.04,.12-.33-.32-.46-.39l.07,.25c-.37-.48-.98,.15-1.39-.3,.13-.03,.63-.38,.47-.64-.3,.1-1.42,.53-1.96,.3l.04-.19-.42-.16c.49-.12,1.65-.24,2.17-.21-.07-.25,.09-.18-.16-.41,.03-.19,.3-.03,.37,.03l-.49-.64c-.21,.26-.67-.2-.85,.02l.86,.38c-.21,.26-1.03,.31-1.39-.14,0-.2,.5-.34,.57-.43-.13,.03-.53-.23-.51-.32l.3,.05c-.13-.31-.68-.06-.71-.55-.08-.11,.04-.58-.12-.46-.12,.42-.94,1.28-1.25,1.38-.01-.05-.22-.75-.19-.99,.06-.36,.74-.27,.79-.58-.07,.06-.24,.05-.3,.04-.04-.15,.24-.16,0-.34-.28,.2-.4-.45-.3,.1-.27-.14-.17-.27-.42-.51-.08,.23-.75,.3-1.02,.16,.07-.05,.11-.17,.12-.23-.4-.45-.51-.79-.9-1.19,.02-.09-.09-.36,.09-.38-.1-.02-.23,.01-.36-.1-.02-.44,.3,.24,.38-.19-.16,.12-.51-.13-.77-.22-.17,.27,.35,.45,.61,.54-.3,.3-.92,.3-1.46,.02-.4-.26,.05-.33-.04-.35-.56-.67-1.05-.01-1.33-.74,0-.39,.37-.38,.47-.56,.34,.2,.28,.53,.47,.71l-.13-.31c.15,.02,.37,.16,.41,.31,0-.34-1-1.08-1.31-1.72-.15-.02-.36-.1-.37,.04l.18,.13c-.02,.29-.49-.08-.38,.19-.31-.1-.7-.16-.9-.53l.17-.27c-.06,.07,.05,.32,.2,.33-.21-.02-.13-.73-.55-.58l.04,.35c-.31-.1-.79-.12-.97-.44-.1,.33,.08,.03,0,.46,.16-.46,.62,.66,.71,.09-.11,.47,.19,.44,.18,.93,.06-.08,.05-.22,.23,.03,.03-.01,.08-.01,.11-.02,0,0,0,.01,0,.02v-.02s.02,0,0,0c-.02-.08-.02-.16,0-.22,.27-.06,.6,.29,.79,.32,.09,.16-.13,.03-.14,.17l.3,.05c-.14,.17,.06,.6-.32,.39l.26,.28c.06,.25,.24,.5,.44,.57,.09,.16,.49,.15,.26,.16l.51,.32-.04,.04c.39,.44,1.1,.6,1.28,1.35,.18,.1,.37,.2,.55,.48l-.09,.18c.22,.13,.39,.68,.61,.61-.18,.56,.77,.95,1.02,1.33l.19-.17c.2,.23,.46,.39,.8,.58l.14-.17c.36,.1,.47,.71,.85,1.06-.09,.03-.16-.07-.19-.18,.07,.79,1.17,.67,1.31,1.33,.16,.04,.21,.13,.24,.24,0,0-.02-.01-.03-.02,0,.01,.02,.03,.04,.04,.02,.07,.03,.15,.05,.22,0-.08-.01-.15-.03-.2,.08,.07,.22,.17,.37,.24l-.12,.22s.02,.01,.03,.02c.05,.18,.17,0,.24-.18,.09,.03,.17,.05,.25,.05-.18,.37,.39,.2,.24,.62,.22-.07,.7,.45,1.05,.2-.03,.04-.02,.1-.08,.04,.1,.16,.2,.32,.4,.34l-.15,.28,.57-.05c.06,.3,.07,.45-.27,.47,.68,.1,.45,.21,1.06,.24l-.14,.14c.14,.1,.53,.07,.51,.27,.09,.55,1.54,1.21,2.3,1.99,.09-.61,.31,.46,.56,.08,0,.15,.09,.29-.12,.32,.55,.11,.66,.55,1.15,.34,0,.15-.18,.14-.16,.24,.05-.01,.21-.05,.23,.05,.02,.1-.12,.08-.22,.1,.54,.19,.74-.2,.91-.56,.2,.27,.35,.28,.61,.09,.06,.15,.19,.33-.16,.28,.17,.09,1.17,.46,1.23,.12,.05,.09,.28,.05,.33,.02,.45,.04,.5,.07,.95,0l-.13-.04c.14-.4,.35-.12,.7-.25v.04c.44,.03,.52-.06,.59-.11,.08-.06,.14-.1,.59-.16l-.15-.19c-.2-.47,.78-.1,1.02-.6h-.22c.06-.27,1,.02,1.25-.17,.07-.02,0,.12-.04,.21,.71-.38-.17-.28,.1-.73,.19,.02,.27,.36,.51,.08,.24-.09,.08-1.17,.54-1.47-.16,.05-.32,.09-.32-.17,.09-.32,.8-.79,.46-1.21,.04-.04,.08-.05,.11-.04-.04-.29-.02-.9-.23-1.07,.43-.07,.36-.51,.27-.88-.1-.38-.22-.71,.16-.71l-.07-.79,.08,.02c.02-.51-.18-.66-.38-.82,.04-.12,.12-.04,.16-.04,.08-.73,.04-.8-.41-1.34l.24-.09c-.16-.14,.27-1.06-.12-1.73,.03,0,.08,.01,.12,.06-.39-.72,.33-2.06-.63-2.15l-.36-.46c.12,.68-.4,0-.47,.32-.12-.23,.06-.73,.2-.43l-.03,.06c.49-.02-.11-.86,.19-.96-.5-1.28-1.1-2.67-2.12-3.61l-.14,.37c-.11-.11-.21-.22-.33-.33-.04-.14,.06-.32,.31-.1,0-.27-.54-.23-.6-.17-.42-.51,.47-.18,.31-.3-.08-.05-.16-.1-.24-.15l.02,.07c-.27-.01-.37,.1-.69-.14-.17-.2,.02-.26-.06-.32,.02-.02,0-.05-.12-.09l-.48-.33,.05,.37c-.29,0-.45-.28-.39,.13-.07-.66-1.78-1.1-1.93-1.31-.4,.06-.71-.06-1.09-.23,.08,.09,.02,.42-.3,.26,.35-.59-.51-.49-.63-1.04,.14,.38-.98-.25-.74,.31-.26-.14,.06-.24-.1-.46-.74,.03-1.4-.64-2.25-.83-.04,.08,.05,.25-.16,.32l-.29-.56c-.17-.01-.31,.43-.51,.04,.02,.08,.05,.21-.07,.2-1.47-.94-3.38-.75-4.75-2.06,.17,.23,.01,.2-.16,.15,.1,.07-.07,.21-.09,.33l-.58-.54c-.23,.27-.74-.22-.91,.06l.23,.02c-.4,.26,.14,.92-.05,1.36,.45-.3,.65,.88,1.37,.48,.09,.13-.15,.11-.12,.24,.2-.15,.37-.14,.64,.05l-.05,.04c.85,.23,1.15,.54,2.05,.98v-.25c.2,.1,.22,.18,.29,.27,.35-.26-.56-.21-.23-.51,.12,.55,1.43,.48,1.44,1.06,.31,.11,0-.29,.31-.18l.04,.17,.14-.16c.19,.1,.24,.31,.21,.43-.04-.03-.15-.01-.21-.02,.21,.25,.77,.19,.84,.28l-.27-.19c.89,.15,1.87,.68,2.79,.67l-.03-.13c.69,.01,.46,.28,1.17,.43l-.03,.02c.17-.06,.37-.05,.55,.03-.21,.06,.23,.36-.04,.41,.73,.04,.38-.04,.96-.26l.03,.21c.21-.09,.26-.17,.6-.08-.33,.03,.09,.35-.29,.41,.49,.66,1.16,.09,1.17,.77,.54-.3-.42-.54-.2-.55-.07-.22,.43-.22,.61-.06,.21,.13,.03,.76,.5,1.05-.04-.03-.07,0-.11-.03,.1,.22,.44,.08,.52,.41,.3-.16,.25,.21,.53-.07-.15-.09-.31-.16-.47-.24,.29,.08,.82-.1,1.04,.41-.08,.03-.26,0-.37,0,.03,.17,.25,.13,.28,.31-.3,.26-.51-.36-.95-.31,.02,.21,.62,.14,.23,.37,.53-.27,.34,.39,.88,.36l-.19,.14c.06,.02,.23,.03,.3,.11l-.36,.07c.4,.04,.17,.56,.43,.68-.33-.44,.16-.27,.15-.57,.7,.41-.25,.68,.23,1.28-.07-.08-.07-.41,.11-.33,.03,.16,.04,.38-.03,.51,.26,.45,.19-.18,.41-.04-.19,.29,.22,.19,.4,.39l-.22,.09c.08,.64,.54-.02,.55,.6-.13-.05-.26-.09-.39-.13l.17,.26-.28,.02c.29,.25,.27,.37,.27,.7,.15-.12,.43-.07,.51,.22-.1,.23-.24-.06-.13,.34-.17-.06-.37-.12-.2-.34-.08,0-.17-.05-.25-.05-.11,.24,.08,.52,.11,.67,0-.06,0-.13,.02-.17,.15,.17,.29,.35,.44,.53-.07,.11-.16,.05-.24-.01,.05,.11,.17,.18,.22,.36-.2-.02-.4,.03-.53-.21l.3,.54c-.08,.05-.19,.33-.27,.26-.07,.33,.48,.74,.38,1.2,.04,.02,.08,.06,.12,.15,0,.42-.19,.81,.12,1.26l-.32,.3c.11,.36,.41-.4,.6,.2,.14,.43-.29,.19-.37,.34,.19,.2,.57,.56,.29,.96-.07-.13-.02-.23-.05-.35Zm-.68,4.04c0-.09-.07-.3,.08-.28,.2,.21,.06,.21-.08,.28Zm-5.24,1.92c.09-.05,.17,.02,.25,.15-.09-.01-.17-.05-.25-.15Zm-16.26-12h.02c.08,.21,.05,.13-.02,0Zm-.23-.38c-.05,0-.08,.02-.09,.05,.06-.02,.14,.05,.2,.14,.02-.07,.02-.14-.11-.19Zm19.53-6.44l.04,.1c-.21-.06-.13-.08-.04-.1Z"></path><path class="cls-4" d="M118.46,160s0,.09,0,.14c.04-.03,.06-.07,0-.14Z"></path><path class="cls-4" d="M123.16,151.25h0s-.03-.02-.04-.02l.04,.02Z"></path><path class="cls-4" d="M107.28,151.04c.04,.09,.04,.15,.03,.21,.05-.04,.05-.1-.03-.21Z"></path><path class="cls-4" d="M99.24,146.34l.24,.15c-.1-.09-.1-.16-.12-.23-.04,.04-.06,.14-.12,.08Z"></path><path class="cls-4" d="M98.66,143.56s-.06-.06-.1-.08l-.08,.08c.12,.13,.26,.16,.19,0Z"></path><path class="cls-4" d="M99.63,145.6c.13-.16-.04-.23-.2-.35,0,0,.02,.01,.02,.02-.24,.16-.03,.24,.18,.32Z"></path><path class="cls-4" d="M99.4,145.22s-.09-.08-.13-.12c-.1,.06,.03,.07,.13,.12Z"></path><path class="cls-4" d="M100.66,147.39c-.03-.1-.23,.14-.2,.05-.26,.11,.65,.22,.2-.05Z"></path><polygon class="cls-4" points="100 145.02 99.87 145.24 100.09 145.18 100 145.02"></polygon><path class="cls-4" d="M100.94,146.24l-.17-.27s-.07,.02-.12,0c.13,.14,.24,.33,.29,.27Z"></path><path class="cls-4" d="M100.66,145.97c-.07-.07-.14-.14-.2-.15,.04,.04,.13,.11,.2,.15Z"></path><polygon class="cls-4" points="100.35 145.27 100.38 145.37 100.52 145.54 100.35 145.27"></polygon><path class="cls-4" d="M103.24,148.65l.29,.19c.09-.04,.06-.14-.05-.2-.1-.02-.21-.08-.23,.01Z"></path><path class="cls-4" d="M103.01,147.44c.03,.1,0,.15-.03,.24l.23-.21-.2-.03Z"></path><path class="cls-4" d="M103.75,148.09c.09-.04,.52,.18,.21-.11-.08,.04-.37-.16-.21,.11Z"></path><polygon class="cls-4" points="107.03 152.01 106.97 151.95 106.62 152.31 107.03 152.01"></polygon><path class="cls-4" d="M111.04,154.34c-.19-.36-.29,.16-.43-.2-.15,.02,.12,.29-.02,.3,.26,.08,.3,.22,.45-.1Z"></path><path class="cls-4" d="M110.58,154.43s-.09-.02-.14-.03c.07,.03,.11,.03,.14,.03Z"></path><polygon class="cls-4" points="105.8 135.47 105.59 135.29 105.69 135.5 105.8 135.47"></polygon><path class="cls-4" d="M105.21,135.67l.04-.33-.24,.23c.06,0,.18,.01,.19,.1Z"></path><path class="cls-4" d="M122.02,158.22l.05,.06c.08,.03,.12,0,.18-.06-.08,0-.15,0-.23,0Z"></path><polygon class="cls-4" points="123.21 155.88 123.2 155.93 123.5 155.88 123.21 155.88"></polygon><path class="cls-4" d="M122.88,153.32c0,.11,.07,.24,.06,.34-.07-.23,.3-.4-.06-.34Z"></path></g></g><g><path class="cls-4" d="M50.2,147.93c2.46-3.53,4.92-7.05,7.39-10.58,.82-1.17,1.68-2.38,2.93-3.05s3.02-.63,3.9,.49c.64-1.06,2.23-1.22,2.86-2.28,.44-.73,.28-1.67,.51-2.49,.44-1.53,2.25-2.35,3.82-2.08s2.86,1.39,3.8,2.67c.55,.75,1.02,1.59,1.17,2.51,.26,1.69-.61,3.34-1.45,4.83-2.37,4.23-4.75,8.47-7.12,12.7-.92,1.64-2.21,3.51-4.09,3.47-1.14-.02-2.12-.76-3.14-1.28-1.02-.52-2.38-.79-3.21,0,.27,1.41-1.12,2.75-2.55,2.78-1.43,.03-2.73-.96-3.47-2.18s-1.04-2.66-1.32-4.06"></path><path class="cls-1" d="M50.88,147.96c1.94-2.78,3.88-5.56,5.82-8.34,1.26-1.81,4.35-7.5,7.05-4.54,.32,.35,1.11,.07,1.35-.26,.84-1.17,2.52-1.25,3.07-2.72,.32-.85,.09-1.83,.56-2.63,.57-.98,1.75-1.33,2.81-1.05,1.84,.49,3.51,2.37,4.13,4.12,.79,2.22-.63,4.36-1.68,6.23-2.22,3.95-4.4,7.92-6.65,11.85-.45,.79-.93,1.62-1.59,2.26-1.07,1.03-2.17,.81-3.38,.16-1.27-.68-2.54-1.38-4.03-1.03-.47,.11-1.29,.42-1.49,.92-.18,.46,.03,.93-.28,1.41-.52,.8-1.48,1-2.34,.64-2.26-.95-2.83-3.65-3.26-5.8-.11-.52-1.56-.16-1.45,.39,.45,2.25,1.06,4.79,3.25,5.98,1.54,.84,3.52,.6,4.75-.67,.25-.26,.46-.55,.61-.88,.11-.25,.08-.89,.21-1.03,.76-.85,3.15,.99,3.92,1.29,1.74,.67,3.53,.07,4.78-1.24,1.75-1.82,2.81-4.4,4.03-6.58,1.5-2.68,3.01-5.36,4.51-8.04,1.13-2.02,2.42-4.28,1.39-6.62-.82-1.86-2.53-3.67-4.55-4.18-1.77-.45-4.07,.17-5.05,1.81-.62,1.05-.16,2.53-1.05,3.42-.79,.78-1.89,.98-2.57,1.93l1.35-.26c-2.27-2.49-5.76-.35-7.38,1.72-2.91,3.74-5.48,7.8-8.19,11.69-.39,.56,1.07,.46,1.35,.05h0Z"></path></g><path class="cls-1" d="M59.42,146.03c-.22,2.45,1.11,4.9,3.3,6.03,.7,.36,1.39,.54,2.15,.24,.72-.28,.95-.93,1.01-1.65,.1-1.34-.6-2.6-1.48-3.56-.52-.56-1.14-1.13-1.92-1.28s-1.92,.11-2.39,.81c-.17,.26,.15,.32,.36,.31,.27,0,.79-.11,.96-.37,0,0,.13-.16,.13-.17,0,.03-.17,.02-.15,.05,.02,.03,.28,.07,.33,.09,.16,.07,.3,.16,.44,.26,.42,.31,.8,.69,1.13,1.1,.65,.8,1.15,1.81,1.14,2.86,0,.25-.04,.49-.11,.73-.03,.12-.07,.24-.12,.35,0,.02-.08,.11-.09,.14,.21-.79,.8-.08,.51-.22-.2-.1-.43-.16-.63-.27-.22-.11-.43-.24-.63-.39-.78-.55-1.43-1.3-1.86-2.15-.49-.96-.75-2.07-.65-3.15,.03-.28-.42-.23-.6-.21s-.82,.17-.84,.43h0Z"></path><path class="cls-1" d="M52.02,148.3c-.13,1-.27,2.06,0,3.05,.22,.78,.74,1.49,1.47,1.86,.4,.21,.9,.31,1.36,.25,.31-.04,.64-.14,.87-.35s.23-.45,.24-.73c.05-.94,.04-1.95-.39-2.81s-1.19-1.51-2.15-1.62c-.35-.04-.75,.04-1.02,.27-.21,.18-.18,.45,.13,.48,.77,.09,1.38,.72,1.67,1.41,.19,.45,.28,.95,.32,1.44,.02,.25,.02,.5,.01,.75,0,.12,0,.24-.02,.36,0,.07,0,.14-.01,.21s-.05,.12,.02,.06l.3-.17,.33-.07s.03,0-.01,0c-.04-.01-.09-.01-.14-.02-.08-.02-.15-.04-.23-.07-.18-.08-.34-.18-.48-.31-.32-.28-.56-.62-.71-1.01-.4-1-.25-2.12-.11-3.16,.07-.54-1.38-.28-1.45,.19h0Z"></path><path class="cls-1" d="M61.01,145.57c2.41-4.26,5.07-8.37,7.99-12.3,.55-.74-.81-.99-1.22-.45-2.98,4.02-5.7,8.22-8.16,12.57-.18,.32,.16,.58,.45,.63,.36,.06,.76-.13,.94-.45h0Z"></path><g><path class="cls-1" d="M76.32,144.42c-1.56-1.66-3.52-2.95-5.67-3.73,.67,.9,1.33,1.79,2,2.69-1.35-.31-2.7-.61-4.05-.92,.91,.85,1.83,1.7,2.74,2.55-1.44-.06-2.88-.25-4.29-.56,.85,.78,1.82,1.42,2.87,1.88-1.33-.09-2.64-.38-3.87-.87,1.34,.98,2.68,1.97,4.02,2.95,.33,.24,.68,.51,.81,.9,.15,.46-.05,.95-.21,1.4-.77,2.19-.53,4.95,1.27,6.41,.38,.31,.87,.56,1.36,.47,.67-.13,1.05-.83,1.32-1.46,1.4-3.34,2.19-6.94,2.32-10.56"></path><path class="cls-4" d="M76.98,144.11c-1.66-1.74-3.65-3.05-5.91-3.89-.39-.14-1.5,.24-1.09,.79,.67,.9,1.33,1.79,2,2.69l1.09-.79c-1.35-.31-2.7-.61-4.05-.92-.3-.07-1.63,.29-1.09,.79,.91,.85,1.83,1.7,2.74,2.55l.92-.83c-1.45-.07-2.88-.26-4.29-.56-.47-.1-1.34,.45-.81,.92,.91,.81,1.91,1.44,3.01,1.95l.68-.99c-1.28-.1-2.51-.38-3.71-.84-.46-.18-1.63,.41-.98,.89,1.29,.95,2.59,1.9,3.88,2.85,.29,.21,.65,.43,.78,.78,.16,.44-.12,.95-.24,1.36-.16,.5-.28,1-.33,1.52-.23,1.98,.36,4.4,2.22,5.44,2.55,1.43,3.67-1.85,4.27-3.64,.94-2.8,1.47-5.71,1.6-8.66,.03-.74-1.44-.52-1.47,.12-.11,2.48-.49,4.95-1.19,7.34-.34,1.17-.71,2.43-1.29,3.51-.7,1.31-1.91-.37-2.28-1.17-.4-.88-.51-1.87-.44-2.82,.04-.47,.12-.94,.25-1.39,.15-.51,.41-1.03,.4-1.57-.03-.98-1-1.51-1.7-2.02-1.12-.82-2.23-1.64-3.35-2.46l-.98,.89c1.3,.5,2.65,.8,4.04,.91,.52,.04,1.49-.62,.68-.99-1-.46-1.91-1.08-2.73-1.82l-.81,.92c1.42,.3,2.85,.49,4.29,.56,.28,.01,1.4-.38,.92-.83-.91-.85-1.83-1.7-2.74-2.55l-1.09,.79c1.35,.31,2.7,.61,4.05,.92,.37,.08,1.52-.2,1.09-.79-.67-.9-1.33-1.79-2-2.69l-1.09,.79c2.06,.77,3.9,1.98,5.42,3.57,.44,.46,1.82-.12,1.33-.63h0Z"></path></g><g><path class="cls-4" d="M97.58,132.26c-2.69,1.35-3.89,4.69-3.63,7.68s1.69,5.75,3.09,8.42c1.83,3.48,3.66,6.97,5.49,10.45-6.67-2.45-13.34-4.89-20-7.34-1.52-.56-3.17-1.12-4.71-.62-1.43,.47-2.42,1.75-3.26,3.01-2.46,3.69-4.42,8.43-2.55,12.45,.88,1.89,2.5,3.32,4.17,4.58,3.43,2.59,7.24,4.66,11.17,6.39,2.82,1.24,5.74,2.31,8.79,2.72,4.64,.64,9.37-.27,13.85-1.66,2.23-.69,4.44-1.51,6.37-2.83,5.91-4.06,7.89-12.26,6.31-19.26-1.57-7-6.05-12.99-10.89-18.28-2.16-2.35-4.47-4.66-7.33-6.07-1.98-.97-4.6-1.39-6.23,.11"></path><path class="cls-1" d="M97.15,132.1c-4.03,2.18-4.58,7.1-3.27,11.1,.86,2.64,2.29,5.08,3.58,7.53,1.45,2.76,2.9,5.52,4.35,8.28l1.31-.51c-6.05-2.22-12.1-4.44-18.14-6.66-2.29-.84-4.76-2.03-7.23-1.28-2.14,.65-3.43,2.57-4.53,4.4-2.51,4.15-4.07,9.46-.62,13.56,1.68,2,4,3.52,6.2,4.9,2.42,1.52,4.96,2.83,7.56,3.99,5.22,2.33,10.46,3.62,16.19,2.91,2.88-.35,5.7-1.09,8.45-1.99,2.4-.79,4.79-1.79,6.77-3.39,7.51-6.07,7.32-17.07,3.42-25.08-2.54-5.22-6.38-9.89-10.46-13.98-3.06-3.06-8.79-7.52-13.08-3.94-.6,.5,.83,.39,1.13,.14,2.04-1.69,5.12,0,6.95,1.24,1.9,1.29,3.53,2.93,5.09,4.61,3.08,3.33,5.99,6.88,8.17,10.87,3.91,7.16,5.22,16.55,.06,23.49-2.95,3.97-7.67,5.53-12.3,6.65-5.46,1.32-10.75,1.14-16.03-.83-4.63-1.73-9.14-4.04-13.15-6.94-1.78-1.29-3.61-2.72-4.66-4.69-1.09-2.05-1.1-4.41-.53-6.61,.65-2.49,1.94-4.91,3.5-6.95,.4-.52,.87-1.12,1.45-1.44,1.06-.59,2.23-.44,3.34-.12,1.37,.4,2.71,.97,4.06,1.46,5.74,2.11,11.48,4.21,17.21,6.32,.21,.08,1.51-.12,1.31-.51-2.45-4.66-5.23-9.27-7.29-14.12-1.63-3.84-2.34-9.71,2.05-12.09,.85-.46-.46-.52-.87-.31h0Z"></path></g></g></svg>