<svg xmlns="http://www.w3.org/2000/svg" xmlns:xlink="http://www.w3.org/1999/xlink" width="3000" zoomAndPan="magnify" viewBox="0 0 2250 525.000007" height="700" preserveAspectRatio="xMidYMid meet" version="1.0"><defs><clipPath id="dbca1f894b"><path d="M 2.140625 118.898438 L 2247.859375 118.898438 L 2247.859375 523.128906 L 2.140625 523.128906 Z M 2.140625 118.898438 " clip-rule="nonzero"/></clipPath></defs><g clip-path="url(#dbca1f894b)"><path fill="#5d4a68" d="M 2240.324219 324.746094 L 2224.089844 326.777344 L 2225.410156 322.214844 C 2225.410156 322.214844 2229.105469 309.640625 2209.144531 309.640625 C 2189.183594 309.640625 2194.359375 316.292969 2194.359375 316.292969 L 2182.527344 311.121094 C 2182.527344 311.121094 2175.875 312.597656 2173.65625 316.292969 C 2171.4375 319.992188 2160.347656 318.511719 2160.347656 318.511719 L 2147.039062 312.597656 L 2146.304688 303.726562 L 2138.910156 302.25 L 2133.734375 234.96875 L 2120.425781 239.402344 L 2123.382812 274.890625 L 2127.820312 274.890625 L 2129.296875 302.984375 L 2123.382812 305.199219 L 2121.164062 300.765625 L 2116.730469 243.101562 L 2103.421875 244.578125 L 2104.160156 272.671875 L 2107.113281 275.628906 L 2108.59375 309.636719 L 2097.503906 311.855469 L 2064.234375 307.421875 L 2062.75 317.777344 L 2054.617188 319.253906 L 2053.140625 334.039062 L 2052.398438 351.78125 L 2038.355469 356.957031 L 2030.960938 354 L 2025.046875 354 L 2028.746094 342.171875 L 2033.921875 336.253906 L 2031.703125 331.820312 L 2026.527344 327.386719 L 1995.472656 327.386719 L 1991.039062 249.019531 L 1993.996094 249.019531 L 1992.511719 208.355469 L 1971.8125 207.617188 L 1973.292969 248.28125 L 1983.644531 249.019531 L 1982.910156 325.167969 L 1958.507812 325.910156 L 1951.855469 249.019531 L 1956.292969 247.542969 L 1954.8125 206.878906 L 1933.367188 207.617188 L 1934.851562 249.761719 L 1943.722656 249.019531 L 1944.457031 325.910156 L 1910.449219 325.910156 L 1908.234375 295.597656 L 1913.40625 295.597656 L 1913.40625 267.503906 L 1898.617188 267.503906 L 1898.617188 294.117188 L 1902.3125 295.597656 L 1900.835938 326.648438 L 1889.746094 325.167969 L 1889.746094 305.207031 L 1875.699219 305.207031 L 1875.699219 295.597656 L 1879.398438 295.597656 L 1879.398438 266.761719 L 1863.132812 266.761719 L 1861.652344 285.984375 L 1855.734375 280.070312 L 1853.515625 183.21875 L 1852.039062 279.332031 L 1840.949219 291.164062 L 1839.46875 280.074219 L 1820.984375 280.074219 L 1821.722656 293.382812 L 1806.9375 293.382812 L 1806.9375 283.769531 L 1756.660156 283.769531 L 1756.660156 271.203125 L 1740.398438 271.203125 L 1740.398438 289.683594 L 1731.527344 291.898438 L 1725.605469 292.640625 L 1725.605469 273.417969 L 1710.085938 273.417969 L 1710.085938 298.554688 L 1696.777344 297.820312 L 1690.855469 300.773438 L 1670.894531 302.992188 L 1670.894531 297.820312 L 1666.457031 297.820312 L 1666.457031 303.734375 L 1647.976562 303.734375 L 1647.976562 297.078125 L 1643.542969 297.078125 L 1643.542969 306.691406 L 1619.144531 308.910156 L 1619.144531 264.546875 L 1623.578125 263.804688 L 1622.097656 226.097656 L 1612.488281 226.097656 L 1608.792969 230.53125 L 1608.792969 265.28125 L 1611.011719 268.238281 L 1610.269531 308.160156 L 1596.222656 310.378906 L 1596.222656 268.984375 L 1599.925781 268.246094 L 1599.183594 229.800781 L 1589.574219 230.535156 L 1588.835938 268.242188 L 1591.792969 271.199219 L 1589.574219 306.6875 L 1582.179688 308.90625 L 1582.179688 313.339844 L 1565.175781 316.292969 L 1564.4375 271.9375 L 1569.609375 270.457031 L 1569.609375 237.929688 L 1557.042969 238.667969 L 1553.34375 241.625 L 1543.734375 241.625 L 1540.773438 311.125 L 1528.949219 311.125 L 1528.949219 243.109375 L 1523.773438 243.109375 L 1523.773438 238.671875 L 1520.078125 238.671875 L 1520.078125 229.058594 L 1513.421875 229.058594 L 1513.421875 219.445312 L 1503.8125 219.445312 L 1503.8125 212.792969 L 1499.375 212.792969 L 1499.375 206.878906 L 1494.199219 206.878906 L 1494.199219 196.527344 L 1482.375 196.527344 L 1482.375 190.609375 L 1446.882812 190.609375 L 1433.574219 209.09375 L 1433.574219 229.054688 L 1404.738281 229.054688 L 1404.738281 221.664062 L 1336.71875 221.664062 L 1336.71875 228.316406 L 1321.195312 228.316406 L 1316.019531 234.96875 L 1306.410156 235.707031 L 1304.191406 242.359375 L 1293.101562 241.621094 L 1293.101562 328.125 L 1263.527344 328.125 L 1263.527344 311.121094 L 1258.351562 311.121094 L 1258.351562 291.898438 L 1252.4375 291.898438 L 1252.4375 275.632812 L 1237.28125 260.476562 L 1237.28125 252.714844 L 1228.78125 252.714844 L 1228.78125 260.109375 L 1215.839844 273.050781 L 1215.839844 291.164062 L 1151.152344 291.164062 L 1151.152344 159.5625 L 1142.28125 159.5625 L 1142.28125 144.039062 L 1122.316406 144.039062 L 1122.316406 125.550781 C 1122.316406 125.550781 1112.707031 123.332031 1094.960938 123.332031 C 1077.214844 123.332031 1072.046875 127.769531 1072.046875 127.769531 L 1070.5625 144.035156 L 1052.820312 144.035156 L 1052.820312 158.078125 L 1043.210938 158.078125 L 1043.210938 260.847656 L 1039.515625 260.847656 L 1039.515625 290.417969 L 1023.984375 290.417969 L 1023.984375 280.066406 L 1017.332031 280.066406 L 1017.332031 206.132812 L 1011.414062 206.132812 L 1004.023438 198.742188 L 987.015625 198.742188 L 981.46875 204.289062 L 972.230469 204.289062 L 972.230469 217.964844 L 950.046875 217.964844 L 950.046875 244.582031 L 945.613281 244.582031 L 945.613281 232.75 L 912.339844 232.75 L 912.339844 237.925781 L 882.027344 237.925781 L 882.027344 254.929688 L 876.113281 254.929688 L 876.113281 288.199219 L 858.367188 288.199219 L 858.367188 244.585938 L 844.316406 244.585938 L 844.316406 240.152344 L 826.574219 240.152344 L 826.574219 244.585938 L 812.53125 244.585938 L 812.53125 260.851562 L 791.828125 260.851562 L 791.828125 268.984375 L 779.996094 268.984375 L 779.996094 158.824219 L 776.296875 157.34375 L 776.296875 146.253906 L 774.082031 130.730469 L 764.46875 124.078125 L 762.992188 118.898438 L 752.640625 118.898438 L 752.640625 124.074219 L 747.464844 124.808594 L 745.246094 167.691406 L 738.59375 157.34375 L 738.59375 140.339844 L 727.503906 140.339844 L 727.503906 157.34375 L 707.539062 192.828125 L 703.101562 193.570312 L 703.101562 229.800781 L 669.832031 229.800781 L 670.570312 220.1875 L 663.917969 219.445312 L 663.917969 200.222656 L 650.609375 200.222656 L 650.609375 217.964844 L 641.738281 217.964844 L 641.738281 229.796875 L 621.339844 229.796875 L 620.765625 179.070312 L 604.972656 197.5 L 617.160156 195.867188 L 617.546875 229.800781 L 601.074219 229.800781 L 601.074219 222.40625 L 594.421875 222.40625 L 594.421875 199.484375 L 579.636719 199.484375 L 579.636719 220.929688 L 570.765625 220.929688 L 570.765625 230.539062 L 564.851562 230.539062 L 564.851562 237.464844 C 559.746094 241.019531 544.769531 251.261719 537.640625 254.433594 C 531.074219 257.378906 517.085938 264.03125 509.808594 267.507812 L 492.394531 267.507812 L 492.394531 261.589844 L 471.691406 261.589844 L 471.691406 267.507812 L 457.640625 267.507812 L 457.640625 285.988281 C 457.640625 285.988281 421.414062 273.421875 403.671875 268.246094 C 385.929688 263.074219 344.527344 254.9375 344.527344 254.9375 L 343.785156 240.152344 L 323.824219 240.152344 L 289.078125 227.582031 L 255.808594 227.582031 L 255.808594 234.972656 C 255.808594 234.972656 127.160156 209.835938 103.503906 206.136719 C 93.855469 204.628906 75.105469 202.382812 56.28125 200.253906 L 47.765625 195.898438 C 22.894531 183.109375 2.746094 172.199219 2.707031 172.171875 L 0.898438 175.523438 C 0.914062 175.53125 20.882812 186.34375 45.605469 199.058594 C 22.238281 196.464844 1.472656 194.3125 1.472656 194.3125 L 1.472656 523.316406 L 2247.578125 523.316406 L 2248.441406 316.632812 Z M 614.339844 192.410156 L 617.089844 189.210938 L 617.121094 192.039062 Z M 153.046875 222.808594 L 167.5 224.996094 L 167.015625 248.875 L 152.777344 243.3125 Z M 152.71875 247.371094 L 166.929688 252.921875 L 166.558594 271.058594 C 161.835938 269.289062 157.117188 267.507812 152.472656 265.753906 Z M 152.417969 269.796875 L 166.480469 275.085938 L 166.445312 276.753906 C 161.863281 275.382812 157.167969 273.960938 152.382812 272.503906 Z M 152.332031 276.457031 L 166.371094 280.6875 L 166.183594 289.804688 L 152.171875 288.488281 Z M 131.152344 217.992188 L 145.605469 220.179688 L 145.34375 240.402344 L 131.046875 234.78125 Z M 131.019531 238.851562 L 145.292969 244.460938 L 145.058594 262.9375 L 130.898438 257.519531 Z M 130.871094 261.582031 C 135.378906 263.320312 140.128906 265.136719 145.003906 266.984375 L 144.960938 270.242188 C 140.308594 268.820312 135.59375 267.371094 130.847656 265.902344 Z M 130.820312 269.867188 C 135.5625 271.332031 140.269531 272.777344 144.914062 274.195312 L 144.730469 288.492188 L 130.71875 286.304688 Z M 109.699219 214.492188 L 123.273438 217.117188 L 122.992188 231.597656 L 120.886719 230.761719 C 117.40625 229.382812 113.546875 227.746094 109.410156 225.921875 Z M 109.304688 230.015625 C 112.933594 231.605469 116.367188 233.054688 119.484375 234.292969 C 120.59375 234.734375 121.738281 235.1875 122.910156 235.652344 L 122.550781 254.277344 C 117.414062 252.265625 112.789062 250.425781 108.828125 248.804688 Z M 108.726562 252.867188 C 112.746094 254.496094 117.378906 256.335938 122.476562 258.328125 L 122.378906 263.285156 L 108.574219 258.984375 Z M 108.472656 262.929688 L 122.300781 267.230469 L 121.957031 284.988281 L 107.945312 283.675781 Z M 83.421875 210.550781 L 100.9375 213.613281 L 100.828125 222.046875 C 95.285156 219.488281 89.40625 216.691406 83.398438 213.773438 Z M 83.378906 217.980469 C 89.390625 220.890625 95.25 223.664062 100.777344 226.195312 L 100.53125 245.335938 C 95.277344 243.085938 89.417969 240.503906 83.257812 237.738281 Z M 83.226562 241.886719 C 89.417969 244.65625 95.25 247.214844 100.476562 249.433594 L 100.386719 256.417969 L 93.535156 254.265625 L 83.167969 251 Z M 21.683594 275.796875 L 5.921875 274.921875 L 6.175781 252.910156 L 21.996094 258.515625 Z M 22.0625 254.5 L 6.21875 248.882812 L 6.4375 230.4375 C 11 231.914062 16.375 233.652344 22.40625 235.589844 Z M 22.476562 231.625 L 6.484375 226.464844 L 6.71875 206.253906 C 11.140625 208.363281 16.617188 210.976562 22.796875 213.902344 Z M 22.867188 209.734375 L 6.769531 202.0625 L 6.792969 199.597656 L 22.996094 202.664062 Z M 47.953125 277.984375 L 30.441406 276.667969 L 30.441406 261.511719 L 47.953125 267.71875 Z M 47.953125 263.679688 L 30.441406 257.46875 L 30.441406 238.175781 L 47.953125 243.789062 Z M 47.953125 239.800781 L 30.441406 234.1875 L 30.441406 217.515625 L 47.953125 225.734375 Z M 47.953125 221.546875 L 30.441406 213.320312 L 30.441406 204.855469 L 47.953125 207.484375 Z M 75.101562 278.859375 L 57.148438 277.984375 L 57.0625 270.949219 L 75.128906 277.351562 Z M 75.210938 273.339844 L 57.011719 266.890625 L 56.761719 246.597656 L 75.609375 252.585938 Z M 75.6875 248.628906 L 56.714844 242.597656 L 56.554688 229.730469 C 63.046875 232.738281 69.574219 235.730469 75.882812 238.585938 Z M 75.960938 234.453125 C 69.59375 231.566406 63.023438 228.542969 56.503906 225.523438 L 56.273438 207.046875 L 64.472656 208.648438 L 76.347656 214.550781 Z M 83.140625 254.96875 C 88.800781 256.757812 94.546875 258.566406 100.332031 260.378906 L 100.058594 281.484375 L 97.65625 281.296875 L 83.007812 276.101562 Z M 168.402344 334.972656 L 143.128906 334.972656 L 143.128906 328.417969 L 90.710938 330.289062 L 89.773438 308.761719 C 89.773438 308.761719 121.601562 312.507812 131.898438 313.441406 C 142.191406 314.375 168.402344 318.121094 168.402344 318.121094 Z M 187.203125 293.308594 L 171.878906 291.117188 L 172.050781 282.382812 C 177.328125 283.953125 182.402344 285.441406 187.246094 286.847656 Z M 187.273438 282.902344 C 182.441406 281.5 177.375 280.007812 172.125 278.449219 L 172.148438 277.203125 L 187.273438 282.832031 Z M 187.300781 278.789062 L 172.226562 273.175781 L 172.582031 255.121094 L 187.417969 260.898438 Z M 187.449219 256.839844 L 172.660156 251.078125 L 173.191406 224.121094 L 187.636719 228.0625 Z M 206.46875 295.5 L 192.457031 295.0625 L 192.59375 288.394531 C 197.566406 289.820312 202.230469 291.128906 206.535156 292.3125 Z M 206.667969 285.953125 C 202.292969 284.34375 197.621094 282.613281 192.742188 280.8125 L 193.09375 263.105469 L 207.023438 268.515625 Z M 207.109375 264.472656 L 193.171875 259.058594 L 193.773438 228.9375 L 207.785156 231.5625 Z M 225.296875 297.25 L 211.722656 295.9375 L 211.722656 293.714844 C 216.980469 295.117188 221.546875 296.269531 225.296875 297.125 Z M 225.363281 292.828125 L 211.726562 287.820312 L 211.726562 270.339844 L 225.605469 275.71875 Z M 225.664062 271.667969 L 211.726562 266.265625 L 211.726562 231.566406 L 226.175781 235.507812 Z M 375.089844 267.695312 L 381.011719 269.253906 L 381.632812 279.851562 L 374.777344 277.984375 Z M 354.828125 300.738281 L 347.035156 307.59375 L 347.035156 278.296875 L 355.136719 279.542969 Z M 355.449219 272.996094 L 345.789062 271.75 L 345.164062 263.335938 L 355.453125 263.335938 L 355.453125 272.996094 Z M 368.855469 303.855469 L 359.503906 303.855469 L 359.816406 279.230469 L 369.164062 281.101562 Z M 369.476562 276.734375 L 359.503906 274.863281 L 360.4375 264.890625 L 370.101562 266.761719 Z M 373.53125 303.539062 L 373.84375 283.28125 L 381.324219 285.773438 L 382.261719 303.226562 Z M 393.164062 304.480469 L 386.929688 305.101562 L 386.929688 287.332031 L 394.097656 288.890625 Z M 387.558594 281.722656 L 386.933594 269.566406 L 395.039062 271.433594 L 395.347656 284.214844 Z M 406.882812 287.957031 L 399.402344 286.085938 L 400.335938 272.0625 L 407.507812 274.242188 Z M 411.867188 290.136719 L 412.179688 275.800781 L 418.726562 277.980469 L 419.035156 293.257812 Z M 527.144531 306.691406 L 522.863281 306.691406 L 527.144531 305.050781 Z M 571.503906 325.171875 L 564.109375 323.695312 L 564.847656 314.082031 L 557.453125 314.082031 L 557.453125 305.210938 L 538.972656 305.210938 L 538.972656 300.601562 L 545.613281 298.160156 C 556.617188 294.15625 566.042969 289.292969 571.503906 286.25 Z M 571.503906 281.890625 C 566.675781 284.664062 556.46875 290.167969 544.3125 294.582031 C 539.222656 296.433594 534.199219 298.304688 529.636719 300.035156 L 527.144531 300.035156 L 527.144531 300.980469 L 517.535156 304.671875 L 517.535156 297.078125 L 512.359375 297.078125 L 512.359375 296.242188 C 520.21875 294.019531 533.417969 290.125 545.914062 285.695312 C 557.792969 281.480469 566.5 277.621094 571.507812 275.242188 L 571.507812 281.890625 Z M 571.503906 271.027344 C 567.03125 273.210938 557.84375 277.433594 544.640625 282.109375 C 532.796875 286.308594 520.265625 290.039062 512.359375 292.292969 L 512.359375 281.089844 C 519.375 278.3125 534.621094 271.882812 546.019531 264.289062 C 557.90625 256.355469 567.757812 246.96875 571.503906 243.238281 Z M 571.503906 240.015625 L 570.390625 238.960938 C 570.375 238.980469 558.664062 251.300781 543.910156 261.128906 C 533.621094 268 519.746094 274.003906 512.359375 276.988281 L 512.359375 270.5 C 519.839844 266.925781 532.960938 260.6875 539.191406 257.894531 C 548.617188 253.648438 568.753906 239.359375 568.816406 239.324219 L 568.351562 238.671875 L 571.503906 238.671875 Z M 629.660156 311.6875 L 617.292969 311.429688 L 617.292969 320.707031 L 613.167969 320.707031 L 613.167969 328.4375 L 601.058594 328.179688 L 601.058594 301.378906 C 601.058594 301.378906 601.574219 290.296875 608.019531 285.144531 C 609.667969 283.824219 611.226562 282.800781 612.644531 281.992188 L 629.660156 305.957031 Z M 629.660156 299.402344 L 616.101562 280.304688 C 618.269531 279.425781 619.613281 279.21875 619.613281 279.21875 L 629.660156 278.964844 Z M 1551.625 317.527344 L 1551.433594 277.457031 L 1556.515625 277.269531 L 1557.078125 317.527344 Z M 1551.625 317.527344 " fill-opacity="1" fill-rule="nonzero"/></g></svg>