<svg version="1.1" id="Layer_1" xmlns="http://www.w3.org/2000/svg" xmlns:xlink="http://www.w3.org/1999/xlink" x="0px" y="0px" viewBox="0 0 500 500" style="width: 188px;" xml:space="preserve" data-imageid="global-warming-1-46" imageName="Global Warming 1" class="illustrations_image">
<style type="text/css">
	.st0_global-warming-1-46{fill:#F56132;}
	.st1_global-warming-1-46{fill:#093F68;}
	.st2_global-warming-1-46{fill:#68E1FD;}
	.st3_global-warming-1-46{fill:#70CC40;}
</style>
<g id="fire_global-warming-1-46">
	<path class="st0_global-warming-1-46" d="M389.4,336.8c20.9-36,24.4-81.6,18.2-122.2c0.8,5.1-10.4,28.6-15.4,30.4c-7.2,2.6-6.9-21.8-7-26.9&#10;&#9;&#9;c0-12.7,1.8-25.6-0.5-38.2c-2.5-13.2-11.1-21.7-19.7-31.5c1.8,16-7.7,27.6-11.4,42c2.9-11.6-3-24-11.9-31.9s-20.3-12.4-31.5-16.8&#10;&#9;&#9;l-27-10.4c-10.4-4-21.1-8.2-28.8-16.3s-11.4-21-5.6-30.5c-38.9,14.2-62.2,46.5-72.1,85.3c4.8-19.7-1.5-40.4-16.4-54.2&#10;&#9;&#9;c1.2,15.6-3.5,31.2-13.1,43.6c-13.3,17.1-26.5,24.6-32.6,46.7c-2.7,9.6-10.4,48.8-0.4,56.1c-9.4-6.9-17.4-15.5-23.4-25.5&#10;&#9;&#9;c-6.9,48.8,13.7,85.1,43.1,122c24.5,30.7,60.2,52.9,99.7,56.4c48.3,4.3,98.6-12.8,132.6-47.7C375.3,358,383,347.8,389.4,336.8z"/>
	<path class="st1_global-warming-1-46" d="M248.6,417.4c-5,0-10-0.2-15-0.7c-37.9-3.3-74.7-24.2-101-57.1c-31-39-50.3-74.8-43.5-123.4&#10;&#9;&#9;c0.1-1,1.1-1.8,2.1-1.6c0.6,0.1,1.1,0.4,1.4,0.9c4.4,7.2,9.8,13.7,16,19.3c-3.8-16.9,4.3-49,4.5-49.4c4.4-15.9,12.3-24.3,21.4-34.1&#10;&#9;&#9;c3.8-4,7.7-8.2,11.6-13.3c9.3-12,13.8-27.1,12.7-42.3c-0.1-1,0.7-1.9,1.7-2c0.5,0,1,0.1,1.4,0.5c10.8,9.8,17.4,24,18.4,38.6&#10;&#9;&#9;c10-26.7,29.6-56,68.1-70.1c1-0.4,2.1,0.1,2.4,1.1c0.2,0.5,0.1,1.2-0.2,1.7c-5.5,9-1.5,21,5.4,28.2c7.5,7.9,18.5,12.1,28.1,15.8&#10;&#9;&#9;l27,10.4c10.7,4.1,22.8,8.8,32,17.1c6.5,5.6,10.9,13.2,12.7,21.6c0.5-1.1,0.9-2.2,1.4-3.4c3.7-8.6,7.1-16.8,6-26.7&#10;&#9;&#9;c-0.1-0.8,0.4-1.6,1.1-1.9c0.8-0.3,1.6-0.1,2.2,0.5c1,1.1,2,2.3,3,3.4c7.6,8.7,14.9,16.9,17.1,29.1c1.6,8.9,1.3,17.9,0.9,26.7&#10;&#9;&#9;c-0.2,3.9-0.3,7.9-0.3,11.9v0.8c0,18.9,2.3,23.3,3.6,24.3c0.2,0.2,0.5,0.2,0.8,0.1c3.8-1.4,14.9-23.6,14.1-28.4l0,0&#10;&#9;&#9;c-0.1-1,0.7-2,1.7-2.1c1-0.1,1.8,0.6,2,1.5c4.1,27,7.2,79-18.5,123.4l0,0c-6.4,11.2-14.2,21.5-23.2,30.7&#10;&#9;&#9;C337.3,399.6,293.6,417.4,248.6,417.4z M92.3,241.9c-4.6,44.7,14,78.6,43.3,115.4c25.6,32.2,61.5,52.5,98.4,55.8&#10;&#9;&#9;c49,4.3,98.1-13.3,131.1-47.2c8.8-9,16.4-19.1,22.7-30c10.2-17.6,25.7-54.9,19.2-111.3c-3.6,9.2-10.2,20.9-14.1,22.3&#10;&#9;&#9;c-1.4,0.6-3,0.4-4.2-0.5c-3.6-2.5-5.2-11-5.2-27.4v-0.8c0-4,0.2-8.1,0.3-12c0.4-8.6,0.8-17.4-0.8-25.9c-2-10.9-8.6-18.6-15.7-26.6&#10;&#9;&#9;c-0.3,8.5-3.4,15.9-6.5,23.1c-2.1,4.5-3.8,9.2-5.1,14.1c-0.2,1-1.2,1.7-2.2,1.5c-1-0.2-1.7-1.2-1.5-2.2c0-0.1,0-0.1,0-0.2&#10;&#9;&#9;c2.5-9.8-2-21.6-11.4-30.1c-8.8-7.9-20-12.2-30.9-16.4l-27-10.4c-10-3.9-21.3-8.2-29.4-16.7c-6.8-7.1-11.1-18.5-7.9-28.3&#10;&#9;&#9;c-42,17.3-59.4,54-66.6,82.3l0,0c-0.3,1-1.3,1.6-2.3,1.3c-1-0.3-1.6-1.3-1.3-2.2l0,0c4.3-17-0.7-36-12.5-48.9&#10;&#9;&#9;c0,14.5-4.8,28.5-13.6,40c-4,5.2-8,9.4-11.8,13.6c-8.7,9.4-16.3,17.5-20.5,32.5c-3.6,13-9.3,48.1-1.2,54c0.8,0.7,0.9,1.9,0.2,2.7&#10;&#9;&#9;c-0.6,0.7-1.7,0.9-2.5,0.4C105.1,257.5,98.1,250.2,92.3,241.9z M389.4,336.8L389.4,336.8z"/>
</g>
<g id="earth_global-warming-1-46">
	<path class="st2_global-warming-1-46 targetColor" d="M369.2,285.7c0,64.8-52.6,117.2-117.3,117.2s-117.2-52.6-117.2-117.3c0-12.5,2-24.9,5.9-36.7l0,0&#10;&#9;&#9;c20.3-61.5,86.7-94.8,148.2-74.5c47.3,15.7,79.6,59.6,80.4,109.4C369.2,284.4,369.2,285,369.2,285.7z" style="fill: rgb(104, 225, 253);"/>
	<path class="st1_global-warming-1-46" d="M252,404.8c-65.8,0-119.2-53.4-119.1-119.3c0-12.6,2-25.2,6-37.1c0,0,0-0.1,0-0.1c2.7-8.2,6.3-16,10.7-23.4&#10;&#9;&#9;c13-21.8,32.6-38.9,55.9-48.9c60.6-25.7,130.5,2.5,156.2,63.1c4,9.3,6.7,19.1,8.2,29.1c0.8,5.1,1.2,10.3,1.3,15.5&#10;&#9;&#9;c0,0.6,0,1.3,0,1.9C371.1,351.5,317.8,404.8,252,404.8z M142.5,249.3c0,0,0,0.1,0,0.1c-20,60.5,12.8,125.8,73.3,145.8&#10;&#9;&#9;c60.5,20,125.8-12.8,145.8-73.3c3.9-11.7,5.8-23.9,5.8-36.2c0-0.6,0-1.2,0-1.9c-0.1-5-0.5-10.1-1.2-15.1&#10;&#9;&#9;c-9.4-63.1-68.2-106.6-131.2-97.2c-9.6,1.4-19,4.1-28,7.9c-22.6,9.7-41.5,26.2-54.1,47.3C148.6,233.9,145.1,241.5,142.5,249.3z"/>
	<path class="st3_global-warming-1-46" d="M278,309.7c-4.9-2.8-10.8,1.8-13.7,6.6s-5.6,10.6-10.9,12.2c-3.4,1-8.6,1.2-8.7,4.8c0,0.5,0.1,1.1,0.3,1.6&#10;&#9;&#9;c3.5,10.7,19.1,13.9,28.1,7s11-20.2,7-30.8"/>
	<path class="st1_global-warming-1-46" d="M261.7,347.3c-2.3,0-4.5-0.3-6.7-1c-5.8-1.8-10.2-5.8-11.9-10.9c-0.3-0.7-0.4-1.4-0.4-2.2&#10;&#9;&#9;c0.1-4.3,4.5-5.3,7.8-6c0.8-0.2,1.6-0.3,2.3-0.5c3.8-1.1,6.1-5,8.4-9c0.5-0.8,1-1.6,1.4-2.4c3.7-6,10.5-10.4,16.2-7.2&#10;&#9;&#9;c0.6,1.1,1.7,1.9,2.9,2.3c4,10.5,2.6,25.1-7.6,33C270.6,346,266.2,347.4,261.7,347.3z M274.8,310.7c-3.4,0-7,3.4-9,6.5&#10;&#9;&#9;c-0.5,0.8-0.9,1.5-1.4,2.3c-2.5,4.3-5.4,9.2-10.6,10.7c-0.8,0.2-1.6,0.4-2.5,0.6c-3.2,0.7-4.8,1.2-4.8,2.4c0,0.3,0.1,0.7,0.2,1&#10;&#9;&#9;c1.3,4,4.7,7.1,9.4,8.5c5.3,1.8,11.2,0.9,15.8-2.4c8.8-6.7,9.9-19.5,6.4-28.6l-0.1-0.2c-0.4,0.1-0.8,0-1.2-0.2&#10;&#9;&#9;C276.4,311,275.6,310.7,274.8,310.7z"/>
	<path class="st3_global-warming-1-46" d="M243.4,352.9c-6-1.5-12.4-0.2-17.3,3.6c4,3.9,9.2,6.2,14.8,6.4c2.9,0.1,6.3-0.6,7.8-3.1s-0.6-6.8-3.4-6"/>
	<path class="st1_global-warming-1-46" d="M241.5,364.9h-0.6c-6-0.2-11.8-2.7-16.1-7c-0.7-0.7-0.8-1.9,0-2.6c0.1-0.1,0.1-0.1,0.2-0.2&#10;&#9;&#9;c5.4-4.2,12.4-5.7,19-4c0.5,0.1,0.9,0.4,1.1,0.9c1.9-0.4,3.7,0.4,4.8,2c1.5,2,1.7,4.7,0.5,6.9C248.8,363.4,245.6,364.9,241.5,364.9&#10;&#9;&#9;z M229.2,356.8c3.4,2.6,7.5,4.2,11.8,4.3c1.1,0,4.8,0,6.1-2.2c0.4-0.9,0.3-1.9-0.3-2.6c-0.3-0.4-0.7-0.6-1-0.5&#10;&#9;&#9;c-0.8,0.2-1.7-0.1-2.1-0.9c-0.2,0-0.5,0-0.7,0C238.3,353.6,233.3,354.3,229.2,356.8z"/>
	<path class="st3_global-warming-1-46" d="M369.2,285.7c0,29.2-10.8,57.3-30.5,78.9c-0.8-2.7-1.3-5.5-1.6-8.4c-2.2-19.4,8.9-37,18.7-52.8&#10;&#9;&#9;c4.1-6.7,8.4-13.5,13.4-19.6C369.2,284.4,369.2,285,369.2,285.7z"/>
	<path class="st1_global-warming-1-46" d="M338.7,366.4c-0.1,0-0.3,0-0.4,0c-0.7-0.2-1.2-0.7-1.4-1.3c-0.8-2.8-1.4-5.7-1.7-8.6&#10;&#9;&#9;c-2.2-19.7,8.8-37.4,18.4-53.1l0.6-1c4.1-6.7,8.4-13.6,13.6-19.8c0.7-0.8,1.9-0.9,2.7-0.2c0.4,0.3,0.7,0.9,0.7,1.4c0,0.6,0,1.3,0,2&#10;&#9;&#9;c0,29.6-11,58.2-31,80.1C339.8,366.2,339.3,366.4,338.7,366.4z M367.3,289.3c-3.6,4.8-6.8,10-9.9,15l-0.6,1&#10;&#9;&#9;c-9.3,15.1-19.9,32.3-17.8,50.7c0.1,1.2,0.4,2.7,0.8,4.6C356.8,340.7,366.5,315.5,367.3,289.3L367.3,289.3z"/>
	<path class="st3_global-warming-1-46" d="M368,268.5c-3.8,1.9-8,3.1-12.2,3.6c-15.1,1.8-31-6-38.6-19.1c-1.6-2.8-3-5.8-5.5-7.8c-5-4.1-12.9-2.6-18-6.6&#10;&#9;&#9;c-6.9-5.4-4.4-16-2.8-24.7c2.7-14.5-0.3-31.1-9.7-41.7C326.9,183.9,361.1,221.8,368,268.5z"/>
	<path class="st1_global-warming-1-46" d="M351.5,274.2c-14.4,0-28.8-7.9-36-20.3c-0.3-0.6-0.7-1.1-1-1.7c-1-2.1-2.3-4-4-5.6c-2.2-1.8-5.1-2.4-8.2-3&#10;&#9;&#9;c-3.4-0.7-6.8-1.4-9.7-3.6c-7.5-5.8-5.4-16.5-3.8-25.1l0.3-1.4c2.8-14.8-0.9-30.6-9.3-40.1c-0.7-0.8-0.6-2,0.2-2.7&#10;&#9;&#9;c0.5-0.4,1.1-0.6,1.7-0.4c46.5,11.8,81.2,50.5,88.1,97.9c0.1,0.8-0.3,1.6-1,2c-4,2-8.4,3.2-12.8,3.8&#10;&#9;&#9;C354.5,274.1,353,274.2,351.5,274.2z M286.1,175.4c6.7,10.4,9.3,25,6.7,38.8l-0.3,1.4c-1.5,8-3.2,17,2.4,21.4&#10;&#9;&#9;c2.2,1.7,5,2.2,8.1,2.9c3.5,0.7,7,1.4,9.9,3.8c2.3,1.8,3.6,4.3,5,6.7c0.3,0.6,0.6,1.1,0.9,1.7c7.2,12.4,22.4,19.9,36.8,18.2&#10;&#9;&#9;c3.6-0.4,7-1.4,10.3-2.9C359,224,328,188.3,286.1,175.4z"/>
	<path class="st3_global-warming-1-46" d="M244.3,247.2c-2.7-0.2-5.3-1.4-8-1.7c-10.1-1.1-17.7,10.3-17.3,20.5s6,19.2,10.2,28.4&#10;&#9;&#9;c1.7,3.7,3.1,7.8,2.2,11.6c-1.8,7-10.1,9.8-17.2,10.5s-15.1,0.8-20.1,5.9c-6.5,6.7,5.3,47.1-16.6,32.9c-3.2-2.1-6.2-6-9.9-5.1&#10;&#9;&#9;s-4.7,5.5-6,9.1c-0.1,0.2-0.2,0.5-0.3,0.7c-25.4-31.1-33.2-73-20.6-111.1l0,0c3.5-2.7,7.4-5.1,11.4-7c2.3-1.1,4.8-2.2,6-4.4&#10;&#9;&#9;c2-3.8-1.1-8.5-4.8-10.6c-0.7-0.4-1.4-0.7-2.1-1.1c12.8-21.5,32-38.3,55-48.1c12.6,7.7,24.7,16.3,36,25.7&#10;&#9;&#9;c7.5,6.3,15.2,13.6,17.1,23.2S254.1,248,244.3,247.2z"/>
	<path class="st1_global-warming-1-46" d="M161.3,361.8c-0.6,0-1.1-0.3-1.5-0.7c-25.8-31.6-33.7-74.1-21-112.8c0.1-0.4,0.3-0.7,0.7-1&#10;&#9;&#9;c3.7-2.8,7.6-5.2,11.8-7.2l0.3-0.1c2-0.9,4-1.9,4.8-3.4c1.4-2.7-0.9-6.3-4-8.1c-0.6-0.4-1.3-0.7-1.9-1c-1-0.4-1.4-1.5-1-2.5&#10;&#9;&#9;c0-0.1,0.1-0.2,0.1-0.2c13-21.7,32.6-38.8,55.8-48.8c0.6-0.2,1.2-0.2,1.7,0.1c12.7,7.7,24.8,16.4,36.2,25.9&#10;&#9;&#9;c8,6.7,15.7,14.2,17.7,24.3c1.1,6.3-0.7,12.8-5,17.7c-2.9,3.5-7.4,5.4-11.9,5.1l0,0c-1.5-0.2-3-0.5-4.4-0.9&#10;&#9;&#9;c-1.2-0.4-2.4-0.6-3.6-0.8c-3.4-0.3-6.7,1-9.1,3.4c-4,4-6.2,9.5-6.1,15.1c0.3,7.6,3.8,14.9,7.3,21.9c0.9,1.9,1.9,3.9,2.8,5.8&#10;&#9;&#9;c1.8,3.9,3.4,8.4,2.3,12.9c-2.3,9.3-14,11.4-18.9,11.9l-2.4,0.2c-6.2,0.5-12.6,1.1-16.6,5.1c-1.8,1.8-1.8,8.6-1.8,14.5&#10;&#9;&#9;c0,9-0.1,18.4-5.2,21.2c-2.9,1.6-6.9,0.8-11.9-2.5c-1-0.7-1.9-1.4-2.8-2.1c-2.4-2-4-3.1-5.7-2.8c-2.2,0.5-3.1,3.5-4.1,6.3&#10;&#9;&#9;c-0.2,0.5-0.4,1.1-0.5,1.6l-0.3,0.7c-0.2,0.6-0.8,1.1-1.5,1.2L161.3,361.8z M168.6,348.1c2.9,0,5.3,1.9,7.4,3.7&#10;&#9;&#9;c0.8,0.7,1.6,1.3,2.5,1.9c3.7,2.4,6.5,3.2,8.1,2.4c3.2-1.7,3.2-10.7,3.2-17.9c0-7.6,0-14.2,2.9-17.1c4.9-5.1,12.4-5.7,19-6.3&#10;&#9;&#9;l2.4-0.2c3.2-0.3,13.8-1.9,15.6-9c0.8-3.3-0.5-7-2-10.4c-0.9-1.9-1.8-3.8-2.7-5.7c-3.6-7.4-7.3-15-7.6-23.4&#10;&#9;&#9;c-0.2-6.7,2.5-13.3,7.3-18c3.2-3.2,7.6-4.8,12.1-4.4c1.4,0.2,2.8,0.5,4.2,0.9c1.2,0.4,2.5,0.6,3.8,0.8l0,0c3.4,0.2,6.7-1.2,8.8-3.9&#10;&#9;&#9;c3.4-4,4.9-9.3,4-14.5c-1.8-8.9-8.9-15.9-16.4-22.1c-11-9.2-22.7-17.5-34.9-25c-21.5,9.4-39.7,25.2-52.1,45.1l0.4,0.2&#10;&#9;&#9;c4.6,2.6,8.1,8.4,5.5,13.1c-1.4,2.7-4.1,4-6.5,5.1l-0.3,0.1c-3.7,1.8-7.3,3.9-10.6,6.4c-11.8,36.2-4.9,75.9,18.3,106.1&#10;&#9;&#9;c1.1-3.3,2.6-6.9,6.5-7.8C167.6,348.2,168.1,348.1,168.6,348.1L168.6,348.1z"/>
</g>
</svg>