<svg xmlns="http://www.w3.org/2000/svg" version="1.1" xmlns:xlink="http://www.w3.org/1999/xlink" xmlns:svgjs="http://svgjs.dev/svgjs" width="3000" height="700" preserveAspectRatio="none" viewBox="0 0 3000 700"><g mask="url(&quot;#SvgjsMask1040&quot;)" fill="none"><path d="M3100 700L0 700 L0 358.26Q97.25 305.5, 150 402.75Q246.91 349.66, 300 446.58Q358.32 354.9, 450 413.22Q542.8 256.02, 700 348.82Q831.45 230.27, 950 361.72Q1092.43 254.15, 1200 396.58Q1348.39 294.98, 1450 443.37Q1479.72 323.09, 1600 352.8Q1683.96 286.76, 1750 370.73Q1838.63 309.36, 1900 397.98Q2049.4 297.38, 2150 446.78Q2218.74 265.51, 2400 334.25Q2532.26 216.51, 2650 348.78Q2759.39 308.17, 2800 417.57Q2886.99 354.56, 2950 441.56Q2975.48 317.04, 3100 342.52z" fill="rgba(75, 68, 76, 1)"></path><path d="M3100 700L0 700 L0 472.12Q125.86 347.99, 250 473.85Q298.01 371.86, 400 419.87Q496.57 366.44, 550 463.02Q661.93 324.95, 800 436.88Q961.56 348.44, 1050 510Q1136.22 446.22, 1200 532.44Q1267.25 349.69, 1450 416.93Q1531.53 348.46, 1600 429.99Q1782.97 362.97, 1850 545.94Q1943.11 389.05, 2100 482.15Q2251.87 384.02, 2350 535.89Q2467.41 403.3, 2600 520.7Q2679 349.7, 2850 428.7Q3006.91 335.62, 3100 492.53z" fill="rgba(95, 89, 101, 1)"></path><path d="M3100 700L0 700 L0 633.25Q19.14 502.39, 150 521.54Q293.79 415.33, 400 559.11Q496.49 505.6, 550 602.09Q594.02 496.12, 700 540.14Q789.11 479.25, 850 568.35Q967.82 436.17, 1100 553.99Q1165.9 469.89, 1250 535.8Q1356.39 492.19, 1400 598.59Q1431.86 480.45, 1550 512.31Q1635.02 447.33, 1700 532.34Q1868.72 451.07, 1950 619.79Q2043.13 462.91, 2200 556.04Q2338.4 444.44, 2450 582.84Q2505.13 487.98, 2600 543.11Q2768.05 461.16, 2850 629.22Q2940.24 469.47, 3100 559.71z" fill="rgba(192, 188, 189, 1)"></path><path d="M3250 700L0 700 L0 736.65Q29.6 616.25, 150 645.85Q257.46 503.31, 400 610.76Q520.62 581.38, 550 701.99Q591.01 593, 700 634.01Q790.62 574.63, 850 665.24Q950.41 615.65, 1000 716.07Q1080.13 646.21, 1150 726.34Q1178.95 605.29, 1300 634.24Q1447.09 531.33, 1550 678.42Q1689.83 568.25, 1800 708.07Q1930.81 588.88, 2050 719.69Q2126.16 545.85, 2300 622.01Q2413.76 585.77, 2450 699.54Q2510.39 609.92, 2600 670.31Q2648.7 569.01, 2750 617.71Q2907.99 525.71, 3000 683.7Q3118.91 552.61, 3250 671.52z" fill="rgba(241, 240, 241, 1)"></path></g><defs><mask id="SvgjsMask1040"><rect width="3000" height="700" fill="#ffffff"></rect></mask></defs></svg>