<svg transform="scale(1)" version="1.1" id="TMVLOKmOpw" xmlns="http://www.w3.org/2000/svg" xmlns:xlink="http://www.w3.org/1999/xlink" x="0px" y="0px" viewBox="0 0 500 500" xml:space="preserve" class="pbimage_pbimage__wrapper__image__0LEis false"><title>Ecology</title><style type="text/css"> .st0{fill:#59BE4C;} .st1{fill:#FFFFFF;} .st2{fill:#000005;}
 .st2{fill:#000005;}
 .st1{fill:#FFFFFF;}
 .st0{fill:#604c6b;}</style><g id="earth"><circle class="st0" cx="250" cy="308.5" r="142.9" fill="#604c6b"></circle><path class="st1" d="M291.8,170.9C291.8,171.1,291.7,170.4,291.8,170.9l0.2,0.8c0.2,1.1,0.3,2.2,0.4,3.3c0.4,3.9,0.3,7.9-0.2,11.8
		c-1.7,13-7.3,25.2-16.1,34.9c-5.2,5.8-10.8,11.2-15.2,17.7c-3,4.4-5.8,9.2-6.8,14.5c-1.9,10.2,4.2,19.9,11.6,26.4
		c3.7,3.2,7.8,5.9,10.8,9.8c1,1.3,1.9,2.7,2.7,4.2l0.6,1.1c0.2,0.4-0.2-0.4,0.1,0.2l0.3,0.6c0.4,0.8,0.8,1.5,1.1,2.3
		c3,6.1,6.4,12.2,13.4,14.1c4.9,1.3,10.2,1,15.2,0.4c6.2-0.6,12.2-2.1,18-4.2c10.3-4.1,19.4-10.7,27.3-18.4
		c6.9-6.7,13.1-14.1,18.5-22c3.1-4.4,5.9-8.9,8.4-13.6l0.4-0.8c0.3-0.6-0.8-2.4-1.1-2.9c-0.1-0.2-1-1.8-1.3-1.3
		c-0.1,0.1,0.1-0.1,0,0.1c-0.1,0.2-0.2,0.3-0.3,0.5c-0.4,0.7-0.7,1.3-1.1,2c-1.3,2.4-2.7,4.7-4.2,7c-4.7,7.4-10,14.3-15.9,20.8
		c-7.1,8-15.3,14.8-24.5,20.1c-10.3,5.8-22,8.8-33.8,8.8c-4,0-8.1-0.5-11.6-2.5c-1.2-0.7-2.3-1.6-3.2-2.7c-0.2-0.2-0.4-0.4-0.5-0.6
		l-0.3-0.4c-0.1-0.1-0.3-0.5-0.2-0.3s-0.2-0.3-0.2-0.3l-0.3-0.4c0-0.1-0.1-0.1-0.1-0.2c-0.2-0.3,0.2,0.4,0,0.1l-0.3-0.5l-0.2-0.4
		c-0.1-0.1-0.4-0.6-0.2-0.3s-0.1-0.2-0.1-0.2s-0.2-0.4-0.3-0.6c-0.4-0.7-0.7-1.4-1-2.1c-0.8-1.7-1.6-3.3-2.5-4.9
		c-2-3.8-4.6-7.2-7.7-10.1c-1.9-1.8-4-3.3-6-4.9c-2.1-1.7-4.1-3.6-5.8-5.6c-0.7-0.8-1.3-1.7-1.9-2.6c-0.2-0.4-0.4-0.7-0.5-0.9
		c0.1,0.3-0.3-0.5-0.1-0.3s-0.2-0.4-0.2-0.6c0.1,0.3-0.1-0.4-0.2-0.4s-0.1-0.2-0.1-0.4c-0.1-0.5-0.3-0.9-0.3-1.4
		c-0.2-1-0.3-2.1-0.3-3.1c0-4.9,1.9-9.6,4.2-13.8c3.5-6,7.8-11.6,12.6-16.6c2.9-3.1,5.8-6,8.4-9.3c2.2-2.8,4.2-5.8,5.9-9
		c2.9-5.3,5-10.9,6.3-16.8c1.6-7.1,1.8-14.4,0.6-21.5c-0.1-0.5-0.2-0.9-0.3-1.4c-0.3-1.2-0.8-2.2-1.6-3.2
		C291.8,170,291.5,170,291.8,170.9L291.8,170.9z" fill="#FFFFFF"></path><path class="st1" d="M219.1,168.9c0.1,0.7,0.1,1.3,0.1,2c0,0.4,0-0.3,0,0.1c0,0.1,0,0.3,0,0.5c0,0.4,0,0.9-0.1,1.3
		c0,0.9-0.1,1.9-0.3,2.8c-0.7,4.9-3.1,9.4-6.7,12.8c-2.5,2.2-5.5,3.9-8.7,4.9c-3.5,1.1-7,2.6-10.3,4.2c-7.1,3.7-13.5,8.5-19,14.4
		c-5.2,5.6-9.6,12.2-11.5,19.6c-0.9,3.5-1.1,7.2-0.7,10.8c0.4,1.7,0.2,3.5-0.4,5.2c-1.4,3.1-4.9,4.4-8.1,5.1
		c-4.4,0.7-9,0.8-13.4,0.3c-7.1-0.7-13.8-2.3-20.7-3.9l-0.4-0.1c-1.1-0.3-1.2,1.1-1,1.8c0.4,1.2,1.3,2.1,2.4,2.5
		c5.9,1.7,11.9,2.9,18,3.6c4.8,0.7,9.6,0.9,14.4,0.5c3.6-0.4,7.9-1.2,10.6-4c1.3-1.3,2.1-3,2.4-4.8c0.4-2.7-0.4-5.4-0.3-8.1
		c0.2-7.6,3.8-14.6,8.4-20.6c5-6.4,11.2-11.8,18.2-16c3.3-2,6.7-3.7,10.2-5.1c3.4-1.3,7-2.2,10.1-4.3c7.7-5,11.3-14.4,10.3-23.4
		c0-0.2,0-0.4-0.1-0.5c-0.2-1.2-1-2.3-2.1-2.9C219.6,167.3,218.8,167.8,219.1,168.9L219.1,168.9z" fill="#FFFFFF"></path><path class="st1" d="M106.1,290.9c4.9,2.2,10,3.8,15.3,4.7c12.2,2.4,24.7,2.1,36.8-0.8c9.1-2.2,18.6-5.2,28.1-4.1
		c3,0.2,5.9,1.2,8.4,3c2.2,1.9,3.5,4.5,3.7,7.3c0.5,4-0.6,8.2-1.8,12c-2.1,6.2-5.1,12.1-7.8,18.1c-2.5,5.4-5.1,10.7-7.4,16.2
		c-1.9,4.2-3.3,8.7-4.2,13.3c-0.7,3.8-0.5,7.7,0.5,11.5c1.1,3.8,3.2,6.9,5,10.2c2.2,4.1,3.9,9.2,2.7,13.9c-0.2,0.9-0.6,1.8-1.1,2.6
		c-0.3,0.5-0.6,0.9-0.9,1.3c-0.3,0.4-0.6,0.7-1,1c-0.4,0.3,0.4-0.3,0,0l-0.4,0.3c-0.4,0.3,0.4-0.2,0.1,0c-0.1,0.1-0.2,0.1-0.3,0.2
		c-0.5,0.2,0.6-0.2,0,0c-0.1,0.1-0.3,0.1-0.4,0.2c-0.5,0.3,0.6-0.2,0,0c-0.2,0.1-0.4,0.2-0.6,0.2c0.6-0.2-0.3,0.1-0.4,0.1l-0.5,0.1
		c0.4-0.1-0.2,0-0.2,0c-0.7,0.2-1.4,0.3-2.1,0.4c-4,0.4-8.1,0.3-12.1-0.4c-5.7-1-11.2-2.4-16.7-4.3c-3.4-1.1-6.7-2.4-10-3.7
		c-0.8-0.3-2.3,0.6-2.9,1c-0.2,0.1-1.9,1.2-1.2,1.5c10.8,4.3,22.4,8.4,34.2,8.7c6.6,0.2,14.1-1.4,18.6-6.5c3.2-3.6,3.3-8.6,2.1-13
		c-0.8-2.7-1.9-5.2-3.3-7.6c-2.3-3.5-3.9-7.4-4.6-11.5c-1.4-9.2,2.8-18.4,6.5-26.5c2.8-6.1,5.7-12,8.4-18.1c2.4-5.3,4.9-10.7,6-16.5
		c0.6-3.3,0.9-7-0.4-10.2c-1.1-2.6-3.2-4.7-5.8-5.8c-3.2-1.3-6.7-1.9-10.1-1.7c-4.7,0.1-9.4,0.6-13.9,1.6
		c-6.3,1.3-12.4,3.3-18.7,4.2c-6.4,0.9-12.9,1.1-19.4,0.5c-7.8-0.6-15.5-2.5-22.8-5.4c-0.4-0.1-0.7-0.3-1.1-0.5
		c-0.8-0.4-2.3,0.6-3,1c-0.3,0.2-1.9,1.2-1.2,1.5L106.1,290.9z" fill="#FFFFFF"></path><path class="st1" d="M267.4,415.1c2.5-7.1,2.9-14.8,1.2-22.1c-0.7-2.9-1.9-5.7-3.5-8.2c-1.5-2.4-3.5-4.2-5.2-6.4
		c0.3,0.3,0-0.1-0.1-0.2l-0.4-0.5c-0.3-0.4-0.6-0.8-0.9-1.3c-0.6-0.8-1.1-1.7-1.5-2.6c0,0-0.3-0.6-0.5-0.9c-0.2-0.5-0.5-1-0.7-1.5
		c-0.4-1-0.8-2-1.1-3c-2.2-6.9-3.1-15.9,0.6-22.2c1.5-2.9,4.2-4.9,7.4-5.7c1.9-0.4,3.8-0.4,5.7-0.2c3,0.4,5.9,1.3,8.8,1.7
		c6.3,0.7,12.7,0.6,19-0.3c5.5-0.7,11-1.7,16.5-1.9c2.2-0.1,4.4,0,6.6,0.5c1.8,0.3,3.4,1.1,4.8,2.2c0.7,0.6,1.4,1.3,2,2.1
		c0.7,1,1.3,2,1.8,3.1c1,2.3,1.7,4.7,2.2,7.1c2.1,10.5,0.6,21.5-3,31.5c-3.9,11-10.4,20.9-19.1,28.7c-4.8,4.1-10.2,7.6-16,10.2
		c-5.1,2.5-10.8,4.9-16.5,5.6c-1,0.1-2.1,0.2-3.1,0.2c-0.7,0-1.4-0.1-2.1-0.3l-0.6-0.1c0.4,0.1,0.2,0.1-0.1,0s-0.7-0.3-1.1-0.5
		c0.6,0.3-0.1-0.1-0.4-0.3c-0.5-0.3,0,0,0,0s-0.3-0.2-0.4-0.4s-0.5-0.5-0.2-0.2s-0.1-0.1-0.1-0.2l-0.2-0.4c0-0.1-0.1-0.1-0.1-0.2
		c-0.3-0.5,0.1,0.3,0,0c-0.1-0.3-0.3-0.6-0.4-0.9c-0.1-0.2-0.1-0.4-0.2-0.6c0-0.1-0.1-0.2-0.1-0.2c-0.1-0.3,0.1,0.3,0,0
		c-0.3-1.7-0.4-3.4-0.2-5.1C266.3,419.5,266.8,417.3,267.4,415.1c0.6-2.1-3.9-4.4-4.6-1.9c-2.1,7.3-3,17.7,5.7,21
		c4.3,1.6,9.1,0.9,13.4-0.2c6.7-1.9,13.2-4.7,19.2-8.2c10.8-6.4,19.7-15.7,25.6-26.8c5.7-10.3,8.7-22,8.7-33.8
		c-0.1-10.1-2.7-23.2-13-27.7c-4.7-2-10-1.9-15-1.4c-6,0.6-11.9,1.7-17.9,2.2c-3.3,0.3-6.5,0.3-9.8,0.2c-3.3-0.3-6.6-0.8-9.8-1.6
		c-4.5-1-9.3-0.9-13.4,1.3c-7.3,3.9-8.8,13.5-8.1,21c0.4,4.4,1.5,8.8,3.2,12.9c0.9,2,1.9,4,3.1,5.8c1.3,1.9,2.8,3.6,4.4,5.3
		c6.8,7.5,6.9,19,4.4,28.3c-0.2,0.6-0.4,1.3-0.6,1.9C262.1,415.3,266.5,417.5,267.4,415.1z" fill="#FFFFFF"></path><path class="st1" d="M213.4,226.4c-2.9,1.1-5.3,3.3-6.4,6.3c-1.2,3.3-0.2,6.7,1.9,9.3s5.6,4.9,9.2,4.4c3.1-0.5,5.5-2.8,6.1-5.9
		c0.7-4.1-2.3-8.1-5.7-10c-0.6-0.3-1.8-0.6-1.6,0.4c0.4,1.1,1.2,2.1,2.2,2.6c0.4,0.3,0.1,0.1,0.1,0c0.1,0,0.4,0.3,0,0l0.2,0.2
		c0.2,0.2-0.3-0.1,0,0c0.1,0,0.1,0.1,0,0c0.1,0.1,0.2,0.2,0.2,0.4c0.2,0.4,0.1,0.2,0.1,0.1c0.1,0.2,0.2,0.3,0.2,0.5
		c0.4,1,0.5,2,0.3,3c-0.5,2.3-2.2,4.1-4.5,4.8c-1,0.3-2.1,0.3-3.1-0.1c-0.1-0.1-0.3-0.1-0.4-0.2h-0.1c-0.1-0.1-0.2-0.2-0.4-0.3
		c0.5,0.4-0.3-0.3-0.1-0.1s-0.5-0.7-0.3-0.3c-0.6-0.8-0.9-1.7-1-2.7c-0.1-1.1,0.1-2.2,0.5-3.3c1-2.5,3-4.5,5.6-5.4
		C218,229.6,214.7,226,213.4,226.4L213.4,226.4z" fill="#FFFFFF"></path><path class="st1" d="M217,412.6c-5.4-0.6-11.9,2.1-13,8c-0.6,2.7,0.3,5.4,2.4,7.2c2,1.7,4.7,2.3,6.7,4.1s3.6,4.4,5.7,6.3
		c2,2.1,4.8,3.4,7.7,3.6c5.3,0.1,9.4-4.5,10-9.6c0.8-6.6-3.9-11.9-8.2-16.2c-0.9-0.9-2.4-1-3.4-0.2c-0.9,0.6-1.6,2.1-0.7,3
		c3,3.1,6.6,6.5,7.4,11c0.3,1.6,0.1,3.3-0.6,4.9c-0.5,1.3-1.5,2.4-2.9,2.9c-3.7,1-7.2-4.1-9.3-6.6c-1.4-1.7-3.2-3.2-5.2-4.3
		c-1.6-0.8-3.8-1.4-4.6-3.3c-0.7-1.7-0.3-3.7,1.1-5c1.6-1.3,3.8-1.8,5.8-1.5C218.8,417.2,220.2,413,217,412.6L217,412.6z" fill="#FFFFFF"></path></g><g id="plant"><path class="st1" d="M169.4,193.3c0,0-5.7,17.8-12.3,17.2s-10.4-4.2-7.7-9.9S170.4,185.7,169.4,193.3z"></path><path class="st2" d="M167.7,192.6c-0.9,2.7-1.9,5.2-3.1,7.8c-1,2-2.1,3.9-3.5,5.7c-0.5,0.7-1.2,1.4-1.9,1.9
		c-0.2,0.1-0.4,0.2-0.5,0.4c-0.1,0.1-0.2,0.1-0.3,0.2c0.2-0.1,0,0,0,0c-0.2,0.1-0.3,0.2-0.5,0.2l-0.3,0.1c-0.4,0.1,0.3,0-0.1,0h-0.5
		c0.5,0-0.6-0.1-0.7-0.1c-0.7-0.1-1.3-0.2-2-0.4c-1.1-0.3-2.1-0.8-2.9-1.6c-0.6-0.6-1-1.4-1-2.3c0-1.1,0.3-2.2,0.8-3.2
		c0.9-1.5,2.2-2.8,3.7-3.8c1.8-1.3,3.7-2.5,5.7-3.5c1.9-1,4-1.7,6.2-2c0.2,0,0.4,0,0.6,0c-0.4,0,0.1,0,0.2,0l0.2,0.1
		c0.2,0-0.4-0.1-0.1,0c0.5,0.2-0.3-0.2,0.1,0c0.1,0.1,0.2,0.2-0.2-0.1c0.1,0.1,0.3,0.3,0.1,0s-0.1,0,0,0s-0.1-0.3,0-0.1s0-0.2,0,0.3
		c0,0.1,0,0.2,0,0.2c0,0.3,0-0.2,0,0.2c-0.1,0.9,0.5,1.8,1.4,2.1c0.7,0.3,2,0.2,2.1-0.8c0.4-2.1-0.8-4.2-2.9-4.9
		c-2.1-0.7-4.4-0.1-6.5,0.6c-4.9,1.6-9.3,4.5-12.8,8.3c-1.8,2-2.5,4.7-2,7.4c0.7,3.1,3.6,5.1,6.5,6c2.7,0.8,5.4,1.3,7.9-0.4
		c1.9-1.5,3.5-3.3,4.7-5.5c2.1-3.6,3.9-7.4,5.1-11.4C171.7,192.2,168.3,190.6,167.7,192.6z"></path><path class="st1" d="M169,186.5c0,0-13.8-7.5-20.7-3.1s-5.2,13.8,6.6,11.6S170.3,189,169,186.5z"></path><path class="st2" d="M170.6,186c-3.1-1.7-6.5-3-9.9-3.9c-5.2-1.3-11.5-1.7-15.7,2.4c-2.8,2.7-3.8,7.3-0.3,9.9
		c2.1,1.6,5.1,1.9,7.6,1.8c3.7-0.2,7.3-1,10.8-2.3c2.6-0.9,9.7-3.7,7.7-7.7c-0.5-1-4.1-0.4-3.6,0.7c0.3,0.8,0.1,1.8-0.5,2.4
		c-1.1,1.2-2.5,2.1-4,2.7c-2.7,1.1-5.6,1.9-8.5,2.3c-2,0.5-4,0.2-5.8-0.6c-3-1.8-2.7-5.5-0.8-8c2.8-3.4,6.7-3.2,10.6-2.2
		c3.2,0.8,6.3,2,9.2,3.5c0.8,0.4,1.7,0.4,2.6,0.1C170.4,187,171.3,186.4,170.6,186z"></path><path class="st1" d="M172.3,183c0,0-12.3-16.2-17.4-15.4s-7,4.8-4.4,9.9s16.2,9.8,19.4,8.3S172.3,183,172.3,183z"></path><path class="st2" d="M173.4,182c-1.9-2.5-4-5-6.1-7.3c-1.7-1.9-3.6-3.7-5.6-5.4c-1.6-1.5-3.5-2.6-5.5-3.2c-2.5-0.4-5.1,0.5-6.8,2.4
		c-2.1,2.4-1.9,5.8-0.7,8.6c2.2,5.1,8.3,7.9,13.3,9.4c2.4,0.8,5.3,1.7,7.8,1.2c2.3-0.4,5.2-2.8,3.8-5.3c-0.4-0.8-1.4-1.2-2.3-1
		c-0.7,0.4-1,1.3-0.6,2c0,0,0.1,0.1,0.1,0.1c-0.1-0.2-0.1-0.5-0.1-0.7c0.1,0.1-0.3,0.5-0.5,0.7c-0.4,0.4-0.9,0.6-1.4,0.8
		c-0.2,0.1,0.2,0-0.2,0.1c-0.2,0-0.4,0-0.6,0c-1.9,0-3.7-0.4-5.5-1c-2.3-0.7-4.5-1.7-6.6-2.9c-1-0.6-1.9-1.2-2.8-2
		c-0.5-0.5-1-1-1.3-1.7c-1-2-1.3-4.5,0.6-6.1c0.9-0.7,2-1.2,3.1-1.4c0.1,0,0.3,0,0.4,0c-0.3,0,0,0,0.1,0l0.4,0.1
		c-0.3-0.1,0.1,0.1,0.2,0.1c0.7,0.3,1.3,0.6,1.9,1.1c0.8,0.6,1.5,1.2,2.2,1.8c1.6,1.4,3.1,2.9,4.5,4.5c2,2.2,4,4.6,5.8,7
		c0.5,0.7,1.6,0.9,2.3,0.4C174.3,183.7,173.8,182.6,173.4,182z"></path><path class="st1" d="M175.5,180.9c0,0,1.8-23.4-5.4-24.6s-11,3.5-8.7,10.8s9.5,15,11.6,15.1C174,182.4,175,181.8,175.5,180.9z"></path><path class="st2" d="M177.4,181.1c0.2-2.9,0.2-5.9,0.1-8.8c-0.1-4.6-0.4-9.7-2.6-13.8c-0.9-1.8-2.6-3-4.5-3.4
		c-3-0.5-6.4-0.2-8.8,1.8c-5.5,4.6-1.6,13,1.5,17.8c1.9,3.1,4.3,5.8,7.2,7.9c2,1.4,6,1.7,7.1-1.1c0.7-1.8-2.9-2.6-3.5-1
		c-0.1,0.2,0,0.1-0.2,0.2l-0.3,0.2c-0.1,0.1-0.2,0-0.3,0s0.4,0.1,0.2,0s0.2,0.1-0.1-0.1c-0.2-0.1-0.3-0.2-0.5-0.3
		c-0.3-0.2-0.7-0.6-1.1-0.9c-2.1-2-4-4.2-5.5-6.7c-1.8-2.6-3-5.6-3.5-8.7c-0.2-2.1,0.2-4.4,2-5.8c0.8-0.6,1.8-0.9,2.8-1
		c0.6-0.1,1.2-0.1,1.9,0c0.1,0,1,0.2,0.5,0.1c0.3,0.1,0.2,0,0.2,0c0.4,0.1,0.2,0.1,0.6,0.4c0.2,0.2,0.4,0.4,0.5,0.6
		c0.4,0.6,0.8,1.3,1,2c1.4,3.7,1.7,7.9,1.8,11.9c0.1,2.7,0,5.5-0.2,8.2C173.5,182.5,177.3,182.9,177.4,181.1z"></path><path class="st1" d="M178.7,180.9c0,0,13.5-13.7,11.7-17.9s-7.8-5.5-10.7-3.5s-6.7,20.2-4.2,21.4S178.7,180.9,178.7,180.9z"></path><path class="st2" d="M180,182.3c2.5-2.5,4.8-5.1,7-7.9c1.6-1.9,3-4.1,4.2-6.3c0.9-1.8,1.4-3.7,0.4-5.5c-1.6-3-4.5-5.1-7.9-5.5
		c-2.2-0.3-4.7,0.2-6,2.1c-1.1,1.9-1.9,3.9-2.4,6c-0.7,2.6-1.3,5.3-1.7,8c-0.3,2.1-0.6,4.5,0,6.6c0.4,1.4,1.6,2.6,3,3
		C177.6,183.1,179.3,183.4,180,182.3c0.9-1.1-1.7-3.8-2.5-2.7c-0.1,0.1-0.2,0.2-0.3,0.2c-0.2,0.1-0.3,0.1-0.5,0.1
		c-0.3,0-0.9-0.3-1.1-0.3c0,0,0.5,0.4,0.6,0.5c0.3,0.3,0.3,0.4,0.2,0.2s0.3,0.4,0.1,0.2s0-0.2,0,0s-0.1-0.7-0.1-0.5
		c-0.1-1.9,0-3.7,0.3-5.6c0.6-4.1,1.5-8.5,3.4-12.2c0.8-1.4,2.3-2.2,3.9-2.1c1.2,0,2.4,0.3,3.4,0.9c0.4,0.2,0.7,0.5,1,0.8
		c0.2,0.2,0.3,0.4,0.5,0.6c0.1,0.1,0.4,0.8,0.2,0.3c0,0.1,0.1,0.5,0.1,0.2c0,0.1,0,0.3,0,0.4c0,0.3-0.1,0.6-0.2,0.9
		c-0.3,0.8-0.6,1.6-1,2.4c-1.1,1.9-2.3,3.7-3.7,5.3c-2.1,2.7-4.4,5.2-6.8,7.6C176.4,180.5,179,183.3,180,182.3z"></path><path class="st1" d="M178.5,189.4c0,0-8.7,6.6-10.4,4.5s-1.1-10.2,5.7-13.3S181.2,183.5,178.5,189.4z"></path><path class="st2" d="M177.4,188c-1.5,1.2-3.2,2.2-4.9,3.2c-0.6,0.3-1.2,0.6-1.8,0.9c-0.4,0.2,0.3-0.1-0.1,0.1l-0.4,0.1
		c-0.3,0.1-0.6,0.2-0.9,0.3c-0.4,0.1,0-0.1,0,0c-0.1,0-0.2,0-0.4,0c-0.4,0,0.3,0,0.1,0c-0.4-0.1,0,0,0.1,0c-0.3-0.1,0.4,0.2,0.2,0.1
		s0.2,0.2,0.2,0.2s-0.1-0.1-0.1-0.1s-0.1-0.1-0.1-0.1s0.2,0.4,0.1,0.2s-0.1-0.2-0.1-0.3s-0.1-0.2-0.1-0.3s0.1,0.4,0,0
		c-0.1-0.3-0.1-0.5-0.1-0.8s0-0.6,0-0.9s0,0.3,0-0.1c0-0.2,0-0.4,0-0.6c0.1-0.7,0.2-1.4,0.4-2.1c0-0.1,0.2-0.6,0.1-0.2
		c0.1-0.2,0.1-0.3,0.2-0.5c0.2-0.4,0.3-0.8,0.5-1.1c1.2-2.1,3.2-3.7,5.5-4.4l0.6-0.2l0,0h0.3c0.2,0,0.4,0,0.6,0
		c-0.1,0-0.4-0.1-0.1,0l0.3,0.1c0.4,0-0.4-0.1,0.1,0c0,0,0.1,0,0.1,0.1c0.2,0.1-0.4-0.2-0.1,0c0,0,0.1,0.1,0.2,0.1
		c-0.3-0.1-0.2-0.2-0.1-0.1l0.1,0.2c0.2,0.2,0,0.1,0-0.1c0.1,0.1,0.1,0.3,0.2,0.4s0.1,0.1,0.1,0.2s0-0.3,0,0
		c0.1,0.4,0.1,0.8,0.1,1.2c0,0.1,0,0.2,0,0.3c0-0.2,0-0.1,0,0.1s0,0.4-0.1,0.7c-0.1,0.5-0.2,1-0.3,1.4c0,0.2-0.1,0.4-0.2,0.6
		s-0.1,0.2-0.1,0.3c-0.2,0.5,0.1-0.1-0.1,0.2c-0.2,0.6-0.4,1.1-0.7,1.6c-0.9,2,2.5,3.4,3.4,1.5c1.4-3.1,3.1-8.4-0.2-11
		c-1.7-1.4-4.1-1.2-6.1-0.4c-2.2,0.8-4.1,2.1-5.6,3.8c-2.3,2.7-3.4,6.3-2.9,9.8c0.3,1.6,1.1,3.1,2.8,3.5c1.6,0.2,3.1-0.1,4.5-0.8
		c2.4-1.1,4.7-2.5,6.8-4.2c0.7-0.4,1-1.4,0.5-2.1c0-0.1-0.1-0.1-0.1-0.2C179.4,187.7,178.3,187.5,177.4,188z"></path><path class="st2" d="M186.6,207.4c0.1-3.3-1.2-6.7-2.5-9.7s-2.8-6.6-5.4-8.8c-0.6-0.5-1.6-0.5-2.1,0.2c0,0.1-0.1,0.1-0.1,0.2
		c-0.3,0.9,0,1.9,0.9,2.4c-0.5-0.4,0.1,0.1,0.2,0.3l0.1,0.2l0.2,0.3c0.4,0.5,0.7,1.1,1,1.7c0.8,1.4,1.4,2.8,2,4.3
		c0.6,1.6,1.2,3.1,1.6,4.8c0.2,0.6,0.3,1.1,0.4,1.7c0,0.3,0.1,0.6,0.1,0.8s0,1,0.1,0.5c-0.1,1,0.5,1.9,1.4,2.2
		C185.3,208.5,186.5,208.3,186.6,207.4L186.6,207.4z"></path><path class="st2" d="M171.9,189.2c2.2,0,1.7-3.6-0.2-3.6C169.4,185.6,170,189.2,171.9,189.2z"></path><path class="st1" d="M174.8,184.2c0.2,0.1,0.4-0.2,0.2-0.4c-0.1,0-0.3,0.1-0.4,0.1"></path><path class="st2" d="M175.3,185.8c0.1,0,0.2,0.1,0.3,0.1l0,0l0.2-0.1l0,0l0,0c0.1-0.1,0.1-0.1,0.2-0.2c0,0,0-0.1,0.1-0.1l0,0
		c0-0.1,0-0.2,0.1-0.3c0-0.1,0-0.2,0-0.4l0,0v-0.2l-0.1-0.2l0,0c-0.1-0.3-0.3-0.6-0.4-0.9c-0.1-0.1-0.2-0.3-0.3-0.4
		c-0.2-0.2-0.4-0.4-0.6-0.6l-0.3-0.2l-0.2-0.1H174l-0.2,0.1l0,0c0,0,0,0-0.1,0l-0.1,0.1c-0.1,0.1-0.2,0.2-0.2,0.3c0,0.2,0,0.3,0,0.5
		c0,0.2,0.1,0.4,0.2,0.6c0.1,0.2,0.2,0.4,0.3,0.6l0.3,0.4c0.2,0.2,0.4,0.4,0.6,0.6l0.3,0.2c0.1,0.1,0.3,0.1,0.5,0
		c0.1-0.1,0.2-0.1,0.2-0.1l-0.2,0.1h0.1l-1.1-0.8l0,0l-0.3-0.4l0,0l-0.2-0.4l0,0l-0.2-0.4l0,0l-0.1-0.4l0,0v-0.3c0,0,0,0,0,0.1
		l0.1-0.3c0,0,0,0.1-0.1,0.1l0.1-0.2c0,0-0.1,0.1-0.1,0.1h0.2H174l0.2,0.1l0,0c-0.1-0.1-0.2-0.1-0.4,0c-0.1,0-0.2,0.1-0.2,0.2
		c0,0.1,0,0.3,0,0.4c0,0.2,0,0.4,0.1,0.6l0.2,0.4c0.1,0.3,0.3,0.6,0.5,0.8l0.3,0.3C174.9,185.6,175.1,185.7,175.3,185.8L175.3,185.8
		z"></path><path class="st2" d="M175,188.9c2.4,0,2.5-3.1,0.1-3.1S172.6,188.9,175,188.9z"></path><path class="st1" d="M185.1,202.5c-0.3-2.4,0-4.9,0.9-7.2c0.3-0.9,0.9-1.7,1.8-2.2c1.2-0.5,2.5-0.1,3.3,0.9c0.7,1,1,2.3,0.7,3.5
		c-0.3,1.2-0.8,2.3-1.5,3.3c-0.6,0.9-1.2,1.7-1.8,2.5c-0.6,0.8-1.6,1.6-2.5,1.3"></path><path class="st2" d="M186.9,202.4c-0.3-2.1,0-4.2,0.7-6.2c0.2-0.8,0.7-1.6,1.4-2.2c-0.1,0,0,0,0.1,0c-0.1,0-0.1,0,0.1,0
		c-0.1,0-0.2,0-0.3,0c0.2,0,0.2,0,0,0c0.2,0.1,0.2,0.1,0,0c0.2,0.1,0.2,0.1,0.1,0c0.1,0.1,0.3,0.2,0.4,0.3c1.2,1.3,0.6,3.6-0.1,5
		c-0.5,1-1.1,1.9-1.8,2.7c-0.3,0.4-0.6,0.8-0.9,1.1c-0.2,0.2-0.4,0.3-0.6,0.5c0-0.1,0,0-0.1,0.1c0.3-0.1,0.6-0.1,0.9,0
		c-0.7-0.2-1.9-0.3-2.4,0.5s0.6,1.3,1.1,1.5c1.4,0.4,2.9,0.1,4-0.8c0.8-0.7,1.5-1.6,2.1-2.5c1.2-1.7,2.5-3.7,2.3-5.9
		c-0.2-2.3-2-4.2-4.3-4.4c-1.2-0.2-2.5,0.1-3.6,0.8c-0.8,0.6-1.3,1.5-1.6,2.4c-0.9,2.4-1.3,5-0.9,7.6c0,0.3,0.6,0.6,0.8,0.7
		c0.4,0.2,0.9,0.3,1.4,0.3c0.7-0.1,1.6-0.3,1.4-1.2L186.9,202.4z"></path><path class="st2" d="M185.9,206.9c-3.1-1.5-6.4-2.5-9.8-2.9c-2.6-0.3-6.2-0.8-7.8,1.8c-1.2,2.1-0.8,4.7,1,6.3
		c2.1,1.9,5.4,2.5,8.2,2.3c0.2,0,0.9,0,1-0.3s-0.7-0.5-0.9-0.6c-4.3-1.4-12.3-2.4-13.9,3.4c-0.7,2.6,0.3,5.3,2.5,6.8
		c2.5,1.6,5.6,2.1,8.5,1.4c2.9-0.7,5.2-3,6-5.8c0.2-0.6-3.5-1.3-3.7-0.5c-0.7,2.5-2.5,4.4-4.9,5.2c-2.2,0.6-4.1-1.5-4.7-3.4
		c-0.7-2.4,0.2-5,2.3-6.3c1.9-1.1,3.9-0.8,5.9-0.2l0.1-0.9c-3.4,0.3-5.4-4-3.8-6.8c1.1-1.8,2.9-1.7,4.8-1.4c2.3,0.4,4.5,1.1,6.5,2.2
		c0.8,0.4,1.7,0.5,2.6,0.3C186.5,207.5,186.5,207.2,185.9,206.9L185.9,206.9z"></path><path class="st2" d="M201.5,198.7c-1.2-2.4-2.2-5-2.8-7.7c-0.5-2.4-1-5.2,0.4-7.4c0.5-0.8,1.3-1.5,2.2-1.9c0.5-0.2,1-0.3,1.6-0.3
		c0.2,0,0.4,0,0.7,0.1c0.4,0.1,1,0.6,0.2-0.2s-0.2-0.2-0.1,0.1c0.1,0.2,0.2,0.5,0.3,0.8c0.2,0.6,0.4,1.3,0.6,1.9
		c0.3,1.4,0.6,2.7,0.8,4.1c0.2,1.9,0.5,5.2-1.9,5.8l2.5,2.4c-0.9-2.5,2-4.7,4-5.3c1.3-0.5,2.8-0.5,4.1,0c0.1,0.1,0.3,0.1,0.4,0.2
		c0.4,0.3,0.1,0-0.8-0.9c0.1,0.3,0.2,0.6,0.3,0.9c0.1,0.6,0,1.2-0.2,1.7c-0.2,0.4,0.8,1.3,1,1.6c0.1,0.1,1.4,1.4,1.5,1.1
		c0.8-1.7-0.1-3.4-1.2-4.7c-1.3-1.6-3-3-5.1-3c-3.2-0.1-7.9,2.5-6.5,6.3c0.3,0.6,0.8,1.2,1.3,1.7c0.2,0.2,0.8,0.9,1.2,0.8
		c2.5-0.6,2.2-4.1,2-6c-0.3-3-0.9-6.4-2.7-8.8c-1.6-2.1-4-4.3-6.7-2.9c-2.6,1.4-3,4.4-2.7,7.1c0.5,3.6,1.7,7.1,3.3,10.3
		c0.4,0.8,1,1.4,1.6,2C200.8,198.7,201.8,199.4,201.5,198.7L201.5,198.7z"></path></g><g id="character"><path class="st2" d="M314.4,194l-6.8-0.1c0,0-18.7,3.8-17.2,7.7s11.5,6.3,24.8,6.6s18.4-3.6,14.1-13.4L314.4,194z"></path><path class="st2" d="M315.6,192.9c-2.1,0-4.3-0.1-6.5-0.1c-1.3,0.1-2.6,0.3-3.8,0.7c-2.6,0.6-5.2,1.3-7.7,2.2s-5.4,1.9-7.4,3.7
		c-5,4.4,4.5,7.4,7.6,8.2c4.6,1,9.2,1.6,13.9,1.8c4.1,0.2,8.4,0.3,12.4-0.8c3-0.8,6.3-2.4,7.7-5.4s0.4-6.4-0.8-9.2
		c-0.1-0.1-0.2-0.2-0.4-0.2L315.6,192.9c-0.9,0-1.7,0.4-2.4,1c-0.3,0.3-0.9,1.2,0,1.3l15,0.9l-0.4-0.2c0.9,2.2,1.9,4.9,1.2,7.4
		c-0.5,2-1.8,2.6-3.5,3.2c-3.4,1-7.1,0.9-10.6,0.7c-4.3-0.1-8.5-0.6-12.7-1.4c-2.9-0.4-5.7-1.4-8.2-2.9c-0.8-0.4-1.4-1.1-1.8-1.9
		c-0.1-0.2-0.1-0.4-0.1-0.6c0-0.2,0.1-0.2,0.2-0.3c0.1-0.1,0.3-0.3,0.5-0.4c0.4-0.2,0.8-0.4,1.1-0.6c1.1-0.5,2.1-0.9,3.2-1.3
		c2.2-0.8,4.5-1.4,6.9-1.9c0.8-0.2,1.6-0.4,2.5-0.6c0.2,0,0.4-0.1,0.6-0.1c0.1,0-1.1,0-0.3,0.1c2.1,0.1,4.3,0.1,6.5,0.1
		c0.9,0,1.7-0.4,2.4-1C315.8,193.9,316.5,192.9,315.6,192.9z"></path><path class="st1" d="M313.6,176.3c0,0,3.5,11.8,2.6,13.7s-17.4,4.4-16.2,5.9s3.5,3.7,16.1,3.5c11.9-0.2,12.1-1.3,13-3.7
		s2.4-17.2,2.4-17.2L313.6,176.3z"></path><path class="st2" d="M311.7,176.4c0.7,2.4,1.4,4.8,1.9,7.3c0.4,1.6,0.7,3.2,0.8,4.8c0,0.4-0.1,0.9-0.1,1.2c0,0,0,0,0.1-0.1
		c-0.1,0-0.7,0.4-0.4,0.2c-2.6,1.3-5.8,1.8-8.6,2.5c-1.5,0.4-3,0.8-4.5,1.3c-0.9,0.3-2.3,0.7-2.8,1.6c-0.7,1.3,2.1,2.8,3,3.2
		c3.4,1.6,7.5,1.7,11.2,1.8c2.9,0.1,5.9,0,8.8-0.2c1.8-0.1,3.6-0.3,5.3-0.7c2-0.5,3.5-1.4,4.2-3.3c1.1-2.9,1.2-6.4,1.6-9.5
		c0.3-2.7,0.6-5.5,0.9-8.2c0.1-0.6-1-0.8-1.4-0.9l-17.8-2.3c-0.6-0.1-2,0.1-2.3,0.8s0.8,1.1,1.4,1.2l17.9,2.2l-1.4-0.9
		c-0.4,5.3-1.1,10.5-2,15.7c-0.1,0.7-0.4,1.4-0.7,2.1c-0.2,0.5-0.5,0.8-1,1c-0.2,0.1,0.4-0.1,0,0l-0.3,0.1c-0.2,0.1-0.3,0.1-0.5,0.1
		c-0.7,0.1-1.3,0.2-2,0.3c-2.5,0.3-5.1,0.3-7.6,0.4c-3.6,0-8,0.1-11.2-1.1c-0.7-0.2-1.4-0.6-2-1.1c-0.1-0.1-0.6-0.6-0.4-0.4
		c-0.5-0.4,0.1,0.3-0.3,0.2c0,0-0.1,0,0.1-0.1c0.1,0,0.1-0.1,0.2-0.1c0.1-0.1,0.2-0.1,0.4-0.2c0.6-0.2,1.1-0.4,1.7-0.6
		c1.4-0.4,2.9-0.8,4.3-1.2c2.7-0.7,5.8-1.2,8.3-2.6c0.9-0.4,1.5-1.3,1.5-2.3c0-1.6-0.3-3.3-0.7-4.8c-0.6-2.7-1.3-5.3-2.1-7.9
		C315,174.9,311.4,175.3,311.7,176.4z"></path><path class="st1" d="M324.7,118.2c-0.2,1.7-25.7,58-17.3,69.1s31.8,13.3,37.9-6.2s3.7-65.3,3.7-65.3L324.7,118.2z"></path><path class="st2" d="M322.9,116.6c-0.2,0.9-0.5,1.7-0.9,2.4c-0.8,1.9-1.5,3.8-2.3,5.7c-2.4,5.9-4.7,11.8-6.9,17.8
		c-2.4,6.8-4.7,13.7-6.5,20.7c-1.4,5.5-2.8,11.4-2.4,17.2c0.1,2.2,0.7,4.3,1.9,6.1c6.3,9,17.5,13,28.1,10.1c3.4-1.1,6.4-3.1,8.8-5.8
		c2.4-3,4.1-6.5,5-10.3c2-7.6,2.6-15.5,3-23.3c0.7-13,0.7-26,0-39.1c0-0.2,0-0.5,0-0.7c-0.2-0.8-0.6-1.6-1.3-2.1
		c-0.4-0.4-1.3-1.5-2-1.4l-21.3,2l-3,0.3c-0.8,0.1,0.4,1.6,0.6,1.8c0.4,0.6,1.6,2,2.5,1.9l21.2-2.1l3-0.3l-3.3-3.5
		c0.6,10.6,0.6,21.3,0.4,31.9c-0.1,8.1-0.8,16.3-2,24.3c-1.1,7.2-2.9,14.7-8.9,19.4c-5.4,4.2-12.8,5-19.2,3.1c-1.5-0.4-3-1-4.4-1.8
		c-1.2-0.7-2.3-1.4-3.4-2.4c-0.1-0.1-0.2-0.2-0.3-0.3c0.3,0.3,0,0-0.1-0.1s-0.3-0.3-0.4-0.4c0.3,0.4,0,0.1,0,0l-0.4-0.5
		c0,0,0.4,0.5,0.2,0.2s0.2,0.3,0.1,0.1s-0.1-0.2-0.2-0.4c-0.2-0.4,0,0.1-0.1-0.2s-0.1-0.4-0.2-0.6c-0.1-0.4-0.2-0.9-0.3-1.3
		c-0.9-5.2,0.4-10.8,1.5-15.9c1.6-6.7,3.6-13.4,5.9-19.9c2.1-6.1,4.5-12.2,6.9-18.3c1.4-3.5,2.9-7,4.2-10.5c0.1-0.2,0.2-0.5,0.2-0.7
		c0.1-0.9-1.2-2-1.8-2.6C324.5,117.1,323,115.8,322.9,116.6z"></path><path class="st2" d="M348.4,224.4l-6.7,1.2c0,0-17.7,7.4-15.4,10.9s12.5,3.9,25.6,1.8s17.3-7,11.3-15.9L348.4,224.4z"></path><path class="st2" d="M347.5,223c-2.1,0.4-4.2,0.7-6.2,1.1c-1.1,0.3-2.1,0.7-3.1,1.2c-2.4,1.1-4.7,2.2-6.9,3.5
		c-2.2,1.1-4.1,2.5-5.8,4.3c-1.5,1.8-0.7,3.7,1,5.1c2.3,1.9,5.5,2.5,8.4,2.7c4.5,0.3,9,0.1,13.4-0.5c4.3-0.5,8.9-1.2,12.9-2.8
		c2.7-1.1,5.5-2.9,6.2-5.8c0.9-3.3-1-6.8-2.8-9.4c-0.5-0.8-1.3-1.3-2.2-1.4L347.5,223c-1.8,0.2,0.4,3.1,1.8,2.9l14.9-2l-2.2-1.4
		c1.3,2,2.8,4.5,2.4,7c-0.4,2.2-2.2,3.7-4.2,4.7c-3.3,1.5-6.9,2.4-10.5,2.8c-4.3,0.7-8.7,1.1-13,1.1c-2.7,0-5.8-0.1-8.3-1.3
		c-0.2-0.1-0.5-0.3-0.7-0.4c0.3,0.3-0.1-0.2,0-0.1c0,0,0.1,0.3,0.1,0.2s-0.1,0.1,0-0.1s0.1-0.3,0.1-0.4c0.2-0.3,0.4-0.6,0.7-0.9
		c1.6-1.5,3.3-2.8,5.3-3.8c2-1.2,4.2-2.2,6.3-3.2l2.2-1l0.5-0.2c-0.1,0.1-0.4,0.1,0.1,0c2.1-0.3,4.2-0.7,6.3-1.1
		C351.1,225.6,348.8,222.7,347.5,223z"></path><path class="st1" d="M344.2,207.2c0,0,5.8,10.9,5.2,12.9s-16.3,7.6-14.7,8.9s4.2,2.9,16.4,0.3c11.6-2.5,11.6-3.6,12-6.1
		s-1-17.3-1-17.3L344.2,207.2z"></path><path class="st2" d="M342.8,207.9c1.1,2.2,2.2,4.4,3.2,6.6c0.7,1.4,1.2,2.9,1.6,4.3c0,0.2,0.1,0.3,0.1,0.5c0.1,0.4,0.1,0.1,0.1-0.1
		c0,0.2,0.2-0.1-0.1,0.1s-0.4,0.3-0.6,0.5c-0.2,0.1-0.3,0.2-0.5,0.3l-0.8,0.5c-0.7,0.4-1.4,0.8-2.2,1.1c-1.5,0.7-3,1.4-4.5,2.2
		s-2.7,1.3-4,2.1c-0.9,0.5-2.1,1.2-2.3,2.2c-0.4,2.1,2.5,3.4,4.1,3.9c3.5,1,7.3,0.4,10.7-0.1c3-0.5,5.9-1.1,8.9-1.9
		c1.8-0.4,3.5-1,5.1-1.7c1.6-0.7,2.8-2.3,3-4.1c0.5-3.1,0-6.6-0.2-9.7c-0.2-2.8-0.4-5.5-0.7-8.2c-0.1-1.1-1.1-2-2.3-1.9l-17.9,1.2
		c-1,0.1-1.2,1.2-1,1.9c0.3,0.9,1.2,1.5,2.2,1.5l17.9-1.2l-2.3-1.9c0.6,5.3,1,10.6,1.1,15.9c0,0.7-0.1,1.3-0.3,2
		c-0.1,0.4,0.1-0.2,0,0.1l-0.2,0.4c-0.2,0.3,0.2-0.1-0.1,0.1s-0.3,0.3-0.5,0.4c0.1-0.1-0.1,0.1-0.3,0.2l-0.7,0.4
		c-0.7,0.3-1.4,0.6-2.1,0.8c-2.4,0.8-4.9,1.3-7.3,1.8c-3.8,0.8-8,1.7-11.9,1.1c-0.4,0-0.8-0.1-1.2-0.3l-0.5-0.2l-0.3-0.1
		c0.2,0.1,0.3,0.2,0.1,0s-0.5-0.3-0.7-0.5c-0.1,0-0.1-0.1-0.2-0.1c0.5,0.1,0.9,1.4,0.8,1.7s-0.3,0.5,0,0.3c0.3-0.2,0.5-0.4,0.8-0.6
		c0.5-0.3,1.1-0.6,1.7-0.9c1.4-0.7,2.9-1.4,4.3-2.1c2.4-1.1,5.2-2.2,7.2-4c2.2-1.9,0-5.9-0.9-8c-1.1-2.6-2.4-5.1-3.6-7.6
		C344.5,204.6,341.7,205.7,342.8,207.9z"></path><path class="st1" d="M326.5,124.7c-2.3,13.5-2.8,27.3-1.3,40.9c2.3,19.1,5.1,36.8,8.6,44.8c6.6,15.2,31.6,18.1,34.6,1.7
		c2.6-14.1-9.1-49.4-9.1-49.4s16.8-48.6,1.8-59.4S326.5,124.7,326.5,124.7z"></path><path class="st2" d="M324.3,123.9c-0.8,4.1-1.3,8.3-1.6,12.5c-0.9,9.4-0.8,18.8,0.3,28.2c1.1,9.7,2.4,19.5,4.3,29.1
		c1.2,6.6,2.5,13.9,6,19.7c3.3,5.2,8.3,9,14.2,10.8c5.2,1.6,11.2,1.8,16-1s7.1-7.8,7.4-13.3c0.3-5.9-0.7-11.9-1.8-17.7
		c-1.9-9.8-4.4-19.4-7.5-28.9c0-0.2-0.1-0.4-0.2-0.5l-0.1,1c1.6-4.6,2.9-9.2,4-13.9c2.2-9,4.1-18.3,4.1-27.6
		c0-7.9-1.4-17.5-8.9-21.7c-8.4-4.7-17.1,0.7-23.2,6.5c-4.8,4.6-9,9.8-12.5,15.5l-0.4,0.7c-0.6,1,0.6,2.5,1.4,3
		c0.8,0.7,2,0.6,2.6-0.2c0-0.1,0.1-0.1,0.1-0.2c0.3-0.4-0.2,0.4,0,0s0.5-0.7,0.7-1.1c0.8-1.2,1.6-2.4,2.5-3.6
		c2.5-3.5,5.4-6.8,8.4-9.9c3.2-3.1,6.8-6.1,11.1-7.6c1.7-0.6,3.6-0.8,5.4-0.6c0.3,0,0.7,0.1,1,0.2c0.2,0.1,0.5,0.2,0.7,0.2
		s0.8,0.4,0.5,0.2c0.5,0.2,0.9,0.6,1.4,0.8s-0.3-0.2,0.1,0.1c0.2,0.2,0.4,0.3,0.5,0.5l0.5,0.4c0.4,0.4-0.2-0.2,0.1,0.1
		s0.6,0.7,0.8,1.1l0.3,0.5c0.2,0.3-0.2-0.4,0,0c0.1,0.1,0.1,0.2,0.1,0.2c0.2,0.4,0.4,0.9,0.6,1.3c0.3,0.8,0.6,1.5,0.8,2.4
		c0.3,1,0.5,2.1,0.6,3.1c0.6,4.6,0.6,9.2,0,13.8c-1,9-2.8,17.9-5.5,26.6c-0.6,2.1-1.3,4.1-1.9,6.2c-0.5,1.5,0.5,3.2,0.9,4.6
		c3,9.5,5.4,19.1,7.1,28.9c1.4,8,3.6,20.3-5,24.9c-3.9,2-8.6,2-12.6,0.8c-2.3-0.7-4.4-1.7-6.3-3.1c-1.8-1.3-3.3-3-4.5-4.9
		c-1.1-2-2-4.1-2.6-6.3c-0.9-3.1-1.6-6.2-2.3-9.4c-1.7-8.2-2.8-16.5-3.9-24.8c-1.2-8.7-1.7-17.5-1.5-26.2c0.2-5.8,0.8-11.6,1.6-17.4
		c0.1-0.8,0.3-1.7,0.4-2.6C329.1,123.3,324.9,121.1,324.3,123.9z"></path><path class="st1" d="M267.8,89.6c0,0-15.8,2.6-17.9,4.9c-5.2,5.5-14.3,9.7-17,7.4s4.6-2.8,7.6-5.1s-1.8-6.7-4.9-3.9s-5.1,6.3-6.7,4
		s3-7.4,7.5-9.3c0,0-11,1.6-11.9-1s10.8-2.9,10.8-2.9s-9.2-1.9-7.9-3.6s10.7,1.2,14.8,0c7.4-2.2,19.6-4.8,26.4-6.2"></path><path class="st2" d="M267.4,87.8c-3.8,0.6-7.6,1.4-11.3,2.4c-2.2,0.4-4.3,1.2-6.3,2.2c-1,0.7-2,1.6-2.9,2.5
		c-1.4,1.2-2.9,2.3-4.5,3.2c-2.2,1.3-5.4,3-8.1,2.7c-0.2,0-0.8-0.2-0.7-0.3s0.2,0.8,0.2,1c0,0.5-0.2,0.3,0.1,0.2
		c1-0.3,2.2-0.9,3.3-1.3c2.4-0.8,5.9-2,5.8-5.2c-0.3-3-3-5.3-6-5c-2,0.2-3.3,1.9-4.6,3.3c-0.6,0.7-1.3,1.4-2,2c0,0-0.7,0.4-0.7,0.3
		s0.6,0.3,0.5,0.3s0.3-1.1,0.4-1.3c0.4-0.8,1-1.5,1.6-2.1c1.4-1.5,3.1-2.7,5-3.5c1.7-0.7,0.4-3.7-1.3-3.5s-3.4,0.4-5.1,0.5
		c-1.2,0.1-2.5,0-3.7-0.1c-0.4,0-0.9-0.1-1.3-0.3l-0.3-0.1c0.2,0.1,0.2,0.1,0,0c0,0.5,0.6,0.4,0.4,1.2c0,0.2-0.2,0.2-0.1,0.2
		s-0.1,0,0.2-0.1c0.4-0.2,0.7-0.3,1.1-0.4c1.2-0.3,2.4-0.5,3.6-0.7c1.6-0.2,3.2-0.3,4.8-0.4c2-0.1,1-3.3-0.5-3.6
		c-1.9-0.4-3.8-0.9-5.6-1.6c-0.3-0.1-0.5-0.2-0.8-0.4c-0.2-0.1-0.2-0.2-0.3-0.2s0.1,0.2,0,0c0.1,0.7,0.4,0.8,0.2,1.6
		c0,0-0.2,0.3-0.2,0.3s0.5-0.1,0.1-0.1c1.3-0.1,2.5-0.1,3.8,0.1c3.3,0.3,6.9,1.2,10.2,0.3c4.1-1.1,8.3-2.2,12.5-3.2
		c4.6-1.1,9.3-2.1,13.9-3c2.1-0.4,1-4-0.9-3.6c-4.6,0.9-9.2,1.9-13.7,3c-2.5,0.6-4.9,1.2-7.4,1.8c-2.1,0.5-4.1,1.3-6.2,1.6
		c-3.7,0.6-7.4-0.6-11.1-0.7c-1.3,0-3.1,0-3.8,1.3c-0.8,1.5,0.3,3,1.5,3.8c2.3,1.4,5.2,2,7.8,2.6l-0.5-3.6c-1.4,0.1-2.8,0.2-4.2,0.3
		c-2,0.2-4.4,0.4-6.2,1.5c-2.2,1.3-1.7,4.1,0.4,5.3c1.9,1.1,4.5,1,6.7,0.9c1.8-0.1,3.7-0.2,5.5-0.5l-1.3-3.5
		c-3.2,1.4-6.7,4.1-8.1,7.4c-0.7,1.4-0.6,3,0.1,4.3c0.7,1.5,2.5,2.2,4,1.5c1.6-0.8,2.8-2.4,4-3.7c1-1,2.1-2.2,3.6-1.4
		c0.8,0.4,0.9,0.7,0.2,1.2c-1.3,0.8-2.6,1.4-4.1,1.8c-2.2,0.7-5.8,1.9-4.2,5c1.4,2.7,4.8,2.5,7.3,1.8c3.6-1.1,7-2.9,9.9-5.3
		c0.7-0.6,1.4-1.2,2.1-1.8c0.3-0.3,0.5-0.6,0.8-0.8s-0.1,0,0.2-0.2c0.9-0.5,1.8-0.9,2.8-1.2c4.6-1.4,9.4-2.5,14.2-3.2
		c2.1-0.3,1-3.9-0.9-3.6L267.4,87.8z"></path><path class="st1" d="M281,83c-5-3.5-9.3-7.8-12.6-12.9l-0.3,0.4l0,0c-5.7,1.6-11.7,0.7-16.6-2.6l-1.9-1.2c0.2,0.9,0.4,1.7,0.6,2.4
		c-0.7-0.6-1.3-1.4-1.6-2.2c-0.6-3.8,2.4-9.7,9.9-14.1c7.2-4.3,14.3-7.9,26.8,3.5c1.8,1.6,13.2,7.9,14.7,10.6
		c6.5,5.7,4.5,13.2-3.1,16.7c-4,1.8-8.3,1-12-0.4v-0.2C283.5,81.9,281,83,281,83z"></path><path class="st2" d="M281.7,81.7c-4.8-3.2-8.8-7.4-11.9-12.2c-0.5-0.7-1.9-1.7-2.7-0.7c-0.1,0.2-0.2,0.3-0.3,0.4l0.7-0.3
		c-3.5,1-7.2,1-10.8-0.1c-2.3-0.8-4.5-2-6.5-3.4c-0.6-0.5-1.5-0.5-2,0.1c-0.4,0.4-0.5,1-0.3,1.5c0.2,0.8,0.4,1.6,0.6,2.4l2.7-1.3
		c-0.5-0.4-0.9-0.9-1.1-1.5c-0.1-0.5,0-1,0.1-1.6c0.3-1.3,0.8-2.6,1.5-3.7c2.1-3.1,4.9-5.6,8.2-7.4c4.3-2.5,9-4.6,14-3
		c3.6,1.3,6.8,3.3,9.5,5.9c1.8,1.5,3.8,2.8,5.8,4c2.5,1.6,5,3.1,7.4,5c0.4,0.3,0.7,0.6,1.1,0.9c0.2,0.2,0.3,0.3,0.5,0.5
		c0.1,0.1,0.2,0.2,0.2,0.2c0.2,0.2-0.3-0.4,0,0c1,1.4,2.3,2.3,3.1,3.9c1.5,3.4-0.2,6.8-2.9,9c-4,3.2-9,3-13.6,1.3l1.4,1.8
		c0-3.1-4.6-2.7-6.4-1.9s0.2,3.9,1.9,3.2c0.5-0.2,1.6-0.7,2.1-0.3l-1-1.6v0.2c0.1,0.8,0.6,1.5,1.4,1.8c4.7,1.8,9.9,2.4,14.4-0.2
		c3.3-1.8,6.1-4.9,6.5-8.8c0.2-1.9-0.2-3.8-1.1-5.5c-0.9-1.8-2.4-3.2-3.6-4.7c-1.8-2.2-4.6-3.9-7-5.4s-5-3-7.4-4.8
		c-0.1-0.1-0.6-0.5-0.3-0.2s-0.4-0.3-0.4-0.4l-0.7-0.6c-1.1-0.9-2.2-1.8-3.3-2.6c-1.7-1.2-3.5-2.3-5.4-3.1c-3-1.3-6.3-1.8-9.6-1.2
		c-2.8,0.6-5.5,1.7-8,3.2c-4,2.3-7.8,5.1-10.1,9.1c-0.9,1.5-1.5,3.2-1.7,5c-0.2,2.1,0.6,4.2,2.2,5.6c1.2,1.2,3.2,0.6,2.7-1.2
		c-0.2-0.8-0.4-1.6-0.6-2.4l-2.3,1.6c2.8,2,5.9,3.5,9.2,4.4c2.1,0.5,4.4,0.7,6.5,0.5c1.6-0.1,4.1-0.2,5.1-1.5l-2.7-0.7
		c3.5,5.4,8,10,13.3,13.6C282.3,85.7,283.5,82.9,281.7,81.7z"></path><path class="st1" d="M251.1,80.9c1.2-1.2,1.7-2.9,1.3-4.5c-0.5-2.2-1.3-4-2.3-7.3c-0.2-0.7-0.4-1.5-0.6-2.4l1.9,1.2
		c4.9,3.3,11,4.2,16.6,2.6l0,0l0.3-0.4c3.4,5.1,7.7,9.4,12.7,12.9c0,0,2.5-1.1,3.8-0.1v0.2c0,1.4-0.4,11.4-6.8,12.3
		c0,0-0.4-1.3-1-2.9s-1.4-2.2-6.6-1c-10.2,2.4-13.9-6.2-13.9-6.2c-1,0.7-2.2,1.2-3.5,1.4C250.9,87.2,247.2,85.4,251.1,80.9z"></path><path class="st2" d="M252.6,81.6c0.8-0.9,1.4-2,1.7-3.2c0.2-1.3,0-2.7-0.5-3.9c-0.8-2.7-1.8-5.3-2.5-8.1l-3.3,1.3
		c2.8,2.1,6,3.6,9.4,4.5c2.2,0.5,4.6,0.6,6.9,0.4c1.8-0.2,4.3-0.3,5.5-1.8h-3.2c2.8,4.3,6.3,8.1,10.4,11.3c0.8,0.7,1.6,1.3,2.5,1.9
		c0.7,0.5,1.6,0.6,2.4,0.2c0.6-0.2,1.2-0.5,1.9-0.1l-0.7-1.2c0,3.6-0.8,10.4-5.2,11.2l2.1,1c-0.6-2.1-1.1-4.8-3.6-5.4
		c-3.4-0.8-6.7,1.2-10.1,0.8c-3.5-0.4-6.5-2.7-7.9-5.9c-0.4-1-2.2-0.8-2.9-0.3c-0.4,0.3-0.9,0.5-1.3,0.7c-0.3,0.1-1.3,0.4-1.3,0.4
		c-0.2,0-0.4,0-0.6-0.1C250.5,84.7,251.8,82.5,252.6,81.6c1.5-1.8-1.8-2.9-3-1.5s-2.3,3-2.1,4.9c0.2,1.2,1.1,2.3,2.2,2.8
		c2.4,1.1,5.8,0.2,7.8-1.4l-2.9-0.3c1.6,3.3,4.5,5.8,8.1,6.8c1.6,0.5,3.2,0.6,4.8,0.5c2-0.1,3.8-0.7,5.8-1c0.5,0,0.9,0,1.4,0
		c0.4,0-0.1-0.1,0.1,0.1c-0.3-0.1,0.1,0.2,0,0c0.5,1.1,0.9,2.2,1.2,3.3c0.3,0.8,1.2,1.2,2.1,1c4.9-0.8,7.2-5.3,8-9.7
		c0.3-1.3,0.4-2.7,0.4-4c0-2.9-4.7-2-6.4-1.3h1.9c0.6,0.4,0.1,0.1,0,0l-0.9-0.7c-1-0.8-2-1.6-3-2.5c-3.1-2.7-5.8-5.8-8-9.2
		c-0.8-0.9-2.2-1-3-0.2c-0.1,0.1-0.1,0.1-0.2,0.2c-0.6,0.8,0.1-0.3,0.5-0.1c-0.4,0.1-0.8,0.2-1.2,0.3c-0.9,0.2-1.9,0.3-2.8,0.3
		c-1.8,0.1-3.7-0.2-5.4-0.6c-2.5-0.8-4.9-1.9-7-3.4c-1-0.6-3.7-0.4-3.3,1.3c0.6,2.4,1.4,4.8,2.2,7.2c0.7,2.1,1.4,4.1-0.2,5.9
		S251.4,83,252.6,81.6z"></path><path class="st2" d="M256.5,75.1c0,0,0,1.4,1.3,1.2s1.2-1.8,0-2c-0.5-0.2-1.1,0.1-1.3,0.6C256.6,75,256.5,75.1,256.5,75.1z"></path><path class="st2" d="M254.3,71.6c-0.2,0.1-0.4,0.2-0.6,0.3c0.2-0.1-0.1,0-0.1,0h-0.3c-0.4,0.1-0.8,0.2-1.3,0.2h-0.2
		c0.1,0,0.1,0,0,0l-0.3-0.1c-0.2,0-0.4-0.1-0.6-0.2c-0.1,0-0.3-0.1-0.4-0.2l0.1,0.1c-0.1,0-0.1-0.1-0.2-0.1
		c-0.2-0.1-0.4-0.2-0.6-0.3l0.1,0.1l-0.1-0.1c-0.1-0.1-0.1-0.1-0.2-0.2c-0.3-0.2,0.3,0.3,0,0l-0.2-0.3c-0.1-0.1,0,0,0.1,0.2
		c0-0.1-0.1-0.1-0.1-0.2l-0.1-0.1l0.1,0.1c0-0.1-0.1-0.2-0.1-0.3l-0.1-0.2c0.1,0.2,0.1,0.3,0,0.1s-0.1-0.5-0.2-0.8l-0.1-0.4
		c0,0.4,0-0.1,0-0.2c0-0.3,0-0.6,0-0.9c0,0,0-0.4,0-0.2c0-0.2,0.1-0.4,0.1-0.6c0.1-0.9-0.3-1.8-0.9-2.4c-0.4-0.4-1.4-0.8-1.5,0.1
		c-0.3,1.5-0.2,3.1,0.2,4.6c0.4,1.6,1.3,3.1,2.6,4.2c1.8,1.6,4.4,2.1,6.7,1.1c0.3-0.1,0.4-0.6,0.3-0.8c0-0.5-0.2-0.9-0.4-1.3
		C255.8,72.2,255,71.2,254.3,71.6L254.3,71.6z"></path><path class="st2" d="M248.1,75.7c-0.1-0.1-0.2-0.3-0.4-0.4c-0.2-0.2-0.3-0.5-0.4-0.7c-0.2-0.4-0.4-0.9-0.5-1.4
		c-0.2-1.1-0.2-2.2,0.2-3.2c0.9-2.3,2.4-4.2,4.3-5.7c0.7-0.6,0.3-1.9-0.3-2.4c-0.7-0.7-1.7-0.7-2.4-0.1c-2.4,1.9-4.2,4.5-5.1,7.4
		c-0.7,3.2,0.3,6.5,2.5,8.9c0.5,0.7,1.6,0.8,2.3,0.3c0.7-0.5,0.8-1.6,0.3-2.3C248.4,75.9,248.3,75.8,248.1,75.7L248.1,75.7z"></path><path class="st1" d="M269.2,74.8c0,0-2.9-5.4,2-5.9s4.8,7.5,2.3,10.5"></path><path class="st2" d="M271,74.2c-0.3-0.7-0.6-1.4-0.7-2.1c0-0.2,0-0.3-0.1-0.4s0,0,0,0c0-0.1,0-0.2,0-0.2c0-0.3,0-0.6,0.1-0.9
		c0-0.1,0.1-0.3,0,0c0,0,0-0.1,0.1-0.2c0-0.1,0.3-0.4,0.1-0.3s0,0,0,0c0.2-0.2-0.3,0.2,0,0l0.1-0.1c-0.3,0.2-0.3,0.2-0.1,0.1
		l0.2-0.1c0,0.1-0.5,0.2-0.2,0.1s0,0,0,0s0.5-0.1,0.6-0.1c-0.4-0.1-0.2,0,0,0s0.2,0,0.2,0c-0.2-0.1-0.3,0,0,0c0.1,0,0.2,0,0.3,0.1
		c0.3,0.1-0.3-0.1,0,0c0.1,0,0.1,0.1,0.2,0.1c0.1,0,0.5,0.3,0.2,0.1c0.2,0.2,0.5,0.4,0.7,0.7l0.1,0.1c-0.1-0.2,0.1,0.1,0.1,0.1
		c0.1,0.1,0.1,0.3,0.2,0.4c0.1,0.3,0.3,0.7,0.3,1.1c0,0.2,0.1,0.4,0.1,0.6v0.2c0,0.3,0-0.2,0,0.1c0,0.4,0,0.8,0,1.2
		c0,0.4-0.1,0.9-0.2,1.3c0,0.2-0.1,0.4-0.1,0.6s0,0.2-0.1,0.3s-0.1,0.3,0,0.1c-0.1,0.4-0.3,0.8-0.5,1.1c-0.1,0.2-0.2,0.4-0.3,0.6
		s-0.2,0.3,0,0c-0.1,0.1-0.1,0.2-0.2,0.3c-0.3,0.3-0.4,0.8-0.1,1.2c0.1,0.2,0.3,0.3,0.5,0.3c0.9,0.2,1.9-0.2,2.5-0.8
		c1.1-1.5,1.8-3.3,1.9-5.1c0.3-1.8-0.1-3.6-1.1-5.2c-1.3-1.9-3.7-2-5.7-1.4s-3.6,2-3.5,4.1c0.1,1.1,0.4,2.2,0.9,3.2
		c0.4,0.7,1.4,0.7,2.1,0.4C270.1,75.6,271.5,74.9,271,74.2L271,74.2z"></path><path class="st2" d="M265.3,84.9c0.7-0.4,1.3-0.9,1.8-1.6c0.3-0.5,0.5-1.1,0.5-1.7c0-1.1-0.5-2.2-1.4-2.8c-0.1-0.1-0.3-0.2-0.5-0.3
		c-0.2-0.1-0.4-0.1-0.6-0.1c-0.5,0-1,0.2-1.4,0.5c-0.4,0.2-0.6,0.6-0.8,1c-0.1,0.4,0,0.7,0.3,1c0.3,0.2,0.5,0.4,0.7,0.7l-0.2-0.3
		c0.2,0.2,0.3,0.5,0.4,0.8l-0.1-0.4c0,0.2,0,0.5,0,0.7v-0.4c0,0.2-0.1,0.4-0.1,0.6l0.1-0.4c-0.1,0.1-0.1,0.3-0.2,0.4l0.3-0.3
		c-0.1,0.1-0.2,0.2-0.3,0.3l0.4-0.3c-0.1,0.1-0.2,0.2-0.3,0.2l0.4-0.2h-0.1c-0.4,0.2-0.8,0.5-1,0.9c-0.2,0.3-0.2,0.7-0.1,1.1
		c0.5,0.7,1.5,0.9,2.3,0.5L265.3,84.9z"></path><path class="st2" d="M309,128.8c0,0-39.2-28.3-30-43.1s81,1.9,86,6S348.9,146.2,309,128.8z"></path><path class="st2" d="M310.8,128.5c-4-2.9-7.9-6.1-11.6-9.4c-6.5-5.8-13.2-12.3-17.3-20.1c-2.7-5.2-4.2-12.7,1.8-16.2
		c1.2-0.6,2.4-1.1,3.6-1.5c0.6-0.2,1.4-0.4,2.1-0.5l1-0.2l0.6-0.1l0.5-0.1c3.8-0.4,7.7-0.6,11.6-0.4c9.4,0.4,18.7,1.5,27.9,3.3
		c8,1.4,16,3.2,23.9,5.4c2.3,0.6,4.6,1.4,6.8,2.3c1.2,0.5,2,1,2.1,2.4c0.1,2.1-0.3,4.2-1,6.2c-1,3-2.3,6-3.8,8.8
		c-3.8,7-9.2,13.1-15.7,17.7c-3.5,2.4-7.4,4.2-11.5,5.2c-4.4,0.9-8.9,0.9-13.2-0.2C316,130.5,313.3,129.6,310.8,128.5
		c-0.8-0.2-1.6-0.2-2.3,0c-0.1,0-1.6,0.4-1.2,0.6c9.8,4.2,21,5.1,31.1,1.4c8.2-3,15-8.8,20.2-15.8c3.9-5.3,7.5-11.6,8.8-18.1
		c0.3-1.4,0.8-3.6-0.2-4.9s-2.9-1.6-4.2-2.1c-7-2.3-14.2-4.2-21.5-5.6c-9.7-2-19.4-3.5-29.2-4.4c-8.6-0.7-17.7-1.1-26.1,1
		c-2.8,0.7-5.7,1.7-7.8,3.7c-2.1,2.2-3,5.3-2.4,8.3c0.6,3.9,2.6,7.6,4.9,10.8c2.7,3.8,5.8,7.4,9.1,10.7c5.1,5.1,10.6,9.8,16.4,14.2
		l1,0.7c0.5,0.4,1.7,0.1,2.3,0C309.7,129.1,311.2,128.8,310.8,128.5z"></path><path class="st2" d="M273.6,77.2c2.4,2.9,5.1,5.5,8.1,7.8c1.7,1.2,3.5,2.1,5.5,2.7c1.8,0.7,3.8,0.8,5.6,0.2c0.3-0.1-1-0.7-1.1-0.7
		c-0.4-0.2-0.9-0.3-1.4-0.4c-0.3-0.1-0.6-0.2-0.9-0.1c-0.7,0.3-1.5,0.4-2.2,0.3c0,0-0.7-0.1-0.7-0.1c0.5,0.2,0.6,0.2,0.3,0.1
		s-0.3-0.2-0.5-0.2c-1.2-0.7-2.3-1.5-3.3-2.5c-2.1-1.9-4.1-4-6-6.1c-0.6-0.5-1.3-0.8-2.1-0.9c-0.3-0.2-0.7-0.2-1.1-0.2
		C273.8,77.1,273.5,77.1,273.6,77.2L273.6,77.2z"></path><path class="st2" d="M261.4,65c7.2,0.5,14.3-2,19.6-7c0.4-0.4,0.9-1.1,0.1-1.4c-0.9-0.1-1.8,0.2-2.5,0.8c-4.1,3.9-9.7,5.8-15.4,5.3
		c-0.9,0-1.8,0.4-2.4,1.1C260.4,64.5,260.7,64.9,261.4,65L261.4,65z"></path><path class="st2" d="M280.9,69.6c5,3.5,10.8,5.6,16.9,6.2c0.4,0,1.8,0.2,1.9-0.5s-1.5-0.9-1.8-0.9c-4.9-0.5-9.7-2.2-13.7-5.1
		c-0.8-0.5-1.6-0.7-2.5-0.5C281.3,68.7,280.2,69.1,280.9,69.6z"></path><path class="st2" d="M221.6,105.9l34.6,3.9c0,0,6.8,17.5-4.9,31.3l-32.7-8.4C218.6,132.7,219.8,107.8,221.6,105.9z"></path><path class="st2" d="M220.9,107.4l30.4,3.4l4.2,0.5l-0.9-0.6c1.1,3.2,1.7,6.5,1.8,9.8c0.5,7.2-1.8,14.4-6.4,20l2.1-0.9l-28.6-7.3
		l-4.1-1.1l1,1.4c0.4-7.4,0.8-14.9,1.8-22.3c0.1-0.9,0.3-1.9,0.5-2.8c0-0.2,0.1-0.3,0.1-0.5s0.2-0.5,0.1-0.3c0-0.1,0.2-0.3,0-0.1
		c0.5-0.5,0.5-1.3,0.1-1.8c-0.1-0.1-0.2-0.2-0.3-0.2c-0.9-0.3-1.9,0-2.5,0.7c-0.7,1.1-1.2,2.5-1.3,3.8c-0.4,2.1-0.6,4.3-0.8,6.4
		c-0.5,4.7-0.8,9.4-1.1,14.1c-0.1,1.1-0.1,2.1-0.2,3.2c-0.1,0.6,0.3,1.3,1,1.4c0,0,0,0,0,0l28.6,7.3l4.1,1.1
		c0.8,0.1,1.6-0.2,2.1-0.8c7-8.4,8.8-19.7,6-30.1c-0.2-0.9-0.5-1.8-0.8-2.7c-0.2-0.3-0.5-0.6-0.9-0.6l-30.4-3.4l-4.2-0.5
		c-1-0.1-1.9,0.4-2.4,1.2c-0.3,0.6-0.1,1.3,0.5,1.6C220.5,107.3,220.7,107.4,220.9,107.4z"></path><path class="st2" d="M247.4,107.1c-1.3-3.9-3.7-7.3-6.9-9.8c-2.3-1.8-5.4-2.4-8.2-1.5c-3.4,1-7.6,2.9-9.3,6.1
		c-0.7,1.3-0.8,2.8-0.3,4.1c0.3,0.6,3.6-1.1,3.3-1.8c-0.4-0.9-0.4-1.8-0.2-2.7c0.6-2.4,3.1-3.7,5.3-4.1c5.1-0.9,9,3.9,11.2,7.8
		c0.7,1.2,1.3,2.4,1.8,3.7C244.3,109.4,247.7,107.9,247.4,107.1L247.4,107.1z"></path><path class="st1" d="M244.1,137.6c0,0,17.1,3.6,22.7-2.3s5.2-47.8,19.1-51.5c0,0,17.2-3.1,14.6,17.4c0,0-5.8,38.9-17.8,47.3
		c-11.1,7.8-28.9,3.4-35,0.9c0,0-14.8,2.4-23.6-6.9c-3.4-3.5,2.8-3.1,2.8-3.1s-2.5-4.2,3.6-2.8C235,137.5,239.6,137.8,244.1,137.6z"></path><path class="st2" d="M242.6,138.2c2.7,0.5,5.4,0.9,8.1,1.1c4.7,0.3,9.9,0.2,14.3-1.7c2.7-1,4.7-3.2,5.5-6c1-3.3,1.7-6.6,2.2-10
		c1.5-8.5,2.7-17.2,5.5-25.5c1-3.4,2.6-6.5,4.8-9.3c0.8-1,1.8-1.8,3-2.3c0,0,0.6-0.2,0,0c-0.1,0-0.7,0.1-0.4,0.1l0.7-0.1
		c0.3,0-0.5,0-0.1,0h0.3h0.6c0.4,0,0.9,0,1.3,0c1.2,0.1,2.3,0.3,3.4,0.7c2.9,1.1,5.2,3.4,6.2,6.4c1.9,5.5,0.5,11.7-0.6,17.2
		c-1.6,8.4-3.8,16.7-6.8,24.7c-1.4,3.9-3.3,7.7-5.6,11.2c-2.5,3.5-6.3,6-10.5,6.9c-5.3,1.3-11.1,0.8-16.4-0.2
		c-2.2-0.4-4.4-1-6.5-1.7c-1.2-0.5-2.5-0.8-3.8-0.8l-0.6,0.1h-0.4h-0.1c-0.8,0-1.6,0.1-2.5,0.1c-2.2,0-4.3-0.2-6.4-0.7
		c-2.6-0.5-5.2-1.5-7.5-2.9c-1.2-0.7-2.3-1.5-3.3-2.5c-0.8-0.7-2-1.6-1.9-2.8c0-0.1,0.1-0.2,0.1-0.2s0-0.1,0,0s-0.4,0.1-0.4,0.1
		s0.6,0,0.2,0h0.8c0.3,0-0.3,0,0,0s3.4-0.4,3-1.1c-0.3-0.5-0.5-1.1-0.5-1.7c0-0.2,0.2-0.4,0.2-0.5c0-0.3,0.1,0.2,0,0
		c0,0.1-1.4,0.1-0.8,0.3c0.6,0.1,1.2,0.2,1.8,0.3c0.7,0.1,1.4,0.3,2.1,0.4c3.9,0.6,7.8,0.8,11.7,0.5c0.7,0,2-0.1,2.5-0.7
		s-0.4-0.6-0.8-0.6c-1.7,0.1-3.4,0.1-5.2,0s-3.2-0.2-4.7-0.4s-3.2-0.7-4.8-0.8s-4.8,0-5.5,1.9c-0.2,0.8,0,1.6,0.4,2.2l3-1.1
		c-2-0.2-4,0.1-5.9,1c-2.8,1.6,1.3,4.6,2.7,5.6c5.1,3.7,11.5,5,17.7,5c1.5,0,3.1-0.1,4.6-0.3h-1.1c8.4,3.4,17.5,4.4,26.4,3
		c4.5-0.8,9.4-2.4,12.9-5.5c2.4-2.3,4.4-5,5.8-8.1c3.6-7.1,5.9-14.8,7.8-22.5c1.3-5.2,2.3-10.4,3.2-15.6c0.9-5.7,0.4-12.9-5-16.3
		c-3.2-2-7.3-2.4-11-1.9c-6.1,0.9-9.3,6.7-11.3,11.9c-2.7,7.2-3.9,14.9-5.3,22.5c-0.6,3.4-1.2,6.8-1.9,10.2
		c-0.4,2.4-1.1,4.7-2.2,6.8c-1.5,2.5-4.9,3.1-7.7,3.3c-3.6,0.2-7.1-0.1-10.6-0.7c-0.5-0.1-1.1-0.2-1.7-0.3c-0.9-0.1-1.8,0-2.6,0.3
		C242.8,137.4,241.8,138,242.6,138.2z"></path><path class="st0" d="M245.5,114.2c0,0,2.5-0.8,3.1,1.6s-2.5,3.2-3.6,1.2c-0.7-0.8-0.5-2,0.3-2.7
		C245.3,114.3,245.4,114.3,245.5,114.2z"></path><path class="st0" d="M246.2,115.9c0.3-0.1,0.6-0.1,0.9-0.1h-0.4c0.3,0,0.5,0,0.8,0.1l-0.4-0.1c0.2,0,0.3,0.1,0.4,0.2l-0.4-0.2
		c0.1,0.1,0.2,0.1,0.3,0.2l-0.4-0.3c0.1,0.1,0.2,0.2,0.2,0.3l-0.3-0.4c0.1,0.1,0.1,0.2,0.2,0.3l-0.2-0.4c0.1,0.1,0.1,0.3,0.2,0.5
		l-0.1-0.4c0.1,0.2,0.1,0.4,0.1,0.6v-0.4c0,0.2,0,0.3,0,0.5v-0.4c0,0.2-0.1,0.3-0.1,0.5l0.1-0.3c-0.1,0.2-0.2,0.3-0.3,0.5l0.2-0.2
		c-0.2,0.2-0.4,0.3-0.6,0.4l0.3-0.1c-0.2,0.1-0.5,0.1-0.7,0.1h0.4c-0.2,0-0.4,0-0.6-0.1l0.4,0.1c-0.2-0.1-0.3-0.1-0.5-0.2l0.4,0.2
		c-0.1-0.1-0.2-0.2-0.4-0.3l0.4,0.3c-0.1-0.1-0.2-0.2-0.3-0.3l0.3,0.4c-0.1-0.1-0.2-0.3-0.3-0.4l0.2,0.4c-0.1-0.2-0.2-0.3-0.2-0.5
		l0.1,0.4c-0.1-0.1-0.1-0.3-0.1-0.4v0.4c0-0.1,0-0.3,0-0.4l-0.1,0.4c0-0.2,0.1-0.3,0.1-0.5l-0.1,0.3c0.1-0.2,0.2-0.4,0.4-0.6
		l-0.2,0.2c0.1-0.1,0.2-0.2,0.4-0.3c0.3-0.2,0.5-0.6,0.4-0.9c0-0.5-0.1-0.9-0.4-1.3c-0.4-0.6-1.3-1.3-2.1-0.9
		c-0.3,0.2-0.5,0.4-0.8,0.7c-0.5,0.6-0.7,1.3-0.6,2c0.1,2.2,1.6,4.1,3.8,4.6c0.7,0.1,1.4,0,2-0.3c0.6-0.3,1.1-0.9,1.2-1.6
		c0.2-1,0.1-2-0.3-2.9c-0.4-1-1.2-1.9-2.2-2.4c-0.6-0.3-1.3-0.4-2-0.3c-0.2,0-0.4,0.1-0.7,0.1c-0.3,0.1-0.6,0.3-0.7,0.7
		c-0.1,0.4,0,0.9,0.1,1.3c0.2,0.5,0.5,0.9,0.9,1.1C245.4,115.9,245.8,116,246.2,115.9z"></path><path class="st2" d="M217.6,151l20.7-19.6l10.6,1.7l-29.1,20.9c0,0-2.3,6.5-2.4,7.1s-7.3-9.8-7.3-9.8L217.6,151z"></path><path class="st2" d="M218.9,152.3l18.1-17.2l2.6-2.4l-1.1,0.4l10.6,1.7l-1.1-3.4l-13.3,9.5c-5.1,3.7-10.4,7.3-15.5,11.1
		c-0.7,0.7-1.2,1.6-1.4,2.5c-0.4,1.1-0.8,2.2-1.2,3.4l-0.4,1.3c-0.1,0.3-0.6,1.4-0.2,0.7l0.5-0.6l0,0l0.8-0.2c0.1,0,1.1,0.3,1.1,0.5
		c0,0-0.1-0.1-0.1-0.1s-0.2-0.2-0.3-0.4s-0.2-0.3-0.4-0.5l-0.3-0.4c-0.8-1.1-1.6-2.2-2.4-3.4c-1.1-1.5-2.2-3.1-3.2-4.6l-1.2,2.6
		l7.4-0.1c2.3,0,1.6-3.6-0.3-3.6l-7.4,0.1c-0.9,0-1.6,0.8-1.5,1.7c0,0.3,0.1,0.7,0.4,0.9c2.2,3.2,4.4,6.5,6.9,9.6
		c0.6,0.7,1.3,1.5,2.3,1.2c0.7-0.2,0.9-0.7,1.1-1.3c-0.2,0.6,0.2-0.6,0.3-0.8c0.6-2,1.3-3.9,2-5.8l-0.5,0.6l25.5-18.3l3.6-2.6
		c1.4-1,0.4-3.2-1.1-3.4l-8.6-1.4c-1.1-0.2-2.2-0.6-3.1,0.1c-0.4,0.4-0.9,0.8-1.3,1.2l-14.7,14l-4.7,4.4
		C214.9,151,217.3,153.8,218.9,152.3z"></path><path class="st1" d="M241.9,144c0,0-8.1-1.4-7.5-4.8s12.9,0.3,12.9,0.3"></path><path class="st2" d="M241.4,142.3c-0.4-0.1-0.7-0.1-1.1-0.2s-0.7-0.2-1-0.3l-0.3-0.1c0.3,0.1,0,0-0.1,0c-0.2-0.1-0.4-0.1-0.7-0.2
		c-0.5-0.2-0.9-0.4-1.4-0.6l-0.5-0.3c0.4,0.2,0,0,0,0l-0.4-0.3c-0.4-0.3,0.2,0.2-0.1-0.1c-0.1-0.1-0.1-0.1-0.2-0.2
		c0,0,0.3,0.4,0.1,0.1c0.3,0.5,0.1,0.2,0.1,0.1c-0.1-0.3,0.1,0.4,0,0.1s0,0.1,0,0.1c0-0.4,0,0.1,0-0.1c0-0.1,0-0.2,0-0.2
		c0,0.3-0.1,0.2,0,0.1s0.2-0.3,0-0.1c0.1-0.1,0.2-0.2,0.3-0.2l0.2-0.1c0.1-0.1-0.2,0,0.1,0c0.3-0.1,0.7-0.2,1-0.2h0.6h0.4
		c1.9,0.1,3.8,0.4,5.7,0.8c1.2,0.3,2.4,0.6,3.5,0.9c0.9,0.3,1-0.9,0.9-1.4c-0.2-0.9-0.9-1.6-1.8-1.9c-3.2-1.1-6.5-1.6-9.9-1.7
		c-1.6,0-3.6,0.3-3.9,2.2c-0.4,2.8,2.2,4.8,4.4,5.8c1.6,0.7,3.3,1.2,5,1.6c0.9,0.1,1-0.8,0.9-1.4c-0.2-0.9-0.9-1.6-1.8-1.9V142.3z"></path><path class="st0" d="M205,154.3c-0.6,0-1.2,0.2-1.8,0.6c-0.3,0.2-0.6,0.5-0.8,0.7c-0.2,0.2-0.3,0.4-0.4,0.7c-0.1,0.4-0.1,0.9,0,1.3
		c0.1,0.3,0.2,0.6,0.3,0.9c0.1,0.3,0.3,0.6,0.5,0.9l0.4,0.5c0.2,0.2,0.5,0.5,0.7,0.6l0.3,0.1c0.2,0,0.4-0.1,0.5-0.2
		c0.1-0.3,0.3-0.6,0.6-0.8l-0.2,0.2c0.5-0.5,1.1-0.8,1.8-0.9h-0.3h0.2c0.1,0,0.3,0,0.4-0.1c0.1-0.1,0.2-0.3,0.2-0.4
		c0-0.2,0-0.5-0.1-0.7c0-0.3-0.1-0.6-0.2-0.8c-0.2-0.6-0.6-1.2-1-1.7l-0.4-0.4C205.5,154.5,205.2,154.3,205,154.3L205,154.3z"></path><path class="st0" d="M195.3,164.9l-1.2,5.7c0,0.2,0.2,0.6,0.3,0.7c0.6,1,1.4,1.9,2.2,2.8c0,0,0.6,0.5,0.6,0.5l1.2-5.7
		c0-0.2-0.2-0.6-0.3-0.7c-0.3-0.5-0.6-1-1-1.4c-0.4-0.5-0.7-0.9-1.1-1.3C195.9,165.3,195.4,164.8,195.3,164.9L195.3,164.9z"></path></g></svg>