<svg xmlns="http://www.w3.org/2000/svg" version="1.1" xmlns:xlink="http://www.w3.org/1999/xlink" xmlns:svgjs="http://svgjs.dev/svgjs" width="3000" height="700" preserveAspectRatio="none" viewBox="0 0 3000 700"><g mask="url(&quot;#SvgjsMask1009&quot;)" fill="none"><path d="M 0,348 C 100,286.2 300,61.8 500,39 C 700,16.2 800,237.2 1000,234 C 1200,230.8 1300,7.8 1500,23 C 1700,38.2 1800,291 2000,310 C 2200,329 2300,116.4 2500,118 C 2700,119.6 2900,278 3000,318L3000 700L0 700z" fill="rgba(95, 89, 101, 1)"></path><path d="M 0,482 C 200,496 600,576.2 1000,552 C 1400,527.8 1600,363.2 2000,361 C 2400,358.8 2800,505 3000,541L3000 700L0 700z" fill="rgba(93, 74, 104, 1)"></path></g><defs><mask id="SvgjsMask1009"><rect width="3000" height="700" fill="#ffffff"></rect></mask></defs></svg>