<svg transform="scale(1)" version="1.1" id="T9KIUaqosO" xmlns="http://www.w3.org/2000/svg" xmlns:xlink="http://www.w3.org/1999/xlink" x="0px" y="0px" viewBox="0 0 500 500" xml:space="preserve" class="pbimage_pbimage__wrapper__image__0LEis false"><title>Parachute</title><style type="text/css"> .st0{fill:#FFFFFF;} .st1{fill:#05050A;} .st2{fill:#59BE4C;}
 .st2{fill:#5c4a67;}
 .st1{fill:#05050A;}
 .st0{fill:#FFFFFF;}</style><g id="cloud"><path class="st0" d="M82.2,271.2c0,0-8-8.9-19.2-6.1c-2.5,0.6-4.7,2-6.3,4c-4.8,6,0.8,14.1,9.4,14.1l98.1-0.1
		c7.1,0,10.2-7.7,4.5-11.2c-6.8-4.2-15.6-0.7-15.6-0.7s15.3-18.5-2.8-37.5s-44.5-0.8-41.7,19C108.7,252.8,79.8,238.1,82.2,271.2z" fill="#FFFFFF"></path><path class="st1" d="M83,269.8c-5-5.6-13.4-8.6-20.8-7c-5,1.1-9.4,5.2-9.3,10.5c0.1,5,4.1,9.4,8.6,11.1c3.1,1.2,6.2,1,9.4,1h14.3
		l42.5-0.1l33.6-0.1c3.4,0,7.2,0.3,9.9-2.3c3.5-3.4,2.8-8.7-0.7-11.8c-4.1-3.7-10.2-4.2-15.3-3.1c-1.1,0.2-2.1,0.5-3.1,0.9l2.8,3.9
		c7.5-9.8,8.2-23.2,1.7-33.7c-4.7-7.7-12.3-14.4-21.5-15.6c-7.3-0.8-14.5,1.6-19.9,6.5c-6.1,5.5-9.6,13.6-8.5,21.8l1.8-1.3
		c-3.2-1.6-6.7-2.7-10.3-3.2c-6.1-0.8-12.4,0.8-15.5,6.5c-2.7,4.9-2.8,11-2.4,16.4c0.1,1.3,0.9,2.3,2.1,2.9c0.6,0.3,1.3,0.1,1.7-0.4
		c0.2-0.3,0.2-0.6,0.1-0.9c-0.3-4.5-0.3-9.5,1.6-13.7c0.6-1.4,1.4-2.6,2.5-3.6c0.5-0.5,1-0.9,1.6-1.3c0.5-0.3,1-0.6,1.5-0.8
		c1.2-0.5,2.5-0.8,3.8-0.9c0.6-0.1,1.2-0.1,1.8-0.1c0.7,0,1.3,0.1,2,0.1c1.2,0.1,2.5,0.4,3.7,0.7l0.5,0.1l0.8,0.2l1.5,0.5
		c1.2,0.4,2.3,0.9,3.4,1.4c0.6,0.3,1.3,0.1,1.7-0.5c0.1-0.2,0.2-0.5,0.1-0.8c-1.7-13,9.9-25.4,22.8-25.6c7.9-0.1,14.5,4.5,19,10.7
		c4.4,5.9,5.8,13.4,4.1,20.4c-0.9,3.8-2.6,7.4-5.1,10.5c-1,1.2,1.3,4.5,2.8,3.9c3-1.2,6.3-1.6,9.5-1.2c1.2,0.1,2.4,0.5,3.5,1
		c0.8,0.3,1.6,0.8,2.2,1.5c0,0,0.2,0.4,0.2,0.4c0.1,0.3,0.1,0.7,0.1,1c-0.1,0.7-0.3,1.3-0.7,1.9c-1.9,3-5.3,2.9-8.4,2.9l-29.9,0
		l-40.8,0.1c-8,0-16.1,0-24.1,0c-2,0.1-4-0.3-5.8-1.2c-0.8-0.4-1.5-1-2.1-1.6c-1.6-1.9-1.7-4.6-0.2-6.6c2.8-4.4,8.5-5.4,13.2-4.5
		c1.9,0.3,3.8,1,5.5,1.9c0.7,0.4,1.4,0.8,2.1,1.3c0.3,0.2,0.6,0.4,0.9,0.6l0.5,0.4l0.1,0c0.5,0.4,0.9,0.8,1.3,1.3
		c0.6,0.7,1.9,1.2,2.6,0.3S83.6,270.5,83,269.8z" fill="#05050A"></path><path class="st0" d="M434.5,163.2c0,0-62.2,0.5-68.5-0.9s-13.7-12.2-6.7-24.9s17.5-9,17.5-9s-0.9-17.8,20.8-16.8
		s20.8,21.2,20.8,21.2s16.3,0.7,14.3,13.8c0,0,7.6-2.8,11.6,6.9S434.5,163.2,434.5,163.2z" fill="#FFFFFF"></path><path class="st1" d="M436.3,161.8c-4.2,0-8.3,0-12.5,0.1c-8.9,0-17.7,0-26.6,0c-7.9-0.1-15.9-0.1-23.8-0.5c-1.2,0-2.4-0.1-3.5-0.2
		c-0.4,0-0.9-0.1-1.3-0.1l-0.5-0.1h-0.2c0.2,0,0,0-0.3-0.1c-5-1.5-8-6.9-8.7-11.8c-0.4-3.7,0.2-7.4,1.8-10.8
		c1.2-2.9,3.1-5.4,5.6-7.4c0.6-0.5,1.3-0.9,2.1-1.1c0.8-0.3,1.7-0.4,2.5-0.5c0.7,0,1.3,0,2,0.1c0.3,0,0.6,0.1,0.9,0.1l0.4,0.1
		c-0.2,0,0,0,0.1,0c0.2,0,0.4,0.1,0.5,0.1c0.8,0.1,1.7-0.1,2.4-0.6c0.5-0.3,1.9-1,1.9-1.7c0-2,0.3-4,1-5.9c0.6-1.7,1.5-3.3,2.6-4.7
		c0.6-0.7,1.3-1.3,2-1.8c0.1-0.1,0.8-0.5,0.4-0.3c0.2-0.1,0.5-0.3,0.7-0.4s0.9-0.4,1.3-0.5c3.3-1,6.8-1.3,10.3-0.9
		c3.2,0.2,6.3,1.1,9.1,2.6c4,2.3,7,6,8.5,10.5c0.9,2.4,1.3,5,1.2,7.5c0,0.3,0.2,0.5,0.5,0.5c2.6,0.1,5.2,0.8,7.5,1.9
		c4.5,1.9,7.2,6.6,6.3,11.5c-0.1,0.9,1.8,0.2,2,0.1c-1,0.4-0.5,0.2-0.3,0.1c0.4-0.1-0.3,0-0.1,0l0.5-0.1c0.7-0.1,1.5-0.1,2.2,0
		c2.7,0.6,5,2.4,6.3,4.8c1.2,2.1,2.6,5.1,1.2,7.4c-0.1,0.1-0.2,0.3-0.3,0.4c-0.1,0.1-0.2,0.2-0.2,0.3c0,0,0.2-0.2,0-0.1
		c-0.3,0.4,0.2-0.1-0.2,0.2l-0.2,0.1c0.6-0.4,0,0-0.1,0c0.5-0.1,0.1,0-0.2,0.1c-0.5,0.2,0.2,0-0.2,0.1l-0.7,0.2
		c-0.3,0.1-0.6,0.1-0.5,0.1c-0.9,0.2-1.8,0.3-2.6,0.4h-0.1h-0.4h-0.3c-1.2,0.1-2.3,0.5-3.2,1.3c-0.4,0.3-1.4,1.5-0.2,1.5
		c4.4,0,9.4-1.3,12.6-4.5c2.2-2.2,2.3-5,1.2-7.8c-1.3-3.2-3.8-6.3-7.3-7.2c-2.1-0.5-4.3-0.3-6.3,0.4l2,0.1c0.6-4.2-0.6-8-4-10.6
		c-2.6-1.8-5.6-3-8.8-3.4c-0.7-0.1-1.4-0.2-2.1-0.2l0.5,0.5c0.3-7.2-3.3-14.7-9.5-18.5s-14.7-4.1-21.6-2.2
		c-5.4,1.5-10.7,4.9-13.2,10.1c-1.3,2.5-1.9,5.3-1.9,8.1l4.3-2.2c-2.7-0.8-5.5-0.8-8.1,0c-6.5,1.6-11.6,6.7-14.3,12.6
		c-2.8,6.2-3,13.7,1.2,19.3c2,2.8,5.1,4.6,8.5,4.9c7.1,0.6,14.3,0.6,21.4,0.6c9.5,0.1,19.1,0.1,28.6,0.1c5.5,0,11,0.1,16.4-0.1h0.3
		c1.2-0.1,2.3-0.5,3.2-1.3C436.4,163,437.4,161.8,436.3,161.8z" fill="#05050A"></path><path class="st0" d="M385,134c0,0-4.6-9.9-17.8-4.4" fill="#FFFFFF"></path><path class="st1" d="M387,133.7c-2.4-4.8-7.3-7.9-12.7-7.9c-2.9,0-5.8,0.7-8.4,1.8c-1.1,0.5-0.9,2.1-0.3,2.9
		c0.7,1.1,1.9,1.5,3.1,1.2c2-0.9,4-1.4,6.2-1.5c0.1,0,0.6,0,0.3,0h0.6c0.4,0,0.9,0.1,1.3,0.1c0.2,0,0.4,0.1,0.5,0.1
		c0.4,0.1-0.3-0.1,0.1,0s0.8,0.2,1.1,0.4s1,0.5,0.4,0.2c0.3,0.2,0.6,0.3,0.9,0.5s0.5,0.3,0.8,0.5s-0.4-0.4-0.1-0.1l0.3,0.3
		c0.4,0.3,0.7,0.7,1.1,1.1c0.1,0.1-0.4-0.5-0.2-0.2l0.2,0.3c0.1,0.1,0.2,0.3,0.3,0.5s0.3,0.5,0.5,0.8c-0.1-0.1-0.3-0.6-0.1-0.2
		c0.5,1.2,1.7,1.9,2.9,1.9c0.9-0.2,1.5-1.1,1.3-1.9C387.2,134,387.1,133.8,387,133.7L387,133.7z" fill="#05050A"></path></g><g id="character"><path class="st2" d="M249.6,134.4c0,0-29.5,28.8-76.3,18.3c0,0-1.4-80,60.7-96.8s94.5,54.5,94.5,54.5S288.5,139.5,249.6,134.4z"></path><path class="st2" d="M247.6,133c-3.8,3.5-8,6.5-12.5,9c-10.6,6.1-22.5,9.9-34.7,11.1c-9.3,0.8-18.6,0.2-27.7-1.9l3,2.3
		c0-2.5,0.1-5,0.3-7.5c0.4-6.2,1.3-12.4,2.5-18.5c1.6-8.3,4.1-16.4,7.4-24.2c3.6-8.8,8.6-16.9,14.8-24.1
		c14.7-16.8,36.4-25.7,58.7-24.1c7.3,0.7,14.5,2.6,21.1,5.8c1.1,0.5,2.2,1.1,3.3,1.7c0.5,0.3,1,0.5,1.5,0.8c0.7,0.4,0.8,0.5,1.3,0.8
		c7.6,4.7,14.6,10.6,20.5,17.4c2.7,3,5.2,6.1,7.6,9.4c1.1,1.5,2.1,2.9,3.1,4.4c0.5,0.7,0.9,1.4,1.4,2.1l0.6,1
		c0.1,0.2,0.2,0.3,0.3,0.5l0.2,0.3c2.1,3.3,4,6.8,5.8,10.3l0.2,0.5l0.2-0.9c-5,3.5-10.2,6.7-15.6,9.4c-11.7,6.3-24.2,10.9-37.3,13.5
		c-8.3,1.6-16.8,1.9-25.2,0.9c-1-0.1-1.3,0.7-0.8,1.5c0.8,0.9,1.9,1.5,3.1,1.6c14.8,1.9,29.9-0.9,43.9-5.9
		c10.6-3.8,20.8-8.7,30.3-14.7c1.9-1.2,3.7-2.3,5.5-3.6c0.3-0.2,0.4-0.6,0.2-0.9c-1.2-2.6-2.6-5.1-4-7.6c-3.6-6.1-7.6-12-12.1-17.5
		c-5.9-7.2-12.6-13.7-20.1-19.2c-8.4-6.2-18.1-10.7-28.3-13.1c-11.5-2.5-23.5-2.1-34.9,1.2c-10.7,3-20.5,8.3-28.7,15.7
		c-7.3,6.7-13.3,14.6-17.8,23.4c-4.1,8-7.2,16.5-9.4,25.2c-1.7,7-3,14.1-3.7,21.2c-0.4,3.7-0.6,7.4-0.6,11.1v0.5
		c0,1.2,2.1,2.1,3,2.3c15.5,3.6,31.7,3,46.9-1.5c9.5-2.9,18.5-7.4,26.5-13.4c1.5-1.1,2.9-2.2,4.2-3.5
		C252.9,134.5,248.7,132,247.6,133z"></path><path class="st0" d="M173.4,152.8c0,0-21.4-73.3,57.4-95.8c0,0,72.9-25.7,97.8,53.5c0,0-30.5,9.8-48.7-5.6c0,0-35.9-30.9-60,18.2
		C219.8,123,193.8,149.2,173.4,152.8z"></path><path class="st2" d="M175.7,152.1c-0.7-2.4-1.2-4.9-1.5-7.3c-0.4-2.7-0.7-5.4-0.9-8.2c-0.1-1.7-0.2-3.3-0.2-5c0-0.9,0-1.7,0-2.6
		c0-0.2,0-0.5,0-0.7s0,0.1,0,0.1c0-0.1,0-0.2,0-0.4c0-0.5,0-0.9,0-1.4c0.2-4,0.6-7.9,1.4-11.8c0.8-4.1,1.9-8.1,3.3-12
		c0.8-2.2,1.7-4.3,2.8-6.3c1-2,2.2-4,3.5-5.9c2.7-4.2,5.9-8,9.5-11.5c9.1-8.7,20.2-14.6,32.2-18.6c3.6-1.2,7.4-2.4,11.1-3.2
		c1.1-0.3,2.3-0.5,3.4-0.7l2-0.3l0.5-0.1h0.1l1.1-0.2c3.3-0.5,6.6-0.8,9.9-0.9c1.9-0.1,3.7-0.1,5.5,0l1.4,0h0.7h0.4
		c1,0.1,2,0.2,3.1,0.3c4.2,0.4,8.4,1.2,12.4,2.3c2,0.6,4,1.2,6,2c2.2,0.9,4.3,1.8,6.4,2.9c4.3,2.3,8.4,5.1,12,8.3
		c9.3,8.1,15.9,18.7,20.7,30c1.4,3.4,2.7,7,3.8,10.5l2-3.1c-1.9,0.6-3.9,1.1-5.9,1.5c-2.3,0.5-3.8,0.7-6.2,1
		c-2.6,0.3-5.3,0.5-7.9,0.5c-5.8,0.1-11.5-0.8-17-2.7c-3.6-1.4-7-3.4-10-5.8c-3.7-2.9-7.8-5.3-12.1-7c-7.4-2.9-15.6-3.8-23.3-1.5
		c-11.4,3.4-19.7,12.8-25.5,22.8c-1,1.7-1.9,3.5-2.8,5.3l0.8-1c-3.1,3.2-6.5,6.1-9.9,9c-6.7,5.8-14,11-21.9,15.2
		c-4.2,2.4-8.8,4.1-13.5,5c-1.2,0.3-2.1,1.4-2.1,2.7c0.2,1.3,1.6,1.5,2.6,1.3c8.1-1.4,15.7-5.6,22.6-10.1c6.5-4.3,12.7-9,18.4-14.2
		c1.8-1.6,3.5-3.2,5.2-4.8l1.2-1.1c1-1.2,1.8-2.5,2.3-3.9c2.2-4.2,4.9-8.2,7.9-11.8c1.2-1.5,2.6-2.8,4-4.1c0.6-0.6,1.3-1.1,2-1.6
		c0.4-0.3,0.7-0.6,1.1-0.8l0.4-0.3c0,0,0.7-0.4,0.3-0.2c1.4-0.9,2.8-1.7,4.3-2.3c0.5-0.3,1.1-0.5,1.7-0.7c0.7-0.2,1.4-0.5,2.2-0.7
		c1.2-0.3,2.4-0.6,3.7-0.7c1.3-0.1,2.7-0.2,4.1-0.2h0.9c-0.4,0,0.5,0,0.6,0.1c0.7,0.1,1.3,0.1,2,0.2c1.2,0.2,2.4,0.4,3.6,0.8
		c1.1,0.3,2.1,0.6,3.1,1c1,0.4,2,0.8,3,1.2c1.8,0.8,3.5,1.7,5.1,2.7c0.6,0.4,1.3,0.8,1.9,1.2c-0.6-0.4,0.2,0.2,0.4,0.3l0.7,0.5
		c0.4,0.3,0.9,0.7,1.3,1c3.2,2.6,6.7,4.7,10.6,6.1c12.4,4.6,27,3.7,39.6,0.1l0.7-0.2c1.4-0.4,2.4-1.6,2-3.1
		c-4.1-13.1-10.3-25.6-19.5-35.8c-7-7.7-15.6-13.6-25.2-17.4c-8.3-3.2-17.1-4.9-25.9-5.1c-6.8-0.2-13.6,0.4-20.3,1.7
		c-3.1,0.6-6.2,1.4-9.2,2.3c-5.6,1.7-11.2,3.7-16.5,6c-6,2.7-11.6,6-16.9,9.9c-8.7,6.5-15.8,14.9-20.7,24.5c-4,8-6.5,16.6-7.5,25.4
		c-0.8,7.1-0.8,14.2,0,21.2c0.4,3.7,1,7.3,1.9,10.9c0,0.2,0.1,0.3,0.1,0.5c0.3,1.1,1.4,1.7,2.5,1.4c0.1,0,0.1,0,0.2-0.1
		C174.6,154.5,176.1,153.3,175.7,152.1z"></path><path class="st0" d="M219.8,123c0,0-16.9-53.9,10.9-66.1s49.1,38.6,49,47.9C279.7,104.8,255.1,134.4,219.8,123z"></path><path class="st2" d="M222.2,122.4c-1.7-5.8-3-11.7-3.9-17.7c-1.6-10.7-2.2-22.4,1.5-32.7c1.6-4.7,4.5-8.8,8.5-11.8
		c4-3,9-4.1,13.9-3.2c4.6,0.9,9.4,3.9,13.2,7.3c4.2,4,7.9,8.6,10.9,13.6c2.9,4.6,5.4,9.5,7.5,14.6c1.6,3.6,2.8,7.3,3.5,11.1
		c0,0.3,0.1,0.6,0.1,0.9s0,0.3,0,0.4c0,0.4,0-0.4,0,0l0.5-0.8c-0.8,1-1.7,1.9-2.6,2.8c-1,1-2.1,2-3.1,2.9l-0.4,0.4l-0.2,0.1
		l-1.1,0.9c-0.7,0.6-1.5,1.2-2.2,1.7c-7.8,5.7-16.6,9.7-26.2,10.8c-7,0.7-14,0-20.6-2.2c-1.2-0.4-2.5,0-3.4,0.8
		c-0.5,0.4-0.6,1.2-0.1,1.8c0.2,0.2,0.4,0.4,0.7,0.4c11.1,3.6,23,3.6,34.2,0c8.3-2.8,16-7.1,22.7-12.8c1.9-1.6,3.6-3.2,5.3-5
		c0.4-0.4,0.7-0.8,1.1-1.2c0.5-0.7,0.7-1.5,0.5-2.3c-0.3-2.3-0.9-4.7-1.7-6.9c-1.1-3.4-2.5-6.7-4-9.9c-3.5-7.7-8.1-14.8-13.7-21.1
		c-5.4-5.9-12.3-11-20.5-11.9c-8.5-0.7-16.8,2.7-22.2,9.3c-5.1,6.4-7.1,14.5-7.6,22.5c-0.9,12.6,1.2,25.6,4.7,37.7
		c0.1,0.2,0.1,0.4,0.2,0.7C218,125.7,222.8,124.4,222.2,122.4z"></path><path class="st2" d="M281.3,244.9l-10.3-9.3l-24.7-22.3l-29.8-26.9l-25.8-23.2l-8.6-7.7c-1.3-1.3-2.6-2.5-4-3.6
		c-0.1,0-0.1-0.1-0.2-0.2c-0.8-0.7-4.5,2.5-4.2,2.8l10.3,9.3l24.7,22.3l29.8,26.9l25.7,23.2l8.6,7.7c1.2,1.3,2.6,2.5,4,3.6
		c0.1,0,0.1,0.1,0.2,0.2C277.9,248.4,281.6,245.2,281.3,244.9L281.3,244.9z"></path><path class="st2" d="M306.9,238.9l2-12.5l4.6-29.8l5.6-36.3l4.9-31.2c0.8-5.1,1.7-10.2,2.4-15.2c0-0.1,0-0.1,0-0.2
		c0.5-3-4.4-3.1-4.8-0.4l-2,12.5l-4.6,29.8l-5.6,36.3l-4.9,31.1c-0.8,5.1-1.7,10.1-2.4,15.2v0.2
		C301.6,241.4,306.5,241.6,306.9,238.9L306.9,238.9z"></path><path class="st2" d="M217.6,124.7l6.1,11.9l14.7,28.6l17.8,34.8l15.4,30l5.1,9.9l1.6,3.1c0.2,0.6,0.5,1.1,0.8,1.6
		c0,0.1,0.1,0.1,0.1,0.2c0.3,0.5,5,0,5-0.3l-0.1-13.8l-0.3-33l-0.3-39.8l-0.3-34.4l-0.1-11.4v-3.6c0.1-0.6,0.1-1.2,0-1.8
		c0-0.1,0-0.2,0-0.2c0-0.3-5-0.2-5,0.3l0.1,13.8l0.3,33l0.3,39.8l0.3,34.4l0.1,11.4c0,1.8-0.1,3.6,0,5.4v0.2l5-0.3l-6.1-11.9
		L263.4,204l-17.8-34.8l-15.4-30l-5.1-9.9l-1.6-3.1c-0.2-0.6-0.5-1.1-0.8-1.6c0-0.1-0.1-0.1-0.1-0.2c-0.2-0.4-2.1-0.2-2.5-0.1
		C219.3,124.4,218.4,124.5,217.6,124.7L217.6,124.7z"></path><path class="st2" d="M267.2,318.2c0,0-25.7-51.9-16.4-68.4c9.4-16.6,69.2-32.4,79.2-16.6s19.3,65.4,7.5,75.2
		S270.6,329.8,267.2,318.2z"></path><path class="st2" d="M269.1,318.7c-2.8-5.7-5.3-11.5-7.7-17.4c-4.3-10.7-8.3-21.9-10-33.4c-0.7-4.5-1-9.4,0.3-13.9
		c1.1-3.8,3.9-6.6,7-8.9c4.2-3.1,8.8-5.7,13.7-7.6c5.7-2.4,11.6-4.4,17.7-5.9c5.8-1.5,11.7-2.5,17.7-2.9c4.9-0.5,9.9-0.1,14.8,1
		l0.7,0.2c0.1,0,0.3,0.1,0.4,0.1c0.5,0.2,1,0.4,1.4,0.6c0.2,0.1,0.4,0.2,0.6,0.3c-0.5-0.2,0,0,0.2,0.1l0.6,0.3
		c0.6,0.4-0.2-0.2,0.2,0.1l0.5,0.3c0.2,0.2,0.5,0.5,0.1,0.1c0.1,0.1,0.3,0.3,0.4,0.4l0.2,0.2c0.4,0.4-0.3-0.4,0,0
		c0.5,0.7,0.9,1.4,1.3,2.1c2.5,4.8,4.5,9.8,5.9,15.1c3.7,12.4,6.1,25.7,5.8,38.6c-0.1,4.8-0.5,10.1-2.5,14.6
		c-1.6,3.5-4.4,5.3-7.7,6.9c-4.7,2.3-9.7,4.1-14.7,5.5c-5.8,1.7-11.7,3.1-17.7,4.1c-5.6,1-11.4,1.6-17.1,1.8c-2.2,0.1-4.5,0-6.7-0.3
		c-1-0.1-1.9-0.3-2.8-0.5l-0.5-0.1c-0.5-0.1,0.3,0.1-0.2-0.1s-0.8-0.3-1.1-0.5c0.7,0.3-0.3-0.2-0.5-0.3c0.4,0.2,0.4,0.3,0.1,0
		s0.5,0.5,0.1,0.1s0.2,0.3,0,0c0-0.1-0.3-0.4-0.1-0.1s0-0.1-0.1-0.2c-0.2-0.4,0,0.1,0-0.1c-0.4-1.1-1.3-2-2.4-2.5
		c-0.6-0.2-2.1-0.4-1.7,0.7c1.2,4,5.5,5.9,9.2,6.7c4.9,1,10.1,0.9,15,0.5c12.4-1,24.7-3.7,36.5-7.8c4.3-1.5,8.7-3.2,12.4-5.9
		c3.5-2.5,5.1-6.4,5.9-10.5c1.2-5.9,1.1-12,0.8-17.9c-0.5-6.9-1.4-13.7-2.9-20.4c-1.4-6.4-3.2-12.8-5.5-18.9
		c-1.7-4.5-3.7-9.6-7.5-12.9c-3.5-3-8.3-4.4-12.8-5c-5.7-0.6-11.5-0.5-17.2,0.4c-12.5,1.6-24.7,5.4-36,11.1c-4.3,2.3-8.7,4.9-12,8.6
		c-2.7,3.1-4.2,7.1-4.2,11.3c-0.1,5.5,0.5,11,1.9,16.4c1.4,6.1,3.2,12.1,5.4,17.9c3.1,8.7,6.7,17.2,10.7,25.6
		c0.2,0.4,0.4,0.9,0.6,1.3c0.6,1.1,1.6,1.9,2.8,2.2C269.1,320.2,269.6,319.6,269.1,318.7z"></path><path class="st0" d="M297.4,405.2c0,0,7.9,31.4,5.2,36.7s-22.1,7.9-25.5,1.1s-2.2-34.8-2.2-34.8L297.4,405.2z"></path><path class="st1" d="M295.2,405.3c1.3,5,2.4,10.1,3.4,15.2c0.8,4,1.5,8,2,12.1c0.2,1.5,0.3,3,0.3,4.5c0,0.6,0,1.2,0,1.9
		c0,0.3-0.1,0.5-0.1,0.8s-0.1,0.5,0-0.1c0,0.2-0.1,0.3-0.1,0.5c-0.1,0.2-0.4,0.8,0,0.2l-0.4,0.6c-0.1,0.1-0.4,0.4,0,0.1l-0.4,0.3
		c-0.3,0.2-0.6,0.5-0.9,0.6c-0.6,0.4-1.2,0.7-1.8,0.9c-0.9,0.4-1.8,0.7-2.8,0.9c-3.8,1.1-7.8,1.2-11.7,0.4c-0.7-0.1-1.4-0.4-2-0.7
		c-0.2-0.1-0.4-0.2-0.5-0.3c-0.6-0.3,0.2,0.2-0.1,0s-1-1-0.6-0.5c-0.1-0.1-0.2-0.3-0.3-0.4c-0.4-0.5,0.2,0.5,0,0
		c-0.1-0.2-0.2-0.4-0.3-0.6s-0.1-0.3-0.2-0.4c0.2,0.7,0,0.1,0,0c-0.1-0.4-0.2-0.7-0.3-1.1c-0.8-3.7-1.2-7.4-1.2-11.2
		c-0.3-6.7-0.3-13.5,0-20.2l-1.8,1.9l19.7-2.6l2.8-0.4c3-0.4,1.6-5-1-4.7l-19.7,2.6l-2.8,0.4c-1,0.1-1.7,0.9-1.8,1.9
		c-0.2,6.2-0.3,12.4,0,18.5c0.1,4.3,0.5,8.6,1.2,12.9c0.7,3.7,2.1,6.9,5.7,8.6c3.9,1.9,8.6,1.9,12.8,1.4c3.7-0.5,8.2-1.5,11-4.1
		c2.2-2.1,2.2-5.1,2-8c-0.3-4.1-0.8-8.2-1.6-12.2c-1.2-6.6-2.6-13.2-4.2-19.7c-0.3-1.3-1.4-2.2-2.7-2.2c-1.1,0.1-1.8,1-1.7,2.1
		C295.1,405.1,295.1,405.2,295.2,405.3z"></path><path class="st0" d="M279.4,438.1c0,0,10.5,4.5,18.3-3.4"></path><path class="st1" d="M279,440c6.7,2.9,15.2,1.6,20.5-3.5c0.7-0.8,0.7-2-0.1-2.7c0,0-0.1-0.1-0.1-0.1c-0.7-0.7-2.4-1.4-3.3-0.5
		c-1.6,1.6-3.6,2.9-5.7,3.6c-0.9,0.3-1.8,0.5-2.7,0.6c-0.5,0.1-0.9,0.1-1.4,0.1h-0.7c-0.5,0,0.3,0-0.2,0c-0.8,0-1.6-0.1-2.4-0.3
		c-0.3,0-0.6-0.1-0.9-0.2s-0.3-0.1-0.5-0.1s0.6,0.2,0,0c-0.6-0.2-1.1-0.3-1.6-0.5c-1-0.4-2.4-0.1-2.7,1S278,439.6,279,440z"></path><path class="st0" d="M407.8,389.3c0,0,16.9,27.6,16,33.4s-18.7,14.1-24,8.7s-12.6-32.5-12.6-32.5L407.8,389.3z"></path><path class="st1" d="M406.5,388.8c2.7,4.4,5.2,8.8,7.6,13.3c1.8,3.4,3.6,6.8,5.2,10.3c1.2,2.5,2.5,5.2,2.8,8c0,1-0.4,2-1,2.8
		c-1.1,1.4-2.4,2.5-3.9,3.5c-3.5,2.4-7.5,3.9-11.7,4.5c-1.7,0.3-3.4,0.1-5-0.5c-0.3-0.1-0.2-0.1-0.4-0.2c0,0,0.6,0.6,0.3,0.3
		c-0.1-0.1-0.4-0.5,0,0.1c-0.1-0.2-0.3-0.4-0.5-0.7c0.4,0.5,0,0,0-0.1s-0.3-0.4-0.4-0.7c-1.7-3.2-3.2-6.6-4.4-10.1
		c-2.3-6.2-4.2-12.6-6-19l-0.1,0.5l18-8.4l2.6-1.2c0.7-0.3-2-4.4-3.3-3.8l-18,8.4l-2.5,1.2c-0.1,0.1-0.1,0.3-0.1,0.5
		c1.6,6,3.5,11.9,5.5,17.7c1.3,4,3,7.9,4.9,11.7c1.7,3.3,4.1,6.9,8,7.8c4.1,0.9,8.5-0.5,12.2-2.1c3.3-1.5,7.5-3.8,9.1-7.2
		c1-2.3-0.3-5.3-1.1-7.5c-1.5-3.7-3.2-7.4-5.1-10.9c-3.1-5.9-6.3-11.6-9.8-17.3c-0.5-0.8-1.4-2.1-2.5-2.4S406.2,388.4,406.5,388.8z"></path><path class="st0" d="M400.5,426.1c0,0,11.3,1.1,16.5-8.7"></path><path class="st1" d="M399.7,428.1c5.4,0.5,10.7-1.1,14.9-4.4c2-1.6,3.6-3.6,4.7-5.9c0.6-1.1-0.5-2.2-1.5-2.4
		c-1.3-0.2-2.5,0.4-3.1,1.5c-0.4,0.8-0.9,1.5-1.5,2.2c-0.3,0.3-0.5,0.6-0.8,1c0.3-0.3-0.1,0.1-0.2,0.2l-0.5,0.5
		c-0.3,0.2-0.6,0.5-0.9,0.7l-0.5,0.3c-0.5,0.3,0.2-0.1-0.2,0.1c-0.7,0.4-1.4,0.7-2.1,1l-0.5,0.2c-0.5,0.2,0.5-0.1,0,0
		s-0.7,0.2-1,0.3c-0.6,0.2-1.3,0.3-1.9,0.4l-0.4,0.1c-0.2,0,0.6-0.1,0.1,0c-0.3,0-0.5,0.1-0.8,0.1c-0.5,0-0.9,0.1-1.4,0.1
		s-0.7,0-1,0c-0.7,0,0.6,0.1,0.2,0c-1.3-0.2-2.5,0.4-3.1,1.5c-0.3,0.9,0.2,1.9,1.1,2.3C399.4,428.1,399.6,428.1,399.7,428.1
		L399.7,428.1z"></path><path class="st0" d="M247.9,303.6c0,0-37.5,9.3-39.8-17.5s56.5-36,77.1-38c0,0,62-30.7,78.1-11.6s-0.9,33.6-16.8,40l-18,2.2l9,29.8
		c0,0-60,17.9-63.1,15.9s-3.4-28.3-3.4-28.3L247.9,303.6z"></path><path class="st1" d="M246.8,301.8c-1.7,0.4-3.4,0.7-5.2,0.9c-0.8,0.1-1.7,0.2-2.5,0.3l-1.4,0.1H237h-0.6c-2.1,0.1-4.3,0.1-6.4,0
		c-2.1-0.1-4.2-0.5-6.3-1c-0.6-0.1-1.1-0.3-1.6-0.5l-0.3-0.1l-0.9-0.3c-0.5-0.2-1-0.4-1.5-0.7c-0.1-0.1-0.9-0.4-0.3-0.2
		c-0.2-0.1-0.5-0.3-0.7-0.4c-1.8-1-3.3-2.4-4.5-4c-4-5.7-4.5-13.2-1.1-19.4c2.2-3.8,5.9-7,9.6-9.4c9.6-6.2,21-9.7,32.1-12.3
		c10.1-2.4,20.3-4.1,30.6-5.2c0.9,0,1.7-0.2,2.5-0.6l2.4-1.1c3.2-1.5,6.5-2.9,9.7-4.2c9.8-4.2,20-7.5,30.4-9.9
		c5.1-1.2,10.4-1.9,15.6-2.1c1.2,0,2.4,0,3.6,0.1c0.5,0,1.1,0.1,1.6,0.1h0.4c0.4,0.1-0.4,0,0,0l0.9,0.1c1.1,0.2,2.1,0.4,3.1,0.7
		c0.4,0.1-0.4-0.1,0.3,0.1l0.7,0.3c0.5,0.2,0.9,0.4,1.4,0.6c0.6,0.3-0.1-0.1,0.2,0.1l0.6,0.4c0.4,0.2,0.8,0.5,1.2,0.8s0,0-0.1-0.1
		s0.2,0.1,0.3,0.2l0.5,0.5c0.4,0.3,0.7,0.6,1,1c2.8,3.1,4.8,6.9,5.6,11.1c1.3,6.9-2.4,13.2-7.3,17.7c-2.7,2.4-5.7,4.5-8.9,6.2
		c-1.6,0.9-3.3,1.7-4.9,2.4c-0.1,0-1.2,0.5-0.8,0.4h-0.1c-0.2,0-0.4,0.1-0.6,0.1l-13.6,1.7l-3.6,0.5c-0.7,0-1.2,0.6-1.2,1.3
		c0,0.1,0,0.2,0.1,0.3l7.9,26.1l1.1,3.7l1.1-1.7c-3.7,1.1-7.4,2.2-11.1,3.2c-7.9,2.3-15.8,4.5-23.7,6.6c-7.2,2-14.5,3.9-21.9,5.4
		c-1.2,0.2-2.4,0.5-3.5,0.6c-0.4,0-0.8,0.1-1.3,0.1c0.8-0.1-0.2,0-0.5,0s0.7,0.1,0.2,0c0.4,0.1,0.8,0.3,1.1,0.5
		c0.2,0.1,0.5,0.6,0.2,0.1s0.1,0.4,0,0l-0.2-0.4c-0.5-1.4-0.8-2.8-1-4.2c-1.1-7.2-1.1-14.5-1.4-21.7c0-0.2,0-0.3,0-0.5
		c0-1.8-2.6-2.6-4.1-2.1l-20.2,6.6l-2.9,1c-1.1,0.4-0.6,1.8,0,2.4c0.9,0.9,2.2,1.2,3.4,0.8l20.3-6.6l2.9-0.9l-4.1-2.1
		c0,6.7,0.4,13.3,1.1,19.9c0.2,1.9,0.5,3.8,1,5.7c0.2,1.4,0.9,2.7,1.8,3.8c1.7,1.7,4.2,1.4,6.4,1c6.9-1,13.6-2.9,20.3-4.7
		c8.4-2.2,16.8-4.5,25.1-6.9c4.7-1.4,9.5-2.7,14.2-4.1l0.2-0.1c0.8-0.2,1.4-0.8,1.1-1.7l-7.9-26l-1.1-3.7l-1.1,1.7l12-1.5
		c1.9-0.2,3.8-0.4,5.6-0.7c1-0.2,2.1-0.6,3-1.1c1.7-0.8,3.4-1.6,5.1-2.6c6.3-3.6,12.5-8.5,15.4-15.4c3.2-7.8,0.3-16-4.8-22.3
		c-6.8-8.4-18.1-9.1-28.1-8c-11.5,1.2-22.8,4.8-33.6,8.8c-6.8,2.5-13.6,5.4-20.2,8.5c-0.2,0.1-0.4,0.2-0.5,0.3s0.5,0,0.1-0.1
		c-0.5,0-1,0-1.5,0.2c-2.2,0.2-4.3,0.5-6.5,0.8c-5.5,0.7-11,1.7-16.4,2.8c-12,2.4-24.1,5.6-35,11.2c-8.4,4.3-17.7,11.1-18.6,21.4
		c-0.4,5.4,1.2,10.8,4.6,15.1c3.5,4,8.1,6.8,13.3,7.9c7.8,2,16.3,1.6,24.1,0c0.5-0.1,1-0.2,1.4-0.3
		C252.1,304.6,248.8,301.3,246.8,301.8z"></path><path class="st1" d="M227.9,273.9c1.8,1.1,3.7,1.9,5.7,2.5c4.3,1.4,9,1.4,13.3,0c1-0.4-0.5-1-0.9-1c-1.1-0.2-2.3-0.2-3.4,0.2
		c-0.6,0.2-1.3,0.4-2,0.5c0.4,0-0.2,0-0.3,0c-0.5,0,0.2,0-0.1,0h-0.5c0.6,0-0.1,0-0.2,0l-0.5-0.1c-0.3,0,0.3,0.1-0.1,0
		s-0.7-0.1-1.1-0.2c-0.1,0-0.1,0,0,0l-0.2,0l-0.6-0.2c-0.3-0.1-0.6-0.2-1-0.3c-0.9-0.3-1.8-0.7-2.7-1.2c-0.4-0.2-0.8-0.4-1.1-0.6
		c-1.1-0.5-2.3-0.6-3.4-0.4c-0.5,0.1-1.8,0.4-0.9,1L227.9,273.9z"></path><path class="st1" d="M342.2,238.8c-0.5,2.8-1.8,5.3-3.7,7.3c-0.9,0.9-2,1.5-3.2,2c-0.7,0.3,1.2,1.3,1.3,1.4
		c0.6,0.3,1.2,0.5,1.8,0.7c0.4,0.2,0.8,0.2,1.2,0.2c3.7-1.4,6-4.9,7-8.6c0.1-0.3,0.2-0.6,0.2-0.9s-0.3-0.5-0.5-0.7
		c-0.5-0.4-1-0.6-1.5-0.9C344.6,239.2,342.3,238.3,342.2,238.8L342.2,238.8z"></path><path class="st1" d="M267.5,414c0,0-17.7-77.3-1.6-92.9s26.6-1.4,26.6-1.4s64.3-22.5,83.6-6.9s35.4,70.7,35.4,79l-25.2,10.6
		c0,0-18.8-42.7-28-50s-61.5,1.4-61.5,1.4l5.5,56L267.5,414z"></path><path class="st1" d="M267.1,414.6l-0.1-0.4c0-0.2-4.5-19.6-6.9-40.7c-3.2-28.4-1.4-46.1,5.4-52.7c5.5-5.3,11-7.8,16.3-7.4
		c4.2,0.5,8.1,2.5,10.9,5.8c11.2-3.8,22.7-6.8,34.3-9.2c24.7-4.9,41.3-4.1,49.4,2.5c19.9,16.1,35.5,71.5,35.5,79.4v0.3l-26,10.9
		l-0.2-0.5c-0.2-0.4-18.9-42.7-27.9-49.9c-8.5-6.8-55.5,0.6-60.7,1.4l5.5,56L267.1,414.6z M280.6,314.3c-4.7,0-9.5,2.4-14.4,7.2
		c-15.1,14.6,0.3,85.7,1.7,92l33.7-4.2l-5.5-56l0.5-0.1c2.1-0.4,52.7-8.7,61.9-1.3c8.8,7,25.8,45,28,49.8l24.5-10.2
		c-0.4-8.7-16.1-62.9-35.2-78.3c-18.9-15.3-82.5,6.7-83.1,7l-0.4,0.1L292,320c-2.6-3.2-6.3-5.2-10.4-5.7
		C281.3,314.3,280.9,314.3,280.6,314.3z"></path><path class="st1" d="M305.1,232.8c0,0,12.7,2.8,14.9-2.4s-6.1-4.1-6.1-4.1s9.7-10.5-3.3-12.6c0,0,11-7.9,2.6-15.5
		s-25.5-3.1-25.5-3.1s0.7-11.6-12.6-10.3s-10.2,8.3-10.2,8.3s-8.5,0.7-8.8,4.7s6,5.7,6,5.7s2.2,11.4,13.8,10l10.9,14.5
		c-2.3,3.1-2.3,7.5,0.1,10.6C291.1,243.8,305.5,240.1,305.1,232.8z"></path><path class="st1" d="M304.4,234.2c4,1,8.2,1.1,12.3,0.4c2.4-0.5,5.1-1.7,5.9-4.2s-0.8-4.3-3.2-5c-2-0.5-4.1-0.6-6.1-0.4l2.8,2.2
		c1.8-1.8,3-4,3.6-6.5c1.2-5.2-4.1-7.5-8.4-8.3l1.1,2.4c1.9-1.3,3.5-3,4.7-4.9c2.3-3.2,2.3-7.4-0.1-10.6c-5.2-7.1-15.8-7.6-23.7-6.7
		c-2.3,0.2-4.6,0.6-6.9,1.2l3.8,1.3c0.2-4.2-2-8.2-5.7-10.2c-4.2-2.2-9.4-2-13.9-0.9c-3,0.7-6.8,2-8.1,5.2c-0.6,1.4-0.6,2.9,0,4.2
		l1.8-1.8c-1.5,0.1-3.1,0.4-4.5,0.9c-2.1,0.6-4.8,1.7-5.8,3.8c-2,4.2,3.6,7.4,6.9,8.3l-1.2-1.3c0.5,2.4,1.5,4.6,3.1,6.5
		c3.3,4.2,8.7,5.5,13.9,4.9l-2.8-0.7l10.9,14.5V227c-3.4,4.4-2.5,11.4,2.7,14c4.9,2.5,11.8,1.6,16.3-1.5c2.3-1.6,4.1-3.9,4-6.7
		c-0.1-2-5.1-2-5,0c0.1,2.3-1.4,4.1-3.3,5.2c-2,1.2-4.3,1.7-6.6,1.5c0.5,0-0.5-0.1-0.5-0.1s-0.9-0.2-0.5-0.1
		c-0.5-0.1-0.9-0.3-1.3-0.6c-1.1-0.8-2-2-2.4-3.4c-0.5-1.6-0.5-3.4,0.1-4.9c0.2-0.5,0.4-1,0.7-1.5c0.1-0.2,0.7-0.9,0.2-0.3
		c0.4-0.4,0.4-1,0.1-1.4c0,0,0,0-0.1-0.1l-9-11.9c-0.6-0.8-1.1-1.5-1.7-2.2c-1.2-1.4-3.1-0.9-4.7-0.9c-2.8-0.2-5.3-1.6-6.9-4
		c-0.7-1-1.3-2.2-1.7-3.3c-0.1-0.4-0.3-0.8-0.4-1.1l-0.1-0.4c-0.1-0.2,0.1,0.5,0,0.2c-0.1-0.6-0.6-1.1-1.2-1.3
		c-1.7-0.5-6.2-2.4-4.6-5.2c0.7-1.2,2.4-1.6,3.8-2c0.5-0.1-0.2,0,0.3-0.1l0.6-0.1c0.4-0.1,0.7-0.1,1-0.2s0.6-0.1,1-0.1
		c0.8-0.1,2.2-0.8,1.8-1.8c-0.1-0.3-0.2-0.8-0.1-0.4c-0.1-0.6-0.1-1.2,0-1.8c0-0.2-0.1,0.1,0.1-0.2c0.1-0.2,0.1-0.4,0.2-0.6
		c0.2-0.4,0.4-0.7,0.7-1c0.9-0.8,2-1.4,3.1-1.7c1.9-0.6,3.9-0.9,5.9-0.8c0.7,0,1.4,0.1,2.1,0.2c0.3,0,0.5,0.1,0.8,0.2
		c0.3,0.1,0.8,0.3,0.8,0.3c1.9,1,3.3,2.7,3.8,4.7c0.4,1.1,0.5,2.3,0.5,3.5c-0.1,1.6,2.8,1.5,3.8,1.3c0.1,0,0.2,0,0.3-0.1
		c0.2-0.2-0.7,0.1-0.2,0l0.6-0.1c1.1-0.2,2.2-0.4,3.3-0.6c3-0.5,6.1-0.6,9.1-0.3c3.3,0.4,6.6,1.4,9.1,3.7c2.7,2.5,3.4,5.8,1.6,9.1
		c-0.7,1.3-1.6,2.4-2.6,3.4c-0.4,0.4-0.8,0.7-1.2,1c-0.2,0.2-0.9,0.7-0.2,0.1c-1.5,1-0.3,2.2,1.1,2.4c1.7,0.3,3.7,0.8,4.5,2.2
		c0.6,1.1,0.6,2.4,0.2,3.5c-0.4,1.2-1,2.4-1.8,3.4c-0.1,0.1-0.2,0.3-0.1,0.1l-0.2,0.3l-0.4,0.5c-0.1,0.1-0.2,0.3-0.4,0.4
		c-1.5,1.6,1.8,2.3,2.8,2.2c0.1,0,0.3,0,0.4,0c0.3-0.1-0.7,0-0.1,0h0.6h0.7c0.7,0-0.2,0,0.2,0l0.7,0.1c-0.6-0.1,0.1,0.1,0.3,0.1
		c-0.6-0.2,0.4,0.3,0,0c0.1,0.1,0.4,0.5,0.3,0.3c0.2,0.4,0.2,0.8,0.1,1.2c-0.2,0.9-0.8,1.6-1.6,2c-0.2,0.1-0.3,0.2-0.5,0.2
		c-0.1,0-0.9,0.2-0.5,0.2c-0.6,0.1-1.3,0.2-1.9,0.3c0.5,0-0.5,0-0.6,0h-1c-0.6,0-1.3-0.1-1.9-0.1c-0.3,0-0.3,0,0,0h-0.4l-0.8-0.1
		c-0.5-0.1-0.9-0.1-1.4-0.2s-0.8-0.1-1.2-0.2c-0.9-0.2-2.6,0-3.1,1S303.6,234,304.4,234.2z"></path><path class="st0" d="M258.8,241.2c-6.8-10.2,4.2-35.9,4.2-35.9c9,2.3,24.2-6.1,24.2-6.1c-4.9,8.3,2.3,24.5,2.3,24.5
		c4.1-7.5,12.4-6.7,11.2,0.9s-8.6,7.8-8.6,7.8s6.9,16,6.4,18.8c-0.5,3.1-18.4,14.2-22.1-1C276.5,250.1,264.8,250.1,258.8,241.2z"></path><path class="st1" d="M260,241.8c-0.9-1.7-1.4-3.5-1.5-5.4c-0.2-2.4-0.2-4.8,0.1-7.2c0.6-4.9,1.7-9.6,3.3-14.3
		c0.5-1.7,1.1-3.4,1.8-5c0.2-0.6,0.4-1.1,0.6-1.6c0.1-0.2,0.2-0.8,0.4-0.9s1.4,0.2,1.9,0.2c1.3,0.1,2.6,0.1,3.8-0.1
		c2.7-0.3,5.4-0.9,8-1.8c3.7-1.2,7.2-2.7,10.6-4.6l-3.3-3.8c-2.6,4.6-1.9,10.6-0.7,15.5c0.7,3.2,1.8,6.4,3.1,9.4
		c0.2,0.4,2.9,3.9,3.3,3.3c1.4-2.4,3.8-5,6.8-5.2c0.5,0,1,0,1.5,0.2c0.2,0.1,0.4,0.2,0.7,0.3c-2.5-0.9-1.5-2.3-1.3-1.3
		c0.3,1.4,0.3,2.8,0,4.2c-1,3.8-4.3,6.5-8.2,6.7c-0.3,0-0.2,0.2-0.1,0.4c1,2.2,1.9,4.5,2.8,6.8c1.4,3.3,2.6,6.7,3.4,10.2
		c0.3,0.8,0.2,1.6-0.2,2.3c-0.7,0.9-1.5,1.6-2.4,2.2c-2.6,1.9-5.7,3.2-8.9,3.6c-1.7,0.3-3.5,0-5.1-0.6c-0.3-0.1-0.7-0.4-0.9-0.5
		c0.1,0-0.2-0.3,0,0c0.1,0.1,0.5,0.7,0.2,0.2c-0.5-1-0.9-2-1.2-3.1c-0.3-0.8-0.7-1.5-1.3-2.1c-0.4-0.4-1.2-1.6-1.9-1.6
		c-1.9-0.1-3.9-0.4-5.8-0.9C265.9,246.5,262.1,244.9,260,241.8c-0.5-0.7-1.5-2.1-2.4-2.4s-0.2,0.7,0.1,1.1
		c4.5,6.7,12.1,11.5,20.3,11.5l-3.2-3.6c1.1,4.6,4.4,9.5,9.1,11c3.4,1.1,7.3,0,10.4-1.6c1.4-0.7,2.8-1.6,4-2.6
		c0.9-0.6,1.5-1.4,1.9-2.4c0.2-1.2-0.3-2.6-0.6-3.7c-0.6-2-1.3-4-2-6c-1.2-3.2-2.5-6.3-3.8-9.5l-0.1,0.4c3.4-0.1,6.5-2.1,8-5.1
		c1.3-2.4,1.3-5.3,0-7.7c-1.3-2.3-3.7-4.9-6.6-4.8c-3.2,0.1-5.6,2.6-7.1,5.3l3.3,3.3c-1.3-2.8-2.2-5.8-2.9-8.8
		c-1.1-4.8-2-10.7,0.6-15.2c0.4-0.7-2.6-4.1-3.3-3.8c-2.8,1.5-5.6,2.8-8.6,3.9c-4.8,1.8-10.4,3.5-15.5,2.2h-0.2
		c-1.3,3.1-2.5,6.4-3.4,9.6c-1.8,5.9-3.3,12.2-3,18.4c0.1,3.2,1,6.4,2.7,9.1c0.5,0.8,1.5,2.2,2.4,2.4S260.2,242.2,260,241.8z"></path><path class="st0" d="M275.6,233.5c0,0-13.2,12.8-21.4,7s-0.2-17,12.7-16.6"></path><path class="st1" d="M273.6,232.2c-3.6,3.5-8.4,6.9-13.4,8c-0.7,0.2-1.4,0.2-2.2,0.2c0.4,0-0.3,0-0.3,0h-0.4c-0.1,0-0.7-0.2-0.2,0
		c-0.1,0-1-0.3-0.4-0.1c-1.2-0.4-2.1-1.3-2.7-2.3c-1.3-2.6-0.3-5.6,1.6-7.6c3.2-3.2,7.6-5,12.1-4.8c0.8,0,2-0.2,1.6-1.3
		c-0.6-1.1-1.7-1.7-2.9-1.8c-4.9-0.1-10,1-13.8,4.3c-2.8,2.4-4.7,6.1-3.5,9.8c1.4,4.2,6.3,7,10.5,7.1s8.2-1.6,11.8-3.8
		c2.3-1.4,4.5-3.1,6.5-5C279.2,233.5,274.8,231.1,273.6,232.2L273.6,232.2z"></path><path class="st0" d="M286.2,230.2c-0.5,1.9-1.8,3.6-3.6,4.5"></path><path class="st1" d="M284.9,229.8c-0.1,0.6-0.4,1.2-0.7,1.7l0.1-0.2c-0.3,0.5-0.7,1-1.1,1.5l-0.2,0.2L283,233l0.1-0.1
		c-0.1,0.1-0.3,0.2-0.4,0.3c-0.3,0.2-0.6,0.4-1,0.6c-0.2,0.1-0.4,0.4-0.4,0.7c0,0.3,0.2,0.6,0.4,0.8c0.5,0.4,1.2,0.5,1.8,0.2
		c1.8-0.9,3.2-2.5,3.8-4.5c0-0.1,0.1-0.3,0.1-0.4c0.1-0.6-0.3-1.2-0.9-1.4c-0.3-0.1-0.7-0.1-1,0C285.3,229.4,285,229.6,284.9,229.8
		L284.9,229.8z"></path><path class="st1" d="M278,218.7c0.2,0.7-0.3,1.4-1,1.6c-0.1,0-0.1,0-0.2,0c-1.4,0.1-1.6-1.7-0.4-2.1c0.5-0.3,1.2-0.1,1.5,0.4
		C278,218.6,278,218.7,278,218.7z"></path><path class="st1" d="M269.9,218.6c0.2,0.7-0.3,1.4-1,1.6c-0.1,0-0.1,0-0.2,0c-1.4,0.1-1.6-1.7-0.4-2.1c0.5-0.3,1.2-0.1,1.5,0.4
		C269.8,218.5,269.9,218.5,269.9,218.6z"></path><path class="st2" d="M281.5,276.5c8.8,1.7,17.9,0.7,26.1-2.9c1-0.4,2-1.7,1.4-2.8s-2.1-1-3.1-0.6c-7.1,3-14.9,3.9-22.5,2.4
		c-1.3-0.2-2.6,0.4-3.2,1.5c-0.4,0.8-0.2,1.8,0.6,2.2C281.2,276.4,281.4,276.5,281.5,276.5z"></path><path class="st2" d="M270.1,314.6c3.8-3.5,6.4-8,7.5-13c0.2-1.2-0.4-2.5-1.5-3.1c-0.8-0.5-2.1-0.7-2.4,0.5c-1,4.4-3.3,8.4-6.5,11.5
		c-0.7,0.9-0.7,2.2,0.1,3C267.8,314.1,269.2,315.5,270.1,314.6L270.1,314.6z"></path><path class="st2" d="M320,286.5c4,5.9,9.6,10.6,16.2,13.4c0.9,0.4,2.2,0.1,2.2-1.1c-0.1-1.3-0.9-2.3-2.1-2.8l-1.1-0.5l-0.5-0.3
		c-0.4-0.2,0.5,0.3-0.2-0.1s-1.4-0.8-2-1.2s-1.2-0.8-1.9-1.2l-0.5-0.3l-0.3-0.2l-0.3-0.2l-0.5-0.4c-1.2-1-2.3-2.1-3.3-3.2
		c-0.3-0.4,0.1,0.1-0.1-0.1l-0.4-0.5c-0.2-0.3-0.5-0.6-0.7-0.9c-0.5-0.6-0.9-1.3-1.4-1.9c-0.6-0.9-2-1.7-3-1.2
		S319.5,285.7,320,286.5L320,286.5z"></path><path class="st0" d="M336.9,250.4c0,0-8.5,2.9-12.8,0s-6.5-13.2-11.8-11.8s-2,11.6,0.1,15.6c0,0-19.5,0.6-13.4,10.9
		c0,0-5.9,3.2,1,9.2c0,0-2.2,2.9,2.5,7.6s24.2,7.9,44-5.4C346.5,276.4,345.9,252,336.9,250.4z"></path><path class="st1" d="M335.2,249.5c-2.3,0.8-5.3,1.5-7.6,1.1c-2.8-0.5-4.5-4.4-5.9-6.7c-1.9-3.2-4.1-6-8.1-6.4
		c-1.8-0.2-3.9,0.1-5.2,1.5c-0.9,1.1-1.4,2.5-1.4,4c0.1,3.9,1.1,7.7,3,11.1l1.9-0.9c-2.5,0.1-5,0.4-7.4,0.9
		c-3.1,0.7-7.2,1.9-8.7,5.1c-0.9,2-0.2,4.1,0.8,5.9l0.3-0.7c-1.1,0.6-2,1.6-2.5,2.8c-1.1,2.9,1.4,5.6,3.4,7.3l-0.2-0.7
		c-1.2,1.7-0.5,4.2,0.5,5.8c1.6,2.4,3.9,4.2,6.7,5.2c6.9,2.7,14.8,2.6,22,1.4c4.7-0.8,9.3-2.3,13.6-4.3c2.5-1.1,4.9-2.5,7.2-3.9
		c0.9-0.5,1.4-0.7,1.4-1.6c-0.1-4.4-0.6-8.7-1.7-13c-1.2-5.5-3.4-12.4-9.7-13.6c-0.7-0.1-2.6-0.5-3.1,0.3s1.2,1.2,1.6,1.3l0.3,0.1
		c0,0-0.4-0.1-0.2,0c0.5,0.2-0.1-0.1,0.2,0.1c0.3,0.2,0.7,0.4,0.9,0.7c0.7,0.6,1.2,1.3,1.7,2c1.2,1.9,2,4,2.6,6.2
		c1.1,4.3,1.9,8.6,2.1,13c0.1,1,0.1,1.9,0.2,2.9l0.4-0.4c-7.7,5.1-16.5,8.7-25.8,9.1c-3,0.2-6-0.1-8.9-0.8c-1-0.2-2-0.6-2.9-1
		c-0.8-0.3-1.5-0.8-2.1-1.4c-1.3-1.2-2.7-3.1-2.8-5c0-0.5,0-1,0.2-1.5c0.1-0.3,0-0.2,0.2-0.4s0.1-0.5-0.2-0.7
		c-1.7-1.5-3.8-3.9-2.8-6.3c0.3-0.6,0.6-1.1,1.1-1.5c0.1-0.1,0.6-0.5,0.3-0.3l0.2-0.1c0.2-0.1,0.5-0.4,0.3-0.7
		c-1-1.7-1.7-3.9-0.5-5.6c1.1-1.4,2.6-2.4,4.3-2.9c1-0.3,1.9-0.6,2.9-0.8l0.7-0.1l0.4-0.1c-0.2,0-0.2,0,0,0c0.4-0.1,0.9-0.1,1.3-0.2
		c0.7-0.1,1.4-0.2,2-0.2h0.6c0.4,0-0.7,0-0.4,0s2.3-0.1,1.9-0.9c-1.6-2.9-2.5-6.1-2.9-9.3c-0.2-1.5,0-3,0.7-4.3
		c0.3-0.4,0.7-0.8,1.1-1c0.3-0.1,0.6,0-0.3-0.1c-0.5-0.1-0.6-0.2-0.2,0.1c2.5,1.8,3.8,5.2,5.5,7.8c0.8,1.3,1.9,2.5,3.2,3.5
		c1.9,1.1,4,1.8,6.2,1.9c3.5,0.2,7-0.2,10.3-1.3c0.9-0.3,1-0.8,0.1-1.3C337.6,249.4,336.4,249.2,335.2,249.5z"></path><path class="st1" d="M311.1,268.3c-0.2,0-0.3,0-0.5,0h-0.4c0.9,0,0.1,0-0.1,0c-1.1-0.2-2.2-0.4-3.3-0.6c-0.3,0-0.7-0.1-1-0.3h0.1
		l-0.1,0l-0.6-0.2c-0.7-0.2-1.3-0.5-2-0.8s0.5,0.2,0,0l-0.6-0.3l-0.8-0.5c-0.4-0.3,0.4,0.4-0.1,0l-0.5-0.4l-0.4-0.3l-0.2-0.2
		c0.2,0.2,0.3,0.3,0.1,0.1c-0.8-1-2-1.5-3.2-1.3c-1.1,0.3-1,1.5-0.3,2.2c2.7,2.7,6.1,4.6,9.8,5.5c1.2,0.3,2.4,0.6,3.7,0.8
		c0.8,0.2,1.6,0.2,2.3,0.2c0.5,0,0.9-0.2,1.2-0.5c0.2-0.4,0.2-0.9-0.1-1.3C313.5,269.1,312.4,268.4,311.1,268.3L311.1,268.3z"></path><path class="st1" d="M311.8,275.2c-1.6,0.1-3.1,0.1-4.6-0.1c-1.3-0.1-2.7-0.4-4-0.8c-0.7-0.2-1.4-0.5-2-0.8
		c-0.6-0.3-1.2-0.7-1.7-1.1c-0.2-0.1-0.6-0.4-0.9-0.3s-0.1,0.7-0.1,0.9c0.4,1.1,1.1,2.2,2,2.9c2.5,1.9,5.5,3.1,8.6,3.3
		c1.6,0.2,3.3,0.3,5,0.2c0.9-0.1,0.1-1.7-0.1-2c-0.3-0.6-0.7-1.1-1.2-1.5C312.5,275.7,312.1,275.2,311.8,275.2L311.8,275.2z"></path><path class="st1" d="M307.1,260.8c1.3,0.2,2.5,0.2,3.8,0.2c1.1,0,2.1-0.1,3.2-0.2c1.1-0.2,2.1-0.5,3.1-1.1c0.4-0.2,0.7-0.7,0.8-1.2
		c0-0.5-0.3-0.9-0.7-1.2l-0.2-0.2l-0.1-0.1c0.6,0.5,0.3,0.3,0.2,0.2l-0.3-0.3c-0.5-0.5-1-1.1-1.4-1.7l0.2,0.4
		c-0.4-0.6-0.6-1.2-0.8-1.9c-0.1-0.5-0.8-0.9-1.1-1c-0.6-0.2-1.3-0.3-1.9-0.2c-0.6,0.1-1.1,0.3-1.5,0.7c-0.3,0.4-0.4,0.8-0.3,1.3
		c0.6,2,1.8,3.8,3.5,5.1v-2.4l-0.2,0.1c-0.2,0.1-0.4,0.1,0.3-0.1c-0.2,0.1-0.3,0.1-0.5,0.2s-0.2,0.1-0.3,0.1c0.1,0,0.7-0.2,0.3-0.1
		c-0.2,0-0.4,0.1-0.6,0.1c-0.2,0-0.4,0.1-0.6,0.1h-0.3c-0.6,0,0.6,0,0.2,0s-0.8,0-1.2,0c-0.7,0-1.4,0-2-0.1l-0.7,0
		c-0.5,0,0.8,0.1,0.4,0c-0.6-0.1-1.3-0.1-1.9,0.1c-0.5,0.2-0.9,0.5-1.2,1C305,259.7,306.1,260.6,307.1,260.8L307.1,260.8z"></path><path class="st0" d="M244.7,276c0,0,8.9-1.3,11.4-5.8s-0.2-14.7,5.1-15.9c5.3-1.2,7.1,9.4,7,13.9c0,0,17.7-8.3,16.9,3.6
		c0,0,6.7,0.2,3.3,8.6c0,0,3.3,1.6,1.2,7.9s-18,18.1-41.7,15.2C247.9,303.6,237.4,281.5,244.7,276z"></path><path class="st1" d="M245.2,278c2.5-0.4,4.9-1.1,7.2-2.2c1.8-0.8,3.5-2,4.8-3.4c1.2-1.4,1.9-3.1,2.2-4.8c0.6-3.2,0.1-7,1.2-10
		c0.1-0.1,0.4-0.9,0.3-0.6c0.1-0.1,0.2-0.2,0.2-0.4c0.4-0.5-0.2,0.2,0.1-0.1s0.2-0.1,0-0.1c0.2,0,0.3-0.1,0.5-0.1
		c-0.5,0.1,0.1,0,0.2,0c-0.5-0.1,0,0,0.1,0c0.3,0.2-0.5-0.2,0.1,0c0.4,0.2,0.1,0,0,0c0.1,0.1,0.3,0.2,0.4,0.3
		c0.2,0.1,0.3,0.3,0.4,0.5c0.2,0.3,0.5,0.6,0.6,1c1.6,2.9,2.2,6.9,2.1,10.1c0,1.9,2.2,2.4,3.6,1.7l0.7-0.3l0.8-0.3
		c0.6-0.3-0.4,0.1,0,0l0.4-0.2c1.8-0.7,3.7-1.2,5.6-1.5c0.2,0,0.1,0-0.2,0l0.4,0l0.8-0.1c0.5,0,1,0,1.5,0s-0.3,0,0.2,0
		c0.2,0,0.5,0.1,0.7,0.1c0.1,0,0.9,0.3,0.3,0l0.5,0.2c0.1,0,0.6,0.4,0.2,0.1c0.2,0.1,0.3,0.3,0.5,0.4s0.2,0.2,0,0
		c0.1,0.1,0.2,0.2,0.2,0.3c0.1,0.2,0.2,0.4,0.3,0.5s0.1,0.1,0-0.1c0,0.1,0.1,0.2,0.1,0.4s0.1,0.5,0.2,0.8c0.1,0.5,0.1,1.1,0,1.6
		c-0.1,1.3,1.2,2,2.3,2c0.4,0-0.8-0.2-0.3,0c0.2,0,0.4,0.1,0.6,0.1s0.5,0.2-0.1,0l0.5,0.2c0.1,0.1,0.3,0.1,0.4,0.2
		c-0.6-0.3,0,0,0.1,0.1c0.4,0.3,0.1,0.1,0.1,0.1c0.1,0.2,0.2,0.3,0.3,0.5c0.1,0.2,0.1,0.2,0,0c0,0.1,0.1,0.2,0.1,0.4
		c0,0.2,0.1,0.4,0.1,0.6c0-0.3,0,0.5,0,0.6c0,0.3,0,0.6-0.1,0.8c-0.1,0.9-0.4,1.7-0.7,2.6c-0.3,0.9,0.1,1.9,1,2.3
		c0.2,0.1-0.6-0.4,0,0c0.4,0.3,0.1,0.1,0.1,0c0.2,0.2,0.3,0.5,0.5,0.7c-0.2-0.4,0.1,0.3,0.1,0.4c0.1,0.3,0.1,0.6,0.2,0.9
		c0,1.1-0.1,2.2-0.5,3.2c-0.1,0.4-0.3,0.8-0.5,1.2c0.3-0.6-0.1,0.1-0.2,0.3c-0.1,0.2-0.3,0.5-0.5,0.7c-0.3,0.4-0.7,0.9-1,1.3
		c0.3-0.4-0.2,0.2-0.3,0.3l-0.8,0.8c-2.3,2.1-4.9,3.8-7.7,5.1c-3.6,1.7-7.3,3-11.2,3.7c-5.4,1-11,1.2-16.4,0.5l1.4,0.9
		c-0.1-0.2-0.2-0.4-0.3-0.6c-0.2-0.5,0.2,0.4-0.1-0.2c-0.1-0.3-0.3-0.6-0.4-0.9c-0.7-1.8-1.4-3.6-2.1-5.4c-1.5-4.3-2.9-8.9-2.7-13.3
		c0-1,0.2-2,0.5-2.9c0.1-0.2,0.2-0.5,0.3-0.7c-0.2,0.4,0.1-0.2,0.2-0.3s0.4-0.5,0.3-0.4s0.4-0.3,0.5-0.4c0.9-0.7,1-1.9,0.3-2.8
		c-0.1-0.1-0.1-0.1-0.2-0.2c-1.1-0.8-2.5-0.7-3.5,0.2c-4.8,3.8-3.5,11.4-2.2,16.5c0.7,2.9,1.6,5.7,2.7,8.4c0.6,1.7,1.3,3.4,2.1,5
		c0.8,1.5,3,1.3,4.5,1.4c2.5,0.2,5.1,0.2,7.6,0.1c4.5-0.2,9-1,13.4-2.3c6.3-1.9,12.8-5,17.4-9.9c2.2-2.1,3.6-5,4.1-8
		c0.4-2.7-0.3-6-3-7.3l1,2.3c1.2-3.1,1.9-7-0.8-9.5c-1.3-1.1-2.9-1.7-4.6-1.7l2.3,2c0.3-2.1-0.4-4.3-1.7-6c-1.3-1.4-3.1-2.2-5-2.4
		c-3.7-0.4-7.4,0.6-10.8,1.9c-1,0.4-2,0.8-3,1.2l3.6,1.7c0.1-5.7-2-18.3-10.4-15.7c-4.2,1.3-4.9,5.9-5.2,9.7c0,1.9-0.2,3.8-0.6,5.6
		c-0.2,1.4-1,2.6-2.2,3.4c-1.5,1-3.2,1.8-5,2.2c-1,0.3-2,0.5-3,0.7c-1.2,0.2-2.1,1.4-1.9,2.6C242.6,278,244.1,278.2,245.2,278z"></path><path class="st1" d="M275.8,283.7c1.6-0.7,3.1-1.7,4.5-2.9c2-1.5,3.7-3.3,5.2-5.4c0.9-1.3,1.6-2.8,2-4.3c0.1-0.4-0.4-0.6-0.6-0.7
		c-0.5-0.1-1.1-0.1-1.6,0.1c-1.1,0.3-2,1-2.4,2.1c0.1-0.2,0,0.1,0,0.1s-0.1,0.3-0.1,0.4c-0.1,0.3-0.2,0.5-0.3,0.8s-0.2,0.5-0.4,0.7
		s-0.1,0.2-0.2,0.4s-0.3,0.4-0.1,0.1c-0.6,0.9-1.3,1.8-2.1,2.7c-0.3,0.3,0.3-0.3,0,0l-0.3,0.3l-0.6,0.6c-0.4,0.4-0.8,0.7-1.2,1
		l-0.5,0.4l-0.2,0.2c-0.4,0.3,0.4-0.3,0.1-0.1s-0.6,0.4-0.9,0.6l-0.7,0.5c-0.1,0.1-0.5,0.3,0,0s0.3-0.2,0.2-0.1s-0.4,0.1,0.6-0.2
		c-0.6,0.2-1.2,0.5-1.7,0.9c-0.4,0.3-0.6,0.7-0.7,1.1C273.5,284.1,275.1,283.9,275.8,283.7L275.8,283.7z"></path><path class="st1" d="M280.2,290.2c1.1-0.5,2.1-1,3.1-1.6c1.9-1.1,3.7-2.5,5.2-4.1c0.9-1,1.7-2.2,2.2-3.5c0.1-0.3-0.3-0.7-0.5-0.9
		c-0.5-0.4-1-0.6-1.6-0.7c-0.7-0.2-2.3-0.5-2.7,0.3c-1,2-2.4,3.8-4.2,5.1c-0.8,0.6-1.7,1.2-2.6,1.8c-0.2,0.1-0.4,0.2-0.6,0.3
		l-0.2,0.1c0.3-0.2,0,0-0.1,0c-0.3,0.2-0.6,0.3-0.9,0.5s-0.6,0.3-1,0.5c-1,0.4-0.1,1.3,0.5,1.6c0.6,0.3,1.2,0.5,1.8,0.6
		C279.2,290.4,279.7,290.4,280.2,290.2L280.2,290.2z"></path><path class="st1" d="M272.8,269L272.8,269l0.4-0.3c-1.5,1.1-3.2,1.9-5,2.5l0.5-0.2c-0.5,0.2-1,0.3-1.5,0.3h0.6c-0.2,0-0.4,0-0.6,0
		l2.5,3.3c1-1.9,1.2-4.1,0.8-6.2c-0.1-0.6-0.4-1.1-0.9-1.5c-0.5-0.4-1.1-0.7-1.8-0.8c-0.6-0.1-1.1,0.1-1.6,0.5
		c-0.4,0.4-0.6,0.9-0.5,1.5c0.1,0.5,0.2,1,0.2,1.5v-0.5c0,1-0.2,2-0.5,2.9l0.2-0.5c-0.1,0.3-0.2,0.5-0.3,0.8
		c-0.3,0.7-0.2,1.5,0.3,2.1c0.5,0.7,1.3,1.1,2.2,1.2c1.1,0.1,2.2-0.1,3.2-0.5c0.8-0.3,1.6-0.6,2.4-1c1.1-0.5,2.1-1.2,3.1-1.8
		c0.4-0.4,0.6-0.9,0.5-1.5c-0.1-0.6-0.4-1.1-0.9-1.5c-0.5-0.4-1.1-0.7-1.8-0.8h-0.6C273.4,268.6,273.1,268.7,272.8,269L272.8,269z"></path><path class="st2" d="M268.4,248.7c-0.4,3.7,0.4,7.3,1,11s1.2,7.3,0,10.9c-0.5,1.4,4.1,3.3,4.6,2c2.5-7.3-1.8-14.5-1-21.8
		C273.1,249.2,268.5,247.7,268.4,248.7L268.4,248.7z"></path><path class="st2" d="M302.4,241.5c0.4,6.6,4.1,12.4,7.6,17.9c0.2,0.2,1,0.3,1.2,0.3c0.6,0,1.3,0,1.9-0.1c0.4-0.1,2.1-0.4,1.7-1
		c-3.4-5.4-6.9-11-7.3-17.5C307.3,240,302.3,240.4,302.4,241.5L302.4,241.5z"></path><path class="st2" d="M234.7,385.4c-3.1,16.1,1.7,32.6,12.8,44.6c0.9,0.9,2.2,1.2,3.4,0.8c0.9-0.3,1.9-1.4,1-2.3
		c-10.7-11.5-15.2-27.5-12.2-42.9C240.1,383.5,235.2,383.1,234.7,385.4L234.7,385.4z"></path><path class="st2" d="M222.1,365.1v23.6c0,0.8,1.5,1.9,2,2.3c0.2,0.2,1.7,1.3,1.7,0.8v-23.6c0-0.8-1.5-1.9-2-2.3
		C223.5,365.7,222.1,364.5,222.1,365.1z"></path><path class="st2" d="M385.6,287.4c8.9,7.9,15.5,18,19.2,29.2c0.2,0.6,1.9,0.7,2.5,0.7c0.2,0,2.6,0.1,2.5-0.3
		c-3.8-11.4-10.5-21.5-19.4-29.5c-0.7-0.6-2.2-0.6-3-0.6C387.2,287,385.2,287,385.6,287.4L385.6,287.4z"></path><path class="st2" d="M408.9,301.3c2,8,3.1,16.1,3.1,24.3c0.1,1.3,0.8,2.4,2,2.9c0.6,0.3,1.4,0.1,1.7-0.5c0.1-0.2,0.2-0.5,0.2-0.8
		c0-8.6-1.1-17.1-3.2-25.4c-0.2-1.2-1.2-2.2-2.4-2.5C409.1,299.2,408.7,300.4,408.9,301.3L408.9,301.3z"></path><path class="st2" d="M211,214.8c-8.7-5.6-16.8-12.1-24.2-19.4c-0.9-0.9-2.4-1-3.4-0.2c-1,0.9-0.5,2.3,0.3,3.1
		c7.7,7.5,16.2,14.3,25.2,20.1c1,0.7,2.5,0.4,3.2-0.6C212.8,216.6,211.9,215.4,211,214.8L211,214.8z"></path><path class="st2" d="M336.1,193.8l6.2-26.4c0.4-1.8-4.5-1.4-4.9,0.3l-6.2,26.4C330.8,195.8,335.7,195.4,336.1,193.8L336.1,193.8z"></path></g></svg>