<svg transform="scale(1)" id="iC1rhaIADW" xmlns="http://www.w3.org/2000/svg" viewBox="0 0 500 500" class="pbimage_pbimage__wrapper__image__0LEis false"><title>Rocket Boy</title><defs><style> .cls-1{fill:#fff;} .cls-2{fill:#f5d94a;} .cls-3{opacity:.11;} .cls-4{fill:#231f20;}
 .cls-4{fill:#231F20;}
 .cls-2{fill:#604d6b;}
 .cls-1{fill:#FFFFFF;}</style></defs><g id="rocket"><g><g><path class="cls-4" d="M313.76,300.75c-1.28,24.42-18.42,46-39.75,57.95-21.33,11.95-46.33,15.58-70.76,16.4,6.54-10.52,13.08-21.04,19.62-31.56,1.11-1.79,2.25-3.61,3.84-5.01,2.25-1.98,5.2-2.93,8.02-3.96,11.93-4.35,22.94-10.84,33.87-17.3,15.68-9.27,31.36-18.53,47.04-27.8,.25,2.37-.1,4.8-1.01,7.01"></path><path class="cls-4" d="M312.29,300.88c-.99,17.62-10.2,33.61-22.98,45.44-14.29,13.22-32.83,20.51-51.71,24.22-11.27,2.21-22.75,3.17-34.21,3.57l1.23,1.14c5.15-8.27,10.29-16.55,15.44-24.82,1.26-2.03,2.53-4.07,3.79-6.1,1.15-1.85,2.27-3.81,3.93-5.27,3.1-2.73,7.72-3.65,11.47-5.18,8.38-3.42,16.31-7.81,24.12-12.35,8.29-4.83,16.52-9.74,24.78-14.62,9.48-5.6,18.96-11.2,28.44-16.81-.8-.07-1.6-.15-2.4-.22,.2,2.21-.12,4.42-.94,6.48-.59,1.5,2.31,1.4,2.76,.27,.96-2.44,1.32-4.92,1.08-7.53-.1-1.06-1.93-.5-2.4-.22-16.95,10.02-33.87,20.07-50.85,30.04-7.97,4.68-16.04,9.24-24.56,12.83-3.92,1.65-8.26,2.71-11.89,4.98-3.65,2.28-5.66,6.29-7.86,9.84-5.89,9.47-11.77,18.93-17.66,28.4-.52,.83,.69,1.16,1.23,1.14,20.98-.72,42.29-3.45,61.72-11.78,16.98-7.29,32.09-19.24,41.53-35.29,5.08-8.64,8.3-18.38,8.87-28.41,.08-1.44-2.86-.98-2.93,.25h0Z"></path></g><g><path class="cls-4" d="M208.77,173.68c-24.22-3.35-48.65,9.41-64.41,28.11-15.76,18.69-24.04,42.56-29.46,66.4,11.56-4.44,23.13-8.88,34.69-13.32,1.97-.76,3.97-1.53,5.64-2.82,2.37-1.84,3.86-4.55,5.4-7.13,6.52-10.9,14.98-20.48,23.38-30,12.06-13.65,24.12-27.3,36.18-40.96-2.28-.69-4.74-.81-7.07-.33"></path><path class="cls-4" d="M209.97,173.14c-18.65-2.51-37.52,4.04-52.41,15.12-15.92,11.85-26.81,29-34.12,47.23-4.28,10.67-7.41,21.76-9.96,32.96-.14,.62,1.69,.1,1.92,.02,9.33-3.58,18.66-7.16,27.98-10.74,2.3-.88,4.6-1.76,6.9-2.65,1.91-.74,3.84-1.49,5.54-2.65,3.41-2.32,5.19-6.14,7.32-9.54,4.91-7.85,10.79-15.04,16.85-22.02,6.36-7.33,12.84-14.57,19.27-21.85,7.45-8.44,14.91-16.88,22.36-25.32,.14-.16-.16-.25-.23-.27-2.62-.75-5.31-.79-7.99-.28-.29,.06-1.71,.34-1.71,.76,0,.46,.85,.28,1.14,.22,2.08-.39,4.13-.21,6.16,.38l-.23-.27c-12.82,14.51-25.66,29.01-38.45,43.54-5.91,6.72-11.76,13.52-16.87,20.87-2.45,3.53-4.42,7.43-6.98,10.88-2.84,3.82-7.26,5.02-11.52,6.66-10.18,3.91-20.35,7.81-30.53,11.72l1.92,.02c4.29-18.81,10.26-37.55,20.5-54.03,9.75-15.68,23.69-29.02,41.05-35.84,9.43-3.7,19.62-5.19,29.68-3.83,.66,.09,1.42-.1,2.02-.39,.2-.09,1.03-.6,.37-.69h0Z"></path></g></g><g><path class="cls-2" d="M394.4,239.35c12.14-9.81,23.48-20.5,33.45-32.53,34.48-41.6,55.34-148.79,50.93-149.32,.31-4.42-108.89-4.16-156.25,21.85-13.7,7.52-26.33,16.65-38.25,26.71-12.87,10.48-24.72,22.23-36.29,34.17-34.03,35.1-66.24,71.95-96.46,110.37l75.88,91.84c43.43-22.43,85.7-47.12,126.59-73.91,13.9-9.11,27.68-18.53,40.4-29.19Z"></path><path class="cls-2" d="M395.58,239.63c9.04-7.32,17.68-15.14,25.62-23.64,5.59-5.99,10.84-12.24,15.29-19.13,8.12-12.57,14.3-26.37,19.69-40.29,5.67-14.63,10.41-29.63,14.49-44.78,3.29-12.23,6.22-24.59,8.37-37.07,.68-3.91,1.3-7.85,1.63-11.81,.12-1.48,.73-4.46-.27-5.77-.18-.24-.43-.42-.74-.47l.58,.67c.03-1.14-1.66-1.44-2.5-1.63-2.1-.47-4.29-.64-6.43-.8-7.6-.56-15.26-.51-22.87-.35-22.89,.5-45.84,2.54-68.41,6.43-11.7,2.02-23.35,4.55-34.68,8.11-11.25,3.53-21.71,8.27-31.77,14.43-31.18,19.08-56.91,45.7-81.78,72.15-25.46,27.08-49.86,55.17-73.12,84.16-2.85,3.55-5.69,7.12-8.5,10.7-.15,.19-.13,.47,.02,.65,2.52,3.06,5.05,6.11,7.57,9.17,6.03,7.29,12.05,14.59,18.08,21.88,7.29,8.82,14.58,17.64,21.87,26.47,6.33,7.67,12.67,15.33,19,23,2.09,2.53,4.17,5.05,6.26,7.58,.96,1.16,1.86,2.55,2.96,3.58,.05,.05,.09,.11,.14,.17,.4,.49,1.46,.32,1.93,.08,22.94-11.85,45.56-24.32,67.82-37.39,22.11-12.99,43.92-26.54,65.26-40.76,11.88-7.91,23.54-16.16,34.49-25.32,.52-.43,.23-.94-.3-1.12-.67-.23-1.54,.13-2.05,.55-19.38,16.21-40.94,29.78-62.29,43.21-21.57,13.57-43.51,26.56-65.78,38.95-12.67,7.05-25.45,13.9-38.33,20.56,.64,.03,1.29,.05,1.93,.08-2.52-3.06-5.05-6.11-7.57-9.17-6.03-7.29-12.05-14.59-18.08-21.88-7.29-8.82-14.58-17.64-21.87-26.47l-19-23c-2.09-2.53-4.17-5.05-6.26-7.58l-1.93-2.34c-.25-.3-.66-1.06-1.02-1.24-.05-.02-.1-.12-.14-.17l.02,.65c22.62-28.74,46.33-56.6,71.1-83.5,24.24-26.33,48.98-52.97,78.2-73.89,11.01-7.88,22.6-14.99,35.31-19.76,10.54-3.96,21.52-6.73,32.54-8.98,22.48-4.58,45.46-6.94,68.37-7.92,8.58-.37,17.19-.54,25.78-.25,2.84,.09,5.69,.23,8.52,.53,1.04,.11,1.64,.18,2.61,.36,.34,.06,.68,.13,1.01,.21,.28,.07,.75,.23,.61,.18,.11,.04,.63,.31,.3,.12,.23,.13,.06,.12,.07-.1,0,.36,.21,.61,.58,.67-.31-.05-.24-.24-.21-.03,.04,.29,.14,.57,.17,.87,.11,.95,.05,1.91-.02,2.92-.22,3.62-.77,7.22-1.35,10.79-1.94,11.87-4.65,23.63-7.68,35.26-3.84,14.74-8.31,29.33-13.59,43.61-5.19,14.04-11.15,27.92-18.84,40.79-9.45,15.82-22.64,29.09-36.55,41.03-2.17,1.86-4.37,3.69-6.6,5.49-.53,.43-.22,.94,.3,1.12,.67,.23,1.53-.13,2.05-.55Z"></path></g><g><path class="cls-1" d="M248,140.23c-.53,.55-1.06,1.11-1.59,1.67,29.13,4.91,57.83,12.4,85.63,22.41,4.37,1.57,9.06,3.48,11.39,7.5,1.77,3.05,1.83,6.76,1.85,10.28,.13,26.7,.26,53.41,.39,80.11,.02,3.9,.04,7.8,.04,11.7,2.77-1.79,5.56-3.57,8.32-5.37,13.9-9.11,27.68-18.53,40.4-29.19,12.14-9.81,23.48-20.5,33.45-32.53,34.48-41.6,55.34-148.79,50.93-149.32,.31-4.42-108.89-4.16-156.25,21.85-13.7,7.52-26.33,16.65-38.25,26.71-12.87,10.48-24.72,22.23-36.29,34.17Z"></path><path class="cls-2" d="M246.81,139.9c-.53,.55-1.06,1.11-1.59,1.67-.65,.67-.03,1.16,.66,1.28,26.34,4.45,52.33,11.03,77.61,19.66,3.03,1.04,6.07,2.07,9.07,3.21,2.42,.91,4.88,1.99,6.9,3.65,5.04,4.15,4.34,10.99,4.37,16.87,.07,13.77,.13,27.53,.2,41.3,.07,15.51,.2,31.02,.2,46.54,0,1.18,1.77,.81,2.39,.41,23.38-15.08,46.42-30.83,66.51-50.21,7.86-7.59,15.45-15.68,21.63-24.72,4.67-6.84,8.65-14.14,12.25-21.59,7.94-16.45,14.12-33.76,19.41-51.22,4.62-15.26,8.59-30.75,11.61-46.41,.99-5.13,1.9-10.3,2.47-15.5,.17-1.6,.33-3.22,.33-4.83,0-.81,.07-1.84-.3-2.6-.26-.53-.63-.73-1.22-.82l.93,.8c.06-1.85-4.24-2.03-5.37-2.17-4.4-.55-8.85-.67-13.28-.74-14.85-.25-29.74,.49-44.53,1.77-17.9,1.55-35.78,3.97-53.32,7.92-8.28,1.86-16.49,4.08-24.49,6.92-8.14,2.89-15.8,6.53-23.24,10.93-11.41,6.76-22.06,14.66-32.23,23.15-10.49,8.76-20.46,17.99-30.08,27.7-2.32,2.34-4.62,4.7-6.91,7.06-.46,.47-.26,1.02,.33,1.22,.65,.22,1.58-.06,2.05-.55,18.43-19,37.82-37.36,59.97-52.01,8.05-5.32,16.39-10.19,25.36-13.8,7.49-3.01,15.25-5.34,23.07-7.32,16.99-4.28,34.39-6.89,51.8-8.66,15.13-1.54,30.36-2.46,45.57-2.49,5.1,0,10.22,.06,15.31,.44,1.63,.12,3.26,.27,4.87,.53,.41,.06-.11-.03,.23,.04,.13,.03,.26,.05,.39,.08,.25,.05,.51,.11,.75,.18,.19,.05,.37,.11,.55,.17,.37,.12-.16-.11,.21,.1,.25,.14,.07,.03,.07,.04-.01,.02-.03-.07-.02-.21-.02,.56,.46,.72,.93,.8-.35-.05-.4-.18-.64-.26,.02,0,.08,.09,.08,.09-.03,.02-.03-.19,.04,.14,.09,.38,.14,.75,.16,1.14,0,.04,.01,.32,.01,.63s0,.64-.02,.96c-.03,.78-.08,1.55-.15,2.33-.41,4.71-1.2,9.39-2.05,14.03-2.72,14.93-6.4,29.71-10.64,44.27-5.04,17.34-10.95,34.51-18.44,50.96-3.46,7.61-7.28,15.07-11.7,22.17-5.06,8.11-11.16,15.35-17.76,22.26-18.74,19.61-40.89,35.61-63.49,50.44-2.96,1.94-5.94,3.84-8.91,5.76l2.39,.41c0-28.28-.25-56.57-.39-84.85-.02-3.32,.05-6.66-.1-9.98-.13-2.93-.62-5.87-2.3-8.35-3.02-4.46-8.69-6.18-13.5-7.89-12.87-4.57-25.92-8.6-39.12-12.09-14.78-3.9-29.73-7.11-44.8-9.65l.66,1.28c.53-.55,1.06-1.11,1.59-1.67,.46-.47,.26-1.02-.33-1.22-.65-.22-1.58,.06-2.05,.55Z"></path></g><g><g><path class="cls-4" d="M466.28,122.43c10.09-34.49,14.84-64.65,12.51-64.92,.17-2.34-30.34-3.37-66.12,.04l53.61,64.89Z"></path><path class="cls-2" d="M467.72,122.22c3.62-12.38,6.8-24.89,9.4-37.53,1.6-7.75,3.31-15.72,3.66-23.65,.05-1.1,.5-3.99-1.1-4.28l.55,.34c.01-1.08-2.79-1.38-3.45-1.49-3-.51-6.07-.66-9.1-.8-10.53-.48-21.12-.2-31.64,.32-7.73,.38-15.45,.95-23.16,1.68-.41,.04-2.14,.58-1.57,1.27,6.07,7.34,12.13,14.69,18.2,22.03,9.6,11.62,19.2,23.24,28.8,34.86,2.2,2.67,4.4,5.33,6.61,8,.58,.7,3.36-.3,2.7-1.09-6.07-7.34-12.13-14.69-18.2-22.03-9.6-11.62-19.2-23.24-28.8-34.86-2.2-2.67-4.4-5.33-6.61-8l-1.57,1.27c12.4-1.17,24.85-1.92,37.3-2.12,7.87-.13,15.9-.27,23.72,.72,.95,.12,2.23,.3,2.97,.53,.29,.09,.57,.19,.83,.33-.05-.03,.06,0,.06,.16,0,.21,.42,.32,.55,.34-.36-.07-.24-.19-.2,.03,.04,.27,.14,.52,.17,.79,.11,.85,.08,1.72,.04,2.56-.15,3.11-.59,6.22-1.06,9.29-1.55,10.12-3.75,20.14-6.18,30.08-1.78,7.25-3.72,14.47-5.81,21.64-.26,.91,2.62,.51,2.89-.4Z"></path></g><g><path class="cls-4" d="M169.33,228.5c-6,7.32-11.94,14.67-17.79,22.11l75.88,91.84c8.41-4.34,16.75-8.79,25.07-13.3l-83.16-100.65Z"></path><path class="cls-2" d="M168.01,228.57c-6,7.32-11.94,14.68-17.79,22.11-.13,.17-.18,.27-.04,.44,2.53,3.06,5.06,6.12,7.59,9.18,6.02,7.28,12.04,14.57,18.06,21.85,7.33,8.87,14.66,17.74,21.99,26.61,6.29,7.62,12.58,15.23,18.88,22.85,2.09,2.53,4.18,5.06,6.27,7.59,.94,1.14,1.85,2.63,2.97,3.6,.05,.04,.09,.1,.13,.15,.39,.47,1.84-.07,2.21-.26,8.4-4.34,16.75-8.79,25.07-13.3,.26-.14,.79-.43,.51-.77-2.75-3.33-5.51-6.67-8.26-10-6.62-8.01-13.23-16.02-19.85-24.03-8.01-9.69-16.01-19.38-24.02-29.07-6.92-8.38-13.85-16.76-20.77-25.14-2.29-2.78-4.59-5.55-6.88-8.33-1.03-1.25-2.01-2.82-3.22-3.9-.05-.05-.1-.12-.14-.17-.49-.59-3.24,.39-2.72,1.03,2.75,3.33,5.51,6.67,8.26,10,6.62,8.01,13.23,16.02,19.85,24.03,8.01,9.69,16.01,19.38,24.02,29.07,6.92,8.38,13.85,16.76,20.77,25.14l6.88,8.33c.7,.85,1.41,1.7,2.11,2.56,.32,.39,.69,1.07,1.11,1.34,.05,.04,.1,.12,.14,.17l.51-.77c-8.32,4.51-16.67,8.96-25.07,13.3l2.21-.26c-2.53-3.06-5.06-6.12-7.59-9.18-6.02-7.28-12.04-14.57-18.06-21.85-7.33-8.87-14.66-17.74-21.99-26.61-6.29-7.62-12.58-15.23-18.88-22.85l-6.27-7.59-1.95-2.36c-.26-.31-.65-1.05-1.02-1.23-.05-.02-.09-.11-.13-.15l-.04,.44c5.85-7.43,11.8-14.79,17.79-22.11,.41-.5-.36-.58-.71-.57-.58,.01-1.54,.23-1.93,.72Z"></path></g></g><g><path class="cls-4" d="M273.63,238.07c3.11-3.7,4.25-12.17,1.89-12.63,0-2.4-8.54-2.88-12.76-.52-20.3,2.86-43.68,15.05-62.24,31.66-21.68,19.41-36.83,44.02-43.35,66.62,.02,0,.04-.02,.06-.02-.01,.02-.02,.04-.03,.05,23.43-2.15,50.46-12.38,73.6-30.01,19.82-15.09,36.19-35.76,42.83-55.15Z"></path><path class="cls-1" d="M274.96,238.01c1.55-1.9,2.45-4.29,2.93-6.68,.34-1.68,.76-4.03-.1-5.62-.13-.23-.29-.46-.5-.62-.09-.07-.27-.12-.35-.2-.28-.31,.22,.25,0-.11-.42-.67-.78-1.03-1.55-1.36-1.98-.84-4.43-.84-6.53-.67-1.29,.11-2.59,.31-3.84,.65-.51,.14-1.02,.3-1.52,.49-.29,.11-.58,.23-.86,.36-1.09,.5,.55,.06-.35,.11-2.87,.17-5.88,1.07-8.65,1.79-6.09,1.58-12.01,3.77-17.74,6.36-25.05,11.32-46.51,30.25-61.89,52.93-7.91,11.66-14.34,24.42-18.27,37.97-.23,.79,1.71,.31,1.97,.21l.06-.02-1.86-.38-.03,.05c-.33,.51,.28,.66,.72,.62,19.55-1.82,38.61-8.38,55.76-17.83,18.32-10.1,34.77-23.81,47.4-40.53,6.37-8.43,11.85-17.68,15.31-27.7,.25-.72-2.59-.38-2.87,.45-6.19,17.93-18.54,33.61-32.38,46.31-14.97,13.75-32.91,24.42-52.08,31.18-9.66,3.4-19.73,5.81-29.94,6.76l.72,.62,.03-.05c.61-.93-1.52-.52-1.86-.38l-.06,.02c.66,.07,1.31,.14,1.97,.21,6.03-20.76,17.77-39.79,32.32-55.65,15.38-16.77,34.77-30.67,56.41-38.06,2.77-.94,5.58-1.76,8.42-2.43,1.3-.31,2.61-.58,3.93-.82s2.8-.31,4.06-.88c2-.9,4.17-1.2,6.36-1.06,1.09,.07,3.87,.21,3.98,1.75,.05,.12,.14,.2,.27,.23,1.53,.4,.96,3.99,.8,5-.4,2.48-1.24,5.1-2.84,7.07-.42,.51,.36,.63,.72,.62,.6,0,1.53-.24,1.93-.73Z"></path></g><g><path class="cls-4" d="M409.22,122.87c-12.85-21.97-39.89-34.33-65.16-30.76-25.27,3.57-47.57,22.35-56.42,46.29-8.85,23.94-4.38,52.04,10.56,72.65,4.22,5.83,9.28,11.14,15.38,14.96,5.4,3.38,11.51,5.53,17.75,6.84,26.92,5.66,56.7-5.23,73.69-26.94,16.99-21.71,20.36-53.19,8.33-77.9"></path><path class="cls-4" d="M410.57,122.31c-6.97-11.82-18-20.9-30.61-26.19-12.78-5.37-27.02-6.83-40.59-3.91-13.52,2.91-26.07,10.03-35.86,19.74-10.03,9.95-17.17,22.59-20.15,36.43-3.17,14.72-1.82,30.35,3.44,44.43,5.33,14.27,14.93,28.49,28.72,35.67,13.1,6.82,29.09,8.05,43.47,5.43,13.84-2.52,27.04-8.63,37.72-17.83,10.88-9.38,18.63-21.91,22.46-35.74,3.85-13.89,3.81-28.94-.43-42.74-1.05-3.42-2.36-6.74-3.92-9.96-.47-.98-3.3-.05-2.9,.78,6.1,12.62,8.26,26.93,6.6,40.82-1.66,13.94-7.12,27.44-16.12,38.26-8.66,10.41-20.46,18.18-33.31,22.37-13.06,4.25-27.23,4.92-40.53,1.35-7.85-2.11-15.01-5.87-20.95-11.45-5.49-5.16-10.02-11.43-13.56-18.07-6.89-12.92-10.22-27.8-9.33-42.43,.85-14.02,5.66-27.52,14.08-38.77,7.99-10.68,18.92-19.2,31.38-24.01,12.46-4.81,26.09-5.36,38.97-1.9,12.84,3.45,24.7,10.77,33.22,21.01,2.05,2.46,3.89,5.09,5.51,7.85,.47,.79,3.29-.11,2.69-1.12h0Z"></path></g><g><path class="cls-1" d="M401.79,128c-11.21-19.17-34.81-29.96-56.86-26.84-22.05,3.12-41.51,19.5-49.23,40.4-7.72,20.89-3.82,45.41,9.22,63.39,3.69,5.08,8.1,9.72,13.42,13.06,4.71,2.95,10.05,4.82,15.49,5.97,23.49,4.94,49.47-4.56,64.3-23.51,14.82-18.95,17.76-46.42,7.27-67.97"></path><path class="cls-4" d="M403.24,127.61c-12.46-21.13-38.71-31.53-62.43-26.42-23.99,5.18-43.8,25.02-49,48.98-2.81,12.93-1.62,26.66,3.02,39.03,4.61,12.28,12.84,24.48,24.63,30.79s25.58,7.25,38.23,4.99c12.12-2.16,23.71-7.45,33.09-15.46,19.45-16.61,27-44.58,19.45-68.91-.91-2.92-2.04-5.76-3.36-8.51-.45-.94-3.27,0-2.9,.78,10.61,22,7.46,49.86-8.1,68.75-15.24,18.51-41.35,27.13-64.54,20.77-6.83-1.87-13.05-5.2-18.2-10.1-4.69-4.46-8.56-9.83-11.61-15.53-5.98-11.19-8.91-24.08-8.2-36.75,.69-12.2,4.79-23.99,12.06-33.83,6.89-9.32,16.33-16.8,27.13-21.06,21.81-8.59,47.85-1.56,62.91,16.31,1.83,2.17,3.48,4.49,4.92,6.93,.54,.91,3.31-.08,2.9-.78h0Z"></path></g></g><g id="character"><g><path class="cls-2" d="M352.87,110.06c-9.03-6.61-22.67-2.44-29.82,6.17-7.15,8.61-9.32,20.22-10.64,31.33-.92,7.69-1.55,15.41-1.9,23.14-.37,8.19-.37,16.66,2.72,24.25,5.43,13.33,20.1,21.57,34.49,21.6,14.39,.03,28.14-7.16,38.31-17.34,5.5-5.5,10.19-12.07,12.17-19.6,2.57-9.75,.37-20.13-3.07-29.6-6.6-18.18-24.02-33.53-42.26-39.95"></path><path class="cls-2" d="M353.98,109.2c-7.66-5.49-17.98-3.92-25.57,.85-8.85,5.56-13.24,15.54-15.48,25.38-1.24,5.47-1.91,11.07-2.49,16.64-.68,6.52-1.17,13.06-1.44,19.61-.45,10.89,.18,22.25,7.13,31.19,5.85,7.53,14.74,12.38,24.04,14.11,10.2,1.89,20.84-.32,30.04-4.9,9.55-4.75,18.33-12.16,24.22-21.1,3.05-4.63,5.23-9.75,6.01-15.26,.84-5.91,.14-11.97-1.28-17.73-2.56-10.38-7.3-19.81-14.39-27.83-6.75-7.63-15.06-13.88-24.24-18.28-2.22-1.07-4.5-2.01-6.83-2.84-1.3-.46-3.39,1.4-1.65,2.02,17.71,6.3,34.09,20.23,41.11,37.93,4.04,10.19,6.64,22.14,2.93,32.81-3.36,9.67-10.93,17.7-19.11,23.59-8.13,5.85-17.83,9.77-27.92,10.03-9.02,.23-18.12-2.86-25.11-8.57-3.44-2.81-6.33-6.3-8.34-10.26-2.45-4.82-3.43-10.3-3.7-15.66-.29-5.74,.08-11.52,.46-17.24,.4-5.97,.96-11.93,1.71-17.86,1.26-9.94,3.31-20.44,9.68-28.51,5.14-6.52,14.18-10.96,22.55-8.94,1.98,.48,3.81,1.36,5.45,2.54,1.1,.78,3.6-.74,2.22-1.72h0Z"></path></g><path class="cls-1" d="M337.25,68.06c2.47,2.87,2.35,7.3-.28,9.97,4.42,6.48,7,14.03,7.42,21.76,.27,4.86-.48,10.2-4.06,13.93-2.9,3.02-7.29,4.54-11.63,4.84-4.39,.31-8.76-.49-13.07-1.41-10.18-2.19-20.61-5.24-28.83-11.35-5.41-4.02-9.78-9.64-9.77-15.96,0-4.6,2.36-9.04,5.57-12.7,3.17-3.61,7.14-6.56,11.03-9.43,7-5.18,15.82-9.94,25.14-7.19,3.12,.92,5.4,4.61,8.1,5.11,1.6,.3,3.67-.8,5.62-.34,1.84,.44,3.57,1.39,4.75,2.77Z"></path><path class="cls-4" d="M330.07,70.28c.84-1.84,2.7-1.97,4.4-1.26,1.9,.79,3.32,2.49,3.6,4.54,.12,.88,0,1.82-.42,2.61-.5,.95-1.41,1.63-2.28,2.22-.22,.15-.46,.29-.68,.44-.15,.1-.13,.08-.22,.11,.41-.15,.18-.02,.12-.04-.51-.14-1.06-.13-1.58-.31-1.01-.34-1.96-.86-2.77-1.55-.93-.8-1.75-1.83-2.09-3.03-.26-.91-.2-2.43,.82-2.78,.37-.13,1.18-.61,.79-1.09s-1.47-.13-1.91,.02c-1.39,.48-2.63,1.65-2.75,3.18s.7,2.98,1.7,4.09c2.05,2.27,5.8,3.79,8.77,2.58,1.44-.59,2.87-1.65,3.94-2.78,.95-1,1.48-2.24,1.49-3.62,.02-2.76-1.98-5.11-4.5-6.03-3.21-1.17-7.8-.24-9.33,3.11-.27,.58,.97,.58,1.23,.54,.61-.08,1.38-.34,1.66-.94h0Z"></path><path class="cls-4" d="M327.35,76.97c-.87,.41-1.73,.82-2.6,1.23-.17,.08-.51,.29-.58,.5-.06,.2,.08,.32,.26,.38,.29,.09,.64,.07,.93,.02,.38-.07,.75-.19,1.1-.35,.87-.41,1.73-.82,2.6-1.23,.17-.08,.51-.29,.58-.5,.06-.2-.08-.32-.26-.38-.29-.09-.64-.07-.93-.02-.38,.07-.75,.19-1.1,.35h0Z"></path><path class="cls-4" d="M315.78,78.17c1.19-1.41,3.23-1.41,4.8-.7,1.8,.82,4.07,3.11,3.53,5.29-.27,1.07-.92,2.17-1.51,3.1-.54,.84-1.23,1.69-2.21,1.99-1.99,.61-4.53-.42-6.04-1.71-.96-.82-1.7-1.87-1.95-3.13-.13-.66-.12-1.31,.04-1.96,.07-.28,.16-.56,.29-.81,.07-.13,.14-.26,.23-.38,.43-.62,.12,.21-.78-.03,.65,.17,1.57-.09,2.05-.55s.32-.87-.28-1.03c-1.97-.52-3.68,1.01-4.29,2.75-.51,1.46-.29,3.11,.46,4.43,1.59,2.82,5.13,4.29,8.27,4.23,1.91-.04,3.82-.61,5.31-1.85,1.2-1,1.96-2.39,2.63-3.77,.38-.78,.77-1.55,.77-2.44s-.32-1.62-.74-2.35c-.73-1.27-1.8-2.3-3.1-2.99-3.24-1.72-7.8-.97-10.18,1.85-.45,.54,.39,.85,.79,.86,.7,.02,1.46-.25,1.91-.79h0Z"></path><path class="cls-4" d="M332.55,71.51c.29,1.01,.58,2.02,.87,3.04,.06,.2,.37,.25,.53,.27,.34,.04,.74-.02,1.07-.12s.7-.21,.98-.43c.14-.11,.38-.29,.32-.49-.29-1.01-.58-2.02-.87-3.04-.06-.2-.37-.25-.53-.27-.34-.04-.74,.02-1.07,.12s-.7,.21-.98,.43c-.14,.11-.38,.29-.32,.49h0Z"></path><path class="cls-4" d="M318.68,80.56c.21,.23,.39,.49,.54,.77l-.11-.2c.17,.31,.3,.65,.37,1,.06,.25,.36,.4,.58,.45,.17,.04,.34,.06,.51,.04,.2,0,.39-.02,.58-.08,.34-.1,.71-.25,.96-.51,.18-.19,.33-.41,.27-.68-.07-.33-.19-.64-.35-.94-.19-.36-.4-.71-.68-1.02-.19-.21-.53-.29-.79-.3-.19-.01-.38,0-.56,.05-.2,.03-.39,.08-.57,.17l-.32,.17c-.18,.11-.33,.25-.44,.43l-.09,.23c-.03,.16,0,.3,.11,.43h0Z"></path><path class="cls-4" d="M330.05,84.05c.36,.14,.73,.29,1.08,.45,.09,.04,.17,.08,.25,.12,.03,.02,.31,.17,.15,.07s.11,.06,.14,.08c.08,.05,.16,.1,.24,.15,.31,.2,.64,.42,.89,.7-.13-.15-.05-.04,.03,.05,.06,.07,.12,.14,.17,.21,.1,.13,.18,.27,.27,.41,.13,.21-.08-.23,0,0,.03,.07,.05,.14,.08,.21,.05,.14,.08,.28,.1,.43,0,.04,.01,.07,.02,.11,.01,.09,0,.05,0-.11-.01,.01,0,.2,0,.22,0,.14-.02,.28-.04,.42-.04,.23-.06,.04,.01-.02-.03,.03-.05,.14-.07,.19-.03,.06-.06,.12-.09,.18-.1,.21,.17-.22,.03-.05-.04,.05-.24,.25-.05,.08s-.01,0-.05,.03c-.21,.19,.21-.09,.09-.05-.08,.02-.15,.07-.23,.1-.55,.21-1.1,1.02-.66,1.57,.49,.62,1.33,.51,1.98,.26,1.72-.67,2.47-2.76,1.75-4.41-.79-1.82-2.69-2.76-4.44-3.44-.66-.26-1.62-.04-2.05,.55-.41,.56-.27,1.23,.4,1.49h0Z"></path><path class="cls-4" d="M335.74,78.35c5.18,7.14,7.64,15.74,7.56,24.53-.01,1.47,2.92,1,2.93-.24,.08-9.16-2.43-18.09-7.83-25.54-.74-1.02-3.51,.08-2.66,1.25h0Z"></path><path class="cls-4" d="M327.25,65.69c-1.34-2.16-3.55-3.74-5.94-4.54-.66-.22-1.61-.02-2.05,.55-.41,.52-.29,1.17,.37,1.4,.28,.09,.55,.2,.82,.31,.13,.06,.26,.12,.4,.18,.27,.13-.23-.12,.03,.01,.05,.03,.1,.05,.15,.08,.52,.28,1.01,.59,1.47,.95,.22,.17,.43,.36,.65,.54,.12,.1-.19-.19,0,0,.05,.05,.1,.1,.15,.15,.1,.1,.19,.2,.29,.3,.38,.42,.71,.86,1.01,1.34,.16,.25,.56,.38,.82,.41,.36,.05,.82-.03,1.14-.2,.55-.29,1.08-.86,.69-1.49h0Z"></path><path class="cls-4" d="M318.52,67.55c4.14-.3,9.37-1.79,11.36-5.83,1.69-3.44,.02-7.69-3.37-9.31-.32,.48-.64,.96-.95,1.44,3.91-1.13,5.76-5.23,3.73-8.87-1.09-1.96-3-3.37-4.99-4.32-1.01-.48-2.09-.85-3.17-1.14-.52-.14-1.23-.17-1.62-.5-.44-.37-.75-1.14-1.12-1.61-3.01-3.92-7.83-6.56-12.87-5.66-1.1,.2-2.18,.55-3.14,1.12-.25,.14-.52,.43-.79,.52-.32,.1-.44-.07-.88-.22-.62-.22-1.22-.44-1.85-.61-2.44-.64-5.07-.61-7.51,0-5.13,1.28-9.12,5.7-8.18,11.19l1.64-1.2c-3.63,.31-6.6,2.31-9.03,4.92-1.79,1.92-5.31,5.85-1.39,7.67l1.71-1.54c-3.96-.29-8.45,1.16-10.86,4.47-2.4,3.3-1.59,7.71,1.07,10.58l1.54-1.38c-4.83,.86-8.91,4.36-9.68,9.36-.89,5.8,2.95,11.16,6.48,15.33v-.61c-3,3.97-3.49,9.37-.97,13.7,2.44,4.19,7.12,6.74,11.85,7.29l-.47-.83c-2.48,2.9-1.33,6.92,.75,9.69,1.93,2.57,4.73,4.46,7.7,5.6,6.27,2.4,13.74,1.99,19.46-1.65-.78-.09-1.57-.17-2.35-.26-.18,3.21,3.13,4.81,5.89,5.14,3.41,.41,7.07-.86,9.72-2.98,2.51-2.01,4.09-5.04,3.64-8.29-.44-3.11-2.61-5.81-5.54-6.93-.65-.25-1.47-.11-2.05,.27-.34,.22-.92,.89-.25,1.14,4.86,1.84,6.55,8.06,3.2,12.05-1.58,1.88-4.12,3.19-6.61,3.15-2.15-.04-5.25-1.35-5.1-3.92,.06-1.08-1.86-.57-2.35-.26-4.72,3-10.89,3.01-15.96,.87-2.53-1.07-4.81-2.67-6.52-4.83-1.92-2.43-3.18-6.11-.94-8.73,.32-.37-.08-.79-.47-.83-4.3-.5-8.46-2.77-10.75-6.54-2.43-4.01-1.99-9.1,.79-12.8,.14-.18,.14-.43,0-.61-3.11-3.67-6.45-8.17-6.39-13.22,.05-3.81,2.54-8,6.51-8.71,.4-.07,2.22-.65,1.54-1.38-2.09-2.25-3.05-5.62-1.61-8.48,1.42-2.83,4.59-4,7.59-3.78,.5,.04,2.97-.95,1.71-1.54-2.98-1.38,.4-4.71,1.66-6.03,1.68-1.76,3.56-3.3,6.06-3.52,.52-.04,1.77-.46,1.64-1.2-.67-3.93,1.57-7.85,5.49-8.9,2.12-.57,4.4-.36,6.45,.35,2.02,.7,3.66,.95,5.55-.27,3.73-2.4,8.47,.31,11.11,3.18,.63,.68,1.2,1.41,1.72,2.18,.25,.36,.44,.89,.82,1.12s.98,.21,1.39,.3c1.93,.42,3.88,1.17,5.47,2.37s2.92,2.87,3.12,4.93c.15,1.5-.38,3.67-2.02,4.15-.42,.12-1.96,.96-.95,1.44,2.72,1.3,4.12,4.64,3.09,7.5-1.2,3.36-5.23,4.38-8.39,4.61-.5,.04-1.57,.38-1.64,.99-.09,.66,.83,.66,1.25,.63h0Z"></path><path class="cls-4" d="M311.02,108.93c-.21,1.99-1.76,3.78-3.71,4.26-2.11,.52-4.53-.38-6.17-1.71-1.76-1.43-3.12-3.96-1.44-5.98,1.62-1.94,4.45-1.84,6.73-1.86,.61,0,1.57-.21,1.92-.77s-.3-.78-.76-.77c-2.88,.03-5.86,.18-8.42,1.64-2.05,1.16-3.76,3.28-2.97,5.75,.73,2.28,2.95,3.95,5.13,4.74,2.46,.89,5.22,.85,7.65-.14,2.33-.95,4.64-2.91,4.92-5.55,.11-1.07-2.79-.52-2.89,.39h0Z"></path><path class="cls-4" d="M310.93,62.97c1.25,3.51,.43,7.56-2.41,10.08s-6.77,2.75-10.09,1.37c-.51-.21-3.21,.36-2.52,1.17,3.61,4.29-2.29,8.63-5.43,10.75-.33,.22-.45,.61-.03,.79,2.48,1.05,4.8,2.41,6.85,4.17,2.08,1.79,3.97,3.9,2.92,6.8-.28,.78,2.57,.44,2.88-.43,1.07-2.98-.63-5.26-2.78-7.17-2.22-1.97-4.8-3.5-7.53-4.65l-.03,.79c3.59-2.42,9.91-7.32,5.86-12.12l-2.52,1.17c4.34,1.8,9.71,1.09,13.59-1.5,3.93-2.62,5.75-7.51,4.14-12-.31-.87-3.18-.02-2.9,.78h0Z"></path><path class="cls-4" d="M314.42,42.99c3.07-.49,6.01,2.45,4.77,5.49l2.89-.39c.64-4.47-4.7-7.02-8.46-6.32l.67,1.13c4.28-2.48,9.8,3.25,6.78,7.34l2.79-.39c-.75-5.24-6.42-8.32-11.32-8.21-.58,.01-1.44,.18-1.82,.67-.32,.42-.2,.73,.35,.85,3.6,.76,8.74,3.57,7.24,8.06,.93-.25,1.86-.5,2.79-.75-2.63-3.91-5.57-7.58-8.79-11.02l-.79,1.09c2.02-.94,2.83-3,1.31-4.86-1.67-2.05-4.99-2.08-7.39-2.15l-.79,1.52c4.4-.37,9.81,3.71,9.22,8.44l2.89-.58c-.97-4.68-6.18-7.26-10.63-7.04-.56,.03-1.3,.16-1.73,.58-.27,.26-.48,.68,0,.87,3.85,1.55,7.09,4.64,8.09,8.75,.93-.31,1.87-.63,2.8-.94-2.51-2.28-2.74-6.06-5.31-8.26-2.25-1.92-5.57-2.61-8.15-.91-.18,.12-.89,.66-.46,.93,1.23,.81,2.78,.65,4.07,0,1-.5,2.19-1.55,1.55-2.77-.28-.54-1.15-.41-1.63-.28-4,1.09-7.71,4.53-6.83,9,.19,.96,2.73,.15,2.89-.58,.73-3.22-1.95-5.95-4.93-6.6-3.12-.68-7.28,.43-9,3.3-.35,.58,.3,.74,.77,.78,4.49,.3,8.98-.11,13.34-1.24,.35-.09,1.68-.63,1.17-1.22-2.34-2.71-7.05-2.21-9.83-.51-3.95,2.4-3.26,7.24-.88,10.52,.49,.67,2.95-.03,2.8-.94-.49-2.87-.98-5.74-1.47-8.61l-2.8,.94c4.38,2.88,8.76,5.76,13.14,8.65,.55,.37,1.32,.23,1.91-.01,.26-.11,1.29-.69,.79-1.09-3.23-2.59-6.2-5.46-8.88-8.62-.84,.41-1.67,.82-2.51,1.23,5.82,3.5,11.32,7.51,16.4,12.03l2.7-1.1c-5.19-4.31-9.85-9.21-13.84-14.65l-2.7,1.1c6.04,3.88,11.63,8.41,16.61,13.58,.65,.68,3.4-.36,2.7-1.1-4.54-4.81-9.08-9.63-13.63-14.44-.9,.37-1.8,.74-2.7,1.1,3.7,2.51,7.15,5.36,10.25,8.58,1.48,1.54,2.87,3.15,4.17,4.85,1.17,1.52,3.59,3.97,2.94,6.03,.93-.25,1.86-.5,2.79-.75-4.56-3.52-8.4-7.91-11.03-13.05l-2.8,.94c4.39,3.99,8.09,8.66,10.78,13.95,.93-.31,1.87-.63,2.8-.94-4.06-3.18-7.51-7.08-9.97-11.62l-2.8,.94c2.67,1.96,5.21,4.1,7.58,6.43,1.96,1.93,5.46,4.76,5.04,7.84,.87-.29,1.74-.58,2.61-.87-2.53-.83-4.71-2.86-5.2-5.56-.05-.26,.01-1.7-.02-1.72l-.62,.13c.19,.08,.36,.17,.51,.3,.29,.19,.56,.42,.82,.65,1.08,.95,2.17,2.17,2.34,3.66,.12,1.07-.67,2.99-1.97,2.07-.84-.6-1.35-2.32-.41-3.07,.88-.71,2.43,.2,3.06,.87,.92,.99,1.28,2.44,.95,3.74-.69,2.75-3.8,3.95-6.12,2.25-1.06-.78-1.71-2.2-.96-3.43,.34-.56,.6-.53,1.18-.22s1.13,.91,1.05,1.6c-.34,2.77-6.65-.64-7.93-1.37-2.46-1.4-4.67-3.29-6.43-5.51-.75-.96-1.49-2.01-1.7-3.24-.08-.48-.11-1.12,.21-1.53s1.19,0,1.8,.28c2.64,1.19,5.05,3.42,7.05,5.48,1,1.03,1.93,2.13,2.78,3.29,.43,.59,.98,1.23,1.2,1.93,.03,.09,.18,.81,.12,.76,.72,0,.77-.04,.15-.14-.23-.08-.45-.17-.66-.27-2.69-1.26-5.21-3.21-7.4-5.19-1.03-.93-2.01-1.92-2.93-2.96-.48-.55-1.01-1.11-1.41-1.73-.2-.31-.17-.66-.3-.93-.48,.15-.51,.22-.1,.19,.16,.02,.31,.04,.46,.08,1.3,.26,2.63,1.03,3.81,1.62,1.36,.68,2.7,1.43,3.99,2.24,2.45,1.55,4.75,3.35,6.84,5.36,.48,.46,.94,.93,1.39,1.41,.27,.29,.54,.58,.8,.88l.26,.3c.23,.2,.36,.45,.41,.74l.13,.4c.67-.14,.76-.2,.28-.19-.29-.12-.71-.16-1.01-.26-.79-.26-1.57-.59-2.32-.95-1.55-.73-3.03-1.61-4.39-2.66-.62-.48-1.15-1.15-1.75-1.6l-.02-.17c.01-.29-.13-.27-.43,.04,.31,.18,1.13,.19,1.5,.3,2.91,.89,5.69,2.77,7.32,5.38,.15,.23,.24,.57,.4,.78-.01,.4,.2,.51,.63,.34-.2-.05-.4-.12-.6-.2-.74-.27-1.45-.6-2.15-.95-1.43-.72-2.78-1.59-4.03-2.61-2.41-1.96-4.38-4.39-5.68-7.22-.78,.38-1.56,.76-2.35,1.14,1.47,.26,2.85,.86,3.97,1.85,.44,.39,.87,.84,1.19,1.34l.28,.53c1.17-.14,1.43-.28,.77-.41-.27-.21-.68-.32-.99-.48-2.72-1.39-5.26-3.11-7.56-5.11-2.18-1.9-4.14-4.05-5.79-6.43-.47-.68-.93-1.38-1.34-2.11-.27-.48-.37-.99-.58-1.47v-.36c-.82,.07-1.02,.18-.59,.33,.17,.2,.85,.49,1.04,.62,.7,.46,1.38,.94,2.04,1.45,2.35,1.8,4.47,3.92,6.24,6.3,.78,1.05,1.59,2.15,1.96,3.43,.14,.48,.24,1.01,.17,1.51-.03,.21-.08,.59-.24,.76-.25,.26-.44,.06-.84-.09-2.73-1.04-5.29-3.54-7.18-5.71-.91-1.05-1.97-2.27-2.52-3.55-.21-.49-.23-.9-.3-1.42l.04-.24c.19-.38,.07-.34-.37,.13,0,.01,1.06,.57,1.11,.6,3.05,1.82,5.87,4.04,8.38,6.55,1.15,1.15,2.23,2.36,3.23,3.63s2.77,3.38,1.7,5.1l2.5-.67c-7.55-2.51-14.3-8.04-17.12-15.63l-2.8,.94c6.13,4.37,11.43,9.81,15.39,16.22,.84-.41,1.67-.82,2.51-1.23-6.52-3.24-11.41-8.67-16.13-14.08-.9,.37-1.8,.74-2.7,1.1,3.25,2.78,6.36,5.72,9.27,8.86,1.43,1.54,2.81,3.12,4.14,4.74,.58,.71,3.83,3.96,2.79,4.97,.77-.16,1.54-.32,2.31-.47-3.55-1.96-6.84-4.34-9.78-7.14-1.41-1.34-2.74-2.76-3.95-4.28s-2.39-3.31-1.5-5.2c-.87,.29-1.74,.58-2.61,.87,5,3.04,9.27,7.32,11.96,12.54,.87-.35,1.74-.71,2.61-1.06-1.25-.74-1.93-2.12-1.54-3.54-.93,.25-1.86,.5-2.79,.75,2.49,2.78,5.79,6.83,3.73,10.77-.11,.21-.59,1.15-.84,1.15,.56,0,.4-1.37,.42-1.7,.08-1.14,.16-2.28,.24-3.42,.17-2.43,.34-4.85,.51-7.28-.93,.25-1.86,.5-2.79,.75,3.24,2.52,4.82,6.75,3.65,10.74-.28,.96-.71,1.86-1.29,2.68-.29,.4-.62,.92-1.03,1.19-.39,.26-.18,.2-.38,.04-.22-.18-.25-.62-.26-.88-.12-2.51,1.43-5.31,2.88-7.24l-2.69,.55c2.23,1.55,4.23,4.29,2.87,7.07-1.45,2.98-5.09,1.88-7.08,.09-2.21-2-3.23-5.02-3.93-7.83-.83-3.34-1.04-6.78-.63-10.2-.93,.25-1.86,.5-2.79,.75,3.09,4.35,5.07,9.35,5.66,14.65,.97-.26,1.93-.52,2.9-.78-3.45-6.03-5.63-12.68-6.21-19.61-.93,.31-1.87,.63-2.8,.94,2.69,2.63,4.97,5.67,6.57,9.09,.73,1.55,1.32,3.17,1.76,4.83,.38,1.42,1.05,3.39,.56,4.85-.04,.16-.1,.31-.17,.45-.31,.36-.16,.33,.46-.1,0,0-.82-.73-.87-.78-.67-.76-1.26-1.62-1.77-2.5-.85-1.48-1.49-3.08-1.96-4.73-.98-3.41-1.26-6.96-1.51-10.49l-2.8,.94c2.81,3.19,5.14,6.77,6.8,10.69,.78,1.84,1.4,3.73,1.87,5.67,.19,.81,.41,1.64,.45,2.47,.02,.36-.01,2.03-.5,2.18l1.53,.12c-3.71-4.51-5.98-9.99-6.24-15.84l-2.8,.94c2.28,3.3,4.76,7.12,5.78,11.04,.22,.86,.35,1.76,.2,2.64-.05,.29-.6,1.31-.56,1.44-.18,.22-.09,.2,.27-.06-.27-.15-.52-.32-.75-.52-1.29-1.02-2.33-2.41-2.94-3.93-.59-1.46-.83-3.07-.58-4.63,.05-.34,.13-.69,.23-1.03,.07-.26,.16-.5,.28-.74,.38-.4,.21-.45-.49-.14,0,.13,.92,.77,1.02,.87,.29,.28,.57,.57,.85,.87,2.43,2.66,3.93,6,4.24,9.59,.78-.38,1.56-.76,2.35-1.14-2.65-.7-4.52-3.06-5.1-5.67-.72-3.28,.65-6.62,1.84-9.61-.93,.25-1.86,.5-2.79,.75,1.83,2.45,3.27,5.15,4.19,8.08,.68,2.19,1.69,5.58-.5,7.24l2.6-.19c-.52-3.32-.09-6.68,1.31-9.74,.18-.4,.38-.79,.59-1.16,.13-.23,.27-.46,.42-.67l-.92,.17c0-.06,.85,1.17,.76,1.01,.2,.35,.38,.71,.54,1.08,.6,1.39,.9,2.93,.8,4.44s-.5,2.97-1.3,4.19c-.34,.52-.84,1.21-1.49,1.3-.71,.1-1.42-.43-1.67-1.06-.51-1.28,.2-3.08,.68-4.28,.34-.84,.76-1.64,1.26-2.4,.23-.35,.48-.7,.74-1.03,.1-.13,.56-.81,.58-.82l-1.08,.08c.97,.2,1.46,2.65,1.56,3.45,.16,1.27-.03,2.68-.62,3.83-.12,.24-.26,.49-.44,.68-.57,.59-.16-.07-.14-.38,.03-.57-.25-1.28-.32-1.86-.19-1.63-.19-3.25-.03-4.88-.93,.25-1.86,.5-2.79,.75,1.34,2.13,1.83,4.61,1.36,7.08l2.89-.58c-.44-1.55-.5-3.06-.14-4.64-.87,.29-1.74,.58-2.61,.87,.5,.22,.75,.77,.39,1.23,.9-.18,1.79-.37,2.69-.55-2.75-4.08-4.74-8.62-5.75-13.44-.45-2.15-.82-4.28-2.05-6.15-1.13-1.71-2.8-2.95-4.63-3.82-.8-.38-3.46,.81-2.32,1.35,1.9,.9,3.61,2.3,4.61,4.18,1.06,2,1.25,4.32,1.79,6.49,1.11,4.48,3.09,8.67,5.66,12.49,.49,.72,2.29-.05,2.69-.55,.77-.98,.33-2.1-.75-2.58-.66-.29-2.41,.02-2.61,.87-.38,1.69-.34,3.36,.13,5.02,.26,.93,2.75,.18,2.89-.58,.53-2.78-.05-5.42-1.55-7.79-.42-.67-2.72,0-2.79,.75-.15,1.52-.18,3.05-.05,4.57,.1,1.17,.07,2.96,1.25,3.62,2.11,1.16,4.77-.84,5.59-2.71,.99-2.26,.88-5.68-.9-7.57-2.08-2.21-4.87,1.01-5.94,2.63-.73,1.11-1.33,2.31-1.75,3.57-.39,1.16-.85,2.68-.4,3.88,.88,2.33,4.2,2.08,6.04,1.28,5.05-2.2,5.24-9.68,2.34-13.63-.86-1.17-2.34-1.19-3.59-.59-1.37,.66-2.02,2.13-2.61,3.46-1.38,3.12-1.76,6.56-1.23,9.92,.15,.94,2.22,.1,2.6-.19,2.45-1.87,2.06-4.95,1.33-7.6-.92-3.35-2.55-6.45-4.62-9.22-.55-.74-2.52,.06-2.79,.75-1.31,3.3-2.78,7.06-1.68,10.64,.89,2.9,3.13,4.97,6.03,5.74,.64,.17,2.43-.24,2.35-1.14-.33-3.77-2.01-7.3-4.58-10.07-1.27-1.36-2.51-2.48-4.48-1.91-1.76,.52-2.59,1.99-2.86,3.72-.54,3.36,.89,6.81,3.42,9.03,1.43,1.25,3.1,1.76,4.89,.83,1.52-.79,2.15-2.5,2.12-4.14-.05-2.36-1.28-4.64-2.34-6.7-1.15-2.26-2.47-4.42-3.91-6.51-.51-.74-2.84,.05-2.8,.94,.27,5.98,2.66,11.57,6.44,16.17,.3,.36,1.16,.23,1.53,.12,1.84-.56,2.98-1.72,3.05-3.7,.07-2.26-.82-4.71-1.57-6.82-1.71-4.78-4.41-9.15-7.75-12.95-.57-.65-2.86,0-2.8,.94,.23,3.33,.5,6.68,1.35,9.92,.78,2.97,2.18,6.54,4.57,8.62,2.13,1.86,5.65,.33,5.84-2.43,.1-1.43-.33-2.98-.7-4.36-.44-1.66-1.03-3.28-1.76-4.83-1.66-3.53-3.99-6.7-6.77-9.42-.6-.59-2.88-.04-2.8,.94,.58,6.93,2.76,13.58,6.21,19.61,.48,.84,3.01,.25,2.9-.78-.61-5.45-2.69-10.53-5.86-14.98-.46-.65-2.7-.02-2.79,.75-.52,4.31-.11,8.68,1.27,12.8,1.13,3.36,3.04,6.59,6.59,7.73,3.11,1,7.25,.34,9.13-2.59,2.04-3.17,.14-6.64-2.64-8.57-.73-.5-2.17-.14-2.69,.55-1.07,1.41-1.94,2.98-2.5,4.67-.38,1.17-1.04,3.05-.37,4.23,.73,1.27,2.54,1.07,3.71,.66,1.44-.5,2.55-1.56,3.4-2.8,3.2-4.64,1.94-11-2.43-14.4-.57-.44-2.73-.17-2.79,.75-.24,3.48-.49,6.97-.73,10.45-.07,1.01-.45,2.47,.74,2.97,1.1,.46,2.57-.03,3.51-.64,2.02-1.3,2.81-3.9,2.49-6.19-.41-2.98-2.55-5.45-4.48-7.61-.57-.64-2.58-.03-2.79,.75-.53,1.9,.49,3.54,2.11,4.5,.48,.29,3.03-.24,2.61-1.06-2.85-5.52-7.26-9.9-12.54-13.11-.73-.44-2.26,.14-2.61,.87-.88,1.86,.09,3.74,1.19,5.27,1.21,1.67,2.66,3.2,4.14,4.63,3.12,3.02,6.67,5.57,10.46,7.67,.6,.33,1.85-.03,2.31-.47,1.5-1.45,.32-3.03-.73-4.38-1.47-1.89-3-3.72-4.6-5.5-3.26-3.63-6.77-7.02-10.49-10.19-.65-.56-3.43,.27-2.7,1.1,4.83,5.53,9.84,11,16.51,14.32,.61,.3,3.12-.24,2.51-1.23-3.96-6.42-9.26-11.86-15.39-16.22-.53-.38-3.17-.07-2.8,.94,2.91,7.84,9.89,13.6,17.7,16.2,.72,.24,2.06,.04,2.5-.67,1.14-1.83,.19-3.67-.95-5.25-1.26-1.75-2.71-3.37-4.25-4.87-1.53-1.5-3.18-2.89-4.92-4.15-1.53-1.11-3.44-2.74-5.31-3.16-1.42-.33-3.75,.18-4.18,1.82s.84,3.17,1.71,4.35c1.25,1.7,2.72,3.23,4.34,4.57,1.53,1.27,3.33,2.72,5.3,3.2,1.6,.39,3.77,.03,4.86-1.31,.95-1.17,.69-2.83,.12-4.11-1.59-3.56-4.89-6.72-7.91-9.07-1.46-1.14-3.37-2.87-5.33-2.79-1.59,.06-3.28,1.02-2.86,2.8,.4,1.71,1.94,3.51,2.98,4.87,1.28,1.67,2.72,3.22,4.28,4.64,1.7,1.55,3.55,2.93,5.5,4.16,1.65,1.04,3.7,2.56,5.73,2.52,.84-.02,2.02-.29,2.54-1.03,.59-.83-.17-1.77-.71-2.42-1.41-1.68-3.51-2.65-5.64-3.02-.44-.08-2.73,.3-2.35,1.14,1.82,3.98,4.87,7.17,8.58,9.45,1.7,1.04,3.93,2.37,5.99,2.35,2.06-.02,3.87-1.36,2.69-3.44-1.95-3.43-6.57-6.54-10.61-6.51-1.21,0-4.39,.73-3.52,2.58,.4,.85,1.47,1.5,2.2,2.05,.94,.7,1.93,1.34,2.96,1.9,1.86,1.02,4.1,2.19,6.27,2.18,1.42,0,4.14-.81,3.36-2.73-.4-.98-1.49-1.88-2.22-2.62-.84-.86-1.71-1.68-2.62-2.46-1.76-1.51-3.64-2.87-5.61-4.1-2.07-1.29-4.24-2.42-6.49-3.36-1.74-.73-3.83-1.01-5.57-.09-2.01,1.07-.87,2.61,.23,3.92,1.61,1.92,3.43,3.67,5.4,5.22,1.83,1.44,3.87,2.92,6.01,3.87,1.6,.71,4.31,.83,5.35-.91,1.02-1.7-1.47-4.17-2.44-5.34-1.55-1.87-3.33-3.57-5.25-5.06-1.75-1.35-3.71-2.86-5.98-3.13-1.77-.21-4.23,.42-4.96,2.24-.68,1.69,.44,3.55,1.42,4.87,1.38,1.86,3.07,3.47,4.96,4.81,3.42,2.43,8.74,5.32,12.97,3.46,1.57-.69,3.21-2.4,1.88-4.09-1.16-1.47-3.4-1.61-5.04-1.02s-3.18,2.22-2.76,4.15c.43,1.96,2.64,3.03,4.45,3.27,3.7,.49,8.81-1.87,8.81-6.13,0-4.46-5.35-5.92-8.7-3.91-1.45,.87-2.21,2.54-1.37,4.12,.92,1.73,3.1,1.94,4.81,1.43,1.8-.54,3.61-2.05,3.54-4.09s-1.9-4.04-3.56-5.14c-1.49-.98-4.15-1.09-5.12,.72-.82,1.52,0,3.74,.83,5.08,1.09,1.76,2.81,3,4.77,3.64,.62,.2,2.48,.03,2.61-.87,.44-3.22-2.55-5.84-4.6-7.92-2.54-2.58-5.29-4.92-8.21-7.06-.51-.38-3.28,.05-2.8,.94,2.53,4.66,6,8.67,10.17,11.94,.52,.41,3.25-.04,2.8-.94-2.75-5.41-6.5-10.2-10.98-14.28-.53-.48-3.23,.09-2.8,.94,2.69,5.26,6.55,9.78,11.22,13.38,.68,.53,2.52,.13,2.79-.75,.65-2.05-1.14-4.04-2.27-5.6-1.37-1.89-2.86-3.68-4.45-5.39-3.24-3.47-6.89-6.53-10.82-9.19-.64-.44-3.49,.27-2.7,1.1,4.54,4.81,9.08,9.63,13.63,14.44,.9-.37,1.8-.74,2.7-1.1-4.98-5.18-10.57-9.7-16.61-13.58-.62-.4-3.44,.1-2.7,1.1,3.99,5.44,8.65,10.34,13.84,14.65,.72,.6,3.44-.45,2.7-1.1-5.19-4.62-10.82-8.69-16.78-12.27-.58-.35-3.22,.38-2.51,1.23,2.68,3.16,5.65,6.03,8.88,8.62,.9-.37,1.8-.74,2.7-1.1-4.38-2.88-8.76-5.76-13.14-8.65-.61-.4-2.98-.15-2.8,.94,.49,2.87,.98,5.74,1.47,8.61l2.8-.94c-1.63-2.25-2.89-6.12-.46-8.33,1.63-1.48,4.4-1.06,5.78,.54l1.17-1.22c-3.87,1.01-7.84,1.3-11.83,1.03l.77,.78c2.5-4.2,9.38-.82,8.35,3.69l2.89-.58c-.59-3.02,1.32-6.08,4.29-6.89-.54-.09-1.09-.19-1.63-.28,.18,.34,.06,.47,.1,.79-.04,.11-.1,.19-.19,.26,.43,0,.45-.06,.07-.17l-.46,.93c.8-.53,2.03,.13,2.75,.57,1.06,.64,1.9,1.55,2.49,2.63,1.2,2.18,1.85,4.58,3.75,6.3,.55,.5,3.04,.05,2.8-.94-1.06-4.38-4.58-7.67-8.66-9.32l-1.74,1.45c3.86-.19,8.06,2.33,8.88,6.27,.19,.92,2.8,.19,2.89-.58,.78-6.24-6.32-9.99-11.68-9.54-.94,.08-2.62,1.47-.79,1.52,1.71,.05,3.7,.06,5.17,1.08,.53,.37,.94,.89,1.14,1.51,.13,.39,.33,1.56-.19,1.8-.32,.15-1.23,.62-.79,1.09,3.22,3.44,6.16,7.11,8.79,11.02,.5,.74,2.56-.06,2.79-.75,1.72-5.16-4.24-8.29-8.33-9.16l-1.47,1.52c4.33-.1,8.94,2.98,9.58,7.44,.14,1,2.47,.04,2.79-.39,1.98-2.67,1.13-6.33-1.62-8.11s-6.75-1.66-9.62,0c-1.06,.61-.28,1.31,.67,1.13,2.84-.53,6.43,2.15,5.99,5.22-.16,1.15,2.58,.36,2.89-.39,.76-1.87,.14-3.99-1.42-5.25s-3.8-1.67-5.82-1.34c-.43,.07-1.63,.35-1.66,.95s.8,.62,1.23,.55h0Z"></path><path class="cls-4" d="M308.81,116.81c1.55,1.39,2.83,3.01,3.72,4.9,.54,1.14,3.36,.39,2.9-.78-.75-1.87-1.5-3.74-2.24-5.61-.93,.33-1.85,.67-2.78,1,.8,1.19,1.59,2.38,2.39,3.57,.61,.91,3.01,.15,2.78-1-.35-1.75-1.17-3.32-2.38-4.63-.64-.7-3.29-.15-2.78,1,.8,1.82,1.61,3.64,2.41,5.46,.93-.33,1.85-.67,2.78-1-1.15-2.08-2.51-4.01-4.07-5.81-.63-.73-3.29-.13-2.78,1,1.22,2.71,2.44,5.42,3.66,8.13l2.78-1c-1.71-2.54-3.41-5.09-5.12-7.63-.58-.87-3.15-.13-2.78,1,1.01,3.12,2.02,6.23,3.02,9.35,.93-.33,1.85-.67,2.78-1-2.04-3.09-4.09-6.18-6.13-9.27-.89,.41-1.78,.82-2.67,1.23,2.42,2.99,4.06,6.41,4.82,10.18,.93-.33,1.85-.67,2.78-1-2.19-3.16-4.14-6.46-5.81-9.92-.93,.33-1.85,.67-2.78,1,1.93,3.43,3.34,7.1,4.23,10.94l2.78-1c-2.16-3.65-4.32-7.3-6.48-10.95l-2.67,1.23c2.01,3.23,3.58,6.67,4.69,10.31,.93-.33,1.85-.67,2.78-1-3.03-4.27-6.07-8.54-9.1-12.82-.68-.96-3.41,.02-2.67,1.23,2.3,3.71,3.9,7.76,4.79,12.04,.93-.33,1.85-.67,2.78-1-3.6-4.71-6.83-9.68-9.66-14.89l-2.67,1.23c3.01,3.41,5.17,7.38,6.32,11.79l2.58-1.18c-4.07-2.65-7.21-6.51-8.76-11.14l-2.58,1.18c4.51,2.23,7.5,7.04,6.74,12.12,.86-.31,1.73-.62,2.59-.92-6.19-2.78-11.21-7.9-13.31-14.41-.86,.39-1.72,.79-2.58,1.18,2.9,1.45,5.15,3.69,6.99,6.33,.9,1.29,1.69,2.65,2.44,4.04,.63,1.16,1.69,2.6,1.77,3.96,.02,.14,0,.28-.02,.42-.09,.33,.12,.3,.65-.1,0,0-1.1-.58-1.21-.65-.68-.41-1.34-.85-1.98-1.31-1.41-1.02-2.71-2.18-3.89-3.46-2.2-2.38-3.95-5.14-5.12-8.17l-2.3,1.3c6.12,1.57,11.15,7.28,10.68,13.81,.77-.35,1.54-.7,2.32-1.05-5.6-2.44-10.18-7.14-12.17-12.95-.86,.39-1.72,.79-2.58,1.18,4.55,2.27,7.84,6.86,7.7,12.06l2.59-.92c-4.23-2.84-7.33-7.08-8.5-12.05-.86,.39-1.72,.79-2.58,1.18,2.08,1.72,3.03,4.4,2.47,7.04,.93-.25,1.86-.5,2.79-.75-3.37-3.44-4.83-8.54-3.13-13.15-.9,.16-1.8,.33-2.71,.49,1.19,1.64,2.77,2.76,4.61,3.56,.63,.27,2.71-.31,2.3-1.3-1.48-3.57-2.96-7.14-4.44-10.71-.93,.33-1.85,.67-2.78,1,4.15,5.34,8.3,10.67,12.45,16.01,.72,.93,3.39,0,2.67-1.23-3.62-6.16-7.24-12.32-10.86-18.48-.89,.41-1.78,.82-2.67,1.23,4.9,5.85,9.8,11.69,14.7,17.54,.75,.89,3.4,0,2.67-1.23-3.57-5.97-7.13-11.93-10.7-17.9-.89,.41-1.78,.82-2.67,1.23,4.53,5.78,8.74,11.8,12.6,18.04,.62,1,3.36,0,2.67-1.23-2.33-4.17-4.26-8.54-5.79-13.06-.93,.33-1.85,.67-2.78,1,1.53,1.97,3.06,3.94,4.59,5.91,.61,.79,3.24,.13,2.78-1-2.15-5.33-4.89-10.39-8.14-15.13l-2.19,1.53c3.72,1.01,7.12,2.75,10.07,5.23,.74,.62,3.28-.34,2.46-1.4-1.92-2.48-4.14-4.66-6.61-6.59-.75,.53-1.51,1.05-2.26,1.58,3.99,2.91,7.54,6.35,10.54,10.27,.71,.93,3.39,0,2.67-1.23-2.81-4.81-6.7-8.85-11.27-12.03-.75-.52-3.32,.31-2.46,1.4,3.42,4.33,7.19,8.35,11.27,12.06,.82-.47,1.64-.94,2.46-1.4-5.06-4.08-10.39-7.82-15.94-11.2-.74-.45-3.45,.44-2.46,1.4,4.68,4.58,8.94,9.54,12.73,14.88l2.67-1.23c-5.07-4.7-10.13-9.4-15.2-14.1l-2.67,1.23c4.14,3.74,7.76,7.99,10.73,12.71,.82-.47,1.64-.94,2.46-1.4-8.57-4.05-12.3-13.41-18.84-19.74-.83-.81-3.61,.23-2.67,1.23,6.2,6.56,10.66,14.56,12.61,23.39,.86-.39,1.72-.79,2.58-1.18-6.99-4.49-11.44-11.58-15.65-18.54l-2.67,1.23c3.79,5.56,6.72,11.62,8.68,18.06,.86-.39,1.72-.79,2.58-1.18-6.19-5.2-10.03-12.43-13.68-19.49-.49-.96-3.27-.01-2.78,1,3.1,6.46,6.21,12.93,9.31,19.39,.93-.33,1.85-.67,2.78-1-4.21-4.62-9.58-10.52-8.26-17.3,.26-1.33-2.68-.91-2.92,.27-1.6,7.86,2.26,15.71,8.59,20.32l2.26-1.58c-5.34-3.41-9.14-9.31-9.03-15.77,.02-1.34-2.48-.92-2.83,.02-1.92,5.13,.4,10.61,4.9,13.51,.69,.44,2.94-.03,2.58-1.18-2.61-8.33-5.6-18.27-.6-26.31l-2.82,.27c2.25,5.46,3.51,11.27,3.57,17.18l2.91-.52c-1.7-4.55-2.75-9.29-3.07-14.14-.93,.33-1.85,.67-2.78,1,2.57,4.63,4.57,9.53,5.98,14.64,.93-.33,1.85-.67,2.78-1-3.35-6.47-4.06-14.04-1.71-20.96-.93,.25-1.86,.5-2.79,.75,3.7,4.89,6.16,10.54,7.01,16.62,.17,1.21,2.78,.47,2.91-.52,.88-6.69,1.57-13.39,2.07-20.12-.97,.17-1.94,.35-2.91,.52,1.83,5.61,2.91,11.45,3.11,17.35,.05,1.45,2.68,.87,2.92-.27,1.3-6.16,2.61-12.32,3.91-18.48-.97,.17-1.94,.35-2.91,.52,.82,4.13,1.12,8.3,.85,12.5l2.91-.52c-.51-3.58,.19-7.13,2.04-10.25l-2.82,.27c1.16,4.85,.4,9.83-2.15,14.11,.94,0,1.89-.01,2.83-.02,.51-3.35,1.57-6.51,3.19-9.48l-2.82,.27c1.36,2.79,.23,6.53-2.91,7.5,.57,.26,1.14,.51,1.7,.77,.51-2.17,1.76-4.01,3.56-5.32l-2.4-.45c-.56,4.03-4.62,6.3-8.44,5.78l.85,1.09c2.66-5.05,5.32-10.11,7.98-15.16,1.84-3.49,5.07-8.48,1.72-12.08-.6-.64-2.84-.37-2.79,.75,.3,6.96-1.33,13.77-4.71,19.85l2.83-.02c2.04-7.62,4.08-15.24,6.13-22.86,.14-.53-.55-.8-.94-.84-.64-.07-1.24,.2-1.72,.61-5.87,5.05-10.51,11.41-13.46,18.57-.65,1.58,2.17,1.06,2.75,.24,4.97-7.07,8.57-15,10.45-23.44,.12-.52-.53-.81-.94-.84-3.93-.24-5.84,3.28-7.48,6.28-1.81,3.31-3.22,6.84-4.24,10.47-1.05,3.73-1.66,7.59-1.83,11.46-.09,1.97-.1,3.97,.07,5.94,.13,1.51,.65,2.62,2.07,3.25,.67,.29,1.9-.13,2.23-.79,5.06-10.36,8.68-21.4,10.49-32.8,.21-1.31-2.19-.81-2.66-.23-5.94,7.43-9.7,16.34-10.84,25.79-.17,1.41,2.43,.78,2.83-.02,4.63-9,7.21-18.95,7.28-29.09,0-1.32-2.09-.84-2.66-.23-3.46,3.78-4.7,9.05-6.31,13.78-1.91,5.63-3.83,11.26-5.74,16.9-.4,1.18,2.46,.92,2.83-.02,3.89-9.69,7.79-19.37,11.68-29.06,.59-1.47-2.31-1.32-2.75-.24-3.89,9.69-7.79,19.37-11.68,29.06l2.83-.02c1.81-5.33,3.62-10.66,5.43-15.98,1.56-4.6,2.72-10.02,6.09-13.7l-2.66-.23c-.07,9.97-2.55,19.72-7.1,28.58,.94,0,1.89-.01,2.83-.02,1.1-9.05,4.61-17.66,10.31-24.79-.89-.08-1.77-.15-2.66-.23-1.79,11.23-5.32,22.08-10.31,32.29,.74-.26,1.48-.53,2.23-.79-1.1-.49-.93-2.79-.96-3.71-.05-1.6-.03-3.2,.07-4.8,.19-3.15,.68-6.29,1.46-9.35,.78-3.08,1.86-6.07,3.23-8.94,.64-1.34,1.34-2.65,2.1-3.92,.53-.88,1.49-2.99,2.74-2.92l-.94-.84c-1.84,8.27-5.4,16.01-10.27,22.94,.92,.08,1.83,.16,2.75,.24,2.89-7,7.37-13.15,13.11-18.08-.89-.08-1.77-.15-2.66-.23-2.04,7.62-4.08,15.24-6.13,22.86-.36,1.35,2.42,.73,2.83-.02,3.45-6.22,5.19-13.24,4.89-20.36-.93,.25-1.86,.5-2.79,.75,3.17,3.4-.79,8.69-2.47,11.88-2.44,4.63-4.88,9.27-7.31,13.9-.34,.64,.3,1.02,.85,1.09,5.2,.71,11.62-2.36,12.41-8,.17-1.21-1.87-.84-2.4-.45-2.31,1.68-3.95,3.96-4.61,6.75-.21,.87,1.24,.91,1.7,.77,4.17-1.28,7.44-5.75,5.32-10.08-.51-1.04-2.34-.61-2.82,.27-1.7,3.12-2.83,6.48-3.37,9.99-.22,1.45,2.41,.7,2.83-.02,2.73-4.57,3.55-9.95,2.31-15.13-.29-1.2-2.41-.42-2.82,.27-2.03,3.43-2.74,7.33-2.19,11.26,.17,1.17,2.85,.51,2.91-.52,.28-4.36-.02-8.72-.88-13-.25-1.25-2.71-.42-2.91,.52-1.3,6.16-2.61,12.32-3.91,18.48l2.92-.27c-.21-6.09-1.25-12.07-3.14-17.86-.37-1.12-2.83-.56-2.91,.52-.49,6.73-1.19,13.43-2.07,20.12l2.91-.52c-.87-6.23-3.44-12.07-7.24-17.07-.7-.93-2.49-.15-2.79,.75-2.47,7.29-1.54,15.15,1.97,21.92,.49,.95,3.09,.11,2.78-1-1.46-5.27-3.56-10.31-6.21-15.09-.58-1.04-2.85-.07-2.78,1,.32,4.85,1.37,9.59,3.07,14.14,.4,1.06,2.92,.6,2.91-.52-.07-6.09-1.27-12.05-3.6-17.69-.46-1.12-2.33-.52-2.82,.27-5.2,8.37-2.27,18.64,.45,27.33,.86-.39,1.72-.79,2.58-1.18-3.79-2.44-6.06-7.29-4.42-11.69-.94,0-1.89,.01-2.83,.02-.12,7.03,3.86,13.36,9.7,17.09,.95,.61,3.56-.63,2.26-1.58-5.92-4.31-9.42-11.71-7.93-19.01-.97,.09-1.95,.18-2.92,.27-1.39,7.15,4.07,13.37,8.52,18.26,.64,.7,3.32,.12,2.78-1-3.1-6.46-6.21-12.93-9.31-19.39l-2.78,1c3.76,7.28,7.72,14.5,14.09,19.85,.67,.56,2.91-.1,2.58-1.18-2-6.59-5.04-12.82-8.91-18.51-.67-.98-3.4,.02-2.67,1.23,4.31,7.13,8.9,14.3,16.05,18.9,.74,.48,2.83-.02,2.58-1.18-1.99-8.97-6.55-17.18-12.84-23.85-.89,.41-1.78,.82-2.67,1.23,6.67,6.46,10.48,15.95,19.24,20.09,.78,.37,3.26-.13,2.46-1.4-2.97-4.73-6.58-8.98-10.73-12.71-.88-.79-3.63,.33-2.67,1.23,5.07,4.7,10.13,9.4,15.2,14.1,.79,.73,3.53,0,2.67-1.23-3.79-5.34-8.05-10.31-12.73-14.88-.82,.47-1.64,.94-2.46,1.4,5.55,3.38,10.88,7.11,15.94,11.2,.79,.64,3.39-.56,2.46-1.4-4.08-3.71-7.85-7.73-11.27-12.06-.82,.47-1.64,.94-2.46,1.4,4.42,3.08,8.14,7.02,10.86,11.68l2.67-1.23c-3.11-4.06-6.81-7.61-10.95-10.63-.93-.68-3.52,.6-2.26,1.58,2.33,1.82,4.4,3.91,6.21,6.24l2.46-1.4c-3.09-2.6-6.73-4.42-10.62-5.47-.73-.2-2.96,.4-2.19,1.53,3.16,4.6,5.82,9.5,7.91,14.68,.93-.33,1.85-.67,2.78-1-1.53-1.97-3.06-3.94-4.59-5.91-.62-.8-3.18-.16-2.78,1,1.59,4.69,3.62,9.19,6.03,13.51l2.67-1.23c-3.86-6.24-8.07-12.26-12.6-18.04-.72-.92-3.4,0-2.67,1.23,3.57,5.97,7.13,11.93,10.7,17.9l2.67-1.23c-4.9-5.85-9.8-11.69-14.7-17.54-.75-.89-3.4-.01-2.67,1.23,3.62,6.16,7.24,12.32,10.86,18.48,.89-.41,1.78-.82,2.67-1.23-4.15-5.34-8.3-10.67-12.45-16.01-.61-.79-3.25-.12-2.78,1,1.48,3.57,2.96,7.14,4.44,10.71l2.3-1.3c-1.49-.64-2.71-1.65-3.66-2.96-.54-.75-2.4-.33-2.71,.49-1.88,5.1-.59,10.74,3.21,14.62,.73,.74,2.57,.31,2.79-.75,.69-3.22-.64-6.29-3.13-8.35-.71-.58-2.83,.09-2.58,1.18,1.25,5.32,4.63,9.83,9.14,12.86,.66,.45,2.56,.08,2.59-.92,.16-5.72-3.3-10.85-8.36-13.37-.67-.34-2.99-.03-2.58,1.18,2.19,6.41,7.21,11.31,13.36,13.99,.68,.29,2.25-.17,2.32-1.05,.53-7.3-5.04-13.6-11.9-15.36-.63-.16-2.71,.24-2.3,1.3,1.46,3.79,3.76,7.22,6.72,10,1.4,1.32,2.93,2.51,4.56,3.53,1.63,1.02,3.82,1.98,5.45,.35,1.2-1.2,.52-2.91-.13-4.19-.83-1.64-1.69-3.27-2.65-4.84-2.1-3.41-4.8-6.45-8.43-8.26-.69-.34-2.97-.03-2.58,1.18,2.2,6.81,7.46,12.3,13.95,15.21,.78,.35,2.43,.15,2.59-.92,.83-5.58-2.44-10.98-7.41-13.44-.68-.33-2.98-.03-2.58,1.18,1.66,4.96,5.03,9.1,9.4,11.94,.72,.47,2.88-.03,2.58-1.18-1.18-4.55-3.45-8.72-6.55-12.24-.77-.87-3.36-.05-2.67,1.23,2.83,5.21,6.06,10.18,9.66,14.89,.65,.85,3.03,.18,2.78-1-.92-4.45-2.63-8.64-5.02-12.49l-2.67,1.23c3.03,4.27,6.07,8.54,9.1,12.82,.6,.85,3.13,.15,2.78-1-1.16-3.79-2.82-7.39-4.92-10.76-.62-1-3.39,0-2.67,1.23,2.16,3.65,4.32,7.3,6.48,10.95,.55,.93,3.05,.13,2.78-1-.93-4.01-2.45-7.81-4.46-11.39-.53-.93-3.27-.01-2.78,1,1.75,3.61,3.76,7.07,6.05,10.37,.62,.89,3.02,.16,2.78-1-.79-3.91-2.54-7.53-5.05-10.63-.73-.91-3.45,.04-2.67,1.23,2.04,3.09,4.09,6.18,6.13,9.27,.58,.87,3.15,.13,2.78-1-1.01-3.12-2.02-6.23-3.02-9.35-.93,.33-1.85,.67-2.78,1,1.71,2.54,3.41,5.09,5.12,7.63,.58,.86,3.26,.06,2.78-1-1.22-2.71-2.44-5.42-3.66-8.13-.93,.33-1.85,.67-2.78,1,1.56,1.8,2.92,3.73,4.07,5.81,.52,.93,3.24,.05,2.78-1-.8-1.82-1.61-3.64-2.41-5.46-.93,.33-1.85,.67-2.78,1,1.11,1.21,1.82,2.57,2.15,4.18,.93-.33,1.85-.67,2.78-1-.8-1.19-1.59-2.38-2.39-3.57-.58-.86-3.22-.1-2.78,1,.75,1.87,1.5,3.74,2.24,5.61l2.9-.78c-.97-2.05-2.26-3.83-3.95-5.35-.89-.8-3.63,.36-2.67,1.23h0Z"></path><path class="cls-4" d="M290.2,43.49c.31-.88,.61-1.77,.92-2.65l-2.87,.66c1.14,4.92,1.11,9.98-.12,14.88,.96-.22,1.92-.44,2.87-.66-.42-3.48-.84-6.96-1.26-10.44-.06-.51-2.76,.14-2.87,.66-.76,3.33-1.52,6.67-2.29,10,.96-.22,1.92-.44,2.87-.66-.04-2.92,.32-5.78,1.1-8.6,.18-.65-2.03,.02-2.25,.13-2.3,1.06-4.32,2.52-5.87,4.55-.33,.43,2.05-.03,2.25-.13,3.15-1.55,5.66-4.45,5.12-8.17-.1-.66-2.49,.33-2.75,.52-2.44,1.8-4.78,3.73-7.01,5.78-.58,.53,.85,.38,1.02,.35,2.42-.52,4.87-1.54,6.15-3.78,.15-.27-.35-.28-.48-.28-2.83,0-5.9,1.13-7.51,3.57-2.04,3.08-.62,6.82,.63,9.91,.22,.55,2.77-.14,2.87-.66,.69-3.32,1.39-6.64,2.08-9.96-.96,.22-1.92,.44-2.87,.66,1.41,6.05,1.36,12.29-.13,18.32,.96-.22,1.92-.44,2.87-.66-1.55-6.37-.57-12.98,2.69-18.67-.96,.22-1.92,.44-2.87,.66,2.71,7.74,1.39,16.11-3.1,22.91,.96-.22,1.92-.44,2.87-.66-1-5.7,1.48-11.07,3.88-16.09-.96,.22-1.92,.44-2.87,.66-.57,5.75-2.52,11.21-5.5,16.15,.96-.22,1.92-.44,2.87-.66-.78-4.25-1.03-8.55-.72-12.85,.02-.23-.73-.15-.81-.15-2.86,.26-6.02,1.43-7.5,4.04-.05,.09-.03,.16,.06,.21,2.24,1,5.81,.03,7.3-1.93,.94-1.23,.96-2.86,.77-4.33s-.77-2.29-2.36-2.28c-4.97,.04-10.85,5.11-8.22,10.36,.34,.67,2.37-.26,2.75-.52,2.55-1.76,3.65-5.13,1.76-7.78-.45-.63-2.51,.19-2.87,.66-2.88,3.65-3.03,8.64-.28,12.41,.41,.56,2.6-.12,2.87-.66,2.08-4.09,2.19-8.77,.18-12.91-.3-.62-2.43,.19-2.75,.52-3.19,3.24-4.74,7.8-3.71,12.29,.48,2.12,1.54,4.3,3.11,5.83s4.6,1.52,6.14-.16c.68-.75,.75-1.85,.85-2.81,.18-1.62,.24-3.25,.18-4.88-.06-1.47-.21-2.93-.46-4.38-.23-1.29-.39-3.02-1.05-4.17-1.01-1.76-4.14-.48-5.17,.66-1.44,1.6-1.34,4.62-1.36,6.64-.05,6.16,2.08,12.12,5.71,17.06,.41,.56,2.78-.12,2.9-.78,1.35-7.76,.88-15.67-1.45-23.2-.2-.64-2.64,.24-2.87,.66-3.98,7.32-5.08,15.87-2.91,23.93,.15,.56,2.74-.16,2.87-.66,1.44-5.47,1.35-11.14-.41-16.53-.16-.48-1.72,.04-1.94,.11-3.52,1.18-4.2,4.25-4.36,7.61-.21,4.49,.62,8.94,2.3,13.1,.23,.57,2.99-.18,2.9-.78-1.03-6.49-2.06-12.99-3.09-19.48-.09-.57-2.69,.2-2.87,.66-1.65,4.17-2.28,8.61-1.77,13.06,.07,.59,2.66-.24,2.87-.66,1.32-2.6,1.45-5.51,.19-8.17-.32-.68-2.56,.26-2.87,.66-1.89,2.43-3.15,6-2.16,9.07,.83,2.59,4.99,2.12,5.85-.22,.52-1.4,.46-3.07,.04-4.49-.37-1.23-1.3-3.31-2.66-3.71-1.03-.31-2.67,.13-3.46,.85-.95,.88-.5,2.23-.2,3.29,1.16,4.07,3.03,7.88,5.43,11.36,.36,.52,2.94-.12,2.9-.78-.39-5.74-.78-11.47-1.17-17.21-.01-.16-.44-.16-.5-.16-2.17-.03-4.59,.74-6.08,2.38-1.72,1.89-1.53,4.58-1.1,6.92,.94,5.02,3.63,9.5,7.28,13.03,.37,.36,2.99-.33,2.82-.87-.88-2.66-1.75-5.33-2.63-7.99-.97,.26-1.93,.52-2.9,.78,3.33,3.98,6.67,7.96,10,11.94,.43,.52,3.12-.35,2.9-.78-2.51-4.88-5.02-9.75-7.54-14.63l-2.9,.78c2.76,4.51,5.53,9.01,8.29,13.52,.33,.53,2.98-.15,2.9-.78-.4-3.08-1.2-6.05-2.41-8.91-.97,.26-1.93,.52-2.9,.78,1.89,3.12,3.56,6.35,4.99,9.7,.97-.26,1.93-.52,2.9-.78-2.48-4.03-4.71-8.2-6.67-12.51-.97,.26-1.93,.52-2.9,.78,1.78,2.68,3.56,5.37,5.34,8.05,.36,.55,3.09-.27,2.9-.78-2.59-6.94-5.1-14.84-1.65-21.94-.96,.22-1.92,.44-2.87,.66,2.27,4.09,2.51,8.83,.66,13.13,.96-.22,1.92-.44,2.87-.66-.33-5.58,.27-11.13,1.78-16.51-.96,.22-1.92,.44-2.87,.66,0,2.03-.14,4.05-.43,6.06-.04,.24,2.77,.06,2.9-.78,.3-2.01,.44-4.03,.43-6.06,0-.45-2.72,.11-2.87,.66-1.54,5.45-2.16,11.09-1.83,16.75,.03,.54,2.68-.2,2.87-.66,1.88-4.36,1.7-9.21-.61-13.37-.33-.59-2.63,.16-2.87,.66-3.5,7.18-1.02,15.15,1.6,22.17,.97-.26,1.93-.52,2.9-.78-1.78-2.68-3.56-5.37-5.34-8.05-.38-.57-3.1,.34-2.9,.78,1.96,4.31,4.19,8.48,6.67,12.51,.36,.58,3.09-.32,2.9-.78-1.43-3.35-3.1-6.59-4.99-9.7-.35-.58-3.09,.32-2.9,.78,1.21,2.86,2.01,5.83,2.41,8.91l2.9-.78c-2.76-4.51-5.53-9.01-8.29-13.52-.38-.62-3.1,.39-2.9,.78,2.51,4.88,5.02,9.75,7.54,14.63,.97-.26,1.93-.52,2.9-.78-3.33-3.98-6.67-7.96-10-11.94-.39-.47-3.08,.21-2.9,.78,.88,2.66,1.75,5.33,2.63,7.99,.94-.29,1.88-.58,2.82-.87-2.83-2.73-5.05-6.04-6.31-9.78-.6-1.77-1.05-3.66-1.1-5.54-.03-1.12,.1-2.26,.65-3.25,.39-.71,1.15-1.71,2.03-1.7l-.5-.16c.39,5.74,.78,11.47,1.17,17.21l2.9-.78c-1.83-2.65-3.36-5.48-4.49-8.49-.51-1.35-1.17-2.9-1.32-4.35-.03-.27,.14-.69,.09-.92,.25-.4,.04-.42-.63-.06-.8,0-.96,.12-.46,.36,.4,.69,1.03,1.21,1.4,1.96,.64,1.28,.93,2.72,.79,4.15-.04,.41-.1,.83-.23,1.23-.04,.15-.09,.29-.16,.43-.23,.41,.07,.37,.89-.11,.01-.08-.63-.69-.72-.85-.12-.24-.18-.5-.24-.76-.71-3.01,.35-6.13,2.2-8.5-.96,.22-1.92,.44-2.87,.66,1.23,2.59,1.15,5.38-.14,7.93,.96-.22,1.92-.44,2.87-.66-.51-4.38,.09-8.73,1.72-12.83-.96,.22-1.92,.44-2.87,.66,1.03,6.49,2.06,12.99,3.09,19.48,.97-.26,1.93-.52,2.9-.78-1.4-3.45-2.22-7.11-2.33-10.84-.05-1.69-.02-3.46,.32-5.13,.25-1.2,.84-2.98,2.13-3.41l-1.94,.11c1.73,5.3,1.87,10.9,.45,16.29,.96-.22,1.92-.44,2.87-.66-2.15-8-1.09-16.43,2.87-23.69-.96,.22-1.92,.44-2.87,.66,2.33,7.52,2.8,15.44,1.45,23.2,.97-.26,1.93-.52,2.9-.78-2.5-3.41-4.31-7.28-5.16-11.44-.42-2.04-.6-4.14-.54-6.22,.03-.94,.11-1.88,.24-2.81,.08-.58,.14-1.2,.32-1.76,.07-.2,.74-1.09,.72-1.2l-.86,.26,.31,.36c.05,.18,.15,.37,.21,.55,.17,.51,.29,1.05,.42,1.57,.29,1.2,.51,2.42,.67,3.65,.3,2.38,.33,4.8,.09,7.19-.02,.21-.56,2.87-.65,2.79l.27-.1c.39-.07,.36-.16-.09-.27-.15-.16-.48-.32-.65-.46-.44-.37-.81-.84-1.15-1.31-1.03-1.42-1.77-3.06-2.13-4.77-.9-4.2,.46-8.57,3.46-11.62l-2.75,.52c1.98,4.07,1.91,8.63-.14,12.67,.96-.22,1.92-.44,2.87-.66-2.71-3.71-2.62-8.56,.23-12.17-.96,.22-1.92,.44-2.87,.66,1.75,2.46,.96,5.61-1.47,7.28l2.75-.52c-.76-1.52-.83-3.21-.18-4.78,.33-.81,.82-1.56,1.42-2.18,.51-.53,1.47-1.45,2.25-1.5,2.12-.15,1.4,4.81,.76,5.78-.22,.33-.66,.93-1.11,.92-.77,0-.46-.52-.15-.88,.72-.86,1.68-1.47,2.8-1.58l-.81-.15c-.32,4.31-.07,8.61,.72,12.85,.12,.64,2.64-.28,2.87-.66,3.02-5.01,4.97-10.55,5.54-16.38,.04-.43-2.64,.17-2.87,.66-2.42,5.08-4.94,10.56-3.93,16.32,.11,.65,2.64-.3,2.87-.66,4.52-6.85,5.87-15.35,3.15-23.15-.23-.64-2.63,.24-2.87,.66-3.29,5.74-4.3,12.47-2.74,18.9,.13,.56,2.75-.16,2.87-.66,1.51-6.11,1.61-12.42,.18-18.56-.13-.55-2.77,.15-2.87,.66-.69,3.32-1.39,6.64-2.08,9.96,.96-.22,1.92-.44,2.87-.66-.91-2.26-1.93-4.7-1.61-7.19,.22-1.78,1.66-4.4,3.7-4.4l-.48-.28c-.58,1.02-1.54,2.02-2.74,2.28l1.02,.35c2.23-2.05,4.57-3.98,7.01-5.78-.92,.17-1.84,.35-2.75,.52,.42,2.93-1.24,5.8-3.87,7.1,.75-.04,1.5-.08,2.25-.13,1.23-1.62,2.81-2.87,4.66-3.72-.75,.04-1.5,.08-2.25,.13-.8,2.89-1.18,5.84-1.14,8.83,0,.44,2.75-.1,2.87-.66,.76-3.33,1.52-6.67,2.29-10-.96,.22-1.92,.44-2.87,.66,.42,3.48,.84,6.96,1.26,10.44,.06,.52,2.74-.14,2.87-.66,1.25-4.98,1.33-10.11,.17-15.12-.13-.58-2.71,.18-2.87,.66-.31,.88-.61,1.77-.92,2.65-.15,.43,2.61,.17,2.85-.54h0Z"></path><path class="cls-4" d="M325.57,69.41l.03-.06-.1,.22c.2-.46,.45-.9,.73-1.31,.07-.1,.14-.2,.22-.3s.19-.2,.25-.32c-.04,.08-.14,.17-.03,.04,.04-.04,.08-.08,.11-.13,.09-.1,.19-.2,.29-.29,.18-.18,.37-.34,.57-.5,.04-.03,.11-.11,.16-.13-.07,.03-.24,.18-.07,.05,.1-.08,.21-.15,.31-.22,.21-.14,.43-.28,.66-.4,.04-.02,.08-.05,.12-.07l-.2,.1c.06-.01,.14-.07,.19-.09,.13-.06,.26-.12,.39-.18,.27-.12,.61-.32,.77-.58,.11-.19,.16-.45-.01-.63-.47-.47-1.4-.28-1.93-.06-1.21,.52-2.36,1.25-3.3,2.17-.9,.87-1.58,1.87-2.07,3.02-.1,.22,.14,.46,.3,.55,.27,.14,.67,.16,.96,.12,.66-.09,1.36-.37,1.64-1.01h0Z"></path><path class="cls-4" d="M311.39,77.88c.13-.31,.28-.6,.46-.89l-.17,.27c.31-.5,.68-.96,1.1-1.37l-.25,.24c.39-.38,.82-.71,1.28-1l-.32,.2c.27-.17,.54-.31,.82-.45s.61-.41,.74-.71c.11-.26,.11-.61-.07-.85-.47-.59-1.36-.55-1.98-.25-1.91,.89-3.57,2.47-4.4,4.42-.12,.28-.11,.6,.07,.85s.54,.42,.83,.45c.69,.08,1.59-.21,1.88-.91h0Z"></path><path class="cls-4" d="M334.3,95.53c-.56,.45-1.02,.73-1.61,1-.42,.19-.38,.18-.84,.3-.16,.04-.31,.08-.47,.12-.11,.02-.21,.05-.32,.07,.1-.02,.1-.02,0,0-1.3,.18-2.54,.06-3.84-.44-.79-.3-2.1,.18-2.32,1.04-.66,2.66,1.07,5.41,3.48,6.49,2.87,1.28,6.38,.22,8.33-2.18,1-1.23,1.66-2.76,1.62-4.37-.02-.69-.7-.89-1.31-.83-.49,.04-1.63,.43-1.61,1.1,.04,1.35-.42,2.67-1.33,3.66-.24,.26-.38,.39-.61,.57-.32,.24-.41,.29-.68,.41-.06,.03-.41,.17-.16,.08-.18,.06-.37,.11-.56,.15,.29-.06-.12,.01-.18,.02-.1,0-.19,.01-.29,.02,.13,0,.11,0-.06-.01-.53-.07-.98-.18-1.53-.51s-.99-.74-1.38-1.24c-.8-1.04-1.13-2.34-.81-3.62-.77,.35-1.54,.7-2.32,1.04,3.5,1.34,7.76,.62,10.68-1.7,.43-.35,.8-.98,.19-1.37-.57-.36-1.56-.19-2.07,.21h0Z"></path><path class="cls-1" d="M343.58,124.61l.58,1.6c.1,.26,.32,.4,.58,.47,.17,.05,.34,.06,.51,.05,.2,0,.39-.02,.58-.08,.34-.1,.71-.25,.96-.52,.16-.18,.36-.44,.27-.7l-.58-1.6c-.1-.26-.32-.4-.58-.47-.17-.05-.34-.06-.51-.05-.2,0-.39,.02-.58,.08-.34,.1-.71,.25-.96,.52-.16,.18-.36,.44-.27,.7h0Z"></path><path class="cls-1" d="M359.19,127.82c.33,.56,.66,1.11,.99,1.67,.03,.09,.09,.15,.18,.18,.1,.06,.22,.09,.35,.09,.17,.02,.33,.01,.5-.01,.19-.01,.38-.05,.57-.1,.34-.1,.7-.21,.98-.43l.2-.17c.1-.09,.14-.2,.12-.33-.33-.56-.66-1.11-.99-1.67-.03-.09-.09-.15-.18-.18-.1-.06-.22-.09-.35-.09-.17-.02-.33-.01-.5,.01-.19,.01-.38,.05-.57,.1-.34,.1-.7,.21-.98,.43l-.2,.17c-.1,.09-.14,.2-.12,.33h0Z"></path><path class="cls-1" d="M354.28,148.84v3.77c0,.21,.42,.3,.54,.32,.34,.05,.75,0,1.07-.09s.71-.22,.98-.46c.18-.16,.31-.3,.31-.55v-3.77c0-.21-.42-.3-.54-.32-.34-.05-.75,0-1.07,.09s-.71,.22-.98,.46c-.18,.16-.31,.3-.31,.55h0Z"></path><path class="cls-1" d="M337.67,170.24c-.28,1.14-.15,2.34,.44,3.37,.1,.17,.33,.18,.51,.19,.34,.01,.73-.06,1.06-.15s.7-.2,.99-.4c.1-.06,.43-.27,.34-.42-.51-.88-.69-1.91-.53-2.92l-.02,.13c.02-.11,.04-.22,.07-.32,.05-.07,.04-.13-.02-.18-.05-.07-.12-.11-.21-.11-.27-.07-.65-.02-.92,.03-.38,.07-.76,.17-1.1,.34l-.28,.15c-.13,.07-.24,.17-.32,.29h0Z"></path><path class="cls-1" d="M352.83,192.08c.88,1.62,1.76,3.25,2.64,4.87,.13,.24,.58,.34,.81,.37,.36,.04,.81-.04,1.14-.21,.29-.14,.62-.35,.75-.65,.12-.27,.1-.48-.04-.74-.88-1.62-1.76-3.25-2.64-4.87-.13-.24-.58-.34-.81-.37-.36-.04-.81,.04-1.14,.21-.29,.14-.62,.35-.75,.65-.12,.27-.1,.48,.04,.74h0Z"></path><path class="cls-1" d="M367.82,196.84c.36,.36,.72,.72,1.08,1.08,.09,.06,.2,.1,.31,.11,.15,.03,.29,.04,.44,.03,.19,0,.37-.04,.56-.08,.2-.04,.39-.09,.58-.16l.33-.15c.17-.08,.33-.19,.47-.33l.11-.17c.04-.11,.02-.21-.08-.28-.36-.36-.72-.72-1.08-1.08-.09-.06-.2-.1-.31-.11-.15-.03-.29-.04-.44-.03-.19,0-.37,.04-.56,.08-.2,.04-.39,.09-.58,.16l-.33,.15c-.17,.08-.33,.19-.47,.33l-.11,.17c-.04,.11-.02,.21,.08,.28h0Z"></path><path class="cls-1" d="M368.56,171.96c.71,.55,1.42,1.1,2.13,1.64,.26,.2,.68,.26,.99,.24,.2,0,.4-.05,.58-.14,.19-.06,.35-.14,.51-.27,.23-.2,.49-.47,.5-.79s-.11-.56-.36-.75c-.71-.55-1.42-1.1-2.13-1.64-.26-.2-.68-.26-.99-.24-.2,0-.4,.05-.58,.14-.19,.06-.35,.14-.51,.27-.23,.2-.49,.47-.5,.79s.11,.56,.36,.75h0Z"></path><path class="cls-1" d="M382.79,170.36l1.08,2.15c.1,.2,.32,.25,.53,.28,.34,.04,.74-.02,1.07-.11s.7-.22,.98-.44l.2-.17c.1-.09,.14-.2,.12-.33-.36-.72-.72-1.43-1.08-2.15-.1-.2-.32-.25-.53-.28-.34-.04-.74,.02-1.07,.11s-.7,.22-.98,.44l-.2,.17c-.1,.09-.14,.2-.12,.33h0Z"></path><path class="cls-1" d="M376.67,149.23c.57,0,1.63-.2,1.92-.77s-.25-.78-.77-.78c-.57,0-1.63,.2-1.92,.77s.25,.78,.77,.78h0Z"></path><path class="cls-1" d="M330.07,190.57v1.61c-.03,.13-.01,.24,.06,.33,.05,.12,.13,.2,.25,.26,.14,.08,.28,.12,.43,.13,.18,.04,.35,.04,.53,.01,.38-.05,.78-.16,1.09-.38l.26-.21c.14-.13,.23-.28,.28-.46v-1.61c.03-.13,.01-.24-.06-.33-.05-.12-.13-.2-.25-.26-.14-.08-.28-.12-.43-.13-.18-.04-.35-.04-.53-.01-.38,.05-.78,.16-1.09,.38l-.26,.21c-.14,.13-.23,.28-.28,.46h0Z"></path><g class="cls-3"><path class="cls-4" d="M314.27,152.73c-.07,8.19-.14,16.39-.21,24.58-.06,6.99,.03,14.48,4.03,20.21,3.34,4.79,8.84,7.5,14.11,10.01,3.96,1.89,8.03,3.81,12.41,4.17,4.37,.36,9.18-1.19,11.51-4.91,1.43-2.28,1.77-5.09,1.7-7.78-.21-8.7-4.22-16.81-8.13-24.58-4.58-9.09-9.16-18.19-13.74-27.28-1.19-2.36-2.53-4.88-4.92-6.02-2.79-1.34-6.26-.3-8.61,1.71-2.35,2.02-3.83,4.84-5.25,7.59"></path><g><path class="cls-4" d="M319.42,151.37c-.15,.22,.26,.33,.31,.4,.12-.43-.41-.44-.31-.4Z"></path><polygon class="cls-4" points="320.65 147.22 320.76 147.37 320.74 146.63 320.65 147.22"></polygon><path class="cls-4" d="M323.01,144.31c-.76-.27-.86,1.03-1.45,1.39h-.2s.28,.58,.28,.58c.39-.7,.82-1.74,1.37-1.97Z"></path><path class="cls-4" d="M325.31,144.49c-.22-.19,.16-.39-.35,.12,.05,0,.06,.01,.09,.02,.05-.04,.12-.08,.26-.14Z"></path><path class="cls-4" d="M325.05,144.63c-.24,.19,.29,.08,0,0h0Z"></path><path class="cls-4" d="M326.22,143.83c-.09,.12-.18,.25-.26,.39,.14,.1,.46,.01,.4,.17,.3-.27,.18-.4-.14-.56Z"></path><path class="cls-4" d="M326.4,143.21c-.06,.06-.12,.11-.17,.17,.06,.05,.12,.05,.17-.17Z"></path><path class="cls-4" d="M325.89,143.76c.11-.13,.22-.25,.34-.38-.1-.08-.19-.3-.17,.15-.04-.21-.06,0-.17,.23Z"></path><path class="cls-4" d="M325.61,143.77c-.28-.04-.62,.05-.34-.39-.71,.52-.32,.86,.34,.39Z"></path><path class="cls-4" d="M322.65,143.64c-.15,.04-.29,.08-.44,.13l-.08,.42c.04-.21,.69-.4,.52-.54Z"></path><path class="cls-4" d="M328.46,143.77c.03-.15-.09-.41-.12-.6-.09,.05-.18,.12-.26,.18,.14,.09,.38,.2,.38,.42Z"></path><path class="cls-4" d="M328.34,143.17c.13-.08,.27-.17,.41-.24-.36-.06-.44,.07-.41,.24Z"></path><path class="cls-4" d="M326.23,142.43c-.22,.26-.41,.54-.58,.81,.22-.3,.46-.59,.74-.87l-.16,.06Z"></path><path class="cls-4" d="M329.58,144.05c-.1,.09-.19,.18-.28,.27,.14-.12,.3-.27,.48-.37-.07,.03-.14,.06-.2,.1Z"></path><path class="cls-4" d="M330.3,144.42c-.29,.14-.17,.51-.39,.55,.19,.09,.51,.05,.82,.06-.25-.09-.37-.25-.43-.61Z"></path><path class="cls-4" d="M331.23,145.1c-.14-.05-.31-.07-.5-.07,.13,.04,.28,.08,.5,.07Z"></path><path class="cls-4" d="M329.39,143.13c0,.1,0,.35,.13,.5,.01-.15,.01-.29,0-.44-.04-.02-.09-.03-.14-.05Z"></path><path class="cls-4" d="M329.53,143.16h0c.15,.06,.24,.13,.29,.15-.04-.01-.11-.08-.29-.15Z"></path><path class="cls-4" d="M329.36,143.11h.03s0-.05-.03,0Z"></path><path class="cls-4" d="M327.59,142.51c.23-.29,.87-.54,.23-.89-.19,.31,.16,.48-.23,.89Z"></path><path class="cls-4" d="M329.29,142.55c-.14-.07-.29-.13-.45-.17,0,.11,.06,.29-.08,.39,.17-.08,.35-.16,.53-.22Z"></path><path class="cls-4" d="M329.55,142.47c-.08,.02-.17,.05-.26,.08l.16,.07,.1-.15Z"></path><path class="cls-4" d="M330.98,144.25c.27,0,.45,.16,.65,.35-.12-.28-.3-.52-.5-.71-.12,.08-.36,.18-.15,.36Z"></path><path class="cls-4" d="M330.33,143.59h.05s-.01-.06-.05,0Z"></path><polygon class="cls-4" points="333.25 147.12 333.29 147.04 333.22 147.06 333.25 147.12"></polygon><path class="cls-4" d="M331.14,143.8c-.1-.19-.27-.2-.43-.15,.14,.04,.28,.14,.41,.24,.05-.03,.08-.06,.02-.09Z"></path><path class="cls-4" d="M331.83,145.58c0-.15-.01-.31-.04-.46-.04,.17-.08,.49,.04,.46Z"></path><path class="cls-4" d="M330.36,143.72s-.02,0-.03,0c0,.11,.02,.06,.03,0Z"></path><path class="cls-4" d="M330.36,143.72c.11,0,.23-.04,.35-.07-.11-.04-.23-.07-.34-.06,0,.04,0,.09-.01,.13Z"></path><path class="cls-4" d="M336.16,146.78c-.38,.13-1.04-.37-.98-1.14-.57-.42-1.49,.6-1.89,1.4,.16-.06,.3-.15,.8,.31,.1-.3-.22-1.48,.35-1.18,.58,.66,.2,.69,.21,1.15,.28-.55,1.14,.67,1.7,.17l-.57-.57c.09-.06,.38,.1,.38-.13Z"></path><path class="cls-4" d="M332.76,146.02l-.17-.18c.08,.27,.05,.52-.04,.98,.37,.26,.54,.27,.67,.24-.18-.38-.36-.74-.55-1.08l.09,.04Z"></path><path class="cls-4" d="M332.02,144.99c.45-.13,.93,.25,1.11-.3-.45-.57-.59-.2-.98-.39,.75,.78-.37-.1-.1,.66-.18-.12-.31-.25-.43-.36,.08,.17,.13,.35,.17,.53,0-.01,0-.02,0-.03h0s0,0,0,0c.02-.07,.03-.1,.04-.04,0,0,.02,0,.02,.01,.05-.03,.11-.05,.16-.06,.11,.3-.06,.1-.16,.06-.02,.01-.04,.02-.06,.03h0c.27,.23,.53,.48,.8,.76-.07-.23-.25-.48-.58-.85Z"></path><path class="cls-4" d="M328.43,140.68s.04,.07,.04,.1c.08-.05,.12-.08-.04-.1Z"></path><path class="cls-4" d="M328.93,140.97c-.09,.05-.18,.21-.45,.16-.24-.14,0-.21,0-.35-.19,.1-.59,.31-.07,.52l.08-.06c.49,.15,.92,.8,.83,.84-.04-.41-.1-.7-.38-1.11Z"></path><path class="cls-4" d="M331.09,142.61c.28,.1,.56,.23,.84,.39-.04-.19-.08-.4-.13-.6l-.12,.19c-.38-.39-.45-.09-.59,.02Z"></path><path class="cls-4" d="M333.11,147.32l-.46,.1c.28,.06,.56,.14,.84,.22l-.38-.31Z"></path><polygon class="cls-4" points="333.78 148.5 333.4 148.63 333.78 148.85 333.78 148.5"></polygon><path class="cls-4" d="M342.97,213.9l-.37,.06c.17,0,.28-.03,.37-.06Z"></path><path class="cls-4" d="M345.56,214.15l.07-.19c-.12,.11-.18,.19-.07,.19Z"></path><path class="cls-4" d="M349.24,179.14c-.13,.57-.43,1.27-.05,1.03l.33-.31c-.21-.25-.27-.49-.28-.72Z"></path><path class="cls-4" d="M357.9,200.47l.14-.13c-.15-.12-.28-.22-.41-.32,.08,.14,.17,.29,.27,.45Z"></path><path class="cls-4" d="M359.68,200.89l-.32,.64c.11-.14,.22-.35,.32-.64Z"></path><path class="cls-4" d="M330.39,209.82l-.53,.24c.53,.25,.39-.06,.53-.24Z"></path><path class="cls-4" d="M340.36,161.22c.03,.43,.11,.75,.21,1,0-.54,.17-1.05-.21-1Z"></path><path class="cls-4" d="M344.44,209.45c-.18,.06-.26,.14-.27,.24,.19-.06,.29-.13,.27-.24Z"></path><path class="cls-4" d="M341.1,163.25c0-.08,0-.15,0-.23-.2-.23-.38-.46-.51-.79,0,.4,.07,.81,.52,1.02Z"></path><path class="cls-4" d="M311.64,169.77s.03-.07,.05-.1c-.06-.01-.06,.04-.05,.1Z"></path><path class="cls-4" d="M316.14,156.59c.03,.13,.02,.34,.03,.54,.03-.1,.03-.26-.03-.54Z"></path><path class="cls-4" d="M336.14,153.61c-.16-.25-.06-.02,0,0h0Z"></path><path class="cls-4" d="M337.02,151.55c.07,.03,.15,.05,.24,.01-.1,.03-.18,.02-.24-.01Z"></path><path class="cls-4" d="M344.84,164.67v.02c.05-.12,.04-.1,0-.02Z"></path><path class="cls-4" d="M336.12,153.12c0,.12,.02,.26,.06,.4,0-.07-.01-.19-.06-.4Z"></path><path class="cls-4" d="M335.96,153.27c-.03-.1-.06-.18-.08-.25-.08,0-.11,.05,.08,.25Z"></path><path class="cls-4" d="M336.35,153.97c-.08-.15-.14-.3-.18-.45,0,.07-.01,.1-.03,.09,.04,.08,.11,.18,.21,.36Z"></path><path class="cls-4" d="M314.89,194.35s0-.05,.01-.08c-.28-.23-.21-.11-.01,.08Z"></path><path class="cls-4" d="M356.51,184.35s-.02-.01-.03-.02c0,.02,0,.03,0,.05l.03-.02Z"></path><path class="cls-4" d="M357.21,185.26c-.67-.25-.71-.51-.73-.89l-1.03,.79,1.76,.1Z"></path><path class="cls-4" d="M337.16,212.46l.62,.64c-1.14,.28-1.73-.2-1.21,.59,.3-.61,1.04-.37,1.81-.15,.77,.22,1.57,.4,1.8-.24l.45,.41c-.15-.05-.19,.02-.34-.03,.89,.89,.99-.75,2.26-.31,.45,.18,.75,.42,.41,.53,.37-.05,.74-.12,1.1-.2,.31,.06,.21,.29-.1,.23,.54,.03,1.12,.02,1.67-.01v.04c.23-.21,.75-.54,1-.7,.42,.17-.2,.16-.09,.32,.3-.13,.59-.24,.87-.39,.4,.31-.32,.74-.97,.71,.46,.65,.67,.56,.98,.38,.32-.19,.71-.45,1.72-.23l-.86,.32c.7,.67,1.37,.29,2.55,.45-.35-.13-2.33-.7-1.38-1.25,.3,.04,.69,0,1.14-.42,.14,.47,.64,.2,1.27-.07l.18,.61c.65-.46,.46-.75,.74-1.18,.77-.32,1.16,.03,1.56,.28,1.26-.65-1.22-.18,.11-1.14,1.07-.43,1.6-1.18,2.21-2.43,.68-.47,.21,.36,.53,.26,.03-.3,.05-.58,.06-.88,.11-.13,.2,0,.25,.07,.18-.61-.47-.42-.13-1.25-.24-.28,.21-.52,.67-.93,.47-.4,.93-.98,.71-1.62,.25-.2,.34,.24,.6,.23-.03-.82-.06-1.14-.12-1.44-.06-.3-.14-.57-.41-1.19,.19-.3,.36-.61,.53-.93-.55,.67-1.01-.31-1.45-1.06-.24,.23-.46,.42-.56,.54-.09-.4-.19-.79-.3-1.17,.11-.14,.32-.02,.59,.18-.05-.08-.1-.16-.15-.22,.24-.42,.61-.21,.96,.11-.13,.15-.27,.29-.4,.43,.38,.31,.79,.62,1.17,.58-.07-.09-.12-.25-.15-.42,.1,.08,.19,.14,.26,.11,.07-.04-.07-.18-.23-.39l.72-.28-.28-.07c.16-.56,.28-1.12,.4-1.68-.38-.58-.86-1.09-1.32-1.67-.44-.58-.88-1.22-1.16-2.07,.58,.35,.86-.04,1.47-.12-.57,.6,.5,1.37,.45,2.36,.02-.51,.32-.43,.44-.31-.25-.56-.52-1.11-.81-1.64,.51-.04,.32-.42,.46-.9-.92,.5-.89-1.13-1.35-1.74,.32-.12,.7-.04,.79,.82,.56-1.09-1.41-.92-.99-1.94,.06,.2,.03,.32,.22,.35-.39-.4-.48-1.57-.13-1.39l.06,.2c-.21-1.37-1.26-3.96-2.12-3.84,.1-.05,1.02-.19,1.21-.17-1.17-.44-2.35-.83-3.52-1.19,.76-.08,2.06-1.49,2.87-.6-.02-.34-.06-.75-.56-1.28-.01,.24-.77,.91-.94,.66,.44-1.07,.19-.69,.42-1.89-.01,.36-1.21,.49-1.38,0,.19,0,1.02-.5,1.2-.37l-1.55-.7c.32,.2,.89-.34,1.06-.74-.14,.21-.45-1.02-.7-1.28v.6c-.47-1.38-2.04-.6-2.61-1.9,.28,.05,1.47-.25,1.28-.96-.67-.04-3.13-.08-4.09-.99l.19-.36-.77-.69c1.04,.14,3.43,.82,4.47,1.33,0-.6,.28-.31-.1-1.01,.15-.39,.61,.18,.74,.39l-.66-1.76c-.56,.38-1.24-.97-1.71-.65l1.53,1.49c-.56,.37-2.23-.19-2.72-1.42,.09-.42,1.18-.31,1.37-.44-.28-.05-.96-.92-.86-1.1l.57,.34c-.1-.77-1.33-.67-1.16-1.74-.1-.29,.36-1.2-.01-1.07-.46,.79-2.54,1.94-3.2,1.91,0-.12-.06-1.76,.12-2.24,.31-.72,1.62,.03,1.89-.59-.17,.07-.5-.08-.62-.15,0-.36,.57-.14,.18-.72-.66,.2-.58-1.29-.66-.03-.48-.52-.2-.71-.58-1.41-.28,.42-1.66,.04-2.14-.48,.17-.04,.31-.28,.36-.39-.57-1.27-.63-2.08-1.21-3.24,.09-.18,0-.83,.37-.72-.19-.11-.48-.16-.67-.51,.18-.96,.48,.76,.85-.09-.38,.13-.95-.68-1.43-1.08-.47,.43,.49,1.23,.97,1.63-.75,.38-1.99-.11-2.95-1.14-.67-.87,.28-.66,.09-.78-.78-1.87-2.09-.88-2.3-2.65,.18-.84,.94-.51,1.22-.81,.58,.69,.3,1.36,.59,1.88l-.1-.77c.29,.17,.67,.63,.67,.99,.18-.72-1.46-3.1-1.76-4.69-.29-.17-.67-.51-.76-.21l.29,.41c-.18,.6-.95-.56-.85,.09-.57-.46-1.33-.9-1.53-1.85l.47-.43c-.15,.1-.05,.71,.23,.86-.42-.23,.1-1.65-.81-1.67l-.09,.78c-.57-.46-1.53-.9-1.73-1.72-.37,.61,.15,.14-.22,.98,.56-.85,.92,1.91,1.38,.76-.46,.91,.16,1.09-.11,2.11,.17-.11,.22-.42,.44,.24,.07,0,.17,.03,.23,.06,0,.02,0,.03,0,.05v-.05s.05,.01,0-.02c0-.19,.04-.35,.12-.45,.57,.1,1.05,1.09,1.44,1.32,.1,.41-.28-.05-.38,.25l.57,.34c-.38,.25-.17,1.31-.85,.56l.38,.79c0,.57,.24,1.25,.6,1.55,.1,.41,.91,.71,.44,.54l.86,1.1-.09,.06c.56,1.23,1.92,2.15,1.89,3.9,.31,.36,.64,.71,.87,1.45l-.28,.31c.38,.46,.44,1.74,.92,1.78-.65,1.03,1.07,2.64,1.37,3.64l.47-.19c.29,.64,.73,1.19,1.3,1.88l.38-.25c.67,.51,.59,1.88,1.17,2.93-.19,0-.29-.29-.29-.53-.26,1.73,2.02,2.36,1.93,3.85,.29,.21,.34,.45,.34,.7-.01-.03-.03-.05-.06-.06,0,.03,.03,.08,.05,.12,0,.16-.02,.33-.02,.5,.04-.17,.06-.32,.05-.44,.12,.22,.33,.53,.59,.81l-.37,.35s.03,.04,.05,.07c0,.4,.33,.16,.57-.17,.15,.13,.31,.24,.47,.31-.58,.6,.65,.76,.06,1.47,.47,.05,1.04,1.53,1.89,1.37-.1,.06-.1,.18-.19,0,.07,.41,.15,.82,.51,1.06l-.5,.4,1.1,.5c-.14,.64-.27,.92-.9,.61,1.14,.93,.64,.86,1.69,1.64l-.39,.08c.14,.36,.85,.78,.62,1.1-.43,1.04,1.21,4.15,.83,6.44,1.09-.61-.36,1.07,.54,1.03-.25,.16-.36,.48-.65,.17,.39,1.06-.25,1.65,.54,2.35-.27,.14-.42-.21-.57-.09,.06,.08,.26,.33,.1,.45-.16,.12-.24-.15-.37-.31,.11,1.08,.94,1.17,1.74,1.26-.38,.58-.34,.84,.16,1.29-.27,.19-.57,.48-.62-.2-.03,.19-.16,.77-.24,1.29-.08,.52-.11,1,.2,1.09-.18,.08-.17,.5-.12,.61-.27,.79-.35,.83-.62,1.59l.19-.16c.57,.62-.13,.71-.4,1.3l-.06-.06c-.64,.47-.71,.59-.76,.76-.05,.16-.13,.33-.87,.59l.38,.3c.29,.42-.08,.56-.57,.64-.49,.08-1.08,.09-1.36,.48,.14,.03,.27,.05,.41,.07-.11,.29-.61,.14-1.07-.08-.48-.23-.94-.55-1.16-.53-.12-.05,.09-.18,.18-.3-1.26-.17,.1,.65-.69,1.08-.25-.28-.07-.88-.62-.78-.17-.09-.49,.27-.93,.59-.44,.31-1,.56-1.43,.26,.19,.25,.41,.5-.01,.72-.33,.07-.79-.17-1.21-.33-.42-.18-.82-.26-1.17,.1-.08-.08-.1-.15-.1-.22-.53,.16-1.71,.1-2.13,.44-.06-.86-.88-.85-1.69-.87-.8-.02-1.56-.05-1.3-.77-.53-.16-1.06-.34-1.58-.53l.1-.13c-.95-.5-1.44-.33-1.95-.15-.19-.2,.04-.25,.09-.32-1.33-.94-1.49-.96-3.05-.86l.09-.51c-.46,.1-1.78-1.71-3.41-1.9,.04-.04,.11-.11,.25-.12-.92-.14-1.67-.94-2.34-1.55-.67-.61-1.26-1.03-2.02-.45-.39-.09-.79-.17-1.19-.27,1.15,.95-.63,.52-.29,1.11-.56-.26-.93-1.34-.29-.99l.04,.14c.75-.59-1.27-1.37-.82-1.86-1.1-.89-1.98-1.96-2.68-3.09-.69-1.13-1.22-2.29-1.7-3.46l-.54,.57c-.11-.28-.24-.56-.33-.86,.07-.29,.42-.51,.62,.1,.27-.46-.71-.87-.87-.85-.12-1.3,.96,.19,.86-.2-.08-.15-.15-.31-.22-.47l-.05,.14c-.4-.31-.74-.24-.92-1.02,.01-.52,.37-.36,.35-.56,.05-.01,.06-.08-.06-.29-.08-.37-.12-.76-.19-1.14l-.47,.57c-.39-.45-.19-1.1-.73-.43,.42-.5,.32-1.59,.2-2.66-.11-1.07-.27-2.11-.13-2.37-.46-.72-.49-1.48-.46-2.41-.11,.23-.76,.39-.7-.42,1.34,.27,.56-1.48,1.53-2.14-.64,.58-.15-2.3-1.06-1.39,.11-.68,.5-.04,.82-.55-.5-1.62,.37-3.56,.21-5.57-.18-.03-.45,.3-.71-.13l.89-1.05c-.08-.4-1.01-.37-.4-1.09-.15,.1-.37,.25-.43-.01,.89-3.91-.63-8.01,1.01-11.98-.35,.54-.38,.18-.39-.24-.08,.27-.43,0-.67,.04l.68-1.66c-.66-.31-.03-1.79-.66-1.97l.11,.53c-.74-.71-1.67,.97-2.62,.86,.84,.79-1.27,2.06-.07,3.36-.2,.28-.31-.25-.53-.1,.41,.33,.49,.73,.3,1.46l-.1-.08c.08,2.06-.33,2.93-.62,5.24l.48-.17c-.07,.5-.22,.6-.34,.83,.71,.58,.05-1.39,.84-.87-.97,.65-.05,3.5-1.14,3.93-.01,.76,.55-.22,.54,.54l-.3,.2,.38,.2c-.07,.5-.44,.75-.69,.77,.03-.12-.07-.35-.09-.48-.35,.65,.1,1.83-.01,2.05l.19-.73c.26,2.09-.15,4.62,.43,6.64l.22-.15c.4,1.55-.26,1.24-.05,2.95l-.05-.06c.23,.34,.34,.79,.33,1.27-.27-.43-.49,.83-.79,.27,.49,1.69,.38,.84,1.25,1.92l-.35,.28c.36,.36,.54,.38,.7,1.23-.38-.68-.52,.6-1-.16-.64,1.93,1.1,2.6,.07,3.62,1.14,.67,.31-1.67,.61-1.23,.28-.43,.85,.57,.85,1.14,.07,.56-1.13,1.22-.74,2.71-.03-.15-.11-.14-.15-.29-.11,.63,.61,.99,.44,1.78,.7,.18,.26,.89,1.05,.72-.24-.41-.41-.83-.62-1.25,.44,.71,1.52,1.05,1.61,2.37-.19-.02-.54-.29-.74-.49-.09,.45,.43,.61,.37,1.06-.79,.23-.86-1.49-1.68-2.1-.2,.52,1.12,1.34,.15,1.24,.62,.1,.72,.46,.86,.88,.12,.42,.24,.93,.87,1.19l-.45,.16c.15,.12,.51,.31,.65,.59l-.81-.19c.43,.27,.55,.68,.67,1.11,.11,.43,.19,.9,.57,1.16-1.04-1.47,.24-.66,.11-1.46,.83,.72,.79,1.1,.7,1.61-.07,.49-.16,1.07,.77,1.91-.29-.19-.62-1.13-.12-.87,.23,.41,.52,.97,.55,1.36,1.23,1.05,.16-.52,.86-.25,0,.79,.72,.37,1.35,.66l-.31,.37c1.17,1.37,.99-.47,1.99,.77-.31,.05-.62,.1-.93,.13,.25,.13,.51,.24,.76,.36l-.46,.34c.97,.21,1.13,.43,1.78,1.05,.02-.39,.57-.67,1.21-.29,.29,.51-.49,.25,.47,.73-.36,.14-.79,.33-.96-.3-.12,.11-.37,.13-.49,.23,.31,.59,1.18,.81,1.52,1-.12-.09-.26-.21-.31-.31,.56,.08,1.12,.13,1.68,.19,.12,.28-.11,.31-.35,.34,.3,.11,.6,.01,1.02,.19-.29,.29-.45,.66-1.12,.52l1.51,.3c0,.2,.46,.76,.22,.8,.63,.58,2.11,.2,2.92,.92,.08-.04,.21-.06,.44-.02,.85,.5,1.43,1.32,2.74,1.33l.33,.92c.93,.24-.48-1.18,1.05-.79,1.11,.23,.15,.71,.43,1.05,.67-.11,1.81-.42,2.61,.46-.37,0-.6-.18-.92-.25Zm12.29,1.1c-.22,.16-.66,.55-.89,.3,.19-.6,.44-.35,.89-.3Zm9.38-14.77c.17,.16,.09,.43-.08,.72-.05-.21-.02-.45,.08-.72Zm-20.87-42.45s.02,0,.03,.01c.05,.52,.04,.33-.03-.01Zm-.26-.99c-.11-.06-.16-.02-.2,.04,.14,0,.25,.21,.33,.45,.08-.12,.1-.28-.13-.49Zm-20.68,35.02l-.08,.21c-.24-.36-.09-.28,.08-.21Z"></path><path class="cls-4" d="M359.48,200.83c-.08,.06-.18,.08-.27,.09,.08,.1,.17,.1,.27-.09Z"></path><path class="cls-4" d="M330.49,209.78l-.03-.02s-.05,.04-.07,.06l.1-.04Z"></path><path class="cls-4" d="M348.34,167.39c.03,.22,0,.36-.04,.47,.11-.04,.16-.17,.04-.47Z"></path><path class="cls-4" d="M334.56,150.96l.4,.52c-.16-.27-.12-.41-.12-.59-.09,.06-.18,.25-.28,.07Z"></path><path class="cls-4" d="M334.64,144.68c-.1-.05-.11-.17-.21-.21l-.18,.14c.22,.33,.52,.47,.39,.07Z"></path><path class="cls-4" d="M335.73,149.71c.34-.23,.04-.53-.23-.89,.01,.02,.03,.04,.04,.07-.57,.14-.18,.48,.2,.82Z"></path><path class="cls-4" d="M335.43,148.73c-.08-.12-.15-.24-.2-.37-.23,.06,.03,.17,.2,.37Z"></path><path class="cls-4" d="M336.88,154.33c0-.24-.52,.11-.43-.07-.57,.02,1.2,.99,.43,.07Z"></path><polygon class="cls-4" points="336.76 148.79 336.38 149.15 336.86 149.2 336.76 148.79"></polygon><path class="cls-4" d="M338.03,152.13l-.2-.71c-.07,.05-.16-.01-.24-.1,.18,.4,.31,.88,.44,.8Z"></path><path class="cls-4" d="M337.59,151.33c-.1-.21-.2-.4-.33-.48,.06,.11,.2,.34,.33,.48Z"></path><polygon class="cls-4" points="337.33 149.6 337.34 149.83 337.53 150.3 337.33 149.6"></polygon><path class="cls-4" d="M341.42,159.08l.48,.64c.19,0,.19-.24,0-.47-.19-.11-.38-.34-.48-.16Z"></path><path class="cls-4" d="M341.58,156.34c0,.24-.09,.3-.18,.48l.57-.26-.38-.22Z"></path><path class="cls-4" d="M342.74,158.32c.19,0,.95,.8,.47-.08-.19,0-.67-.63-.47,.08Z"></path><polygon class="cls-4" points="347.36 169.24 347.26 169.07 346.37 169.55 347.36 169.24"></polygon><path class="cls-4" d="M354.22,177.51c-.19-.96-.66,.07-.76-.83-.31-.09,.08,.73-.2,.62,.48,.4,.48,.73,.97,.2Z"></path><path class="cls-4" d="M353.26,177.31c-.08-.06-.16-.13-.27-.19,.13,.12,.21,.17,.27,.19Z"></path><polygon class="cls-4" points="316.7 154.4 316.92 153.81 316.57 154.19 316.7 154.4"></polygon><path class="cls-4" d="M315.96,153.25l.65-.14-.58-.36c.03,.14,.08,.4-.07,.5Z"></path><path class="cls-4" d="M351.73,214.28v-.17c-.16-.12-.33-.06-.67,0,.22,.07,.44,.12,.67,.16Z"></path><polygon class="cls-4" points="342.02 214.39 342.17 214.43 341.99 213.8 342.02 214.39"></polygon><path class="cls-4" d="M334.62,212.79c.27,.14,.63,.16,.91,.29-.65-.15-.69-1-.91-.29Z"></path></g></g><g><path class="cls-1" d="M196.18,114.82c-3.53-5.64-7.77-10.9-12.6-15.65-.34-.33-.82-.69-1.27-.52-.5,.19-.52,.83-.46,1.32,.38,2.86,.86,5.94,3.01,8.04-6.56-1.11-13.47-.36-19.58,2.12-.73,.3-1.58,.93-1.24,1.59,.16,.32,.55,.47,.91,.59,1.92,.6,4.04,.68,6.01,.21-2.11,.46-4.1,1.38-5.76,2.66,1.34,1.19,3.16,1.91,5.01,1.97-1.61,.4-3.65,1.57-2.94,2.96,.59,1.14,2.39,.94,3.7,.56-1.02,.24-2.09,.51-2.88,1.16s-1.17,1.82-.57,2.62c.31,.41,.82,.65,1.33,.85,2.1,.81,4.4,1.09,6.67,1.35,6.31,.74,12.63,1.47,18.94,2.21"></path><path class="cls-4" d="M197.52,114.23c-3.52-5.59-7.66-10.92-12.44-15.49-1-.96-2.22-1.37-3.53-.69-1.22,.63-1.24,1.64-1.07,2.87,.39,2.79,1.02,5.59,3.04,7.68,.74-.48,1.47-.96,2.21-1.44-6.06-.99-12.32-.62-18.18,1.25-1.17,.37-6.5,1.88-4.73,4.03,.77,.94,2.59,1.09,3.71,1.21,1.57,.17,3.12,.01,4.65-.32l-.44-1.63c-2.34,.55-4.54,1.53-6.46,2.97-.26,.19-.83,.75-.42,1.1,1.67,1.41,3.63,2.15,5.81,2.28l.32-1.72c-1.55,.43-4.84,1.72-4.28,3.89,.58,2.23,3.88,1.7,5.47,1.26,.47-.13,1.4-.57,1.23-1.21s-1.21-.54-1.67-.43c-1.92,.46-5.58,1.7-4.94,4.41,.32,1.34,1.87,1.82,3.02,2.19,1.48,.47,3.02,.71,4.55,.91,6.83,.9,13.69,1.61,20.53,2.41,1.23,.14,3.03-1.58,1.08-1.8-5.26-.61-10.52-1.23-15.78-1.84-2.52-.29-5.09-.47-7.55-1.07-.94-.23-2.91-.54-2.95-1.76-.05-1.3,1.51-1.57,2.48-1.8l-.44-1.63c-.61,.17-1.94,.55-2.14-.41-.19-.9,1.18-1.31,1.82-1.48,.98-.27,1.92-1.62,.32-1.72-1.56-.1-3.01-.65-4.22-1.66l-.42,1.1c1.54-1.15,3.19-1.92,5.06-2.36,.48-.11,1.4-.58,1.23-1.21s-1.21-.53-1.67-.43c-1.03,.22-2.08,.27-3.13,.15-.41-.05-.99-.09-1.38-.27-.81-.4-.73-.6,.05-.93,1.77-.73,3.67-1.23,5.54-1.6,4-.79,8.14-.84,12.16-.19,.5,.08,3.15-.47,2.21-1.44-1.12-1.16-1.79-2.53-2.22-4.08-.2-.74-.34-1.49-.47-2.25-.04-.23-.35-1.89-.29-1.93l-1.09,.38c-.06,0,.76,.87,.75,.86,.32,.32,.63,.64,.95,.96,.57,.59,1.14,1.19,1.7,1.8,1.16,1.27,2.28,2.57,3.36,3.91,2.15,2.65,4.13,5.44,5.95,8.33,.57,.91,3.38-.07,2.68-1.18h0Z"></path></g><g><path class="cls-4" d="M323.07,122.85c-21.83,9.3-47.13,7.24-70.35,1.85-18.57-4.31-37.95-11.59-48.26-26.97-6.57,11.56-13.13,23.13-19.7,34.69-.72,1.27-1.46,2.67-1.17,4.08,.22,1.06,.99,1.92,1.73,2.73,11.4,12.32,25,23.27,41.16,28.95,5.82,2.05,11.88,3.38,17.96,4.57,17.45,3.42,35.69,5.66,52.93,1.38,17.24-4.28,33.34-16.36,37.3-32.96,.94-3.95,1.17-8.17-.23-12s-4.62-7.19-8.75-8.11"></path><path class="cls-1" d="M322.43,121.99c-16.28,6.88-34.42,7.27-51.71,4.91-8.38-1.14-16.71-2.86-24.85-5.15-7.39-2.08-14.71-4.69-21.45-8.38-7.33-4.02-13.92-9.32-18.63-16.29-.63-.93-2.27-.31-2.71,.47-4.76,8.38-9.52,16.77-14.28,25.15-1.19,2.1-2.38,4.19-3.57,6.29-1.06,1.86-2.52,3.82-3.02,5.93s.58,3.63,1.94,5.1c1.36,1.47,2.75,2.91,4.16,4.32,11.44,11.42,24.91,21.07,40.5,25.85,8.71,2.67,17.82,4.31,26.82,5.65,9,1.34,18.15,2.08,27.25,1.51,15.28-.95,30.41-5.98,41.64-16.71,4.92-4.71,8.91-10.55,10.94-17.08,2.26-7.26,2.33-16.11-4.21-21.21-1.39-1.08-3-1.86-4.71-2.27-.71-.17-1.56-.05-2.05,.55-.39,.48-.31,1.25,.38,1.41,3.39,.82,6.1,3.21,7.63,6.32,1.79,3.65,1.74,7.91,.96,11.82-1.3,6.5-4.67,12.42-9.1,17.29-9.67,10.61-23.67,16.03-37.71,17.47-8.58,.88-17.23,.45-25.77-.62-8.66-1.08-17.36-2.63-25.81-4.79-7.74-1.98-15.11-4.94-21.99-9-6.52-3.85-12.54-8.5-18.11-13.62-2.83-2.6-5.55-5.33-8.16-8.15-.61-.66-1.35-1.37-1.64-2.24-.37-1.1,.08-2.17,.57-3.14,1.04-2.03,2.25-3.99,3.38-5.98,4.47-7.88,8.95-15.75,13.42-23.63,1.11-1.95,2.22-3.9,3.32-5.85-.9,.16-1.81,.31-2.71,.47,8.87,13.11,23.9,20.23,38.63,24.65,16.77,5.03,34.73,8.07,52.27,7.21,10.18-.5,20.27-2.53,29.68-6.51,.55-.23,1.08-.92,.68-1.5-.42-.61-1.4-.46-1.97-.22h0Z"></path></g><path class="cls-2" d="M196.31,134.33l3.54,2.96c.17,.15,.55,.13,.75,.12,.37-.02,.78-.11,1.13-.25,.21-.08,1.27-.54,.84-.89l-3.54-2.96c-.17-.15-.55-.13-.75-.12-.37,.02-.78,.11-1.13,.25-.21,.08-1.27,.54-.84,.89h0Z"></path><path class="cls-2" d="M202.32,126.86c.24,.81,.77,1.56,1.46,2.06,.85,.62,1.85,.9,2.9,.9,.37,0,.79-.1,1.13-.24,.25-.1,.63-.28,.79-.51,.11-.15,.2-.36,.02-.51-.2-.17-.51-.19-.76-.19-.03,0-.07,0-.1,0-.2,0,.27,.02,.15,0-.07,0-.15-.01-.22-.02s-.15-.02-.22-.04c-.04,0-.16-.04,0,0,.19,.05,.02,0-.01,0-.29-.08-.56-.2-.82-.35l.19,.11c-.52-.3-.96-.72-1.29-1.22l.1,.15c-.18-.28-.32-.58-.41-.9-.06-.22-.36-.29-.54-.32-.34-.05-.75,0-1.07,.1s-.71,.22-.98,.45c-.15,.13-.37,.32-.31,.55h0Z"></path><path class="cls-2" d="M207.87,115.81c-.07,.88,.16,1.68,.66,2.41,.21,.31,.47,.58,.77,.8,.43,.32,.85,.52,1.37,.67,.31,.09,.78,.02,1.08-.06,.32-.09,.73-.25,.97-.49,.15-.15,.37-.39,.29-.63-.09-.25-.33-.33-.56-.4-.03,0-.06-.02-.09-.03l.27,.09c-.28-.09-.54-.23-.78-.4l.19,.13c-.39-.28-.72-.64-.96-1.06l.1,.18c-.27-.48-.42-1-.42-1.55v.21c0-.08,0-.15,.01-.23,.02-.25-.07-.4-.3-.52-.27-.14-.67-.14-.96-.1-.38,.05-.77,.16-1.1,.37-.2,.13-.53,.35-.55,.61h0Z"></path></g><g id="smoke"><path class="cls-2" d="M148.47,267.59c-9.83,7.02-19.65,14.03-29.48,21.05-4.83,3.45-9.63,6.93-14.49,10.34-3.86,2.72-8.44,5.93-13.35,6.03-2.64,.06-5.23-1.07-7.85-1.36-2.8-.31-5.47,.07-8.07,1.17-2.36,1-4.58,2.39-6.8,3.67s-4.25,2.47-6.32,3.8c-7.76,4.96-15.39,11.21-18.88,20-3.39,8.53-2.76,19.27,4.44,25.68l.54-1.13c-6.18,2.12-8.95,7.94-10.47,13.9-1.55,6.1-1.79,12.6-5.13,18.13-1.69,2.8-4.07,5.1-7.36,5.71-.98,.18-.93,.93-.18,1.38,.99,.6,2.39,.67,3.51,.46,6.32-1.18,9.67-6.88,11.43-12.57,1.88-6.05,1.96-12.55,4.72-18.34,1.4-2.93,3.63-5.75,6.8-6.83,.54-.19,1.16-.58,.54-1.13-6.27-5.59-6.99-14.84-4.64-22.47,2.77-8.99,10.17-15.57,17.8-20.58,4.05-2.66,8.29-5.19,12.6-7.4,2.24-1.15,4.25-1.77,6.75-1.25,2.68,.56,5.29,1.26,8.05,1.2,5.27-.11,9.96-2.44,14.26-5.32,4.68-3.13,9.2-6.52,13.78-9.79,10.84-7.74,21.67-15.48,32.51-23.22,.82-.59-1.3-1.36-1.57-1.43-1-.25-2.26-.35-3.14,.28h0Z"></path><path class="cls-2" d="M150.15,278.74c-6.13,4.78-12.26,9.55-18.38,14.33-.72,.56,2.95,3.68,4.21,2.7,6.13-4.78,12.26-9.55,18.38-14.33,.72-.56-2.95-3.68-4.21-2.7h0Z"></path><path class="cls-2" d="M205.26,340.74c-7.24,10.1-18.09,16.57-27.83,23.94-4.78,3.62-9.42,7.53-13.18,12.24-1.88,2.35-3.51,4.9-4.81,7.62-1.6,3.33-2.74,6.86-4.31,10.2-1.62,3.45-3.74,6.74-7.08,8.76-1.48,.89-3.13,1.55-4.84,1.81-.77,.12-1.55,.14-2.33,.05-.39-.05-.8-.24-1.18-.26-.41-.02,.39,.3-.17-.11-.11-.08-2.89-1.8-3.06-1.06-1.58,6.92-7,12.33-13.53,14.8-3.24,1.23-6.75,1.77-10.2,1.35-1.48-.18-2.97-.54-4.32-1.17-2.1-.97-3.98-2.36-6.05-3.39-3.61-1.8-7.39-2.53-11.25-1.1-3.43,1.27-6.35,3.61-9.4,5.57-3.01,1.94-6.4,3.77-10.1,3.59-2.52-.13-4.95-.95-7.42-1.41-2.1-.4-4.22-.49-6.34-.2-9.62,1.28-16.97,9.45-22.89,16.44-.52,.62,3.49,3.51,4.28,2.59,5.43-6.4,11.79-13.53,20.22-15.75,2.06-.54,4.18-.73,6.3-.5,2.44,.26,4.79,1.05,7.21,1.46,4,.67,7.56-.34,11-2.35,5.85-3.41,12.38-10.05,19.54-6.09,3.65,2.02,7,4.17,11.17,4.96,3.39,.64,6.93,.42,10.25-.52,7.47-2.12,14.05-7.94,15.8-15.67-1.02-.35-2.04-.7-3.06-1.06,2.86,2.07,6.25,3.26,9.79,2.6,3.08-.57,5.99-2.36,8.1-4.65,5.03-5.49,6.19-13.49,10.02-19.73,6.75-11,18.26-17.79,28.33-25.35,5.79-4.34,11.36-9.08,15.6-15,.53-.75-3.62-3.5-4.28-2.59h0Z"></path><path class="cls-2" d="M70.84,402.06c6.11,1.05,12.53,.03,17.77-3.38,2.67-1.73,4.62-4.13,6.9-6.3,1.31-1.25,4.37-3.79,6.07-1.86,1.45,1.65,1.78,4.16,2.53,6.15,.92,2.43,2.34,4.5,4.71,5.7,4.63,2.34,10.48,1.33,14.32-2.05,5.13-4.53,5.1-12.37,4.99-18.64l-4.7-.31c3.96,7.83,17.38,8.8,21.84,1.03,2.38-4.13,2.48-9.34,5.55-13.09,2.61-3.19,6.64-4.81,10.29-6.47,4.15-1.89,8.54-4.03,10.9-8.13,1.07-1.85-3.67-3.28-4.55-1.75-3.85,6.67-12.61,7.58-18.37,11.95-1.56,1.18-2.95,2.56-3.94,4.26-1.14,1.96-1.81,4.12-2.46,6.28-1.11,3.68-2.49,7.9-6.59,9.1-.75,.22-1.59,.32-2.29,.29-.85-.03-1.4-.14-2.12-.41-1.62-.61-2.93-1.87-3.76-3.5-.41-.81-1.82-1.17-2.62-1.22-.54-.03-2.09,.08-2.08,.91,.1,5.5,.27,12.05-3.35,16.61-1.31,1.65-3.21,2.85-5.27,3.33-.66,.16-1.7,.23-2.09,.18-.69-.1-1.32-.35-1.96-.99-1.52-1.53-1.96-3.89-2.63-5.86-.8-2.35-1.93-4.47-4.14-5.76-2.74-1.59-6.18-1.5-9.01-.22s-4.64,3.6-6.69,5.69c-4.27,4.34-10.58,6.83-16.68,5.78-.81-.14-2.47-.27-2.74,.82s1.42,1.76,2.15,1.88h0Z"></path><path class="cls-2" d="M93,317.13c-7.99-.99-16.14,1.25-22.53,6.15s-11.85,13.56-10.12,22.1c.95,4.7,3.86,8.96,8.12,11.26-.39-1.13-.78-2.27-1.17-3.4-6.83,2.71-11.38,9.39-11.74,16.67-.09,1.88,4.16,4.2,4.29,1.6,.32-6.42,4.72-12.21,10.63-14.56,1.65-.65-.4-2.99-1.17-3.4-6.66-3.59-5.62-12.86-2.53-18.48,3.41-6.21,9.33-10.74,16.02-12.92,3.7-1.2,7.68-1.59,11.54-1.11,1.07,.13,1.69-.61,1.37-1.64-.33-1.08-1.59-2.13-2.71-2.27h0Z"></path><path class="cls-2" d="M88.85,348.79c-3.16,1.41-5.64,4.15-6.74,7.43-.07,.22,.08,.56,.15,.74,.19,.55,.44,1.1,.7,1.63s.52,1.06,.84,1.56c.04,.06,.47,.63,.49,.57,1.09-3.29,3.57-6.02,6.74-7.43,.27-.12-.75-2.17-.85-2.37-.26-.53-.52-1.06-.84-1.56-.06-.09-.36-.64-.49-.57h0Z"></path><path class="cls-2" d="M64.8,441.53c-4.88-1.54-12.11-2.91-15.14,2.63-.57,1.04-.47,2.1-.77,3.2-.23,.84-.7,.75-1.5,.86-2.24,.31-4.37,.72-5.94,2.48-3.12,3.49-1.86,8.65,1.04,11.79,1.71,1.85,3.82,3.29,5.92,4.66,2.3,1.49,4.86,2.61,7.66,2.03,5.09-1.05,6.9-6.54,7.65-11.04l-.35,.88c2.69-2.66,4.36-6.27,4.62-10.05,.26-3.73-1.8-7.12-5.94-6.6-1.01,.13-2.14,1.02-1.77,2.13,.39,1.18,2.04,1.39,3.06,1.26l-.87-.09c-.27-.21-.32-.23-.15-.06,.04,.15,.23,.31,.31,.45,.17,.31,.29,.69,.35,1.04,.21,1.17,.01,2.55-.26,3.69s-.72,2.29-1.28,3.34c-.63,1.18-1.63,1.99-2.36,3.06-.52,.77-.55,2.02-.8,2.92-.29,1.05-.65,2.08-1.13,3.06-.37,.75-.84,1.5-1.47,2.06-.54,.48-.97,.66-1.4,.6-.96-.13-1.86-.82-2.64-1.34-1.09-.71-2.17-1.44-3.2-2.25-1.65-1.3-3.32-3.04-3.73-5.18-.3-1.56-.02-3.69,1.27-4.78,.58-.49,1.32-.5,2.06-.59,1.12-.14,2.25-.29,3.28-.77,1.35-.63,2.23-1.67,2.51-3.14,.22-1.12,.15-2.16,.99-3.04,1.96-2.05,5.11-.95,7.42-.23,1.1,.35,2.61,.42,3.43-.59,.71-.87,.16-2.08-.87-2.41h0Z"></path><path class="cls-2" d="M165.15,336.29c-8.64,7.45-17.68,14.42-27.08,20.88-1.04,.71-.89,2.3-.02,3.06,1.04,.92,2.47,.76,3.54,.03,9.4-6.46,18.44-13.43,27.08-20.88,2.41-2.08-1.39-4.92-3.51-3.09h0Z"></path><path class="cls-2" d="M24.96,316.37c-1.76-.16-3.6,.16-4.98,1.32-1.15,.96-1.97,2.44-1.75,3.98,.24,1.63,1.37,2.87,2.76,3.65,1.1,.62,2.37,.98,3.62,1.19,1.05,.17,2.19,.25,3.21-.07-1.45-.5-2.9-1-4.35-1.5-1.58,1.46-.33,3.52,1.15,4.5,1.49,.98,3.42,1.47,5.18,1.5,1.24,.02,2.43-.35,3.39-1.15,1.81-1.51,2.81-4,3.43-6.21,.36-1.27,.51-2.6,.13-3.88-.33-1.11-1.11-1.84-2.12-2.35-1.67-.85-3.76-1.31-5.63-1.09-1,.12-1.93,.59-2.24,1.61-.19,.61,1.95,1.11,2.29,1.18,.58,.12,1.17,.23,1.77,.21,.23,0,.73,0,.81-.28,.15-.49,.54-.9,.91-1.03,.11-.04,.43-.04,.32-.07-.08-.02-.22,0-.31,0,.18,0,.49,.06-.28-.06-.45-.07-.88-.17-1.29-.36,.04,.02,.18,.14,.07,.03-.12-.12,.09,.07,.12,.09,1.31,1.15,1.01,3.37,.58,4.9-.47,1.68-1.16,3.42-2.19,4.84-.46,.64-1.04,1.2-1.74,1.6-.03,.02-.96,.45-.97,.38,0,0,1.11,.13,1.13,.14,.33,.08,.65,.24,.97,.32-.1-.02-.18-.12-.05-.01-.97-.76-1.99-2.29-.82-3.38,.52-.48-1.01-.98-1.24-1.06-.51-.18-1.04-.32-1.58-.39-.47-.07-1.06-.19-1.52-.04-.21,.07-.5,.12-.52,.13-.11,0-.11,0,0,0,.28,0,.56,.04,.83,.11,.17,.04,.71,.33,.87,.29-.02,0-.25-.13-.1-.04-.12-.08-.24-.16-.36-.25-.18-.14-.34-.29-.48-.46-.69-.82-1.06-1.84-.9-2.91s.74-2.01,1.56-2.68c.43-.35,.92-.64,1.44-.83,.23-.08,.46-.14,.7-.18,0,0,.28-.05,.14-.02,.48-.08-.26-.04,.22,0,.37,.03,1.9,0,1.07-.66s-2.25-.89-3.28-.98h0Z"></path><path class="cls-2" d="M82.2,281.86c-2.41,.72-3.67,3.29-3.29,5.67,.08,.53,.28,1.08,.57,1.54,.19,.3,.4,.62,.64,.88,.41,.44,.98,.74,1.54,.95,1.13,.44,2.37,.61,3.58,.51,2.24-.19,4.42-1.31,5.58-3.27,.65-1.1,.87-2.3,.68-3.56-.17-1.12-.8-2.23-1.56-3.05-1.93-2.12-5.38-3.19-7.89-1.41-1.01,.71-1.1,2.16-.25,3.05,.85,.89,2.38,1.32,3.46,.55,.14-.1,.28-.18,.43-.26l-.52,.26c.2-.09,.4-.16,.61-.2l-.59,.12c.21-.04,.42-.06,.63-.05l-.63-.02c.27,.01,.53,.05,.79,.12l-.65-.17c.27,.08,.52,.18,.76,.31l-.59-.32c.3,.16,.58,.36,.83,.58l-.48-.42c.28,.25,.52,.52,.74,.83l-.35-.5c.19,.28,.35,.58,.47,.9l-.2-.55c.1,.29,.17,.59,.2,.89l-.05-.57c.02,.31,0,.62-.07,.92l.13-.56c-.09,.36-.22,.69-.41,1.02l.29-.49c-.22,.36-.48,.68-.78,.96l.42-.38c-.34,.3-.71,.55-1.12,.75l.52-.26c-.42,.2-.85,.35-1.3,.45l.59-.12c-.43,.09-.86,.13-1.3,.12l.63,.02c-.41-.01-.8-.07-1.2-.17l.65,.17c-.33-.09-.65-.22-.96-.38l1.06,.74c-.09-.1-.17-.2-.25-.31l.35,.5c-.1-.16-.18-.32-.25-.49l.2,.55c-.09-.25-.15-.5-.18-.77l.05,.57c-.03-.35,0-.7,.08-1.04l-.13,.56c.09-.34,.22-.66,.4-.97l-.29,.49c.16-.25,.34-.47,.56-.67l-.42,.38c.18-.16,.38-.29,.59-.39l-.52,.26c.12-.06,.25-.1,.38-.14,1.16-.35,1.72-1.76,1.12-2.81-.66-1.15-2.02-1.68-3.28-1.31h0Z"></path></g></svg>