<svg transform="scale(1)" version="1.1" id="HqbdPbDaHa" xmlns="http://www.w3.org/2000/svg" xmlns:xlink="http://www.w3.org/1999/xlink" x="0px" y="0px" viewBox="0 0 500 500" xml:space="preserve" class="pbimage_pbimage__wrapper__image__0LEis false"><title>Rocket Launch 1</title><style type="text/css"> .st0{fill:#59BE4C;} .st1{fill:#FFFFFF;} .st2{fill:#000005;}
 .st2{fill:#000005;}
 .st1{fill:#FFFFFF;}
 .st0{fill:#604c6b;}</style><g id="planet"><path class="st0" d="M415.2,126.3c-0.1,9.1-5.7,17.2-14.2,20.5c-8.1,3-17.3,0.5-22.7-6.4c-5.6-7.2-6.2-17.1-1.6-24.9
		c4.5-7.4,13.3-12.1,22-10.3C408.6,107.2,415.1,116.4,415.2,126.3c0,2,4.9,2.7,4.9,0.4c-0.2-10.6-7-19.9-17-23.4
		c-10.1-3.6-21.9-1-28.9,7.4c-6.6,8.1-7.4,19.4-2,28.3c5.9,9.2,16.7,14,27.5,12c11.7-2.2,20.2-12.3,20.3-24.2
		C420.1,124.7,415.2,123.9,415.2,126.3z" fill="#604c6b"></path><path class="st0" d="M363.5,127.1c-2,0.9-3.8,2-5.7,3.1c-2,1.2-5.7,3.3-5.9,5.9c-0.2,2.1,2,3.7,3.7,4.5c2.3,0.9,4.7,1.3,7.1,1.3
		c5,0.1,10.1-0.2,15.1-0.8c11.5-1.2,22.9-3.3,34-6.2c4.7-1.2,9.4-2.6,14-4.4c2.8-1.1,6.1-2.4,8.2-4.7c2.6-2.8,0.1-7-2.5-8.9
		c-3.3-2.4-7.6-2.9-11.5-2.5c-0.3,0-0.5,0-0.8,0.1c-2.2,0.3,1.1,3.8,2.6,3.6c2.4-0.4,4.9-0.3,7.3,0.3l0.3,0.1l0.6,0.2
		c0.4,0.2,0.1,0.1,0.2,0.1c0.5,0.2-0.1-0.1,0.2,0.1s-0.1-0.3,0.1,0.1c-0.2-0.3,0,0,0.1,0.2c-0.2-0.3,0.1,0.2,0.1,0.2
		c0.1,0.2,0.1,0.4,0.2,0.6c0.1,0.5,0.1,1,0,1.5c0-0.2,0,0.1-0.1,0.3c-0.1,0.2-0.2,0.4-0.4,0.5c-1.6,2-4.4,3.1-6.8,4.1
		c-4,1.6-8.1,3-12.2,4.1c-10.2,2.8-20.5,4.9-31,6.2c-4.8,0.6-9.6,1.1-14.4,1.4c-2.4,0.1-4.8,0.1-7.1,0c-1-0.1-2-0.2-3-0.4
		c-0.1,0-0.6-0.2-0.4-0.1s-0.2-0.1-0.3-0.1l0.2,0.1c-0.3-0.3,0.2,0.2,0.2,0.2c-0.2-0.2,0.5,0.6,0.5,0.5c0.1,0.1,0.1,0.2,0.1,0.3
		c0.1,0.2,0.1-0.1,0,0.1s0-0.3,0.1-0.5s-0.1,0.1,0-0.1c0-0.1,0.1-0.2,0.2-0.3c0.1-0.2,0.3-0.5,0.5-0.7c0.9-1,1.9-1.9,3.1-2.6
		c2.1-1.4,4.3-2.6,6.5-3.7l0.4-0.2C368.5,129.9,365,126.4,363.5,127.1L363.5,127.1z" fill="#604c6b"></path><circle class="st0" cx="144.9" cy="116" r="19.4" fill="#604c6b"></circle><path class="st0" d="M162,116.9c0,3.8-1.1,7.5-3.2,10.6c-1.8,2.6-4.4,5.3-7.4,6.3c-7.1,2.3-15.3-1.4-19.5-7.1
		c-4.6-6.2-5.1-14.5-1.3-21.1c1.7-3,4.2-5.5,7.4-7.1c3-1.4,6.9-1.1,10-0.2C156.2,100.6,162,108.2,162,116.9c0,0.2,4.7-0.6,4.7-1.8
		c-0.1-8.6-5.8-16.2-14.1-18.7c-8.4-2.4-18.8,1-24.5,7.6c-5.7,6.6-6.4,16.1-1.7,23.4c4.8,7.5,13.9,10.4,22.4,8.2
		c5-1.2,9.5-3.8,13-7.5c3.2-3.6,4.9-8.2,4.9-13c0-0.4-2.3,0.3-2.5,0.4C163.6,115.7,162,116.2,162,116.9z" fill="#604c6b"></path><path class="st1" d="M153.3,97.8c-2.2,1.1-3.8,3-4.6,5.4c-0.3,1.2-0.5,2.4-0.6,3.7c-0.1,1.1-0.1,2.2,0,3.4c0.4,2.4,2.4,3.3,4.6,3.6
		c2.5,0.4,5.4,0.2,7.5-1.3c2.3-1.7,3.5-4.5,4.9-6.9c0.6-1-0.9-1.4-1.6-1.3c-1.2,0.1-2.3,0.8-2.9,1.9l-1,1.8c-0.2,0.4-0.6,1-0.7,1.3
		c-0.2,0.4-0.5,0.8-0.8,1.2c-0.2,0.2-0.2,0.2,0,0c-0.1,0.1-0.2,0.2-0.3,0.3c-0.3,0.3,0.1-0.1,0.2-0.1c-0.2,0.1-0.2,0.1,0,0
		c-0.3,0.1-0.3,0.1-0.1,0h-0.5h-0.1c-0.5,0-1,0-1.4-0.1l-0.8-0.1c-0.4,0,0.1,0-0.3,0c-0.2-0.1-0.5-0.1-0.7-0.2
		c-0.1,0-0.2-0.1-0.3-0.2c-0.7-0.5-1.1-1.3-1.1-2.1c0-1.2,0-2.3,0.1-3.5c0.1-1,0.3-2.1,0.8-3c0.2-0.3,0.4-0.7,0.6-0.9
		c0.2-0.2,0.2-0.2,0,0l0.3-0.3c0.2-0.2,0.2-0.2,0,0c0.2-0.2,0.2-0.2-0.1,0c0.7-0.4,2.2-1.3,1.7-2.3S154,97.3,153.3,97.8L153.3,97.8z
		" fill="#FFFFFF"></path><path class="st1" d="M153.1,123.1c0,0.3,0,0.6-0.1,0.8l0.1-0.5c0,0.2-0.1,0.3-0.2,0.5c-0.2,0.4,0-0.2,0.1-0.2s-0.1,0.2-0.1,0.2
		s-0.1,0.2-0.2,0.2c0.4-0.6,0.3-0.4,0.2-0.2l-0.2,0.2l0.3-0.2L153,124l-0.2,0.2c-0.2,0.1,0.7-0.3,0.3-0.2l-0.2,0.1
		c-0.2,0.1,0.7-0.2,0.2-0.1l-0.3,0.1c-0.4,0.1,0.4,0,0.2,0s-0.4,0-0.6,0l0.5,0.1c-0.3,0-0.7-0.1-1-0.3l0.4,0.2
		c-0.4-0.2-0.7-0.4-1-0.7l0.3,0.3c-0.3-0.3-0.5-0.6-0.7-1l0.2,0.4c-0.2-0.4-0.2-0.8-0.3-1.2v0.5c0-0.3,0-0.7,0.1-1l-0.1,0.5
		c0.1-0.2,0.1-0.3,0.2-0.5c0.2-0.4,0,0.2-0.1,0.2s0.1-0.2,0.1-0.2s0.1-0.1,0.2-0.2c-0.4,0.6-0.3,0.4-0.2,0.2s0.1-0.1,0.2-0.2
		c-0.4,0.3-0.5,0.4-0.3,0.3l0.1-0.1l0.2-0.1c0.2-0.2-0.7,0.3-0.3,0.2l0.2-0.1c0.2-0.1-0.7,0.2-0.2,0.1h0.3c0.4-0.1-0.4,0-0.2,0
		c0.2,0,0.4,0,0.6,0l-0.5-0.1c0.3,0,0.7,0.1,1,0.3l-0.4-0.2c0.4,0.2,0.7,0.4,1,0.7l-0.3-0.3c0.3,0.3,0.5,0.6,0.7,1l-0.2-0.4
		c0.1,0.4,0.2,0.8,0.3,1.2L153.1,123.1l0,0.1c-0.1,0.5,0.2,1,0.6,1.3c0.5,0.3,1,0.4,1.5,0.2c0.6-0.1,1.2-0.5,1.7-0.9
		c0.4-0.4,0.7-0.9,0.8-1.5c0-1-0.3-2.1-0.9-2.9c-0.6-0.8-1.4-1.4-2.4-1.8c-2.5-0.7-5.2,0.2-6.8,2.2c-1.5,1.7-1.8,4.1-0.7,6.1
		c1.2,1.8,3.4,2.7,5.5,2.2c2.7-0.6,5.2-2.9,5.2-5.8c0.1-0.5-0.1-1-0.5-1.3c-0.5-0.3-1-0.4-1.5-0.2c-0.6,0.1-1.2,0.5-1.7,0.9
		C153.5,122,153.2,122.5,153.1,123.1z" fill="#FFFFFF"></path><path class="st1" d="M131.2,104.3c-1.3,0.2-0.8,0-0.1,0.3c0.4,0.2,0.8,0.5,1.2,0.8c0.6,0.5,1.1,1.1,1.6,1.7c1.1,1.4,2,2.9,2.8,4.5
		c1.6,3.7,0.3,7-1.5,10.3c-0.8,1.4-2.1,3.1-2.1,4.7c-0.1,1.5,1.1,2.5,2.4,3c1.5,0.6,3,0.6,4.5,1c1.7,0.5,1.8,2.4,1.9,3.9
		c0,1.2,5,1.1,5,0.1c-0.1-1.8-0.4-3.5-2-4.5s-3.4-0.7-5.1-1.3c-2.3-0.8-1.6-3-0.7-4.6c1.1-1.8,2-3.6,2.8-5.5c1.5-4,0.1-7.7-2.3-11.1
		c-1.1-1.6-2.5-3-4.2-3.9c-2.1-1-4.4-1.3-6.6-0.9c-0.6,0.1-1.7,0.4-0.9,1C128.6,104.5,130.3,104.4,131.2,104.3L131.2,104.3z" fill="#FFFFFF"></path><path class="st0" d="M102.3,176.5v4.4c0,0.5,0.2,1,0.5,1.5c0.3,0.6,0.7,1.1,1.1,1.6l0.4,0.4c0.2,0.2,0.4,0.3,0.7,0.3
		c0.3,0,0.4-0.2,0.4-0.6v-4.4c-0.1-0.5-0.2-1-0.5-1.5c-0.3-0.6-0.7-1.1-1.1-1.6l-0.4-0.4c-0.2-0.2-0.4-0.3-0.7-0.3
		C102.4,175.9,102.3,176.2,102.3,176.5L102.3,176.5z" fill="#604c6b"></path><path class="st0" d="M101.6,189.1v4.9c0.1,0.5,0.4,1,0.8,1.3c0.5,0.4,1.1,0.6,1.8,0.7c0.6,0.1,1.1,0,1.7-0.3
		c0.4-0.2,0.6-0.7,0.6-1.1v-4.9c-0.1-0.5-0.4-1-0.8-1.3c-0.5-0.4-1.1-0.6-1.8-0.7c-0.6-0.1-1.1,0-1.7,0.3
		C101.8,188.2,101.5,188.7,101.6,189.1L101.6,189.1z" fill="#604c6b"></path><path class="st0" d="M108.5,187.8h2.3c0.2,0,0.5,0,0.7-0.1c0.2-0.1,0.4-0.2,0.5-0.4c0.1-0.2,0.2-0.4,0.2-0.6c0-0.2,0-0.5-0.1-0.7
		c-0.3-0.6-0.7-1-1.2-1.4c-0.5-0.4-1.1-0.6-1.7-0.6h-2.4c-0.2,0-0.5,0-0.7,0.1c-0.2,0.1-0.4,0.2-0.5,0.4c-0.1,0.2-0.2,0.4-0.2,0.6
		c0,0.2,0,0.5,0.2,0.7c0.3,0.6,0.7,1,1.2,1.4C107.3,187.5,107.9,187.7,108.5,187.8z" fill="#604c6b"></path><path class="st0" d="M99.1,184.6h-3.5c-0.5,0-0.9,0.1-1.3,0.4c-0.2,0.3-0.2,0.7,0,1c0.3,0.4,0.8,0.8,1.3,0.9
		c0.6,0.3,1.2,0.4,1.9,0.4h3.5c0.5,0,0.9-0.1,1.3-0.4c0.2-0.3,0.2-0.7,0-1c-0.3-0.4-0.8-0.8-1.3-1
		C100.4,184.7,99.8,184.6,99.1,184.6L99.1,184.6z" fill="#604c6b"></path><path class="st0" d="M72.6,59.9v4.4c0.1,0.5,0.2,1,0.5,1.5c0.3,0.6,0.7,1.1,1.1,1.6l0.4,0.4c0.2,0.2,0.4,0.3,0.7,0.3
		c0.3,0,0.4-0.2,0.4-0.6v-4.4c0-0.5-0.2-1-0.5-1.5c-0.3-0.6-0.7-1.1-1.1-1.6l-0.4-0.4c-0.2-0.2-0.4-0.3-0.7-0.3
		C72.7,59.3,72.6,59.5,72.6,59.9L72.6,59.9z" fill="#604c6b"></path><path class="st0" d="M71.9,72.5v4.9c0.1,0.5,0.4,1,0.8,1.3c0.5,0.4,1.1,0.6,1.8,0.7c0.6,0.1,1.2,0,1.7-0.3c0.4-0.2,0.6-0.7,0.6-1.1
		V73c-0.1-0.5-0.4-1-0.8-1.3c-0.5-0.4-1.1-0.6-1.8-0.7c-0.6-0.1-1.1,0-1.6,0.3C72.1,71.6,71.9,72,71.9,72.5L71.9,72.5z" fill="#604c6b"></path><path class="st0" d="M78.9,71.1h2.4c0.2,0,0.5,0,0.7-0.2c0.4-0.1,0.7-0.5,0.7-1c0-0.2,0-0.5-0.1-0.7c-0.3-0.6-0.7-1-1.2-1.4
		c-0.5-0.3-1.1-0.5-1.7-0.6h-2.4c-0.2,0-0.5,0-0.7,0.2c-0.2,0.1-0.4,0.2-0.5,0.4c-0.1,0.2-0.2,0.4-0.2,0.7c0,0.2,0,0.5,0.1,0.7
		c0.3,0.6,0.7,1,1.2,1.4C77.6,71,78.2,71.2,78.9,71.1L78.9,71.1z" fill="#604c6b"></path><path class="st0" d="M69.5,68h-3.5c-0.5,0-0.9,0.1-1.3,0.4c-0.2,0.3-0.2,0.7,0,1c0.3,0.4,0.8,0.8,1.3,1c0.6,0.2,1.2,0.4,1.9,0.4
		h3.5c0.5,0,0.9-0.1,1.3-0.4c0.2-0.3,0.2-0.7,0-1c-0.3-0.4-0.8-0.8-1.3-1C70.8,68.1,70.1,68,69.5,68z" fill="#604c6b"></path><path class="st0" d="M370.9,203.3v4.4c0.1,0.5,0.2,1,0.5,1.5c0.3,0.6,0.7,1.1,1.1,1.6l0.4,0.4c0.2,0.2,0.4,0.3,0.7,0.3
		c0.3,0,0.4-0.2,0.4-0.6v-4.4c-0.1-0.5-0.2-1-0.5-1.5c-0.3-0.6-0.7-1.1-1.1-1.6l-0.4-0.4c-0.2-0.2-0.4-0.3-0.7-0.3
		C371,202.7,370.9,203,370.9,203.3L370.9,203.3z" fill="#604c6b"></path><path class="st0" d="M370.1,215.9v4.9c0.1,0.5,0.4,0.9,0.9,1.2c0.5,0.4,1.1,0.6,1.8,0.7c0.6,0.1,1.1,0,1.6-0.3
		c0.4-0.2,0.6-0.7,0.6-1.1v-4.9c-0.1-0.5-0.4-1-0.8-1.3c-0.5-0.4-1.1-0.6-1.8-0.7c-0.6-0.1-1.1,0-1.6,0.3
		C370.4,215,370.2,215.4,370.1,215.9L370.1,215.9z" fill="#604c6b"></path><path class="st0" d="M377.1,214.6h2.4c0.3,0,0.5,0,0.7-0.2c0.2-0.1,0.4-0.2,0.5-0.4c0.1-0.2,0.2-0.4,0.2-0.6c0-0.3,0-0.5-0.1-0.7
		c-0.6-1.1-1.7-1.9-3-1.9h-2.4c-0.2,0-0.5,0-0.7,0.1c-0.2,0.1-0.4,0.2-0.5,0.4c-0.1,0.2-0.2,0.4-0.2,0.6c0,0.2,0,0.5,0.1,0.7
		c0.3,0.6,0.7,1,1.2,1.4C375.9,214.3,376.5,214.5,377.1,214.6L377.1,214.6z" fill="#604c6b"></path><path class="st0" d="M367.7,211.4h-3.5c-0.5,0-0.9,0.1-1.3,0.4c-0.2,0.3-0.2,0.7,0,1c0.3,0.4,0.8,0.8,1.3,1
		c0.6,0.2,1.2,0.4,1.9,0.4h3.5c0.5,0,0.9-0.1,1.3-0.4c0.2-0.3,0.2-0.7,0-1c-0.3-0.4-0.8-0.8-1.3-1
		C369,211.6,368.4,211.4,367.7,211.4L367.7,211.4z" fill="#604c6b"></path><path class="st0" d="M358.1,44.5v4.4c0.1,0.5,0.2,1,0.5,1.5c0.3,0.6,0.7,1.1,1.1,1.6l0.4,0.3c0.2,0.2,0.4,0.3,0.7,0.3
		c0.3,0,0.4-0.2,0.4-0.6v-4.4c-0.1-0.5-0.2-1-0.5-1.5c-0.3-0.6-0.7-1.1-1.1-1.6l-0.4-0.4c-0.2-0.2-0.4-0.3-0.7-0.3
		C358.2,43.9,358.1,44.2,358.1,44.5z" fill="#604c6b"></path><path class="st0" d="M357.4,57.1V62c0.1,0.5,0.4,1,0.8,1.3c0.5,0.4,1.1,0.7,1.8,0.7c0.6,0.1,1.1,0,1.6-0.3c0.4-0.2,0.6-0.7,0.6-1.1
		v-4.9c-0.1-0.5-0.4-1-0.8-1.3c-0.5-0.4-1.1-0.6-1.8-0.7c-0.6-0.1-1.1,0-1.6,0.3C357.6,56.2,357.4,56.7,357.4,57.1L357.4,57.1z" fill="#604c6b"></path><path class="st0" d="M364.4,55.8h2.4c0.2,0,0.5,0,0.7-0.2c0.2-0.1,0.4-0.2,0.5-0.4c0.1-0.2,0.2-0.4,0.2-0.6c0-0.2,0-0.5-0.1-0.7
		c-0.3-0.6-0.7-1-1.2-1.4c-0.5-0.4-1.1-0.6-1.7-0.6h-2.4c-0.2,0-0.5,0-0.7,0.2c-0.4,0.1-0.7,0.5-0.7,1c0,0.2,0,0.5,0.1,0.7
		c0.3,0.6,0.7,1,1.2,1.4C363.1,55.5,363.7,55.7,364.4,55.8L364.4,55.8z" fill="#604c6b"></path><path class="st0" d="M355,52.6h-3.5c-0.5,0-0.9,0.1-1.3,0.4c-0.2,0.3-0.2,0.7,0,1c0.3,0.4,0.8,0.8,1.3,1c0.6,0.3,1.2,0.4,1.9,0.4
		h3.5c0.5,0,0.9-0.1,1.3-0.4c0.2-0.3,0.2-0.7,0-1c-0.3-0.4-0.8-0.8-1.3-1C356.3,52.7,355.6,52.6,355,52.6L355,52.6z" fill="#604c6b"></path><path class="st0" d="M123.4,356.3v4.4c0.1,0.5,0.2,1,0.5,1.5c0.3,0.6,0.7,1.1,1.1,1.6l0.4,0.4c0.2,0.2,0.4,0.3,0.7,0.3
		c0.3,0,0.4-0.2,0.4-0.6v-4.4c0-0.5-0.2-1-0.4-1.5c-0.3-0.6-0.7-1.1-1.1-1.6l-0.4-0.4c-0.2-0.2-0.4-0.3-0.7-0.3
		C123.5,355.7,123.4,356,123.4,356.3L123.4,356.3z" fill="#604c6b"></path><path class="st0" d="M122.6,368.9v4.9c0.1,0.5,0.4,1,0.8,1.3c0.5,0.4,1.1,0.6,1.8,0.7c0.6,0.1,1.1,0,1.7-0.3
		c0.4-0.2,0.6-0.7,0.6-1.1v-4.9c-0.1-0.5-0.4-1-0.8-1.3c-0.5-0.4-1.1-0.6-1.8-0.7c-0.6-0.1-1.1,0-1.6,0.3
		C122.9,368,122.6,368.4,122.6,368.9z" fill="#604c6b"></path><path class="st0" d="M129.6,367.6h2.4c0.2,0,0.5,0,0.7-0.1c0.2-0.1,0.4-0.2,0.5-0.4c0.1-0.2,0.2-0.4,0.2-0.6c0-0.2,0-0.5-0.1-0.7
		c-0.3-0.6-0.7-1-1.2-1.4c-0.5-0.4-1.1-0.6-1.7-0.6H128c-0.2,0-0.5,0-0.7,0.1c-0.2,0.1-0.4,0.2-0.5,0.4c-0.1,0.2-0.2,0.4-0.2,0.6
		c0,0.2,0,0.5,0.1,0.7c0.3,0.6,0.7,1,1.2,1.4C128.4,367.3,129,367.5,129.6,367.6L129.6,367.6z" fill="#604c6b"></path><path class="st0" d="M120.2,364.4h-3.5c-0.5,0-0.9,0.1-1.3,0.4c-0.2,0.3-0.2,0.7,0,1c0.3,0.4,0.8,0.8,1.3,1
		c0.6,0.3,1.2,0.4,1.9,0.4h3.5c0.5,0,0.9-0.1,1.3-0.4c0.2-0.3,0.2-0.7,0-1c-0.3-0.4-0.8-0.8-1.3-1
		C121.5,364.5,120.9,364.4,120.2,364.4L120.2,364.4z" fill="#604c6b"></path><path class="st0" d="M380.2,380.9v4.4c0.1,0.5,0.2,1,0.5,1.5c0.3,0.6,0.7,1.1,1.1,1.6l0.4,0.4c0.2,0.2,0.4,0.3,0.7,0.4
		c0.3,0,0.4-0.2,0.4-0.6V384c-0.1-0.5-0.2-1-0.5-1.5c-0.3-0.6-0.7-1.1-1.1-1.6l-0.4-0.4c-0.2-0.2-0.4-0.3-0.7-0.3
		C380.3,380.3,380.2,380.6,380.2,380.9L380.2,380.9z" fill="#604c6b"></path><path class="st0" d="M379.5,393.5v4.9c0.1,0.5,0.4,1,0.8,1.3c0.5,0.4,1.1,0.6,1.8,0.7c0.6,0.1,1.1,0,1.6-0.3
		c0.4-0.2,0.6-0.7,0.6-1.1V394c-0.1-0.5-0.4-1-0.8-1.3c-0.5-0.4-1.1-0.6-1.8-0.7c-0.6-0.1-1.1,0-1.6,0.3
		C379.7,392.6,379.5,393,379.5,393.5L379.5,393.5z" fill="#604c6b"></path><path class="st0" d="M386.5,392.1h2.4c0.2,0,0.5,0,0.7-0.1c0.2-0.1,0.4-0.2,0.5-0.4c0.1-0.2,0.2-0.4,0.2-0.6c0-0.2,0-0.5-0.1-0.7
		c-0.3-0.6-0.7-1-1.2-1.4c-0.5-0.4-1.1-0.6-1.7-0.6h-2.4c-0.2,0-0.5,0-0.7,0.1c-0.2,0.1-0.4,0.2-0.5,0.4c-0.1,0.2-0.2,0.4-0.2,0.6
		c0,0.2,0,0.5,0.1,0.7c0.3,0.6,0.7,1,1.2,1.4C385.3,391.9,385.9,392.1,386.5,392.1L386.5,392.1z" fill="#604c6b"></path><path class="st0" d="M377.1,389h-3.5c-0.5,0-0.9,0.1-1.3,0.4c-0.2,0.3-0.2,0.7,0,1c0.3,0.4,0.8,0.8,1.3,1c0.6,0.3,1.2,0.4,1.9,0.4
		h3.5c0.5,0,0.9-0.1,1.3-0.4c0.2-0.3,0.2-0.7,0-1c-0.3-0.4-0.8-0.8-1.3-1C378.4,389.1,377.7,389,377.1,389L377.1,389z" fill="#604c6b"></path></g><g id="rocket"><path class="st1" d="M206.7,127.7c0,0-21.4,85.4-61.7,128.1s-80.4,71.1-74.8,73s136.5,0,136.5,0V127.7z"></path><path class="st2" d="M204.4,126.7c-1.6,6.4-3.6,12.8-5.6,19.2c-4.7,14.9-10.1,29.5-16.3,43.9c-7.4,17.1-16,33.8-26.8,49
		c-5.9,8.1-12.4,15.7-19.5,22.8c-9,9.2-18.2,18-27.7,26.7c-7.6,7-15.3,13.8-23.1,20.6c-5,4.4-10,8.7-14.7,13.4
		c-1.2,1.1-2.3,2.4-3.2,3.8c-0.9,1.6,0.6,2.5,2,3.2c2.2,1.1,4.7,1.1,7.2,1.2c9.5,0.4,19.1,0.4,28.6,0.4c13.8,0,27.5-0.1,41.2-0.2
		c13-0.1,26-0.2,38.9-0.4l21.7-0.3h1c0.2,0,0.3,0,0.4-0.1V137c0-2.6,0-5.2,0-7.8v-0.3c0-0.8-1.4-1.4-2-1.6
		C206.7,127.1,204.4,126.2,204.4,126.7l0,198.1c-0.1,0.9-0.1,1.8,0,2.7c0,0.1,0,0.2,0,0.3l0.4-0.1l-15.1,0.2
		c-11.8,0.2-23.6,0.3-35.4,0.4c-13.9,0.1-27.8,0.2-41.7,0.2c-11.1,0-22.2,0-33.2-0.2c-3-0.1-6.1-0.1-9.1-0.4l-0.6-0.1
		c-0.2,0-0.8-0.1-0.2,0c-0.1,0-0.3,0-0.4-0.1c0,0-0.1,0-0.1,0c0.9,0.2,1.7,0.5,2.4,1.1c0.2,0.2,0.5,0.4,0.7,0.6
		c0-0.1-0.1-0.1-0.1-0.2c-0.1,0.1,0-0.2,0.1-0.4c0.2-0.5,0.5-1,0.8-1.4c1.2-1.6,2.5-3,4-4.3c2.2-2.1,4.4-4.2,6.7-6.2
		c6.7-6,13.5-11.9,20.2-17.9c8.8-7.9,17.5-15.9,26-24.2c8.3-8.1,16.7-16.2,24-25.2c11.6-14.2,20.7-30.5,28.5-47.1
		c7-15,13.2-30.4,18.4-46.1c2.9-8.7,5.7-17.5,8-26.4c0.1-0.4,0.2-0.8,0.3-1.2C209.2,127.7,204.6,126.1,204.4,126.7z"></path><path class="st1" d="M293,127.7c0,0,21.4,85.4,61.6,128.1s80.4,71.1,74.9,73s-136.5,0-136.5,0V127.7z"></path><path class="st2" d="M290.7,127.8c1.6,6.3,3.5,12.5,5.4,18.8c4.6,14.8,10,29.4,16.1,43.6c7.3,16.9,15.7,33.6,26.2,48.8
		c5.6,7.9,11.8,15.4,18.5,22.3c8.9,9.2,18.1,18.2,27.5,26.9c7.8,7.2,15.7,14.2,23.6,21.2c5.4,4.7,10.3,9,15.4,13.9
		c1.4,1.3,2.7,2.7,3.9,4.2c-0.5-0.7,0,0.1,0.1,0.3s0.1,0.2,0.1,0.3c-0.4-0.5-0.1-0.5-0.1-0.1s0-0.6,0-0.3s0.2-0.6,0.1-0.3
		c0.1-0.2,0.5-0.4,0.6-0.5s0.3-0.2,0.1,0s-0.1,0-0.1,0c-0.2,0.2-0.5,0,0.1,0c-0.4,0-0.8,0.1-1.2,0.1c-1.2,0.1-2.5,0.2-3.7,0.2
		c-9.7,0.4-19.4,0.4-29.1,0.4c-13.7,0-27.3-0.1-41-0.2c-12.8-0.1-25.6-0.2-38.4-0.4c-7.1-0.1-14.3-0.2-21.4-0.3h-1l2.9,2.5V136.4
		c0-2.6,0-5.2,0-7.8v-0.3c-0.1-1.3-1-2.3-2.3-2.5c-1-0.2-2.6,0.3-2.6,1.6v192.9c0,2.6,0,5.2,0,7.8v0.3c0.1,1.5,1.4,2.6,2.9,2.5
		c5.1,0.1,10.2,0.1,15.3,0.2c12,0.1,24,0.3,36,0.4c14,0.1,28,0.2,42,0.2c11,0,22.1,0,33.2-0.2c2.9-0.1,5.8-0.1,8.7-0.4
		c1,0,1.9-0.2,2.8-0.6c1.5-0.9,1.2-2.7,0.5-4c-1-1.6-2.2-3-3.5-4.3c-2-2-4.1-4-6.2-5.9c-6.4-5.8-13-11.5-19.5-17.3
		c-8.7-7.8-17.3-15.6-25.7-23.7c-8.6-8.3-17.4-16.7-25.1-25.9c-11.9-14.1-21.1-30.3-29-46.9c-7.2-15.2-13.5-30.7-18.8-46.7
		c-3-8.9-5.8-17.8-8.2-26.9l-0.3-1.3C294.8,125.2,290,124.9,290.7,127.8z"></path><path class="st0" d="M189.7,357.1c0,0,7.9-30.7,11.7-31.4s87.6-3,94.7,0s13.8,31.4,13.8,31.4H189.7z"></path><path class="st2" d="M191.9,356.1c1.1-4.2,2.3-8.5,3.6-12.7c1-3.4,2.1-6.7,3.3-10c0.8-2.5,1.9-5,3.3-7.3c0.2-0.3,0.5-0.7,0.6-0.8
		c0.2-0.4,0,0.2-0.1,0s-3.1,1.6-3,1.5s0.1,0-0.1,0c0.4,0,0.8-0.1,1.2-0.1c1.5-0.1,3-0.2,4.5-0.2c5.2-0.2,10.5-0.4,15.7-0.5
		c14.3-0.4,28.7-0.6,43-0.6c6.2,0,12.4,0.1,18.6,0.3c3.5,0.1,7.3,0.1,10.8,1c1.7,0.5,3.1,2.1,4.1,3.6c1.8,2.9,3.4,6,4.5,9.2
		c2.2,5.8,4,11.7,5.5,17.6l0.3,1.1l4.3-2.4H196.7c-1.6,0-3.1-0.1-4.7,0h-0.2c-1,0.2-2,0.6-2.9,1.2c-0.2,0.1-1.7,1.2-1.3,1.2h115.3
		c1.6,0,3.1,0.1,4.7,0h0.2c0.6,0,4.5-1.5,4.3-2.4c-1.1-4.7-2.5-9.5-4-14.1c-1.2-3.6-2.6-7.2-4.3-10.6c-1.2-2.3-2.6-5.2-5-6.5
		c-1.1-0.5-2.3-0.8-3.5-0.9c-2-0.2-3.9-0.4-5.9-0.5c-6-0.3-12-0.4-18-0.4c-14.8-0.1-29.5,0.2-44.3,0.5c-5.6,0.1-11.2,0.3-16.8,0.5
		c-2.8,0.1-6.2-0.2-8.8,1.1c-1.4,0.6-2.6,1.5-3.6,2.6c-0.6,0.9-1.2,1.9-1.6,3c-1.3,3-2.5,6.1-3.5,9.2c-1.9,5.7-3.5,11.4-5.1,17.2
		l-0.3,1c-0.1,0.5,1.6-0.3,1.8-0.4C189.8,357.5,191.7,356.8,191.9,356.1z"></path><path class="st2" d="M224.2,357.1c0,0,3.7,8.2,4.9,8.5s41.6-0.3,45-1.7s5.1-6.8,5.1-6.8H224.2z"></path><path class="st2" d="M221.9,357.4c0.9,2,1.9,4,2.9,5.9s2.2,4.1,4.6,4.4c3.3,0.2,6.6,0.2,9.9,0c10.7-0.1,21.6-0.1,32.2-1.2
		c1.7,0,3.5-0.5,5-1.3c2.5-1.5,4.2-4.6,5.1-7.3c0.5-1.4-1.2-2.7-2.5-2.7h-55c-1.1,0-2.4,0.4-2.4,1.8c0.2,1.2,1.3,2.2,2.5,2.2h55
		l-2.5-2.7c-0.6,2-1.7,3.9-3.3,5.2c-0.2,0.2-0.7,0.3-0.9,0.5s0,0,0.2-0.1c-0.1,0-0.2,0.1-0.4,0.1c-0.6,0.1-1.2,0.2-1.8,0.2
		c-4.3,0.5-8.7,0.6-13.1,0.8c-5.5,0.2-11,0.3-16.5,0.4h-0.4h-0.9H238h-3.2c-1.5,0-3,0-4.5,0c-0.4,0-0.8,0-1.1,0
		c0.5,0.1,1,0.3,1.4,0.6c-0.3-0.2,0.2,0.4-0.1-0.1s-0.7-1-1-1.6c-1.1-1.8-2-3.8-2.9-5.8c-0.6-1.2-1.8-1.8-3.1-1.7
		C222.5,355.3,221.4,356.2,221.9,357.4z"></path><path class="st1" d="M206.9,325.7c0,0-3-172.8,0-201.1s33.6-91.4,44.2-90.8s42.5,76.7,41.9,92.6s0,199.4,0,199.4H206.9z"></path><path class="st2" d="M209.3,325.1c-0.1-3.2-0.1-6.4-0.2-9.7c-0.1-8.5-0.2-16.9-0.4-25.4c-0.2-11.8-0.3-23.6-0.4-35.4
		c-0.1-13.3-0.2-26.7-0.3-40c-0.1-12.9-0.1-25.8-0.1-38.8c0-10.7,0.1-21.2,0.4-31.8c0.2-6.7,0.2-13.4,1-20.1c0.8-6,2.1-11.9,4-17.7
		c2.2-7.1,4.8-14.1,7.6-21c5.4-13.1,11.5-26.1,19.3-38c1.5-2.2,3-4.4,4.6-6.4c0.7-0.8,1.4-1.7,2.1-2.5c0.4-0.4-0.2,0.2,0.1-0.1
		l0.5-0.5c0.3-0.3,0.6-0.6,1-0.8s0.6-0.5,0.9-0.7s-0.5,0.3-0.1,0l0.5-0.3c0.1-0.1,0.3-0.1,0.4-0.2s0.6-0.1-0.3,0.1
		c0.1,0,0.1-0.1,0.2-0.1c0,0,0.3-0.1,0.3-0.1c0.4,0-0.6,0-0.1,0s-0.6-0.2,0.1,0s-0.3-0.3,0.2,0.1l0.7,0.4c0.1,0,0.5,0.4,0.2,0.1
		s0.2,0.1,0.2,0.2c3,2.6,4.8,5.5,6.9,8.7c3,4.9,5.7,10,8.3,15.1c6,12.2,11.2,24.6,15.8,37.4c2,5.5,3.8,10.9,5.4,16.5
		c1.2,3.8,1.9,7.6,2.2,11.6c0,0.2,0,0.3,0,0.5c0,0.6,0-0.2,0,0c0,0.1,0,0.3,0,0.4v1.1l-0.1,3.4c0,2.9-0.1,5.9-0.1,8.8
		c-0.1,9-0.1,18-0.1,27.1c0,11.8,0,23.7,0,35.5c0,12.8,0,25.7,0,38.5c0,12.2,0,24.3,0.1,36.5c0,9.8,0,19.5,0.1,29.3
		c0,5.7,0,11.3,0,17v2.2l2.7-2.7h-86.1c-2.8,0-3.9,4.3-0.7,4.3h86.1c1.5,0,2.7-1.2,2.7-2.7c0,0,0,0,0,0v-9.3c0-8.1,0-16.3-0.1-24.4
		c0-11.3,0-22.7-0.1-34.1c0-12.9,0-25.8-0.1-38.7c0-12.6,0-25.2,0-37.8c0-10.5,0-21,0-31.5c0-4,0-7.9,0-11.9c0-1.5,0-3.1,0-4.6
		c0-0.6,0-1.3,0-2c0-0.2,0-1.1,0-0.4c0-0.3,0-0.6,0-0.9c0.1-2.1,0.1-4.2,0-6.3c-0.6-4.4-1.6-8.7-2.9-12.9
		c-3.8-12.5-8.4-24.8-13.7-36.8c-4.9-11.1-10-22.5-16.8-32.6c-2-3-4.3-6.4-7.4-8.4c-2.9-1.8-6.1-0.5-8.6,1.5c-3.6,2.9-6.5,7-9,10.8
		c-3.7,5.7-7.1,11.5-10.1,17.5c-7.1,13.5-12.9,27.7-17.5,42.2c-2,6.1-3.5,12.3-4.4,18.6c-0.4,2.9-0.5,5.8-0.7,8.7
		c-0.4,8.9-0.6,17.9-0.6,26.8c-0.1,12.1-0.2,24.2-0.2,36.4c0,13.5,0.1,27,0.2,40.4c0.1,12.9,0.2,25.8,0.4,38.6
		c0.1,10.5,0.3,20.9,0.4,31.4c0.1,6.1,0.2,12.2,0.3,18.3c0,0.8,0,1.6,0,2.4c0,1.3,1.7,1.7,2.7,1.5
		C208.4,327.4,209.3,326.3,209.3,325.1z"></path><path class="st0" d="M223.2,74.7c0,0,30.7,15.8,53.3,0c0,0-15-50.2-26.7-44.8S223.2,74.7,223.2,74.7z"></path><path class="st2" d="M221.8,75.7c4.1,2,8.4,3.6,12.8,4.7c8.9,2.5,18.5,3.5,27.6,1.9c5.9-1,11.5-3.3,16.4-6.6c0.4-0.2,0.5-0.6,0.4-1
		c-1.5-4.9-3.1-9.7-4.9-14.5c-3.1-8.3-6.5-16.8-11.5-24.1c-1.9-2.7-4.1-5.5-7.2-7c-3.2-1.5-6.9-1-9.6,1.2c-3.4,2.6-6,6.3-8.3,9.8
		c-2.8,4.4-5.4,9-7.6,13.7c-2.1,4.2-4,8.5-5.9,12.8c-1.1,2.4-2.1,4.9-3,7.4c0,0.1-0.1,0.2-0.1,0.3c-0.6,1.5,4.3,2.5,5,0.7
		s1.1-2.8,1.8-4.6c1.6-3.8,3.2-7.5,5-11.3c2.1-4.6,4.4-9.1,7-13.5c2.2-4,4.8-7.8,7.9-11.2c1.1-1.2,2.3-2.3,3.6-3.2l0.5-0.3
		c-0.3,0.1,0,0,0.1,0l0.4-0.1c0.4-0.2-0.3,0.1,0,0c0.7-0.1-0.4,0,0.2,0s-0.6,0-0.1,0c0.6,0.1-0.4,0-0.1,0c0.1,0,0.2,0.1,0.4,0.1
		c0.4,0.1-0.5-0.3-0.1,0l0.3,0.2c0.1,0,0.1,0.1,0.2,0.1c0.3,0.2-0.3-0.2-0.1,0c0.6,0.4,1.1,0.7,1.6,1.2c-0.2-0.2,0.4,0.4,0.5,0.5
		c0.3,0.3,0.6,0.6,0.8,0.9c0.6,0.6,1.1,1.3,1.6,2c5,6.8,8.2,14.9,11.2,22.6c1.3,3.5,2.6,7,3.8,10.5c0.4,1.2,0.8,2.5,1.2,3.7
		c0.2,0.7,0.4,1.3,0.6,2c0,0.1,0.1,0.2,0.1,0.3l0.4-1c-7.7,5.3-17,7.2-26.2,6.4c-3.9-0.3-7.7-1-11.5-2c-1.6-0.4-3.3-1-4.9-1.5
		l-1-0.3c-0.1,0-1-0.4-0.6-0.2c-0.6-0.2-1.3-0.5-1.9-0.7c-1.3-0.5-2.6-1.1-3.8-1.7c-1.1-0.6-2.4-0.6-3.4,0
		C220.2,74.5,221,75.3,221.8,75.7z"></path><ellipse class="st0" cx="249.3" cy="153.2" rx="32.1" ry="31.9"></ellipse><path class="st0" d="M249.3,185.7c-17.9-0.1-32.4-14.7-32.2-32.6s14.7-32.4,32.6-32.2c17.8,0.1,32.2,14.6,32.2,32.4
		C281.9,171.2,267.3,185.7,249.3,185.7z M249.3,121.8c-17.4,0.1-31.4,14.3-31.2,31.6s14.3,31.4,31.6,31.2
		c17.3-0.1,31.3-14.2,31.2-31.4C280.9,135.8,266.7,121.8,249.3,121.8z"></path><path class="st1" d="M247.6,149.3c0,0-0.7-13.9,11.2-15.5c12-1.6,23.4,10.7,20,24.9S258,169.6,258,169.6L247.6,149.3z"></path><path class="st2" d="M249.5,150.7c-0.2-3.3,0.6-6.6,2.2-9.5c3.4-5.7,10.7-7,16.6-4.5c6.5,2.8,9.6,10.3,9.1,17.2
		c-0.1,3.4-1.4,6.7-3.5,9.3c-1.8,1.9-4,3.3-6.6,4c-3.5,1-7.1,1.2-10.6,0.6l3.1,2.5l-9.1-17.7l-1.3-2.6c-0.6-1.1-1.5-1.9-2.6-2.4
		c-0.9-0.3-1.4,0.1-0.9,1l8.6,16.8c1.1,2.2,2.2,5.4,5,6c2.3,0.4,4.7,0.4,7.1,0.2c3.8-0.2,7.4-1.7,10.3-4.2c3.9-3.6,5-9.4,4.5-14.5
		c-1.1-11.3-11.8-22.2-23.6-21c-4.4,0.4-8.4,3.1-10.2,7.1c-1.2,2.6-1.8,5.4-1.8,8.3v0.5c0.2,1.1,0.9,2,1.9,2.5
		C247.7,150.6,249.6,151.7,249.5,150.7z"></path><path class="st1" d="M244.5,160.8c-2.5-6,6.2-22.2,6.2-22.2c4.1-3.6,18,3.5,18,3.5c-3.4,3.8-4.9,11.3-4.9,11.3
		c2.9-3.5,7-0.4,5.7,3.4s-6.3,3.6-6.3,3.6s-1.2,8.7-2,10.1s-8.8,1.5-11.3-4C250,166.6,246.7,166.1,244.5,160.8z"></path><path class="st2" d="M246,161.4c-0.2-0.4-0.3-0.8-0.3-1.2c0-0.8,0-1.6,0.1-2.4c0.2-1.7,0.6-3.3,1.1-4.9c1-3.2,2.3-6.4,3.8-9.4
		c0.4-0.9,0.8-1.7,1.3-2.6c0.3-0.6,0.6-0.7,1.5-1c3-0.8,6.5,0.5,9.2,1.4c2.3,0.8,4.5,1.8,6.7,2.9l-2.1-4.2
		c-2.8,3.3-4.3,7.7-5.1,11.9c-0.2,0.8,0.6,2,1.1,2.6c0.2,0.3,1.4,1.5,1.9,1c0.5-0.7,1.3-1.2,2.1-1.4c0.3-0.1,1.1,0.2,1.2,0.2
		c-0.2-0.2-0.4-0.5-0.5-0.8c0,0.1,0,0.1,0,0.2c-0.1,0.2,0,0.7-0.1,0.9c-0.2,0.7-0.5,1.4-1.1,1.9c-1.3,1.2-3.1,1.8-4.9,1.7
		c-0.4,0-0.5,0.4-0.5,0.7c-0.2,1.6-0.5,3.2-0.7,4.8c-0.2,1.1-0.4,2.2-0.6,3.3c-0.1,0.4-0.2,0.8-0.3,1.2c-0.1,0.4-0.1,0.4-0.2,0.5
		c-1.2,1-3.7,0.5-5,0.1c-1-0.3-2-0.8-2.8-1.4c-0.2-0.2-0.4-0.4-0.5-0.6c-0.5-1.1-1.3-2-2.4-2.4c0.5,0.2,0.1,0-0.1-0.1
		c-0.3-0.1-0.5-0.2-0.8-0.4c-1-0.8-1.8-1.9-2.2-3.1c-0.3-0.7-1.4-2.3-2.3-2.2s-0.4,1.7-0.1,2.2c1.4,3.1,4,7.3,7.7,7.9l-2.3-2.2
		c1.4,3,4,5.4,7.1,6.4c1.8,0.6,4.6,1.1,6.3,0c0.6-0.4,0.9-1.1,1-1.8c0.3-1.2,0.6-2.4,0.8-3.7c0.3-1.9,0.6-3.7,0.9-5.6l-0.5,0.7
		c3.1,0.1,6.4-1.6,7-4.8c0.9-4.5-4.7-11.1-8.8-6.6l3,3.6c0-0.2-0.1,0.3,0-0.1s0.1-0.6,0.2-0.9c0.2-1,0.5-1.9,0.9-2.9
		c0.7-2.5,1.9-4.8,3.5-6.9c1.1-1.3-1-3.6-2.1-4.2c-1.9-1-3.9-1.8-6-2.6c-3.1-1.1-6.9-2.5-10.3-1.9c-1,0.1-2,0.6-2.7,1.4
		c-0.4,0.7-0.8,1.5-1.1,2.3c-1.6,3.1-2.9,6.3-4,9.6c-1.1,3.5-2.4,7.9-0.9,11.5c0.4,0.9,1.1,2.4,2.2,2.6S246.3,162.1,246,161.4z"></path><path class="st1" d="M251.3,154.5c0,0-9.5-1.9-9.5-7.1s7.3-5.3,11.1,0.4"></path><path class="st2" d="M253,153.6l-0.8-0.2c-0.3-0.1,0.3,0.1,0.2,0h-0.2l-0.5-0.1c-0.4-0.1-0.7-0.2-1-0.3c-0.8-0.3-1.6-0.6-2.4-1
		l-0.6-0.3c-0.2-0.1,0.1,0.1-0.1-0.1l-0.3-0.2c-0.4-0.2-0.8-0.5-1.1-0.8c-1.4-1-2.2-2.8-1.9-4.5c0.1-0.4,0.2-0.8,0.4-1.1
		c0.1-0.2,0.2-0.4,0.4-0.5c-0.1,0.2,0,0,0,0l0.3-0.2c0.2-0.2-0.1,0.1-0.1,0l0.3-0.1c0.1-0.1-0.5,0.2-0.1,0.1s-0.5,0.1-0.1,0.1
		s-0.6,0.1-0.2,0s-0.6,0.1-0.2,0s0,0-0.2,0c0.1,0,0.3,0,0.4,0c0.2,0-0.4-0.1-0.2,0h0.2l0.4,0.1c0.3,0.1-0.3-0.1,0.1,0l0.4,0.1
		c0.3,0.1,0.6,0.2,0.8,0.4c0.2,0.1,0.4,0.2,0.6,0.4c1.2,0.8,2.2,1.8,3,3c0.2,0.3,1,0.3,1.2,0.3c0.6,0,1.3-0.1,1.9-0.2
		c0.5-0.1,2.1-0.5,1.6-1.3c-1.5-2.3-3.9-4-6.6-4.5c-1.7-0.3-3.4-0.2-5,0.2c-1.4,0.3-2.6,1-3.5,2.1c-1.1,1.8-1,4.1,0.4,5.7
		c1.4,1.5,3.1,2.7,5.1,3.3c1.3,0.5,2.7,0.9,4.1,1.2c1.2,0.2,2.4,0,3.5-0.6c0.2-0.1,0.7-0.4,0.6-0.7s-0.6-0.4-0.8-0.5L253,153.6z"></path><path class="st2" d="M256.8,156.6c-0.1,0.3-0.3,0.5-0.4,0.8l0.2-0.4c-0.3,0.4-0.6,0.7-0.9,1l0.3-0.3c-0.3,0.2-0.6,0.4-1,0.6
		l0.4-0.1c-0.2,0.1-0.5,0.2-0.8,0.2c-0.4,0.1-0.8,0.4-1,0.8c-0.2,0.4-0.2,0.9-0.1,1.3c0.2,0.9,1.1,1.6,2.1,1.5c1.7-0.3,3.2-1.4,4-3
		c0.1-0.1,0.1-0.2,0.1-0.3c0.1-0.2,0.2-0.4,0.2-0.6c0-0.2,0-0.5-0.1-0.7c-0.1-0.5-0.4-0.9-0.8-1.2c-0.4-0.3-0.8-0.4-1.2-0.3
		C257.4,155.9,257,156.2,256.8,156.6L256.8,156.6z"></path><path class="st2" d="M254.1,145c0.4,0.2,0.5,0.7,0.2,1.1c0,0,0,0.1-0.1,0.1c-0.6,0.7-1.4,0-1.1-0.8
		C253.3,145.1,253.6,144.9,254.1,145C254,145,254.1,145,254.1,145z"></path><path class="st2" d="M259.6,147.2c0.4,0.2,0.5,0.7,0.2,1.1c0,0,0,0.1-0.1,0.1c-0.6,0.7-1.4,0-1.1-0.8
		C258.8,147.2,259.2,147,259.6,147.2C259.6,147.1,259.6,147.1,259.6,147.2z"></path><path class="st2" d="M241.1,173.6c2.4-2.7,5.6-4.6,9.1-5.4c0.1,0,0.6-0.1,0.6-0.3s-0.5-0.3-0.6-0.3c-0.9-0.2-1.8-0.2-2.7,0
		c-3.9,0.9-7.4,3-10.1,5.9c-0.4,0.4,1.2,0.5,1.3,0.5c0.5,0,1,0,1.4-0.1C240.5,173.8,240.9,173.8,241.1,173.6L241.1,173.6z"></path><path class="st2" d="M262.4,172.1c0.8,0.3,1.5,0.6,2.2,1l0.3,0.1c0,0,0.3,0.2,0.1,0l0.1,0.1l0.3,0.2c0.3,0.2,0.6,0.4,1,0.6l0.4,0.3
		c0.2,0.1-0.4-0.3-0.1-0.1l0.2,0.1c0.3,0.2,0.5,0.5,0.8,0.7l0.2,0.2l-0.1-0.1c0.1,0.1,0.2,0.2,0.3,0.4s0.2,0.2,0.3,0.4
		s-0.1-0.1-0.1-0.1s0.1,0.2,0.2,0.2c0.3,0.4,0.6,0.7,1,1c0.3,0.2,0.7,0.4,1.1,0.4c0.8-0.1,0.8-0.9,0.4-1.4c-2.1-3.1-5.2-5.4-8.7-6.6
		c-0.3-0.2-0.7-0.2-1-0.1c-0.3,0.1-0.4,0.4-0.4,0.7C261,170.9,261.6,171.6,262.4,172.1L262.4,172.1z"></path><path class="st1" d="M241.9,182.6c3.9-2.1-4.8-20.6-3.7-24.3s1.2-9-2.5-7.1s-4.9,7.2-4.9,7.2s-9.3-18.4-12.3-17.1
		c-3.2,1.4,1.7,10.5,1.7,10.5s-8.2-10.2-10.6-7.9s3.9,10.5,3.9,10.5s-8.1-7.4-6.1,0.8c2.2,8.5,8.9,15,15.5,19.9
		C222.9,175.2,236.9,185.2,241.9,182.6z"></path><path class="st2" d="M243,184.1c2.1-1.2,1.3-5,0.9-6.9c-0.7-3.7-1.9-7.2-2.9-10.8c-0.4-1.5-0.9-3-1.2-4.5c-0.3-1-0.3-2-0.1-3
		c0.6-2,0.7-4.2,0.3-6.2c-0.5-1.8-2-3.7-4.1-3.4c-3.7,0.5-6,5-6.7,8.3l2.7,0.6c-2.1-4.3-4.6-8.5-7.2-12.5c-1.4-2-2.9-4.4-5.1-5.6
		c-0.9-0.6-2.1-0.6-2.9,0.2c-1,0.9-1,2.6-0.8,3.8c0.5,2.9,1.5,5.6,3,8.1l2.1-1.1c-2.4-3-5.2-6.1-8.4-8.1c-1.5-0.9-3.8-1.7-4.8,0.3
		s0.5,5,1.4,6.8c1,1.8,2.1,3.5,3.3,5.1l1.5-1.8c-1.6-1.5-4.4-4-6.8-3.6c-1.9,0.3-1.8,2.5-1.5,4c0.6,3.2,1.8,6.3,3.6,9
		c4.9,7.9,12.6,14,20.8,18.4c2.2,1.2,4.5,2.2,6.9,3c1.8,0.5,4,1,5.7,0.1s-0.5-3.9-1.8-3.2c-2.7,1.4-6.6-0.7-9-1.9
		c-2.8-1.4-5.6-3-8.1-4.8c-1-0.7-1.9-1.4-3-2.3c-2.2-1.8-4.3-3.7-6.1-5.9c-1.9-2.1-3.4-4.5-4.6-7.1c-0.6-1.4-2-4.5-1.4-5.9
		c0-0.1,0-0.1,0.2-0.1c-0.1,0,0.1,0,0.3,0.1c0.6,0.2,1.1,0.5,1.6,0.9c0.7,0.5,1.4,1,2,1.6c0.5,0.4,1.3,0.8,1.9,0.2s0-1.6-0.4-2.1
		c-0.7-0.9-1.3-1.9-1.9-2.9c-0.8-1.3-2-3.2-1.9-4.8c0-0.2,0.1-0.5,0.2-0.7c0.1-0.1,0.2-0.1,0.3-0.2c0.2,0,0.5,0.1,0.7,0.2
		c0.1,0,0.6,0.3,0.9,0.5c1.5,1.1,2.8,2.3,4,3.6c0.9,1,1.8,2,2.6,3c0.4,0.5,1.2,1.2,1.9,0.8s0.5-1.3,0.2-1.9
		c-0.9-1.7-1.7-3.4-2.2-5.2c-0.2-0.8-0.6-2.2-0.2-3c0.1-0.1,0.2-0.2,0.3-0.4s0.2-0.1,0-0.1c0.2,0-0.2-0.1,0.1,0
		c-0.2-0.1-0.1-0.1,0.1,0.1l0.6,0.5c0.1,0.1,0.7,0.8,0.9,1.1c0.7,0.9,1.4,1.9,2.1,2.9c1.5,2.3,2.9,4.7,4.2,7.1
		c0.8,1.4,1.5,2.7,2.2,4.1c0.4,0.9,2.3,2.1,2.7,0.6c0.5-2.5,2.1-5.4,4.4-6.5c0.1,0,1-0.3,1-0.3s-0.4-0.4-0.4-0.4
		c0.1,0.7,0.1,1.3,0.1,2c-0.1,1.4-0.6,2.7-0.7,4.1c-0.1,2.6,0.9,5.2,1.6,7.6c0.9,3.1,1.9,6.2,2.6,9.3c0.3,1.3,0.5,2.7,0.6,4.1
		c0,0.4,0,0.9-0.2,1.3c-0.1,0.3-0.3,0.5-0.5,0.6C239.4,181.9,241.6,184.9,243,184.1z"></path><path class="st2" d="M226,157.7c-0.8-1.4-1.8-2.7-2.8-3.9c-0.8-1-1.5-2-2.3-3c-0.2-0.2-0.5-0.3-0.8-0.4c-0.4-0.2-0.9-0.4-1.4-0.5
		c-0.4-0.1-0.7-0.2-1.1-0.3c-0.1,0-0.4-0.1-0.2,0.1c1.7,2.1,3.4,4.3,4.8,6.6l0.1,0.2c0,0,0.1,0.1,0,0c0.1,0.2,0.3,0.3,0.5,0.3
		c0.4,0.2,0.8,0.4,1.2,0.5c0.4,0.2,0.8,0.3,1.3,0.4C225.6,157.7,225.8,157.7,226,157.7L226,157.7z"></path><path class="st2" d="M212.9,154.8c1.9,2.1,3.8,4.3,5.5,6.5c0.2,0.3,0.8,0.6,0.9,0.1c0.1-0.6-0.1-1.2-0.5-1.6
		c-1.7-2.2-3.6-4.4-5.5-6.5c-0.2-0.3-0.8-0.6-0.9-0.1C212.3,153.8,212.5,154.4,212.9,154.8z"></path><path class="st2" d="M231.5,164.5c0,0,0-0.1,0-0.1c0,0,0,0.5,0,0.3V164.5v-0.5c0-0.5,0.1-1,0.2-1.6c0.2-1.4,0.5-2.8,0.8-4.1
		c0.1-0.4-0.1-0.8-0.4-1.1c-0.3-0.3-0.7-0.4-1.2-0.4c-0.5,0-1,0.2-1.4,0.5c-0.3,0.3-0.6,0.7-0.7,1.1c-0.4,1.4-0.7,2.8-0.8,4.2
		c-0.1,0.9-0.2,1.8-0.2,2.8c0.1,0.4,0.3,0.8,0.7,1c0.4,0.2,0.9,0.2,1.3,0.1C230.8,166.3,231.5,165.5,231.5,164.5L231.5,164.5z"></path><path class="st2" d="M235.8,209.7h19.4c1.2,0.1,2.3-0.2,3.4-0.7c0.8-0.6-0.6-0.7-1-0.7h-19.4c-1.2-0.1-2.3,0.2-3.4,0.7
		C233.9,209.6,235.4,209.7,235.8,209.7L235.8,209.7z"></path><path class="st2" d="M239,228.8h21.4c1.9,0,0.2-4.6-1.5-4.6h-21.4C235.6,224.1,237.3,228.8,239,228.8L239,228.8z"></path><path class="st2" d="M246.4,254.1v34.3c0,1.3,4.4-0.7,4.4-2.1v-34.3C250.8,250.6,246.4,252.6,246.4,254.1L246.4,254.1z"></path><circle class="st2" cx="114.7" cy="306" r="3.8"></circle><path class="st2" d="M117.1,304.1c0,0.3,0,0.6-0.1,0.9v-0.1c-0.5,1.9-2.4,3.1-4.3,2.8h0.1c-0.4-0.1-0.8-0.2-1.2-0.4l-0.2-0.1
		l-0.2-0.1c0.1,0.1,0.1,0.1,0,0s-0.3-0.3,0,0c-0.3-0.3,0.4,0.6,0.4,0.5c0.3,0.5,0.6,1,0.9,1.5c-0.1-0.3,0.1,0.3,0,0l-0.1-0.2
		c0,0.1,0,0.1,0,0s0-0.2-0.1-0.4c0-0.4,0-0.9,0.1-1.3v0.1c0.5-1.9,2.4-3.1,4.3-2.8h-0.1c0.4,0.1,0.7,0.2,1.1,0.3l0.4,0.2
		c0,0,0.2,0.2,0.1,0.1l0.2,0.2c0.2,0.1-0.2-0.3,0,0c-0.3-0.3-0.5-0.7-0.7-1c-0.2-0.3-0.4-0.7-0.6-1c0.2,0.3-0.1-0.3,0,0
		c0,0,0.1,0.3,0.1,0.2s0,0.1,0,0.2C117.1,303.7,117.1,303.9,117.1,304.1c0,0.4,0.2,0.8,0.4,1.1c0.3,0.6,0.6,1.1,1,1.6
		c0.3,0.4,0.6,0.8,1,1.2c0.1,0.1,0.4,0.4,0.4,0.1c-0.1-1.4-0.7-2.8-1.5-3.9c-0.7-1.4-1.8-2.6-3.1-3.5c-1.6-0.9-3.5-0.5-4.7,0.8
		c-0.6,0.6-0.9,1.4-1,2.3c0,1.2,0.3,2.3,0.9,3.3c0.6,1.1,1.3,2.2,2.1,3.1c0.4,0.4,0.8,0.8,1.3,1.2c0.7,0.5,1.6,0.7,2.5,0.6
		c2-0.2,3.6-1.9,3.6-3.9c-0.1-0.4-0.2-0.8-0.4-1.1c-0.3-0.6-0.6-1.1-1-1.6c-0.3-0.4-0.6-0.8-1-1.2
		C117.4,304.1,117.1,303.8,117.1,304.1z"></path><circle class="st2" cx="187.7" cy="210.3" r="3.8"></circle><path class="st2" d="M190.1,208.3c0,0.3,0,0.6-0.1,0.9v-0.1c-0.5,1.9-2.4,3.1-4.3,2.8h0.1c-0.4-0.1-0.8-0.2-1.2-0.4
		c-0.1,0-0.2-0.1-0.2-0.1l-0.2-0.1c0.1,0.1,0.1,0.1,0,0s-0.3-0.3,0,0c-0.3-0.3,0.5,0.6,0.4,0.5c0.3,0.5,0.6,1,0.9,1.5
		c-0.1-0.3,0.1,0.3,0,0l-0.1-0.2c0,0.1,0,0.1,0,0s0-0.2,0-0.4c-0.1-0.5,0-0.9,0.1-1.4v0.1c0.5-1.9,2.4-3.1,4.3-2.8h-0.1
		c0.3,0.1,0.7,0.2,1,0.3c0.1,0.1,0.3,0.2,0.4,0.2c0,0,0.2,0.2,0.1,0.1l0.2,0.2c0.1,0.1-0.2-0.3,0,0c-0.5-0.6-1-1.3-1.3-2.1
		c0.1,0.3-0.1-0.3,0,0c0,0,0.1,0.3,0.1,0.2s0,0.1,0,0.2C190.1,207.9,190.1,208.2,190.1,208.3c0.1,0.4,0.2,0.8,0.4,1.1
		c0.3,0.6,0.6,1.1,1,1.6c0.3,0.4,0.6,0.8,1,1.2c0.1,0.1,0.4,0.4,0.4,0.1c-0.1-1.4-0.7-2.8-1.5-3.9c-0.7-1.4-1.8-2.6-3.1-3.4
		c-1.6-0.9-3.5-0.5-4.7,0.8c-0.6,0.6-0.9,1.4-1,2.3c0,1.2,0.3,2.3,0.9,3.3c0.6,1.1,1.3,2.2,2.1,3.1c0.4,0.4,0.8,0.8,1.3,1.2
		c0.7,0.5,1.6,0.7,2.4,0.6c2-0.2,3.6-1.9,3.6-3.9c-0.1-0.4-0.2-0.8-0.4-1.1c-0.3-0.6-0.6-1.1-1-1.6c-0.3-0.4-0.6-0.8-1-1.2
		C190.4,208.3,190.1,208,190.1,208.3z"></path><circle class="st2" cx="382.2" cy="305.4" r="3.8"></circle><path class="st2" d="M377,303.4c0.1,1.4,0.7,2.8,1.5,3.9c0.7,1.4,1.8,2.6,3.1,3.5c1.6,0.9,3.5,0.5,4.8-0.8c0.6-0.6,0.9-1.4,1-2.3
		c0-1.2-0.3-2.3-0.9-3.3c-0.6-1.1-1.3-2.2-2.1-3.1c-0.4-0.4-0.8-0.8-1.3-1.2c-0.7-0.5-1.6-0.7-2.5-0.6
		C378.5,299.7,377,301.4,377,303.4c0.1,0.4,0.2,0.8,0.5,1.1c0.3,0.6,0.6,1.1,1,1.6c0.3,0.4,0.6,0.8,1,1.2c0.1,0.1,0.4,0.3,0.4,0.1
		c0-0.3,0-0.6,0.1-0.9v0.1c0.5-1.9,2.4-3.1,4.3-2.8h-0.1c0.4,0.1,0.8,0.2,1.2,0.4l0.2,0.1l0.2,0.1c-0.1-0.1-0.1-0.1,0,0s0.4,0.4,0,0
		c0.3,0.3-0.5-0.6-0.4-0.5c-0.3-0.5-0.6-1-0.9-1.5c0.1,0.3-0.1-0.3,0,0l0.1,0.2c0-0.1,0-0.1,0,0c0,0.1,0,0.2,0.1,0.4
		c0,0.4,0,0.9-0.1,1.3v-0.1c-0.5,1.9-2.4,3.1-4.3,2.8h0.1c-0.4-0.1-0.7-0.2-1-0.3l-0.4-0.2c0,0-0.2-0.2-0.1-0.1l-0.2-0.2
		c-0.1-0.1,0.2,0.3,0,0c0.3,0.3,0.5,0.7,0.7,1c0.2,0.3,0.4,0.7,0.6,1c-0.1-0.3,0.1,0.3,0,0c0,0-0.1-0.3,0-0.2s0-0.1,0-0.2
		c0-0.2,0-0.4,0-0.6c-0.1-0.4-0.2-0.8-0.4-1.1c-0.3-0.6-0.6-1.1-1-1.6c-0.3-0.4-0.6-0.8-1-1.2C377.3,303.4,377,303.1,377,303.4z"></path><circle class="st2" cx="309.1" cy="209.6" r="3.8"></circle><path class="st2" d="M304,207.6c0.1,1.4,0.7,2.8,1.5,3.9c0.7,1.4,1.8,2.6,3.1,3.4c1.9,1,4.2,0.4,5.3-1.5c0.3-0.5,0.4-1,0.5-1.6
		c0-1.2-0.3-2.3-0.9-3.3c-0.6-1.1-1.3-2.2-2.1-3.1c-0.4-0.4-0.8-0.8-1.3-1.2c-0.7-0.5-1.6-0.7-2.5-0.6
		C305.5,203.9,304,205.6,304,207.6c0.1,0.4,0.2,0.8,0.5,1.1c0.3,0.6,0.6,1.1,1,1.6c0.3,0.4,0.6,0.8,1,1.2c0.1,0.1,0.4,0.4,0.4,0.1
		c0-0.3,0-0.6,0.1-0.9v0.1c0.5-1.9,2.4-3.1,4.3-2.8h-0.1c0.4,0.1,0.8,0.2,1.2,0.4l0.3,0.1l0.2,0.1c-0.1,0-0.1-0.1,0,0s0.3,0.4,0,0
		c0.3,0.3-0.5-0.6-0.4-0.5c-0.3-0.5-0.6-1-0.9-1.5c0.1,0.3-0.1-0.3,0,0l0.1,0.2c0-0.1,0-0.1,0,0s0,0.2,0,0.4c0.1,0.4,0,0.9-0.1,1.3
		v-0.1c-0.5,1.9-2.4,3.1-4.3,2.8h0.1c-0.4-0.1-0.7-0.2-1-0.3c-0.1-0.1-0.3-0.2-0.4-0.2c0,0-0.2-0.2-0.1-0.1
		c-0.1-0.1-0.1-0.1-0.2-0.2s0.2,0.3,0,0c0.3,0.3,0.5,0.7,0.7,1c0.2,0.3,0.4,0.7,0.6,1.1c-0.1-0.3,0.1,0.3,0,0c0,0-0.1-0.3,0-0.2
		s0-0.1,0-0.2c0-0.2,0-0.4,0-0.6c-0.1-0.4-0.2-0.8-0.5-1.1c-0.3-0.6-0.6-1.1-1-1.6c-0.3-0.4-0.6-0.8-1-1.2
		C304.3,207.6,304,207.3,304,207.6z"></path><path class="st0" d="M206.9,364.9l-16.8,13.9c-0.8,0.8-0.7,2.1,0.1,2.8c0.1,0.1,0.1,0.1,0.2,0.2c1,0.8,2.5,0.8,3.5,0l16.8-13.9
		c0.8-0.8,0.7-2.1-0.1-2.8c-0.1-0.1-0.1-0.1-0.2-0.2C209.4,364.1,207.9,364.1,206.9,364.9L206.9,364.9z"></path><path class="st0" d="M282.8,370.6l11.6,14.1c0.2,0.2,0.9,0.3,1.1,0.4c0.6,0.1,1.3,0.2,1.9,0.2c0.2,0,2.1,0,1.8-0.5l-11.6-14.1
		c-0.2-0.2-0.9-0.3-1.1-0.4c-0.6-0.1-1.3-0.2-1.9-0.2C284.3,370.1,282.4,370.1,282.8,370.6L282.8,370.6z"></path><path class="st0" d="M292.4,360l38.4,36.4c0.8,0.7,2.4,1.2,3.3,0.5s0.3-2.1-0.4-2.8l-38.4-36.4c-0.8-0.7-2.4-1.2-3.3-0.5
		S291.7,359.4,292.4,360z"></path><path class="st0" d="M218.6,367c-1.4,4.2-2.7,8.4-3.9,12.6c-2.5,8.4-4.6,16.9-6.1,25.5c-0.7,3.9-1.2,7.9-1.3,11.9
		c0,2.7,0.1,5.7,1.3,8.1c0.7,1.2,1.7,2.1,2.9,2.7c1.3,0.7,3.2,1.9,4.8,1.6c2.1-0.4,3.6-2.9,4.6-4.6c3.8-6.6,6-14.1,8.7-21.2
		c1.1-3.1,2.3-6.2,3.8-9.2c0.4-1,1-1.8,1.7-2.6c0.2-0.3,0.5-0.5,0.8-0.6c0.1,0,0.2-0.1,0.3-0.1c0.1,0,0.1,0,0.2,0
		c-0.2,0.1-3.3-1.6-3.6-1.7s-0.2-0.2,0,0.2c0.1,0.2,0.2,0.5,0.2,0.7c0.1,0.8,0.2,1.6,0.2,2.4c0.1,2.5-0.1,5-0.3,7.5
		c-0.5,7.4-1.3,14.8-2,22.1c-0.7,8.2-1.3,16.4-1.2,24.6c0.1,6,0.2,12.8,2.8,18.3c1.1,2.3,3.1,4.1,5.4,5.2c2.5,1.2,4.8,1.9,7.4,0.9
		c5.4-2,7.9-8.5,9.6-13.5c2.6-7.7,3.9-15.8,4.9-23.8c1-7.7,1.8-15.5,2.7-23.2c0.3-2.7,0.7-5.4,1.3-8c0.2-1.1,0.6-3.2,1.6-3.8
		c0.2-0.1,0.3,0,0.4-0.1c-0.2,0.1-4.2-2.7-3.3-1.6c0.1,0.1,0,0,0.1,0s0.3,0.3,0.4,0.5c0.7,1,1.3,2,1.7,3.1c1.3,3.3,2.4,6.6,3.4,10
		c1.2,3.9,2.3,7.8,3.8,11.6c1.1,3,2.4,6.2,4.5,8.7c1.2,1.3,2.6,2.4,4.2,3.1c1.4,0.7,3,1.5,4.6,1.3c2.6-0.4,4.2-2.6,5-4.9
		c1-3.3,1.3-6.9,0.9-10.3c-0.3-4.3-0.9-8.6-1.8-12.9c-1.6-7.5-3.6-14.9-6-22.2c-0.4-1.2-0.8-2.4-1.2-3.6c-0.2-0.6-1.6-1.1-2.1-1.4
		c-0.5-0.3-1.1-0.5-1.6-0.7c-0.2-0.1-0.5-0.1-0.7-0.1c1.6,4.4,2.9,8.8,4.2,13.3c2.3,8.2,4.4,16.6,4.9,25.2c0.4,3.5,0.1,7-0.8,10.3
		c-0.7,2.3-2.3,4.7-4.9,5.1c-0.4,0.1-1-0.1-1.3,0c-0.1,0-0.1-0.1,0,0s1.1,0.5,1.3,0.5l0.6,0.3c0.6,0.3,0.7,0.4,0.5,0.2
		c-0.4-0.3,0.2,0.2,0.1,0s-0.4-0.3-0.6-0.5c-1-1-1.8-2.1-2.4-3.3c-1.7-3.3-3.1-6.7-4.2-10.3c-1.2-3.8-2.3-7.6-3.5-11.3
		c-0.8-2.9-1.9-5.7-3.3-8.3c-0.6-1-1.4-1.8-2.5-2.4c-1.1-0.7-2.3-1.3-3.6-1.6c-0.3-0.1-0.6-0.1-0.8,0c-1.1,0.4-1.5,2.3-1.7,3.2
		c-1.5,5.8-1.9,12-2.5,18c-0.9,8.2-1.8,16.3-3.3,24.4c-1.3,7-2.9,14.4-6.5,20.7c-1.2,2.3-3,4.2-5.1,5.6c-1,0.6-2.1,0.9-3.2,1.1
		c-0.5,0-0.9,0-1.4,0c-0.3,0-0.2-0.1-0.4-0.1s0.2,0.1,0,0c0.5,0.2,1,0.4,1.5,0.7c0.2,0.1,0.5,0.3,0.6,0.3s0.2,0.2-0.1,0
		c-0.1-0.1-0.3-0.2-0.4-0.4c-0.3-0.3-0.6-0.7-0.9-1.1c-0.6-0.9-1.1-1.9-1.5-2.9c-0.9-2.7-1.5-5.5-1.7-8.4c-0.6-7.6-0.6-15.2,0-22.8
		c0.5-8,1.3-16,2-24c0.5-5.5,1.3-11.1,0.9-16.6c-0.1-1.4-0.2-2.6-1.4-3.4c-1.1-0.8-2.4-1.4-3.7-1.8c-0.3-0.1-0.7-0.1-1,0
		c-0.7,0.4-1.2,0.9-1.6,1.6c-1.5,2.5-2.7,5.1-3.6,7.8c-1.4,3.6-2.7,7.2-4,10.9s-2.7,7.2-4.4,10.6c-1.1,2.3-2.4,5.1-4.5,6.7
		c-0.6,0.4-1.4,0.7-2.1,0.7c0.1,0-0.1,0,0,0h0.1c0.5,0.2,1,0.4,1.4,0.7c0.4,0.2,1.6,1.1,1.3,0.6c0-0.1-0.3-0.3-0.4-0.4
		c-0.3-0.4-0.6-0.8-0.8-1.3c-1.1-2.6-1.1-5.7-1-8.4c0.3-8.4,2.2-16.9,4.3-25c1.8-7,3.8-13.9,6-20.8c0.4-1.1,0.7-2.2,1.1-3.3
		c0.2-0.6-4.4-2.4-4.5-2.2L218.6,367z"></path></g></svg>