<svg transform="scale(1)" version="1.1" id="jAIJ5dQaUV" xmlns="http://www.w3.org/2000/svg" xmlns:xlink="http://www.w3.org/1999/xlink" x="0px" y="0px" viewBox="0 0 500 500" xml:space="preserve" class="pbimage_pbimage__wrapper__image__0LEis false"><title>Ecology 1</title><style type="text/css"> .st0{fill:#59BE4C;} .st1{fill:#FFFFFF;} .st2{fill:#000005;}
 .st2{fill:#000005;}
 .st1{fill:#FFFFFF;}
 .st0{fill:#5e4b69;}</style><g id="earth"><circle class="st0" cx="247.4" cy="286.5" r="167.8" fill="#5e4b69"></circle><path class="st1" d="M296,126.2c0,0.1,0,0.2,0.1,0.3s0,0.3,0.1,0.4c0.1,0.4-0.1-0.3,0-0.2s0,0.2,0.1,0.4c0.2,1.3,0.4,2.6,0.5,3.9
		c0.4,4.5,0.4,9-0.1,13.4c-1.9,15-8.3,29.1-18.4,40.4c-3.3,3.8-6.9,7.2-10.2,11c-2.8,3.2-5.5,6.6-8,10.1c-3.7,5.2-6.9,11-8.2,17.4
		c-1.1,5.3-0.4,10.8,1.8,15.7c2.6,5.7,7,10.4,11.7,14.4c1.4,1.2,2.8,2.3,4.2,3.3c1,0.7,2.3,1.8,3,2.4c1,0.9,1.9,1.8,2.8,2.8
		c0.4,0.5,0.8,0.9,1.2,1.4s-0.2-0.2,0.2,0.3l0.6,0.8c0.7,0.9,1.3,1.9,1.9,2.8l0.8,1.3c0.2,0.3-0.2-0.4,0-0.1
		c0.1,0.1,0.1,0.2,0.2,0.4l0.4,0.8c1,1.7,1.8,3.5,2.7,5.3c1.6,3.6,3.6,6.9,6.1,9.9c2.8,3.1,6.4,5.2,10.4,6.2
		c5.9,1.5,12.3,1.1,18.3,0.3c7.3-0.8,14.4-2.5,21.2-5.2c12-4.8,22.6-12.6,31.9-21.5c8.1-7.9,15.4-16.6,21.8-26
		c3.6-5.1,6.9-10.5,9.9-16l0.4-0.8c0.8-1.6-2.4-5.4-3.3-3.6c-2,3.9-4.2,7.6-6.6,11.2c-5.5,8.6-11.8,16.7-18.6,24.3
		c-8.4,9.2-18,17.6-29,23.7c-5.6,3.2-11.7,5.6-17.9,7.3c-7.1,1.9-14.5,2.8-21.9,2.8c-2.5,0-5.1-0.3-7.5-0.9
		c-0.9-0.2-1.8-0.5-2.6-0.9c-0.4-0.2-0.8-0.4-1.2-0.6l-0.6-0.3c-0.1-0.1-0.6-0.4-0.3-0.1c-0.4-0.2-0.7-0.5-1-0.7s-0.4-0.3-0.5-0.4
		s-0.7-0.6-0.2-0.2c-0.6-0.6-1.2-1.2-1.7-1.8c-0.2-0.3,0.3,0.4,0.1,0.1l-0.1-0.2c-0.1-0.2-0.3-0.3-0.4-0.5c-0.3-0.4-0.5-0.7-0.7-1.1
		s-0.4-0.7-0.6-1c-0.3-0.5,0.2,0.4-0.1-0.1l-0.4-0.7c-1.9-3.4-3.4-6.9-5.3-10.3c-2.5-4.5-5.7-8.5-9.5-12c-2.4-2.1-5-3.9-7.4-6
		c-1.1-1-2.2-2-3.3-3.1c-0.5-0.5-1-1.1-1.5-1.6l-0.7-0.9c-0.3-0.3-0.4-0.4-0.5-0.6c-1.6-1.9-2.8-4.1-3.7-6.4
		c0.1,0.3-0.2-0.4-0.2-0.5c-0.1-0.3-0.2-0.5-0.2-0.8c-0.2-0.6-0.4-1.3-0.5-1.9c0,0.2-0.1-0.4-0.1-0.5c0-0.3-0.1-0.5-0.1-0.8
		c-0.1-0.7-0.1-1.3-0.1-2c-0.1-5.5,2.1-10.9,4.8-15.6c4-7.2,9.5-13.6,15.1-19.6c3.3-3.5,6.6-6.8,9.6-10.6c2.7-3.4,5-7,7.1-10.7
		c3.5-6.3,6-13,7.5-20c1.9-8.4,2.2-17.1,0.8-25.6c-0.1-0.6-0.2-1.2-0.4-1.7c-0.3-1.2-1.2-2.2-2.3-2.5
		C295.9,124.2,295.8,125.3,296,126.2L296,126.2z" fill="#FFFFFF"></path><path class="st1" d="M210.7,123.9c1.2,8.2-1.6,17.5-7.6,23.2c-2.7,2.5-6,4.5-9.5,5.6c-13.3,4.2-25.3,11.7-34.9,21.7
		c-6.1,6.4-11.4,14-13.8,22.7c-1.1,4-1.5,8.2-1.1,12.3c0.2,2.4,0.6,4.7-0.3,7c-0.3,0.8-0.7,1.6-1.3,2.2c-0.3,0.4-0.6,0.7-0.9,1
		c-0.3,0.3-0.6,0.5-1,0.7c-0.2,0.1-0.4,0.2-0.5,0.3c-0.5,0.3,0.1,0-0.4,0.2s-0.9,0.4-1.4,0.6c-0.3,0.1,0.6-0.2,0,0l-0.3,0.1
		l-0.8,0.3l-0.7,0.2c0,0-0.6,0.1-0.2,0.1s-0.2,0-0.3,0.1c-0.6,0.1-1.2,0.2-1.8,0.3l-0.8,0.1c-0.6,0.1,0.4,0,0,0l-0.6,0.1
		c-1.3,0.1-2.6,0.2-4,0.2s-2.2,0-3.7-0.1s-2.8-0.2-4.2-0.3c-8.1-0.9-16.1-2.3-24-4.5l-0.4-0.1c-1.2-0.3-2.5-0.1-3.5,0.6
		c-0.8,0.6-0.7,1.2,0.3,1.5c7.1,2,14.4,3.4,21.7,4.4c5.7,0.8,11.4,1,17.1,0.5c5-0.5,10.6-1.6,14.4-5.3c1.5-1.4,2.5-3.3,2.8-5.3
		c0.5-3.1-0.3-6.1-0.3-9.2c0.1-8.9,4.1-17.3,9.4-24.3c5.9-7.6,13.1-14,21.4-19c3.8-2.4,7.9-4.4,12.1-6c4.1-1.6,8.1-2.7,11.9-5
		c9-5.8,13.5-16.5,12.5-27.1c0-0.2,0-0.4-0.1-0.6c-0.2-1.5-5.1-0.7-4.9,0.8L210.7,123.9z" fill="#FFFFFF"></path><path class="st1" d="M80.9,265.4c5.9,2.7,12.1,4.6,18.4,5.8c14.3,2.9,29.2,2.7,43.4-0.7c10.9-2.6,22-6,33.3-4.9
		c0.9,0.1,1.8,0.2,2.8,0.4c0.5,0.1,0.9,0.2,1.4,0.3c0.3,0.1,0.7,0.2,1,0.3c0.4,0.1,0.8,0.3,1.1,0.4s-0.4-0.2-0.1,0l0.2,0.1l0.6,0.3
		c0.3,0.1,0.4,0.2,0,0l0.5,0.3c0.3,0.2,0.5,0.4,0.1,0l0.5,0.4c0.2,0.2,0.3,0.3,0.1,0c0.1,0.1,0.3,0.3,0.4,0.4s0.3,0.3,0.4,0.4
		c-0.3-0.3,0.1,0.1,0.2,0.2c0.4,0.5,0.7,1.1,1,1.8c0.7,1.6,1,3.3,1.1,5c0.3,5-1.1,10-2.8,14.6c-2.7,7.5-6.4,14.7-9.8,21.9
		c-2.9,6.1-5.9,12.3-8.4,18.6c-2.1,4.9-3.6,10-4.4,15.2c-0.6,4.6-0.2,9.3,1.3,13.7c0.8,2.5,1.9,4.8,3.3,7.1c0.9,1.6,1.9,3,2.6,4.5
		c2.4,4.8,4.2,10.7,2.5,15.9c-1.9,5.6-7.4,8.3-12.9,9c-4.6,0.5-9.2,0.4-13.7-0.4c-6.7-1.1-13.2-2.8-19.6-5c-4-1.3-7.9-2.8-11.8-4.3
		c-0.7-0.3-1.8-0.4-1.5,0.6s1.8,1.9,2.6,2.2c7.6,3.1,15.4,5.7,23.3,7.7c5.6,1.5,11.3,2.4,17.1,2.7c6.5,0.2,14.4-0.7,18.7-6.2
		c3.4-4.5,3.1-10.5,1.5-15.6c-1-3.2-2.5-6.2-4.3-9.1c-2.7-4.1-4.4-8.8-4.9-13.6c-1.1-11,4.2-21.8,8.7-31.5c3.4-7.4,7-14.7,10.3-22.1
		c2.6-5.8,5.1-11.7,6.1-18c0.6-3.9,0.7-8.2-1.1-11.8c-1.8-3.6-4.8-6.4-8.5-8c-8.8-4-19.5-2.4-28.6-0.5c-7.3,1.5-14.5,3.8-21.9,4.9
		c-7.6,1.2-15.4,1.4-23.1,0.7c-9.1-0.7-18-2.8-26.5-6.2c-0.3-0.1-0.6-0.3-1-0.4l0.2,0.1c-0.5-0.2-2-0.9-2.1,0s1.6,2,2.2,2.3
		L80.9,265.4z" fill="#FFFFFF"></path><path class="st1" d="M267.4,409.5c0.9-2.6,1.6-5.3,1.9-8c1-5.8,0.8-11.8-0.6-17.5c-0.9-3.3-2.3-6.5-4.2-9.4
		c-1.7-2.4-3.9-4.4-5.7-6.7c-2.9-3.8-5-8.1-6.4-12.7c-2.6-8.5-3.7-19.3,1-27.2c0.5-0.8,1.1-1.6,1.7-2.3c0.5-0.6,1.1-1.1,1.8-1.6
		c0.3-0.2-0.3,0.2,0,0l0.2-0.2c0.4-0.2,0,0-0.1,0l0.3-0.2c0.4-0.2-0.4,0.1,0.3-0.1c0,0,0.3-0.1,0.1,0l0.3-0.1
		c0.9-0.3,1.8-0.5,2.8-0.7c2.6-0.3,5.2-0.2,7.8,0.4c3.6,0.9,7.3,1.5,11,1.9c7.3,0.5,14.7,0.1,21.9-1c6.3-0.8,12.6-2,19-2
		c5.1,0,10.4,1.2,14.1,4.8c4.3,4.2,6.2,10.3,7.3,16c2.4,12.5,0.5,25.6-3.8,37.4c-4.6,13-12.4,24.7-22.8,33.9
		c-5.6,4.7-11.9,8.6-18.6,11.5c-5.8,2.6-12,5.1-18.4,5.6c-3.6,0.2-7.6-0.3-10.1-3.2s-2.8-7.2-2.4-10.9
		C266.2,414.5,266.7,411.9,267.4,409.5c0.2-0.8-1.7,0-1.9,0.1c-0.7,0.3-2.2,1-2.5,1.9c-2,7.2-4,19.1,5.5,22
		c4.9,1.5,10.5,0.2,15.3-1.2c8.1-2.5,15.9-5.9,23.2-10.3c12.8-7.6,23.2-18.6,30.2-31.7c6.6-11.9,10.1-25.4,10.1-39
		c0-6.1-1-12.2-3-18c-2-5.5-5.5-10.3-11.1-12.4c-5.5-2-11.6-1.5-17.3-0.9c-7.1,0.8-14.2,2.1-21.4,2.5c-3.9,0.3-7.7,0.2-11.6-0.1
		c-3.8-0.4-7.5-1.4-11.2-2.1c-5.3-1-10.8-0.1-15.4,2.5c-4.1,2.3-7.3,6.1-8.8,10.6c-1.4,4.5-1.9,9.3-1.4,14
		c0.5,5.1,1.7,10.1,3.8,14.8c1,2.3,2.2,4.4,3.6,6.5c1.6,2.2,3.5,4.1,5.3,6.2c7.8,9.5,8.2,22.9,5.1,34.3c-0.2,0.8-0.4,1.5-0.7,2.2
		s1.8-0.1,1.9-0.2C265.7,411,267.1,410.3,267.4,409.5z" fill="#FFFFFF"></path><path class="st1" d="M204.2,191.5c-3.3,1.2-6,3.7-7.3,6.9c-1.3,3.2-0.7,6.9,1.5,9.6c4.5,5.5,16.1,6.3,18.7-1.6
		c1.1-3.8-0.6-7.8-4-9.7c-1-0.5-2.2-0.8-3.3-0.9c-0.3,0-2,0.2-1,0.7c3.6,2.1,4.9,6.7,2.8,10.3c-0.8,1.5-2.2,2.6-3.7,3.3
		c-0.3,0.1-0.7,0.2-1,0.3c-0.3,0-0.6,0.1-0.9,0.1c0.1,0,0.2,0,0.2,0c0.1,0,0.2,0.1,0,0c0.2,0.1-0.9-0.4-0.4-0.1
		c-1.2-0.6-2.2-1.5-2.9-2.6c-1.7-2.4-2.1-5.4-1.2-8.1c1.1-3.2,3.6-5.7,6.7-6.9c1-0.4-0.3-0.9-0.7-1
		C206.6,191.4,205.4,191.3,204.2,191.5L204.2,191.5z" fill="#FFFFFF"></path><path class="st1" d="M208.5,409.1c-6.3-0.7-13.8,2.5-14.8,9.4c-0.5,3,0.6,6.1,3,8c2.4,2,5.6,2.6,7.9,4.9
		c4.6,4.5,8.3,11.5,15.7,11.3c5.9-0.2,10.1-5.4,10.8-11c0.9-7.6-4.6-13.7-9.6-18.8c-0.9-0.9-2.4-1-3.4-0.2c-0.9,0.6-1.6,2.1-0.7,3
		c3.6,3.7,7.9,7.9,8.7,13.1c0.3,2,0.1,4.1-0.8,5.9c-0.6,1.6-1.9,2.8-3.5,3.5c-4.5,1.4-8.7-4.6-11.2-7.6c-1.7-2.1-3.8-3.9-6.3-5.2
		c-2-1-4.6-1.8-5.5-4.1c-0.8-2.2-0.2-4.7,1.6-6.3c1.9-1.7,4.6-2,7.1-1.7C210.3,413.6,211.8,409.4,208.5,409.1L208.5,409.1z" fill="#FFFFFF"></path></g><g id="love"><path class="st1" d="M366.5,106.1c0,0-12.8,20.1-7.8,19.5s12.3-10,18.4-9.5s49.6,2.8,57.5-27.9S422.8,42,398.8,47.5
		S350.8,78.2,366.5,106.1z"></path><path class="st0" d="M364.4,104.8c-3.1,4.9-6.4,10.1-8.3,15.5c-0.6,1.4-0.9,2.8-0.9,4.3c0.1,1.8,1.5,3.3,3.4,3.4
		c2.2,0.1,4.5-1.4,6.2-2.6c2.2-1.5,4.3-3.3,6.6-4.8c1.8-1.2,3.8-2.3,5.8-2.2l2.1,0.1c2.4,0.1,4.9,0.1,7.3,0.1
		c7.6-0.1,15.2-1.3,22.5-3.4c8.1-2.5,15.9-6.7,21.2-13.4c2.9-3.7,5.1-8.1,6.3-12.7c1.6-5.7,2.2-11.6,1.7-17.5
		c-0.9-9.5-5.5-18.6-13.9-23.5s-18.7-5.2-28-2.7c-11.3,3-21.4,9.6-28.7,18.7c-7.5,9.6-10.5,21.8-7.1,33.7c0.9,3.2,2.3,6.3,3.9,9.2
		c0.5,1.1,1.8,1.6,3,1.1c1.1-0.5,1.6-1.8,1.1-3c-0.1-0.1-0.1-0.3-0.2-0.4c-2.9-5.1-4.5-10.8-4.6-16.7c0.1-5.2,1.4-10.3,3.9-14.9
		c5-9.5,14-16.6,23.7-20.8c8.3-3.6,18.1-5.1,26.7-2.2c7.4,2.5,13,8.6,14.9,16.2c1.2,4.8,1.4,9.7,0.6,14.5c-0.5,4.9-2,9.6-4.3,13.9
		c-3.8,6.7-10.3,11.3-17.6,14.3c-3.5,1.3-7,2.4-10.6,3.1c-1.8,0.4-3.6,0.7-5.4,0.9c-1.6,0.2-3.4,0.4-4.6,0.5
		c-4.6,0.4-9.2,0.4-13.8,0c-4.7-0.4-8.8,2.9-12.3,5.6c-1.7,1.2-4,3-5.6,3.6c-0.4,0.1-0.7,0.2-1.1,0.3c0.5-0.1,0.2,0,0.1,0
		c-0.4-0.1,0.6,0.2,0.3,0c0.6,0.2,1.1,0.7,1.2,1.3c0-0.1,0.2,0.7,0,0c-0.1-0.4-0.1,0.5,0,0.1c0-0.1,0-0.3,0.1-0.4
		c0-0.2,0.1-0.5,0.2-0.7c0-0.2,0.1-0.3,0.1-0.5c0.2-0.6-0.2,0.5,0-0.1c0.2-0.4,0.3-0.8,0.5-1.2c0.7-1.6,1.4-3.1,2.2-4.6
		c1.5-2.8,3.1-5.6,4.8-8.3l0.9-1.4C370,105,366,102.2,364.4,104.8z"></path><path class="st0" d="M399.3,95.8c-1.8-0.3-3.4-1.7-4.8-2.8c-1.8-1.3-3.5-2.6-5.1-4c-2.6-2.2-6-4.6-6.5-8.2
		c-0.4-2.8,1.6-5.5,4.4-5.9c0.4-0.1,0.8-0.1,1.1,0c3.2,0.1,5.1,3,6.6,5.5c0.6,1,3.9,2.9,3.8,0.6c-0.1-3.6-0.1-7.7,1.7-11
		c0.8-1.4,2.2-3.4,4-3.7c0.2,0,0.7,0.1,0.5,0c0.2,0.2,0.3,0.3,0.4,0.6c0.5,0.8,0.8,1.6,1,2.5c2.3,8.9-3.5,17.2-8.3,24.1l4.1,2.7
		c0.4-9,2-17.9,4.8-26.4c0.5-1.4-2.2-3.3-3.4-3c-4.2,0.8-5.2,5.5-6,9c-1.1,5.2-1.7,10.4-1.8,15.7l4.1,1.5l-5.7-10.2
		c-1.6-3-3.2-6.2-6.4-7.8c-0.6-0.3-2.2-0.9-2.4,0.2c-0.5,4.4,1,8.8,4.1,12c0.6,0.7,1.9,1.5,2.8,1.2s0.7-1.3,0.2-2
		c-2.6-3.2-5.9-5.7-9.7-7.4c-0.6-0.3-1.6-0.3-1.8,0.5s0.7,1.8,1.3,2.3L398.6,95l-0.5-3l-2.2,0.3c-2.4,0.4,0.9,4,2.6,3.7l2.2-0.3
		c1.8-0.3,0.2-2.3-0.5-2.9l-16.1-13.2l-0.5,2.8c2.2,1,4.1,2.5,5.6,4.4l3-0.8c-2.1-2.3-3-5.4-2.5-8.4l-2.4,0.2c0.7,0.5,1.3,1.2,1.7,2
		c0.8,1.3,1.5,2.7,2.2,4l4.7,8.5c0.5,0.9,1.3,1.6,2.3,2c0.5,0.2,1.8,0.4,1.9-0.5c0.1-4.8,0.6-9.6,1.5-14.3c0.5-2.7,1.2-8.4,4.6-9.1
		l-3.4-3c-2.8,8.5-4.4,17.4-4.8,26.4c0.1,1,0.7,2,1.6,2.4c0.6,0.4,2,1.1,2.5,0.3c4.8-6.8,9.7-14.2,9.1-22.9c-0.3-4-2-8.4-5.7-10.3
		s-7.3,0.5-9,3.9c-1.9,3.8-1.9,8.1-1.8,12.2l3.8,0.6c-1.8-3.5-4.7-6.3-8.3-8c-3-1.3-6.8-1.3-9.4,0.9c-2.8,2.4-2.6,6.7-1,9.7
		c2,3.8,5.5,6.5,8.7,9.1c1.9,1.5,3.8,3,5.8,4.4c2.1,1.5,4.2,2.9,6.8,3.3c1,0.2,1.5-0.6,1.2-1.5C401.6,96.9,400.6,96.1,399.3,95.8
		L399.3,95.8z"></path></g><g id="character"><path class="st1" d="M396,266.8c-12.1,14.7-2,41.6,6.1,43.5c6.6,1.6,7.1-6.6,6.1-9.1s0-6.9,0-6.9c4.5,3.7,6.7,13.3,6.6,18
		s4.6,7.7,8,3.6s0.5-15.5,0.5-15.5c8.5,0.8,5-8,5-8c11.1-3-6.9-34-6.9-34s-13-63.4-49.7-92.7l-22.4,33.9c0,0,23.9,30.9,34.3,47
		S396,266.8,396,266.8z"></path><path class="st2" d="M394,266.5c-7.5,9.2-7.4,22.3-3.4,32.9c1.5,3.9,3.6,8.4,7,10.9c3.9,2.9,10.3,2.1,12.4-2.6
		c0.9-2,1.2-4.3,0.7-6.5c-0.4-1.3-0.6-2.6-0.6-4c0-1.1,0.2-2.2,0.4-3.3l-4.6,1.5c2.9,2.5,4.4,6.5,5.3,10.1c0.5,1.8,0.8,3.7,1,5.6
		c0.1,1.8-0.1,3.5,0.8,5.1c2.3,4.2,7.8,3.7,10.9,0.7c2.6-2.5,2.9-6.2,2.7-9.6c-0.1-2.6-0.5-5.2-1.1-7.7l-3.2,2.3
		c3.6,0.3,8.2-1,8.9-5.1c0.2-1.8,0-3.5-0.7-5.2l-2,2c10.3-2.9,4-17.3,1.3-23.6c-1.6-3.8-3.5-7.5-5.5-11c-0.5-0.8-0.8-1.7-1-2.7
		c-1.6-7-3.6-13.9-5.9-20.6c-3.9-11.9-8.8-23.4-14.8-34.4c-6.6-12.2-14.7-23.9-25-33.3c-1.3-1.1-2.6-2.2-3.9-3.3s-3.6-0.1-4.5,1.1
		l-19.6,29.6l-2.8,4.2c-0.2,0.3-0.2,0.7,0.1,1c5.7,7.3,11.3,14.7,16.8,22.2c8.8,11.9,17.3,24.1,25.1,36.8c1.6,2.6,3.2,5.1,4.6,7.8
		c0.9,1.7,5.5,0,4.8-1.5c-1-2-2.3-4-3.5-6c-3.9-6.4-7.9-12.8-12.1-19c-7.9-11.6-16.3-22.8-24.8-34c-2.1-2.8-4.2-5.6-6.4-8.4l0.1,1.1
		l19.6-29.7l2.8-4.2l-4.5,1.1c10.7,8.6,19.1,19.6,26,31.4c6.3,11,11.6,22.5,15.7,34.4c2.7,7.7,5.1,15.5,7,23.4
		c0.2,1.1,0.4,2.2,0.8,3.3c0.4,0.7,0.8,1.5,1.2,2.2c0.9,1.7,1.8,3.3,2.6,5c2.2,4.4,4.1,9,5.5,13.7c0.7,2.1,1.1,4.2,1.2,6.4
		c0,0.9-0.1,1.7-0.2,2.6c0,0.2-0.1,0.3-0.1,0.5c0,0.1-0.1,0.2-0.1,0.3c-0.1,0.2-0.2,0.3-0.3,0.5s-0.3,0.4-0.2,0.2
		c-0.1,0.1-0.2,0.2-0.3,0.3c0.4-0.4,0,0-0.1,0.1c0.5-0.2,0.1-0.1-0.1,0c0.5-0.2,0.2-0.1-0.1,0c-0.7,0.2-2.4,1.1-2,2
		c0.4,1.1,0.7,2.3,0.7,3.4c0,0.5-0.1,0.9-0.2,1.4c0,0.1-0.1,0.3-0.1,0.4c0,0.1-0.3,0.6-0.2,0.3c0,0.1-0.2,0.2-0.2,0.3l0.1-0.1
		l-0.1,0.1l0.2-0.1c-0.2,0.1-0.2,0.1-0.1,0c0.4-0.1-0.4,0,0,0l-0.5,0.1c-0.5,0-1,0-1.4,0c-1-0.1-3.6,0.8-3.2,2.2
		c0.4,1.7,0.7,3.4,0.9,5.1c0.3,2.7,0.6,6.1-0.6,8.6c-0.3,0.5-0.6,1-1,1.4c-0.2,0.3-0.4,0.2-0.1,0.2s-0.3,0-0.4-0.1
		c-1.4-0.7-2.3-2-2.4-3.5c-0.2-1.5-0.1-3-0.3-4.5c-0.2-1.7-0.5-3.4-1-5c-1-3.6-2.6-7.6-5.5-10.1c-1.2-1-4.3-0.1-4.6,1.5
		c-0.5,2.1-0.6,4.2-0.2,6.3c0.5,1.5,0.6,3.1,0.5,4.7c-0.1,0.8-0.3,1.6-0.7,2.3c-0.1,0.3-0.3,0.6-0.6,0.8c-0.3,0.3,0-0.2-0.2,0.2
		c0.2-0.1,0.2-0.1,0,0c0.3-0.1,0.3-0.1,0,0c0.3-0.1-0.1,0-0.5-0.1c-0.3,0-0.5-0.1-0.7-0.2c0.1,0,0.4,0.1,0,0
		c-0.6-0.2-1.1-0.5-1.6-0.9c-3-2.4-4.9-6.2-6.3-9.8c-1.8-4.7-2.7-9.6-2.7-14.6c0-5.8,1.5-11.8,5.2-16.3c0.6-0.8,0.5-1.5-0.6-1.8
		C396.1,265.2,394.9,265.6,394,266.5z"></path><path class="st2" d="M401.4,289c0,0,0.3,0.2,0.2,0.1l0.2,0.1c0.2,0.1,0.3,0.3,0.5,0.4c0.3,0.3,0.6,0.6,0.9,1
		c0.6,0.7,1.1,1.5,1.5,2.3l0.2,0.3l0.1,0.1c0-0.1,0-0.1,0,0s0.2,0.4,0.3,0.6l0.6,1.2c0.5,0.9,0.9,1.8,1.5,2.6c0.2,0.4,1,0.5,1.3,0.5
		c0.7,0,1.3-0.1,1.9-0.3c0.7-0.3,1.9-1,1.3-1.9c-1-1.6-1.7-3.2-2.7-5c-0.9-1.7-2.2-3.2-3.7-4.3c-0.5-0.2-1-0.3-1.6-0.2
		c-0.6,0.1-1.3,0.2-1.9,0.6C401.2,287.6,400.5,288.4,401.4,289L401.4,289z"></path><path class="st2" d="M415.3,290.3c2.3,3.5,4.1,7.3,5.4,11.3c0.4,1.2,1.6,1.9,2.8,1.8c0.9-0.1,2.5-0.7,2.1-1.9
		c-1.4-4.3-3.3-8.4-5.8-12.2c-0.7-1-2-1.5-3.3-1.2C415.6,288.2,414.6,289.2,415.3,290.3L415.3,290.3z"></path><path class="st2" d="M424.3,288.8c0.6,0.7,1.1,1.4,1.6,2.2l-0.3-0.5c0.5,0.9,0.9,1.7,1.2,2.7c0.3,0.6,0.7,1.1,1.3,1.3
		c0.6,0.3,1.2,0.4,1.9,0.2c0.6-0.1,1-0.5,1.3-1c0.2-0.5,0.2-1.1,0-1.7c-0.7-2-1.8-3.8-3.1-5.4c-0.4-0.5-1-0.9-1.6-1
		c-0.6-0.1-1.2-0.1-1.8,0.2c-0.5,0.3-0.9,0.8-1,1.4C423.7,287.8,423.9,288.4,424.3,288.8L424.3,288.8z"></path><path class="st1" d="M99.7,244c12.2,14.7,2,41.6-6.1,43.5c-6.6,1.6-7.1-6.6-6.1-9.1s0-6.9,0-6.9c-4.5,3.7-6.7,13.3-6.6,18.1
		s-4.6,7.7-8,3.6s-0.5-15.5-0.5-15.5c-8.5,0.8-5-8-5-8c-11.1-3,6.9-34,6.9-34s10.5-55.2,48.5-88.5l20.3,35.4
		c0,0-20.5,25.2-30.9,41.3S99.7,244,99.7,244z"></path><path class="st2" d="M97.5,245.1c6.7,8.2,6.4,20.2,3.2,29.8c-1.2,3.7-3,7.6-5.8,10.2l-0.4,0.4c-0.4,0.4,0.3-0.2-0.1,0.1
		c-0.2,0.1-1.1,0.7-0.4,0.4c-0.1,0-0.3,0.2-0.4,0.2l-0.1,0.1c0.4-0.1,0.4-0.2,0.2-0.1c-0.1,0.1-0.5,0.1-0.9,0.1
		c-1.4-0.1-2.5-1.7-2.9-3.1c-0.5-1.7-0.5-3.4,0-5.1c0.6-2.4,0.6-4.9,0-7.2c-0.2-0.7-1.3-0.7-1.8-0.7c-0.9,0.1-1.8,0.5-2.5,1.1
		c-2.7,2.3-4.2,5.6-5.3,8.9c-1.1,3.1-1.7,6.4-1.7,9.7c0.1,1.5-0.4,2.9-1.3,4c0.3-0.3,0.4,0.2,0.1,0l-0.2-0.1c-0.8-0.4-1.5-0.9-2-1.7
		c-1.6-2.2-1.4-5.7-1.2-8.3c0.2-2.1,0.5-4.3,1-6.4c0.2-0.8-1-1.1-1.6-1.1c-2.3,0.2-4-0.5-4.2-3c0-0.9,0.1-1.8,0.3-2.6
		c0.1-0.3,0.2-0.6,0.3-0.9s0.2-0.5,0-0.1c0.3-0.8-0.1-1.2-0.9-1.4c0.3,0.1-0.1,0-0.2-0.1l-0.5-0.2c-0.3-0.2-0.1,0-0.2-0.2
		c-0.1-0.1-0.3-0.2-0.4-0.4c-0.5-0.4-0.8-1-0.9-1.6c-0.4-1.6-0.5-3.3-0.2-5c0.8-4.5,2.2-8.9,4.1-13c1.5-3.5,3.2-6.9,5.1-10.3
		c0.6-0.9,1-1.9,1.3-2.9c1.3-5.9,2.9-11.8,4.9-17.6c3.6-11,8.2-21.6,13.7-31.7c6.6-12.5,15.1-23.9,25.2-33.8
		c1.3-1.3,2.7-2.6,4.1-3.8l-4.3,0.4l17.7,31l2.5,4.4l0.4-1.1c-5.7,6.9-11.2,14-16.5,21.1c-8.4,11.1-16.3,22.7-23.5,34.6
		c-1.2,2-2.4,3.9-3.5,6c-0.5,1,0.6,1.5,1.4,1.5c1.2,0,2.4-0.5,3.1-1.6c0.8-1.5,1.7-3,2.6-4.5c3.5-5.8,7.1-11.5,10.8-17.1
		c7.2-11,15.3-21.4,23.5-31.7c2-2.6,4-5.1,6.1-7.7c0.2-0.2,0.6-0.8,0.4-1.1l-17.7-31l-2.5-4.4c-0.9-1.5-3.4-0.4-4.3,0.4
		c-10.9,9.8-20.2,21.3-27.5,34.1C87.2,191.7,82,202.9,78,214.5c-2.4,6.6-4.3,13.3-5.8,20.1c-0.2,0.5-0.3,0.9-0.3,1.4
		c0,0.2,0.3-0.4,0.1-0.2c-0.2,0.3-0.4,0.5-0.5,0.8c-1.8,3.1-3.4,6.3-4.9,9.6c-2.1,4.3-3.7,8.9-4.8,13.6c-0.7,3.1-1.2,7.7,1.6,10
		c0.7,0.6,1.6,1,2.5,1.2l-0.9-1.4c-0.7,1.6-1,3.4-0.8,5.2c0.4,3.6,4.1,4.5,7.2,4.2l-1.5-1.1c-0.5,2.1-0.8,4.2-1,6.4
		c-0.3,3.1-0.4,6.9,1.6,9.6c2.7,3.7,8.4,3.2,11.1-0.2c1.2-1.5,1.7-3.4,1.6-5.3c0.1-1.7,0.3-3.5,0.6-5.2c0.8-4,2.3-8.7,5.5-11.4
		l-4.3,0.4c0.5,2.2,0.5,4.5-0.1,6.7c-0.5,1.8-0.4,3.7,0.1,5.4c0.4,2,1.9,3.7,3.8,4.4c2.6,0.7,5.3,0.3,7.6-1.1
		c3.8-2.2,6.2-6.3,7.8-10.2c2.2-5.1,3.4-10.6,3.5-16.2c0.1-6.6-1.6-13.2-5.8-18.4C100.8,241.6,96.2,243.5,97.5,245.1z"></path><path class="st2" d="M90.4,263.5c-3.1,2.2-4.2,6-6.1,9.1c-0.2,0.2,0.1,0.7,0.3,0.8c0.4,0.5,0.8,0.9,1.2,1.3c0.4,0.4,1,0.7,1.5,1
		c0.2,0.1,0.7,0.3,0.9,0.1c1.9-3.1,3-6.9,6.1-9.1c0.2-0.2-0.2-0.8-0.3-0.9c-0.4-0.5-0.8-0.9-1.2-1.3c-0.4-0.4-1-0.7-1.5-1
		C91,263.4,90.6,263.3,90.4,263.5L90.4,263.5z"></path><path class="st2" d="M75.8,266c-2.5,3.8-4.4,7.9-5.8,12.2c-0.1,0.5,0.1,1,0.5,1.4c0.5,0.4,1,0.7,1.7,0.8c1.2,0.3,2.4-0.2,2.8-1.4
		c1.3-4,3.2-7.8,5.4-11.3c0.7-1-0.4-2.2-1.3-2.5C78,264.8,76.6,265.1,75.8,266L75.8,266z"></path><path class="st2" d="M67.5,263.3c-1.4,1.6-2.4,3.4-3.1,5.3c-0.1,0.3-0.2,0.5-0.2,0.8c0,0.3,0,0.6,0.2,0.8c0.3,0.6,0.7,1.1,1.3,1.3
		c0.6,0.3,1.2,0.4,1.9,0.2c0.6-0.1,1.1-0.5,1.3-1c0.4-1.3,1.1-2.5,1.8-3.6l-0.3,0.5c0.3-0.4,0.6-0.9,1-1.3c0.4-0.4,0.6-1,0.5-1.6
		c-0.1-0.6-0.4-1.2-0.9-1.5c-0.5-0.4-1.2-0.6-1.8-0.6C68.5,262.7,68,263,67.5,263.3L67.5,263.3z"></path><path class="st1" d="M142,189.1c0,0-36.7-20.2-36-27.9s55.1-71.9,136.5-68.3s135.2,68,140.9,80c0,0-25.5,31.9-31.1,31.9
		s-42.4-58.5-115.3-52.1S142,189.1,142,189.1z"></path><path class="st2" d="M144.2,188.2c-6.9-3.8-13.7-7.9-20.2-12.3c-4.5-2.8-8.7-6.1-12.5-9.8c-1.3-1.2-2.3-2.6-3-4.2
		c-0.3-0.7-0.3-1.5,0-2.2c0.8-1.9,1.9-3.7,3.2-5.4c2.1-2.8,4.3-5.5,6.7-8.1c7-7.6,14.8-14.5,23.1-20.6c10.7-8,22.3-14.6,34.6-19.9
		c14.1-6.1,29-9.9,44.3-11.4c17-1.5,34.2-0.2,50.8,3.8c15.2,3.7,29.8,9.4,43.5,16.9c11.9,6.5,23.1,14.1,33.6,22.8
		c8.1,6.7,15.6,14,22.6,21.9c2.4,2.7,4.6,5.5,6.7,8.4c0.8,1.1,1.5,2.1,2.2,3.2c0.3,0.4,0.5,0.9,0.8,1.3c0.1,0.2,0.5,1.1,0.6,0.9
		c-0.1,0.5-1.1,1.4-1.4,1.8c-1.2,1.4-2.4,2.9-3.5,4.3c-3.5,4.2-7.2,8.4-10.9,12.5c-3.3,3.8-7,7.4-10.9,10.7
		c-0.6,0.5-1.2,0.9-1.9,1.3c0.4-0.2-0.7,0.2,0,0c0.6-0.2,1.1-0.3,1.7-0.4c-0.3,0,0.1,0.1,0,0s-0.2-0.1-0.4-0.1
		c-0.3-0.2-0.5-0.3-0.8-0.5c-1.7-1.4-3.4-2.9-4.9-4.6c-2.5-2.6-5.1-5.1-7.7-7.6c-7.3-7.2-15.3-13.6-23.8-19.4
		c-10.9-7.3-22.9-12.8-35.5-16.3c-15.8-4.3-32-4.9-48.3-3.1c-16.7,1.8-33.4,5.1-49.2,10.7c-10.4,3.6-20.4,8.4-29.6,14.5
		c-4.6,3-8.9,6.6-12.7,10.6c-0.5,0.6-1,1.1-1.5,1.8c-0.5,0.6,1.8,0.3,1.9,0.2c1.1-0.2,2-0.6,2.8-1.4c0.1-0.1,0.2-0.2,0.3-0.4l0,0
		l0.2-0.3l0.6-0.6c1.2-1.4,2.6-2.7,3.9-3.9c5.3-4.6,11.1-8.5,17.4-11.8c10.4-5.4,21.4-9.5,32.8-12.2c7.9-1.9,15.8-3.5,23.9-4.5
		c8.3-1.3,16.8-1.8,25.2-1.8c13.8,0.3,27.5,3,40.3,8.1c10.7,4.3,20.8,10,30,16.9c7,5.3,13.7,11.1,19.9,17.4c2.1,2.1,4.2,4.3,6.4,6.4
		c1.2,1.3,2.5,2.4,3.9,3.4c2.4,1.3,5.8-0.6,7.8-2c3.5-2.6,6.8-5.6,9.7-8.9c6.3-6.7,12.3-13.7,18.1-20.8l1.1-1.4V172
		c-1.1-2.2-2.5-4.4-4-6.4c-2.4-3.3-5.1-6.4-7.8-9.5c-18.4-20.3-40.7-36.8-65.5-48.4c-16-7.4-33-12.4-50.4-14.7
		c-18.5-2.4-37.2-1.5-55.4,2.7c-16,3.7-31.5,9.8-45.8,17.9c-11.7,6.6-22.7,14.4-32.8,23.4c-6.5,5.8-12.8,12.2-17.8,19.4
		c-1,1.5-2.3,3.3-2.7,5.1c-0.1,1.4,0.4,2.8,1.4,3.9c1.4,1.9,3.1,3.5,4.9,5c8.4,7.2,18.2,13,27.8,18.4c0.7,0.4,1.4,0.8,2,1.1
		s2.3-0.2,3.1-0.5C143.1,189.4,144.9,188.6,144.2,188.2z"></path><path class="st2" d="M214.6,147.7c0,0-20.9,11.8-27.6,3.9s8.4-10.5,8.4-10.5s-22.8-13.1-1.1-24c0,0-23.6-7.8-13-25.9
		s43.1-19.4,43.1-19.4s-7.5-19.9,16.6-25s22.5,8.9,22.5,8.9s15.4-3.4,18.1,3.4s-7.5,13.3-7.5,13.3s2.4,21.3-18.8,25L244,128.9
		c0,0,9.9,6.8,5.5,18.7S217.9,160.9,214.6,147.7z"></path><path class="st2" d="M213.2,145.7c-5,2.9-10.4,5-16,6.1c-1.7,0.4-3.5,0.5-5.2,0.3c-0.7-0.1,0.4,0.1-0.3,0c-0.2,0-0.4-0.1-0.6-0.1
		c-0.3-0.1-0.7-0.2-1-0.4c0.5,0.2-0.1-0.1-0.2-0.1s-0.4-0.2-0.5-0.3c0.1,0,0.4,0.3,0,0c-0.2-0.2-0.4-0.4-0.6-0.6
		c-0.5-0.5,0.3,0.4-0.2-0.3c-0.1-0.1-0.2-0.3-0.3-0.4c-0.2-0.3-0.4-0.6-0.5-0.9c-0.2-0.6,0.1,0.4-0.1-0.2c0-0.1,0-0.2,0-0.4
		c0.1,0.5,0,0,0-0.1l0.1-0.3c-0.1,0.3-0.1,0.3,0,0.1c0.5-1,1.3-1.8,2.3-2.3c1.3-0.8,2.6-1.3,4.1-1.6c0.8-0.2,1.5-0.4,2.3-0.5
		c2.3-0.4,1.4-3.3,0-4.1c-0.6-0.4-1.3-0.8-1.9-1.2c-0.1-0.1-0.7-0.5-0.1,0c-0.1-0.1-0.3-0.2-0.4-0.3c-0.4-0.3-0.8-0.6-1.1-0.9
		c-0.7-0.6-1.4-1.2-2.1-1.9c-0.2-0.2-0.3-0.4-0.5-0.5s-0.5-0.6-0.3-0.4l-0.3-0.4c-0.2-0.2-0.3-0.4-0.5-0.7c-0.3-0.4-0.6-0.8-0.8-1.2
		s0.1,0.2-0.1-0.3c-0.1-0.2-0.2-0.5-0.3-0.8s-0.2-0.4-0.2-0.7c-0.1-0.1-0.1-0.3-0.1-0.4c0,0,0.1,0.4,0,0.1c-0.1-0.5-0.2-1-0.2-1.5
		c0,0.4,0-0.4,0-0.4s0.1-0.4,0.1-0.6c0.1-0.5,0.3-0.9,0.5-1.3c1.4-3,4.9-5.1,7.9-6.6c2-1,0.4-3.7-1.1-4.2c-0.2-0.1-0.5-0.2-0.7-0.3
		l-0.8-0.3c-0.5-0.2,0.6,0.2,0,0l-0.7-0.3c-0.9-0.4-1.8-0.9-2.7-1.4c-0.5-0.3-1-0.6-1.5-0.9l-0.6-0.4l-0.5-0.3L187,111
		c-1-0.8-2-1.7-2.9-2.7c-0.1-0.1-0.3-0.4,0,0l-0.3-0.3c-0.2-0.3-0.4-0.6-0.6-0.8s-0.4-0.5-0.5-0.8s-0.6-1-0.4-0.7
		c-0.6-1.1-1-2.4-1.2-3.6c-0.2-1.5-0.1-2.9,0.3-4.4c1.6-6.9,7.6-12.2,13.5-15.5c5.9-3.2,12.4-5.4,19-6.6c2.7-0.5,5.4-0.9,8.2-1.2
		l1.4-0.1c0.2,0,0.9-0.1,0.1,0h0.4l0.9-0.1c1.1,0.1,2-0.8,2-1.8c0-0.3,0-0.6-0.2-0.9c-0.1-0.2-0.1-0.3-0.1-0.5
		c-0.1-0.2-0.1-0.3-0.2-0.5c-0.1-0.5,0.1,0.5,0,0.2c0-0.1-0.1-0.3-0.1-0.4c-0.3-1.4-0.5-2.9-0.6-4.4c0-0.1,0-0.2,0-0.3v0.1
		c0-0.2,0-0.4,0-0.7c0-0.5,0.1-1,0.1-1.5s0.1-1,0.2-1.4c0-0.2,0.1-0.5,0.2-0.7l0.1-0.4c0.1-0.2-0.1,0.3,0-0.1
		c0.6-2.1,1.7-4.1,3.3-5.7c4.6-4.9,12.4-6.7,19-7.1c2.8-0.3,5.6,0,8.3,0.8l0.5,0.2c-0.3-0.1,0.4,0.2,0.5,0.2
		c0.4,0.2,0.8,0.5,1.2,0.7c-0.7-0.4,0.3,0.3,0.5,0.5s0.3,0.3,0.4,0.4c-0.6-0.6-0.1-0.1,0.1,0.1s0.4,0.6,0.6,1
		c-0.5-0.7,0.1,0.3,0.2,0.5s0.1,0.3,0.2,0.5c0.2,0.5,0-0.1,0,0c0,0.3,0.1,0.5,0.2,0.8s0.1,0.5,0.1,0.7s0,0.2,0,0.3
		c0,0.4,0-0.2,0-0.2c0,0.2,0,0.3,0,0.5c0,1.5,1.2,2.8,2.8,2.8c0.2,0,0.4,0,0.6-0.1c3.6-0.9,7.3-1.1,11-0.6c0.5,0.1,1.1,0.2,1.6,0.4
		c0.5,0.1,1,0.3,1.4,0.6c0.2,0.1,0.6,0.5,0.2,0.2c0.2,0.2,0.4,0.4,0.6,0.6c-0.4-0.4,0.1,0.2,0.2,0.3c-0.2-0.4,0.2,0.5,0.2,0.6
		c0.7,2.3-1,4.8-2.6,6.6c-0.5,0.6-1.1,1.1-1.6,1.6c-0.2,0.2-0.5,0.5-0.8,0.7l-0.3,0.3c-0.3,0.2,0.1,0-0.1,0.1
		c-0.5,0.4-1,0.8-1.5,1.1c-0.7,0.4-1,1.2-0.9,1.9c0,0.2,0,0.4,0,0.7s0,0.5,0,0.7c0,0.5,0-0.4,0-0.1s0,0.4,0,0.6
		c0,1.9-0.3,3.9-0.7,5.8c-0.1,0.3-0.1,0.6-0.2,0.9c0,0.1-0.1,0.4,0,0l-0.1,0.4c-0.2,0.7-0.4,1.3-0.7,1.9c-0.5,1.2-1.1,2.4-1.7,3.5
		c-1.6,2.4-3.7,4.4-6.2,5.9c-1.5,0.9-3.2,1.5-4.9,2c-1.4,0.4-3.6,0.4-4.3,1.8c-0.5,1.2-0.9,2.5-1.3,3.7l-5.7,15.9l-4.2,11.8
		c-0.4,1.2,0.2,2.5,1.3,3.1c0.3,0.2-0.6-0.5-0.4-0.3s0.3,0.2,0.4,0.3c0.4,0.4,0.9,0.8,1.3,1.2l0.4,0.4c0.1,0.1,0.4,0.5,0.2,0.2
		s0.2,0.2,0.2,0.3s0.3,0.4,0.4,0.6c0.5,0.7,1,1.4,1.4,2.2c1,2.1,1.4,4.4,1.2,6.8c-0.1,1.4-0.5,2.8-1,4.1c-0.3,0.7-0.7,1.4-1.2,2
		c-4.6,5.8-14.6,7.2-21.4,5.4c-0.6-0.2-1.2-0.3-1.7-0.5l-0.8-0.3l0,0l-0.4-0.2c-0.5-0.2-0.9-0.5-1.4-0.7c-0.2-0.1-0.4-0.3-0.6-0.4
		s0.1,0.1,0.1,0.1c-0.1-0.1-0.2-0.2-0.3-0.3c-0.4-0.3-0.8-0.6-1.1-1l-0.2-0.2c-0.2-0.2,0.3,0.3,0-0.1c-0.1-0.2-0.3-0.4-0.4-0.6
		s-0.3-0.4-0.4-0.6c0.2,0.4-0.1-0.1-0.1-0.3s-0.2-0.5-0.3-0.7s-0.2-0.8-0.2-0.5c-0.3-1.3-1.3-2.2-2.6-2.4c-1-0.1-1.9,0.7-2,1.7
		c0,0.2,0,0.3,0,0.5c2.7,10.4,15,12.8,24.2,11.3c4.6-0.7,9.3-2.6,12.6-6c4-4.2,4.8-10.8,3.1-16.2c-1.3-3.9-3.8-7.4-7.2-9.8l1.3,3.1
		l9.9-27.4l1.4-3.8l-1.3,1c6.9-1.3,13.1-4.8,16.7-10.9c2.3-4,3.5-8.4,3.6-13c0-1.1,0-2.2-0.1-3.3l-0.9,1.9c4.5-2.8,9.5-7.8,8.8-13.5
		c-0.9-7.5-9.6-8.6-15.6-8.2c-2,0.1-4.1,0.4-6.1,0.8l3.2,2.9c0.2-2.3-0.3-4.5-1.5-6.5c-2.6-4.5-7.9-6.2-12.8-6.5
		c-4.4-0.1-8.8,0.4-13,1.5c-3.7,0.8-7.2,2.4-10.2,4.7c-4.3,3.2-6.9,8.2-7.2,13.6c-0.2,3.1,0.2,6.2,1.2,9.1l1.8-2.7
		c-3.5,0.2-7.1,0.6-10.5,1.2c-7.1,1.2-14,3.4-20.5,6.6c-6.9,3.6-13.4,9.2-15.9,16.8c-1.2,3.5-1.2,7.2-0.1,10.7
		c1.1,2.9,3,5.6,5.4,7.6c3.3,3,7.3,5.3,11.5,6.7l-1.1-4.3c-5.5,2.8-11.7,7.7-10,14.6c1.1,4.6,4.7,8.3,8.4,11.1
		c1,0.8,2.1,1.5,3.2,2.2v-4.1c-5.3,0.9-14.2,4.6-10.8,11.5c4.6,9.4,16.9,5.9,24.5,2.9c2.7-1,5.3-2.3,7.8-3.6
		C218.5,148.4,215.5,144.4,213.2,145.7z"></path><path class="st1" d="M276.1,161.5c0,0,18.9-5.2,24.4-24.2c6.4-21.7-27-60.8-27-60.8c-14.6,9-45.9,2.5-45.9,2.5
		c13.1,12,9.3,44.3,9.3,44.3c-11.4-10.9-24.5-4.4-18.2,8.3s18.4,8.3,18.4,8.3S241.1,167.1,276.1,161.5z"></path><path class="st2" d="M274.9,162.8c5.2-1.6,10-4.2,14.2-7.6c7.2-5.5,13.5-13.9,14.3-23.1c0.7-8.1-2.4-16.3-5.8-23.6
		c-3.7-7.7-8.2-15.1-13.2-22c-2.8-3.9-5.6-7.8-8.7-11.4c-0.5-0.6-2.1,0.5-2.5,0.7c-0.2,0.1-1.1,0.6-1.5,0.8
		c-0.8,0.4-1.6,0.7-2.4,0.9c-1.7,0.6-3.4,1-5.2,1.3c-3.8,0.6-7.6,0.9-11.4,0.9c-6.5,0-12.9-0.5-19.3-1.6c-1.3-0.2-2.6-0.4-3.9-0.7
		c-0.8-0.2-4.8,2.1-4,2.8c5.5,5.1,7.7,13,8.9,20.2c0.9,6.6,1.2,13.2,0.7,19.8c-0.1,1.4-0.2,2.7-0.3,4.1l4.2-2.5
		c-3.6-3.3-8.3-6.1-13.4-5.6c-4.2,0.4-8.8,3.3-10.3,7.3c-1.6,4.5,0.9,9.8,3.8,13.2c2.5,2.9,6,4.8,9.9,5.1c2.3,0.2,4.6,0,6.8-0.7
		h-0.9c0.6,3.2,1.8,6.3,3.5,9c3.8,6.2,9.9,10.6,17,12.3c6.2,1.6,12.8,1.4,19,0.4c1.1-0.3,2.2-0.8,3-1.6c0.3-0.2,1.3-1.5,0.2-1.3
		c-9.5,1.5-20.1,1.1-28.1-4.9c-4.5-3.4-7.8-8-9.6-13.3c-0.4-1.1-0.7-2.2-0.9-3.3c0-0.3-0.9-0.1-0.9,0c-0.4,0.1-0.8,0.2-1.2,0.3
		c0.4-0.1-0.1,0-0.3,0.1l-0.7,0.1c-0.6,0.1-1.1,0.1-1.7,0.1c-3.1,0.1-6.1-0.8-8.6-2.6c-3.6-2.7-5.9-6.7-6.6-11.2
		c-0.2-1.6,0.1-3.3,0.8-4.8c0.1-0.2,0.3-0.5,0.5-0.7c0.3-0.3,0.1-0.1,0.3-0.3c-0.1,0.1-0.2,0.2-0.3,0.2c0.7-0.3-0.2,0,0.2-0.1
		c0.3-0.1,0.6-0.2,0.9-0.3c4.9-1,9.8,2.1,13.2,5.2c0.8,0.8,4.1-1.5,4.2-2.5c0.4-3.9,0.6-7.8,0.5-11.8c-0.1-7.5-0.8-15.3-3.4-22.4
		c-1.3-3.9-3.5-7.5-6.4-10.4l-4.1,2.8c4,0.8,8,1.4,12,1.7c7.8,0.8,15.9,1,23.6-0.4c4.5-0.8,8.8-2.3,12.6-4.6l-2.5,0.7
		c7.5,8.8,14.1,18.4,19.6,28.6c3.8,7.1,7.3,15,8,23.1c0.8,8.5-3,16.8-9,22.7c-0.8,0.7-1.8,1.6-2.4,2.1c-0.4,0.3-0.8,0.6-1.2,0.9
		l-0.6,0.4c-0.4,0.3,0.2-0.1-0.3,0.2c-1.4,0.9-2.8,1.7-4.3,2.4c-0.5,0.3,0.4-0.2-0.1,0.1l-0.6,0.3l-0.9,0.4c-0.5,0.2-1,0.4-1.4,0.6
		s0.5-0.2,0.1,0l-0.3,0.1l-0.4,0.1l-0.4,0.1c-1.2,0.3-2.2,1-3,1.9C273.8,162.6,273.9,163.1,274.9,162.8z"></path><path class="st1" d="M279.8,128.4c0,0,33.8-0.3,37.1-18.4s-21.7-22.7-38.1-5.4"></path><path class="st2" d="M281.2,130c3.5-0.1,7-0.4,10.5-1c6.4-1,13-2.7,18.6-6.1c5.8-3.6,9.7-9.5,8.9-16.6c-0.9-7.7-8.2-12.8-15.5-13.9
		c-10.1-1.5-20.1,3.6-27,10.7c-0.8,0.9,3,4,4.1,2.9c5.9-6.1,14.1-10.7,22.7-10.6c1.6,0,3.3,0.2,4.8,0.7c0.6,0.2,1.3,0.4,1.9,0.7h0.1
		c0.2,0.1,0.4,0.2,0.6,0.3l0.4,0.2c-0.5-0.3,0.2,0.1,0.2,0.2c0.4,0.3,0.7,0.6,1,0.9c0.5,0.5,0.9,1,1.2,1.6c0.7,1.3,1.1,2.6,1.2,4.1
		c1.6,14.1-14.4,19.6-25.5,21.5c-3.7,0.7-7.4,1-11.1,1.1c-1.1,0-0.4,1.1,0,1.6C279.1,129.2,280.1,129.8,281.2,130L281.2,130z"></path><path class="st2" d="M263.8,101.7c0,0,0.4,2.7,3,2.1s1.9-3.8-0.5-4c-1.1-0.3-2.2,0.4-2.4,1.4C263.8,101.4,263.8,101.6,263.8,101.7z
		"></path><path class="st2" d="M275.9,98.4c0,0,0.4,2.7,3,2.1s1.9-3.8-0.5-4c-1.1-0.3-2.2,0.4-2.4,1.5C276,98.2,275.9,98.3,275.9,98.4z"></path><path class="st2" d="M253.1,123.4c1.4,4.2,5.1,7.3,9.6,7.9c0.6,0.1,1.2,0,1.8-0.1c0.6-0.1,1.2-0.2,1.7-0.5c0.2-0.1,0.7-0.3,0.6-0.6
		s-0.6-0.3-0.8-0.4h-0.2c0.1,0,0.2,0,0,0l-0.6-0.1c-0.3-0.1-0.7-0.2-1-0.3c-0.3-0.1-0.6-0.2-0.8-0.4c-0.3-0.2-0.6-0.3-0.9-0.5
		c-1.2-0.8-2.3-1.8-3.1-3l0.1,0.2c-0.6-0.9-1.1-1.9-1.4-2.9c-0.1-0.3-0.6-0.3-0.8-0.4c-0.6-0.1-1.2,0-1.8,0.1
		c-0.6,0.1-1.2,0.2-1.7,0.5C253.5,123,252.9,123.2,253.1,123.4L253.1,123.4z"></path></g></svg>