<svg transform="scale(1)" version="1.1" id="r2RuH6uCZ4" xmlns="http://www.w3.org/2000/svg" xmlns:xlink="http://www.w3.org/1999/xlink" x="0px" y="0px" viewBox="0 0 500 500" xml:space="preserve" class="pbimage_pbimage__wrapper__image__0LEis false"><title>Girl Swimming</title><style type="text/css"> .st0{fill:#59BE4C;} .st1{fill:#FFFFFF;} .st2{fill:#05050A;}
 .st2{fill:#05050A;}
 .st1{fill:#FFFFFF;}
 .st0{fill:#4c454d;}</style><g id="float"><path class="st0" d="M444.7,192.6c-11.3-27.1-37.6-44.9-66.9-46.7c-189.1-11.4-240,53.1-257.6,99.2c-18.4,48.4,28.4,85.4,93.1,94.9
		c85.1,12.4,197.4-15.1,228.7-83.1C453.8,231.3,451.8,209.7,444.7,192.6z M292.2,270.8c-19.2,10.8-152.8-0.6-54.9-52
		c0,0,58.4-19.1,94.3-7.8S311.4,260,292.2,270.8z" fill="#4c454d"></path><path class="st0" d="M447.1,192.9c-6.7-15.7-18.3-28.8-33.1-37.2c-7.5-4.3-15.6-7.4-24-9.2c-9.7-2.1-19.8-2.2-29.7-2.6
		c-19.6-0.8-39.2-0.7-58.8,0.4c-16.3,0.9-32.5,2.8-48.6,5.6c-13.3,2.4-26.5,5.7-39.4,9.9c-10.8,3.5-21.2,8-31.2,13.3
		c-8.5,4.5-16.5,9.7-24,15.7c-6.4,5.1-12.4,10.8-17.8,17.1c-4.8,5.6-9,11.5-12.7,17.8c-3.3,5.5-6.1,11.3-8.6,17.2
		c-4.6,11.1-6.9,22.8-4.5,34.7c2.6,13.1,10.6,24.5,20.4,33.3c11.8,10.6,26.3,18,41.1,23.3c16.6,5.9,34,9.2,51.5,10.8
		c16.3,1.5,32.7,1.7,49,0.5c16.7-1.1,33.2-3.5,49.5-7.2c15.7-3.6,31.1-8.6,45.9-15c13.8-5.9,26.8-13.6,38.8-22.8
		c11-8.5,20.5-18.8,27.9-30.6c9.5-15.4,15.1-33.6,13.7-51.8C452.1,208.1,450.2,200.3,447.1,192.9c-0.4-1-1.8-1.4-2.8-1.5
		c-0.4-0.1-2.4-0.1-2,0.9c6.7,16.4,7.5,34.7,2.1,51.7c-4.5,14.4-12.2,27.6-22.5,38.6c-9.7,10.3-20.9,19.2-33.3,26.2
		c-13.2,7.6-27.2,13.8-41.8,18.5c-15.4,5-31.1,8.7-47.1,11c-16.1,2.4-32.3,3.5-48.5,3.4c-16.1,0-32.1-1.5-47.9-4.5
		c-16.4-3.2-32.7-8.5-47.3-16.8c-11.9-6.8-23-15.9-30.1-27.9c-6.6-11.1-8.8-24.2-6.2-36.8c1.6-7.8,4.8-15.4,8.4-22.5
		c3-5.9,6.4-11.6,10.2-17c4.4-6.2,9.3-11.9,14.8-17.2c6.2-6,12.9-11.4,20.1-16.1c8.4-5.5,17.3-10.3,26.6-14.3
		c11-4.7,22.4-8.6,34-11.5c13.9-3.5,28.1-6.2,42.4-7.9c17.2-2.1,34.6-3.2,51.9-3.4c9.9-0.1,19.8,0,29.7,0.3s19.8,0.3,29.4,2
		c24.6,4.4,45.3,21,55,44.1c0.4,1,1.8,1.4,2.8,1.5C445.5,193.8,447.5,193.9,447.1,192.9z" fill="#4c454d"></path><path class="st0" d="M290.2,269.7c-1.1,0.6-2.2,1-3.4,1.3l-0.5,0.1c-0.4,0.1,0.4-0.1,0,0l-0.2,0.1c-0.4,0.1-0.8,0.2-1.1,0.3
		c-0.8,0.2-1.6,0.4-2.5,0.5c-1.9,0.3-3.7,0.6-5.6,0.7l-1.5,0.1h-0.4c0.4,0,0.1,0,0,0l-1,0.1c-1.1,0.1-2.2,0.1-3.3,0.2
		c-4.9,0.2-9.8,0.1-14.6-0.1l-1.9-0.1l-0.9-0.1h-0.3h-0.5c-1.3-0.1-2.5-0.2-3.8-0.3c-2.6-0.2-5.2-0.6-7.8-0.9s-5.1-0.8-7.7-1.3
		c0.6,0.1-0.2,0-0.4-0.1l-0.9-0.2l-2-0.4c-1.2-0.3-2.4-0.6-3.5-0.9s-2.3-0.6-3.5-1l-0.8-0.2c-0.2-0.1-0.9-0.3-0.3-0.1l-1.7-0.6
		c-1-0.4-2-0.8-3-1.2c-0.5-0.2-0.9-0.4-1.4-0.6l-0.6-0.3c-0.5-0.2,0.4,0.2,0,0l-0.5-0.2c-0.9-0.4-1.7-0.9-2.5-1.3
		c-0.4-0.2-0.8-0.5-1.2-0.7l-0.2-0.1c-0.4-0.3,0.3,0.2,0,0l-0.6-0.4c-0.7-0.5-1.4-1-2-1.6l-0.4-0.3l-0.3-0.3c0,0,0.3,0.3,0.1,0.1
		s-0.6-0.6-0.8-0.9c-0.5-0.6-0.9-1.2-1.3-1.8c-0.1-0.2-0.3-0.4-0.4-0.6c-0.2-0.4-0.3-0.7-0.4-1c-0.5-1.3-0.7-2.6-0.6-4
		c0.2-3.6,2.1-6.8,4.4-9.6c3.7-4.6,8.4-8.3,13.3-11.6c3.3-2.3,6.8-4.4,10.3-6.4c2.1-1.2,4.2-2.4,6.4-3.5c0.3-0.2,0.7-0.4,1.1-0.5
		c3.3-1.1,6.6-2,9.8-2.8c15-4.1,30.4-6.8,45.9-7.9c8.8-0.7,17.6-0.4,26.3,0.8c2,0.3,3.8,0.7,5.8,1.1c1,0.2,1.9,0.5,2.9,0.8
		s1.4,0.4,2.3,0.8c2.3,0.7,4.4,2,6.2,3.7c2.9,3.2,2.7,7.4,1,11.4c-2.3,5.3-6.5,9.9-10.5,13.9c-9.7,9.5-21,17.5-32.5,24.6
		C294.5,267.3,292.4,268.5,290.2,269.7c-1.8,1,2.7,2.9,3.9,2.2c11.5-6.4,22.4-13.9,32.5-22.4c5.3-4.2,10-9.1,14.2-14.5
		c2.8-3.9,5.6-8.7,4.8-13.6c-0.8-5.5-6.3-8.8-11.1-10.6c-8.3-3.1-17.4-4.2-26.2-4.5c-17.5-0.6-35.2,2-52.3,5.9
		c-5.6,1.3-11.1,2.7-16.6,4.3c-1.2,0.4-2.5,0.7-3.7,1.1c-0.4,0.1-0.7,0.3-1.1,0.5c-2.2,1.2-4.4,2.4-6.5,3.6
		c-6.7,3.7-12.9,8-18.8,12.9c-3.5,3.1-6.9,6.7-8.8,11.1c-1.4,2.9-1.5,6.2-0.4,9.2c1.4,3.1,3.6,5.8,6.5,7.7c7.7,5.5,17.4,8.1,26.5,10
		c10.7,2.1,21.6,3.2,32.6,3.3c8.3,0.1,17.1-0.1,25.1-2.5c1.1-0.3,2.3-0.8,3.3-1.3C295.9,270.9,291.5,269,290.2,269.7z" fill="#4c454d"></path><path class="st1" d="M274.6,274.5c-6.4,15.6-8.5,32.7-6.2,49.4c0.7,4.8,1.7,9.5,3,14.1c0.4,1.1,1.1,2.1,2,2.9
		c0.7,0.5,1.1,0.3,0.8-0.6c-5.9-20.5-4.7-42.3,3.4-62C278.1,277.1,274.8,273.7,274.6,274.5L274.6,274.5z" fill="#FFFFFF"></path><path class="st1" d="M361.8,245.9c5-0.7,9.5,1.6,13.5,4.4c3.7,2.6,7.2,5.4,10.4,8.6c6.5,6.4,12,13.9,16.3,22
		c2.4,4.6,4.4,9.5,5.9,14.5c0.5,1.1,1.5,1.9,2.7,2.2c0.7,0.2,1.9,0.2,1.6-0.9c-6.2-19.6-18.7-36.7-35.6-48.3
		c-5.1-3.5-11.3-6.6-17.7-5.7c-1.1,0.2-0.6,1.3-0.1,1.8C359.4,245.4,360.6,245.9,361.8,245.9L361.8,245.9z" fill="#FFFFFF"></path><path class="st1" d="M290.5,206.1c0.2-9.3-4.6-17.6-8.9-25.5c-3.8-7.1-8-14.1-13.6-19.9c-3.2-3.3-6.9-6-11-8.1
		c-1.1-0.6-2.4-0.5-3.4,0.1c-0.9,0.7-0.1,1.6,0.6,2c6.8,3.3,11.9,9,16.1,15.2c2.2,3.2,4.1,6.6,6,10c2,3.6,4,7.3,5.7,11.1
		c2.1,4.6,3.7,9.4,3.5,14.5C285.6,207.5,290.5,208,290.5,206.1L290.5,206.1z" fill="#FFFFFF"></path><path class="st1" d="M140.7,311.6c8.9-21.7,25.4-39.5,46.3-50c5.8-2.9,12-5.3,18.3-6.9c2.4-0.6-1-4.1-2.8-3.6
		c-23.1,6.1-43.2,20.4-56.6,40.1c-3.8,5.5-6.9,11.4-9.4,17.6C135.8,310.7,140.1,313.3,140.7,311.6L140.7,311.6z" fill="#FFFFFF"></path><path class="st0" d="M89.5,375c0.6-4.2,4.2-7.1,8-8.5s10-2,12.3,2.2c0.4,0.7,0.5,1.4,0.5,2.1c0,0.4-0.1,0.8-0.3,1.1
		c-0.1,0.1-0.2,0.3-0.2,0.4c0,0-0.7,0.4-0.7,0.4s0.2,0.2,0.3,0.2s-0.1-0.1-0.1-0.2c0.1-0.9,0.7-1.6,1.4-2.1
		c3.1-2.3,7.9-2.9,11.7-2.8c4.1,0.1,8.4,1.4,11.1,4.7c0.6,0.8,1.9,1.7,2.9,1s0.6-2.3,0-3.1c-3.7-4.5-9.2-7.2-15-7.2
		c-2.9-0.1-5.7,0.3-8.4,1.1c-2.6,0.8-5.8,1.9-7.1,4.5c-1.4,2.9-0.2,6.4,2.6,8c3.2,1.7,5.8-1.2,6-4.3c0-3.3-1.5-6.4-4-8.5
		c-2.6-2.2-6.1-3.3-9.5-3.1c-6.6,0.4-14.4,4.5-15.4,11.6c-0.2,1.2,0.4,2.5,1.5,3.1C87.8,376.1,89.3,376.2,89.5,375L89.5,375z" fill="#4c454d"></path><path class="st0" d="M356.2,377.1c-0.8-5.1-0.5-11.4,4.4-14.4c1.1-0.7,2.3-1,3.5-1c0.2,0,0.5,0,0.7,0.1c1,0-1.2-0.9-0.8-0.4
		s1,0.8,1.4,1.2c1.6,1.7,2.9,3.7,3.9,5.9c0.8,1.7,2.1,4.6,0.5,6.3c-0.2,0.2-0.4,0.4-0.7,0.5c-0.3,0.1-0.6,0.1-0.8,0.2l1,0.4
		c1,0.6,1.2,0.6,0.7,0.1c-0.1-0.3-0.3-0.5-0.5-0.8c-0.5-1.4-0.4-2.8,0.1-4.2c1.7-4.6,5.9-7.7,10.8-8.1c0.7-0.1,1.3-0.1,2,0
		c0.3,0,1.6,0.5,0.8,0.1c1,0.6,1.9,1.4,2.6,2.2c1.8,2.1,2.9,4.7,3.1,7.5c0,0.6,1.7,1.1,2.2,1.3c0.2,0.1,2.5,0.9,2.5,0.6
		c-0.4-7.1-6.5-11.6-12.9-13.3c-6-1.6-12.9,1.2-15.4,7c-0.8,1.6-0.9,3.3-0.4,5c0.6,1.7,2.4,2.5,3.9,3.1c1.4,0.6,3.3,1.5,4.8,0.8
		s1.6-2.1,1.5-3.5c-0.4-2.9-2.2-5.8-3.9-8.1c-2.2-2.8-5.2-4.7-8.6-5.6c-3.3-1.1-7,0.1-9.1,2.9c-2.7,3.4-2.6,8-1.9,12.1
		c0.1,0.6,1.7,1.1,2.2,1.3C354.5,376.7,355.3,376.9,356.2,377.1L356.2,377.1z" fill="#4c454d"></path><path class="st0" d="M169.2,153.6c-0.1-0.4-0.1-0.8-0.2-1.2l0,0c0-0.1,0-0.3,0-0.4c0-0.2,0-0.4,0.1-0.6c0.1-0.7,0.3-1.3,0.6-1.9
		c0.8-1.7,2.3-3,4.2-3.4l0.6-0.1c0.3-0.1-0.1,0,0.3,0c0.4,0,0.7,0,1.1,0c0.2,0,0.4,0,0.6,0.1c-0.4-0.1,0.3,0.1,0.3,0.1l0.5,0.2
		c0.1,0,0.7,0.3,0.3,0.1c0.3,0.2,0.7,0.4,1,0.6c0.5,0.3-0.4-0.3,0.1,0.1l0.4,0.4c0.4,0.4-0.3-0.4,0.1,0.1c0.1,0.1,0.6,0.8,0.2,0.2
		c0.6,0.9,1.6,2.1,2.8,1.7s0.9-1.8,0.4-2.6c-2.4-3.8-7.2-6.4-11.7-4.8c-4.1,1.6-6.4,5.9-5.6,10.1c0.2,1.2,1,2.3,2.2,2.8
		c0.6,0.3,1.4,0,1.7-0.6C169.2,154.1,169.3,153.9,169.2,153.6L169.2,153.6z" fill="#4c454d"></path><path class="st0" d="M230.4,136.8c0.5-0.5,1.1-1,1.7-1.3l-0.2,0.1c1.2-0.7,2.5-1.1,3.9-1.1c0.4,0,0.2-0.5,0.2-0.7
		c-0.2-0.5-0.6-0.9-1-1.2c-0.7-0.8-1.7-1.3-2.8-1.4c-2.2,0.1-4.3,1-5.8,2.6c-0.2,0.2,0.1,0.8,0.2,0.9c0.3,0.5,0.8,0.9,1.3,1.3
		c0.5,0.4,1,0.7,1.6,0.9C229.7,136.9,230.1,137,230.4,136.8L230.4,136.8z" fill="#4c454d"></path><path class="st0" d="M110.3,141.2c0.3,0.6,0-0.1-0.1-0.2c-0.1-0.2-0.2-0.4-0.2-0.6c0-0.1,0-0.2-0.1-0.3l0.1,0.3
		c-0.1-0.2-0.1-0.4-0.1-0.6c0-0.4-0.1-0.8-0.1-1.1c0-0.2,0-0.2,0,0.1v-0.3c0-0.2,0.1-0.4,0.1-0.6c0-0.4,0.1-0.8,0.3-1.1
		c-0.1,0.3-0.1,0.3,0,0.1l0.1-0.3l0.2-0.4c0.1-0.2,0.2-0.4,0.3-0.6l0.2-0.3c0.2-0.2,0.1-0.2-0.1,0.1c0.1-0.1,0.2-0.2,0.3-0.4
		l0.5-0.5c0.2-0.2,0.3-0.3,0.5-0.4c-0.3,0.2-0.2,0.1,0.1,0c0.4-0.3,0.8-0.5,1.2-0.6l-0.2,0.1l0.3-0.1c0.2-0.1,0.4-0.1,0.6-0.2
		c0.2-0.1,0.4-0.1,0.7-0.1c0.5-0.1-0.5,0,0.1,0s0.9,0,1.3,0s-0.5-0.1,0,0l0.7,0.1l0.6,0.2c0.2,0.1,0.1,0-0.2-0.1l0.3,0.1
		c0.4,0.2,0.8,0.4,1.2,0.7c1.1,0.7,2.6,0.3,3.3-0.8c0.6-1.3-0.1-2.4-1.1-3.1c-3.1-2-7-2.3-10.4-0.8c-3.1,1.5-5.2,4.5-5.5,7.9
		c-0.2,2.1,0.2,4.2,1.2,6c0.7,1.1,2.2,1.5,3.4,0.9c1-0.6,1.4-1.9,0.8-3C110.4,141.3,110.3,141.2,110.3,141.2L110.3,141.2z" fill="#4c454d"></path><path class="st0" d="M222,387.5c2.8-5.9,6.4-13,13.6-14.2c0.7-0.1,1.5-0.2,2.3-0.1c0.4,0,0.7,0.1,1.1,0.1c0.2,0,0.3,0.1,0.5,0.1
		c-0.7-0.4-0.9-0.5-0.6-0.3c0.1,0.2,0.6,0.5,0.8,0.7c0.2,0.3,0.5,0.6,0.7,0.9c0.4,0.6,0.7,1.2,1,1.8c1.2,3,1.4,6.2,1.4,9.4l1.3,0.2
		c1.7,0.7,1.4,0.9,0.8,0.2c-0.2-0.2-0.3-0.4-0.4-0.6c-0.3-0.5-0.6-1.1-0.7-1.7c-0.3-1.2-0.2-2.5,0.3-3.6c1-2,3.6-3.6,5.9-2.9
		c0.8,0.2,1-0.1,0.3-0.6c-0.9-0.7-2-1.3-3.1-1.6c-3.3-0.9-7.4,0.6-8,4.3c-0.7,4.3,3.3,7,6.8,8.3c0,0,1.3,0.5,1.3,0.2
		c0-3.7-0.2-7.7-2.1-10.9c-2-3.5-6.2-5.8-10.1-6.4c-3.8-0.4-7.5,0.8-10.3,3.4c-3.3,3-5.2,7-7.1,10.9
		C217.3,385.9,221.7,388.2,222,387.5L222,387.5z" fill="#4c454d"></path><path class="st0" d="M52,243.7c1.3-3.3,4.3-5.7,7.8-6.3c0.3,0,0.6-0.1,0.8-0.1c0.4,0-0.2,0.1,0.2,0c-0.5,0.1,0.3,0-0.3,0
		s0.2,0-0.3-0.1c0.3,0-0.1,0,0.1,0s0.5,0.1,0.8,0.3c0.7,0.3,1.3,0.7,1.9,1.1c0.3,0.2,0.7,0.3,1.1,0.4c0.6,0.1,1.3,0.2,1.9,0.2
		c0.5,0.1,1,0.1,1.5,0c0.1,0,0.5-0.1,0.3-0.3c-1.7-1.2-3.7-2-5.8-2.3c-2.4-0.5-4.8-0.5-7.2,0c-3.6,0.7-6.5,3.1-7.8,6.5
		c-0.1,0.4,2.2,0.6,2.5,0.6S51.8,244.2,52,243.7L52,243.7z" fill="#4c454d"></path></g><g id="character"><path class="st1" d="M331.5,187.8c0,0-19.3-44.7-4-55.6s49.6-8.5,49.6-8.5l2,13.8c0,0-33.5,3.2-35.1,7.7s8.1,33.8,8.1,33.8
		L331.5,187.8z"></path><path class="st2" d="M333.3,189c-1.7-4-3.2-8.1-4.5-12.2c-2.6-8-4.8-16.3-5.2-24.8c-0.3-3.8,0-7.7,1.1-11.4c1-3.2,3.1-5.9,6-7.6
		c8.3-5.2,18.8-6.6,28.4-7.4c6.6-0.6,13.2-0.6,19.8-0.2l-3.6-3.2l1.5,10.9l0.3,2.3c0,0.2,0,0.3,0.1,0.5c0,0,0.4-0.1,0.1-0.2
		c-0.9,0-1.8,0.1-2.7,0.3c-8.9,1-18,2-26.5,4.4c-2.1,0.6-5.8,1.3-6.1,3.9c-0.1,1.6,0.1,3.2,0.4,4.7c0.4,2.3,0.9,4.5,1.5,6.7
		c1.2,4.9,2.6,9.8,4.1,14.6c0.5,1.7,1,3.4,1.6,5.1c0.2,0.5,0.3,1,0.5,1.5c0.1,0.1,0.1,0.2,0.1,0.4c0,0.2,0,0,0.1,0
		c-0.3,0.2-0.5,0.3-0.8,0.4l-1.9,0.8l-6,2.6l-11,4.8l-0.7,0.3c-0.5,0.2,1.3,2,1.5,2.1c0.5,0.4,1.6,1.5,2.3,1.2l18-7.8l2.6-1.1v-0.2
		c-1.2-3.7-2.3-7.3-3.4-11c-1.9-5.9-3.4-11.9-4.5-18c-0.2-1.3-0.8-3.7-0.1-4.9s3-1.9,4.3-2.3c5.7-1.8,11.8-2.7,17.7-3.5
		c4.2-0.6,8.5-1.1,12.8-1.5c0.2,0,0.2-0.1,0.2-0.2l-2-13.9c-0.2-1.2-2.4-3.2-3.6-3.2c-5.5-0.3-11.1-0.3-16.6,0
		c-9.8,0.6-20.1,1.8-29,6.1c-3.4,1.6-6.4,3.7-8,7.1c-1.5,3.4-2.2,7.1-2.1,10.8c-0.1,8.6,2,17.1,4.5,25.3c1.5,5.2,3.3,10.2,5.4,15.1
		l0.1,0.2c0.6,1,1.4,1.9,2.4,2.4C332.4,189.2,333.7,190,333.3,189z"></path><path class="st2" d="M249.8,271.8c0,0,63.2,5.5,89.9-10.3s48-73.1,23.6-85.7s-67.6,42.4-67.6,42.4l-28.5-7.6
		C267.2,210.6,272.8,253.7,249.8,271.8z"></path><path class="st2" d="M248.3,273.5c4.8,0.4,9.7,0.6,14.5,0.8c10.9,0.4,21.8,0.1,32.6-0.7c11.7-0.9,23.6-2.5,34.7-6.5
		c5-1.7,9.6-4.1,13.9-7.2c4.5-3.4,8.6-7.4,12.1-11.9c7.5-9.4,13.1-20.1,16.7-31.6c3-9.6,4.9-20.6,1.8-30.4
		c-2.5-8-9.3-13.7-17.9-13.7c-9.5,0-18.5,5.2-26.1,10.5c-8.4,6.1-16.2,12.9-23.3,20.5c-4.4,4.6-8.6,9.3-12.6,14.2l-0.6,0.8l3.4-1.6
		l-25-6.7L269,209c-1.2-0.3-4.2,1.3-4,2.7c0.6,5.1,0.8,10.2,0.5,15.2c-0.3,10.3-2,20.8-6.2,30.2c-2.4,5.5-6.1,10.4-10.7,14.2
		c-0.5,0.4-1.5,1.6-0.7,2.1s2.4-0.7,3-1.1c9.1-7.2,14.2-18.2,16.7-29.4c2-9.1,2.7-18.5,2.1-27.8c-0.1-1.9-0.2-3.8-0.5-5.7l-4,2.7
		l25,6.7l3.5,0.9c1.2,0.3,2.7-0.7,3.4-1.6c2.6-3.4,5.5-6.6,8.4-9.8c6.1-6.9,12.8-13.3,19.9-19.1c3.6-3,7.5-5.7,11.5-8.2
		c3.6-2.2,7.4-3.9,11.5-4.9c3.6-1,7.3-0.9,10.9,0.2c3.7,1.3,6.8,3.8,8.8,7.1c4.9,7.8,4.2,18.3,2.4,26.9
		c-2.4,11.2-6.9,21.8-13.2,31.3c-2.9,4.5-6.3,8.7-10.1,12.4c-3.2,3.2-7,5.9-11.2,7.9c-0.8,0.4-2,0.9-3.1,1.3s-2.4,0.9-3.5,1.3
		c-2.5,0.8-5.1,1.5-7.7,2.1c-5.6,1.3-11.3,2.2-17,2.8c-11,1.1-22,1.6-33.1,1.4c-6.5-0.1-13-0.3-19.4-0.8l-0.9-0.1
		c-1.2,0.1-2.3,0.7-3,1.6C247.8,272.3,247.2,273.4,248.3,273.5z"></path><path class="st1" d="M221,201.5c0,0-101.8-18-118-23.8s-35.6-17.2-40.1-14.1s1.7,6.2,4,7.1c5.3,2,22.7,29.3,26.7,28.9
		s7.4-4.1,7.4-4.1l73.7,36.6L221,201.5z"></path><path class="st2" d="M220.5,199.7l-7.3-1.3l-18.7-3.4c-8.4-1.6-16.8-3.1-25.2-4.7c-8.9-1.7-17.9-3.4-26.8-5.2
		c-7.9-1.6-15.7-3.2-23.5-4.9c-3-0.7-6-1.4-9-2.1l-0.9-0.2c-0.1,0-0.6-0.1-0.2,0l-0.3-0.1l-1.6-0.4c-0.9-0.3-1.9-0.5-2.8-0.8
		c-11.2-3.6-21.3-9.7-32.4-13.5c-3.2-1.1-8.4-3.1-11.3-0.3c-2.2,2.1-1,4.7,1,6.5c1,0.9,2.1,1.6,3.3,2.2c0.6,0.3,1.1,0.6,1.7,0.8
		c0.2,0.1,0.3,0.2,0.5,0.2c0.1,0-0.7-0.2-0.2-0.1c0.1,0,0.2,0.1,0.3,0.2c-0.2-0.1-0.5-0.4-0.2-0.1l0.8,0.6l0.3,0.3
		c0.3,0.3-0.3-0.3,0,0s0.6,0.6,0.8,0.8c1.3,1.4,2.5,2.8,3.7,4.2c2.9,3.5,5.6,7.1,8.4,10.6c2.4,3.2,4.9,6.2,7.6,9
		c1,1.1,2.2,2,3.5,2.8c2.1,1.1,4.2,0.6,6.2-0.3c1.8-0.8,3.4-1.9,4.7-3.3l-2.7-0.2L119,206l34.9,17.3c6.7,3.3,13.4,6.7,20.1,10
		c1.7,0.8,2.4,0.4,3.6-0.4l4.2-2.8l14.7-9.7l25.9-17.1l0.5-0.3c1.8-1.2-2.2-4.1-3.8-3l-15.7,10.3l-24.9,16.4l-5.7,3.8l2.6,0.2
		l-24.9-12.4l-39.7-19.7l-9.2-4.6c-0.6-0.3-2-0.8-2.7-0.2c-1.3,1.4-2.8,2.5-4.6,3.2c-0.7,0.1-1.3,0.3-1.9,0.6
		c-0.1,0.1-0.7-0.2,0.3,0c-0.3-0.1,0.7,0.2,0.3,0.1s0.7,0.3,0,0c-0.2-0.1-0.4-0.4,0.2,0.1c-0.1-0.1-0.3-0.2-0.4-0.3
		s-0.4-0.4-0.7-0.6s-0.5-0.5,0,0l-0.4-0.4c-0.6-0.5-1.1-1.1-1.6-1.7c-1.3-1.4-2.6-2.9-3.8-4.5c-2.8-3.4-5.5-6.9-8.2-10.4
		c-2.3-3.1-4.9-6-7.7-8.7c-1-1-2.2-1.8-3.5-2.4c-0.2-0.1-1-0.4-0.6-0.2c-0.5-0.2-1-0.5-1.4-0.7s-1.4-0.9-1.5-1.4
		c-0.2-0.8,0.7-1.5,1.4-1.9c-0.4,0.2,0.3-0.1,0.5-0.1c-0.4,0.1,0.4,0,0.6,0s0.7,0,0.2,0l0.6,0.1c0.4,0,0.8,0.1,1.3,0.2
		c0.8,0.2,1.8,0.5,2.8,0.8c11.1,3.8,21.3,9.8,32.5,13.5c4.7,1.6,9.7,2.7,14.5,3.8c7.4,1.7,14.9,3.2,22.3,4.8c17,3.4,34,6.6,51,9.8
		c9.9,1.8,19.8,3.8,29.8,5.4l0.4,0.1c1,0.2,2-0.3,1.8-1.4S221.5,199.9,220.5,199.7z"></path><path class="st1" d="M371,208.8c0,0,39.2-4,51.6-11.7c19.4-12.1-17-56-23-56.4s-11.8,10.9-11.8,10.9s19.9,23.4,16.7,27.4
		s-37.5-0.8-37.5-0.8S356.5,198.7,371,208.8z"></path><path class="st2" d="M373,209.6c8.2-0.8,16.4-2,24.4-3.5c6.2-1.1,12.4-2.5,18.5-4.4c4.2-1.3,9.1-2.9,12-6.5c2.6-3.2,3-7.6,2.4-11.6
		c-0.9-5-2.6-9.8-5-14.3c-4.6-9.1-10.7-17.3-18-24.4c-2.6-2.5-5.6-4.8-9.3-5.2c-5.5-0.6-9.6,5.6-12,9.7c-0.2,0.4-0.5,0.8-0.7,1.3
		l0,0.1c2.5,2.9,4.8,5.9,7.1,8.9c3.4,4.5,7.2,9.4,9.3,14.7c0.4,1.1,1.1,3,0,3.9s-3.6,1.1-5.2,1.1c-6.1,0.2-12.2,0-18.3-0.8
		c-3-0.3-6-0.6-9-1l-2.8-0.4l-0.8-0.1c-0.1,0,0.6,0.1,0.2,0c-0.2,0-1.1-0.3-1.3,0.1c-3.5,6.8-5.1,15.8-2.2,23c1.4,3.2,3.6,6,6.5,8
		c1,0.6,2.1,1,3.2,1.1c0.3,0,1.9,0.2,1-0.4c-9.1-6.4-8.5-18.3-4.9-27.7c0.3-0.9,0.7-1.8,1.1-2.6H368c5.7,0.8,11.5,1.5,17.3,1.9
		c4.2,0.4,8.5,0.6,12.7,0.6c1.7,0,3.3-0.1,5-0.3c1.1-0.1,2.2-0.4,3.3-0.9c2-1.2,0.4-4.2-0.3-5.8c-1.8-3.5-3.9-6.9-6.3-10.1
		c-2.2-3.1-4.6-6.2-7-9.1c-0.7-0.9-1.4-1.7-2.1-2.6c-0.1-0.1-0.4-0.3-0.4-0.5c0.1,0.2,0.2-0.2,0.3-0.4c1.9-3.5,4.4-7.3,7.9-9.3
		c0.4-0.2,0.9-0.5,1.4-0.6c0.2-0.1,1.3-0.1,1.4-0.3c-0.6-0.1-1.2-0.2-1.8-0.4c-0.2-0.1-0.9-0.5-0.4-0.1c0.3,0.2-0.1-0.1,0,0
		c0.1,0,0.2,0.1,0.3,0.2l0.6,0.4c0.4,0.3,0.9,0.7,1.3,1c5.4,4.6,9.9,10.5,13.9,16.4c4.5,6.7,8.8,14.2,10.3,22.2
		c0.7,3.2,0.6,6.5-0.5,9.6c-1.2,2.9-3.5,5.3-6.4,6.6c-3.8,1.8-7.8,3.2-11.9,4.2c-4.8,1.3-9.7,2.3-14.6,3.2
		c-7.2,1.3-14.5,2.3-21.8,3.1l-1.2,0.1c-1,0.1,0.4,0.8,0.7,0.9C370.7,209.3,371.8,209.6,373,209.6z"></path><path class="st2" d="M394.7,171.7c17.1-24.3,4.4-40.1-6.7-47.2s-21.2-6.8-26-3.1c-3.6,2.7-6.3,28.6-6.3,28.6l10.4,28.6
		C366.1,178.6,381.7,190.2,394.7,171.7z"></path><path class="st1" d="M338.7,154.9c-2.6-12.1,21.6-28.9,21.6-28.9c4.5,1.7,13.6,2.1,13.6,2.1c-9.7,11.1,2.7,23.5,2.7,23.5
		c7.1-4.9,13.4,2.4,8.9,8.6s-11.2,3.1-11.2,3.1s-6.7,18.2-8.9,20.4c0,0-15.2,0.9-16.1-12.6C349.4,171.1,340.5,163.1,338.7,154.9z"></path><path class="st2" d="M341.2,155.1c-1.1-5.5,2.8-11,6.2-15c3.7-4.3,7.9-8.2,12.4-11.6c1-0.8,2-1.5,3-2.2l-4.6-0.3
		c5.1,1.9,11,2.3,16.4,2.5l-3.1-0.7c-3.9,4.4-4.7,10.7-2.2,16.1c1.2,2.8,2.9,5.4,5,7.6c0.4,0.4,1.8,0.5,2.4,0.5s1.9,0.3,2.4-0.1
		c0.6-0.4,1.3-0.8,2.1-1.1c0.3-0.1,0.7-0.2,1.1-0.3c1.1-0.5-1.2,0.1-1-0.2s2.1,1.5,2.3,1.8c1.4,2.1,1.5,4.9,0.1,7.1
		c-1.3,2.3-3.6,3.9-6.2,4.4c-0.6,0.1,0.1,0.1,0.4,0.1c-0.2,0-0.4-0.1-0.5-0.1l-0.1-0.1l-0.3-0.1l-0.3-0.1c-0.6-0.3-4.4-1-4.7-0.2
		c-1.2,3.1-2.4,6.3-3.6,9.4c-0.9,2.3-1.9,4.6-2.9,6.9c-0.6,1.5-1.4,2.9-2.4,4.2l0.8-0.2c-0.2,0-0.5,0,0.2,0h-0.8c-0.4,0-0.4-0.1,0,0
		h-0.4c0.6,0.1-0.8-0.1-0.3-0.1l-0.6-0.1c-0.4-0.1-0.1,0,0,0l-0.4-0.1c-0.6-0.1-1.1-0.3-1.7-0.5c-1.2-0.4-2.3-1.1-3.3-1.8
		c-2.5-1.9-4.1-4.8-4.5-7.9c0-0.5-0.1-1.1-0.3-1.6c-0.2-0.2-0.4-0.4-0.7-0.6c-1-1-2-2-2.9-3.1C345.1,164,342.2,159.9,341.2,155.1
		c-0.2-1-5-0.5-5-0.4c1.4,6.1,5.8,11.6,10.3,15.8c0.1,0.1,0.4,0.3,0.5,0.4c0.1,0.7,0.2,1.3,0.2,2c0.3,1.4,0.7,2.7,1.4,3.9
		c1.2,2.1,3,3.8,5.2,4.8c3.9,1.8,8.1,2.7,12.4,2.6c0.5,0,1,0,1.5-0.1c0.6-0.2,1-1,1.3-1.6c1.1-2.1,2.1-4.2,3-6.4
		c1.8-4.1,3.4-8.3,4.9-12.6l-4.6-0.3c1.6,0.6,3.2,1,4.9,1.1c2.7,0.3,5.6,0.2,8-1.2s4.5-4.3,4.4-7.2c-0.1-2.5-1.6-4.7-4-5.6
		c-3.7-1.5-7.9-1.2-11.3,0.9l4.8,0.5c-2.1-2.2-3.8-4.8-5-7.6c-2.4-5.3-1.5-11.4,2.3-15.8c0.2-0.2-3-0.7-3.1-0.7
		c-1.5-0.1-2.3-0.1-3.6-0.2c-2.1-0.1-4.3-0.5-6.4-1c-1.5-0.6-3.2-0.8-4.8-0.8c-0.3,0-0.6,0.1-0.9,0.3c-0.7,0.4-1.4,0.9-2,1.5
		c-6,4.6-11.9,9.8-16.2,16.1c-2.2,3.3-4.2,7.3-3.4,11.3C336.4,155.6,341.2,155.3,341.2,155.1z"></path><path class="st2" d="M364.1,157.2c-0.1,0.3-0.2,0.6-0.3,0.9l0.2-0.5c-0.4,1-0.9,1.9-1.5,2.7l0.3-0.4c-0.3,0.3-0.5,0.5-0.9,0.8
		l0.5-0.3c-0.2,0.1-0.4,0.2-0.5,0.3l0.6-0.2c-0.2,0.1-0.3,0.1-0.5,0.1l0.6-0.1c-0.1,0-0.3,0-0.4,0l0.7,0.1c-0.2,0-0.3-0.1-0.5-0.1
		l0.6,0.2c-0.2-0.1-0.4-0.1-0.5-0.2l0.5,0.3c-0.3-0.2-0.5-0.4-0.8-0.6l0.4,0.4c-0.2-0.2-0.4-0.4-0.5-0.6c-0.4-0.5-1-0.8-1.6-0.9
		c-0.6-0.1-1.3-0.1-1.8,0.2c-0.5,0.2-0.9,0.6-1,1.2c-0.1,0.5,0.1,1.1,0.4,1.5c1,1.2,2.3,2,3.8,2.4c1.4,0.3,2.8-0.1,4-0.9
		c1.2-1,2.1-2.2,2.6-3.7c0.2-0.5,0.4-0.9,0.5-1.4c0.1-0.5-0.1-1.1-0.4-1.5c-0.4-0.5-1-0.8-1.6-0.9
		C365.8,155.5,364.6,156.1,364.1,157.2L364.1,157.2z"></path><path class="st1" d="M356.7,141.2c-3.4,0.4-6.9,0.2-10.2-0.4c-11.4-1.9-14,1.4-11.4,4.7s17.9,6.7,17.9,6.7"></path><path class="st2" d="M354.7,139.9C354.6,139.9,354.3,139.9,354.7,139.9l-0.8,0.1c-0.9,0.1-1.8,0.1-2.7,0.1c-3-0.2-5.9-0.5-8.8-0.9
		c-2.3-0.3-4.6-0.3-6.8,0.1c-1.3,0.1-2.4,0.7-3.2,1.7c-1.5,2.2,1.4,4.8,3,5.9c3.4,2,7,3.5,10.9,4.5c2.7,0.8,5.4,1.6,8.1,2.2
		c0.9,0.2,1.1-0.3,0.5-0.9c-0.9-0.8-2-1.4-3.1-1.6c-2-0.4-3.6-0.9-5.4-1.4s-3.3-1-5-1.6l-1.1-0.4c0.4,0.1-0.3-0.1-0.3-0.1l-0.5-0.2
		l-1.1-0.5c-0.4-0.2,0,0,0,0l-0.7-0.4c-0.5-0.3,0.3,0.2,0,0l-0.4-0.2c-0.5-0.3,0.5,0.2,0,0s0,0.1,0.1,0.1s-0.4-0.4-0.1,0
		c-0.1-0.1-0.2-0.2-0.2-0.3c-0.1-0.2-0.3-0.4-0.3-0.6c-0.4-0.7-0.3-1.6,0.1-2.2c0.8-0.8,1.9-1.3,3-1.4c2.1-0.3,4.1-0.2,6.2,0.1
		c4.2,0.5,8.5,1.3,12.7,0.7c0.8-0.1-1-1.5-1.1-1.6c-0.9-0.7-1.9-1-3-1L354.7,139.9z"></path><path class="st2" d="M363.7,142.1c-0.8-0.4-1.7,0-2.1,0.8c0,0.1-0.1,0.2-0.1,0.2c-0.5,1.7,1.5,2.3,2.4,1c0.5-0.5,0.5-1.4-0.1-1.9
		C363.8,142.2,363.8,142.2,363.7,142.1z"></path><path class="st2" d="M354.3,135.2c-0.8-0.4-1.7,0-2.1,0.8c0,0.1-0.1,0.2-0.1,0.2c-0.5,1.7,1.5,2.3,2.4,1.1c0.5-0.5,0.5-1.4,0-1.9
		C354.5,135.3,354.4,135.2,354.3,135.2z"></path><path class="st2" d="M386.9,113c0.6,2.8,1.6,5.6,2.9,8.2c1.9,3.7,5.4,8.3,10.2,6.9c2.6-1,4.7-2.8,6.1-5.2c1.4-2.1,1.8-4.7,1-7.1
		c-1.3-3.8-6-6.5-9.8-4.4c-5,2.8-3,10.8-1.2,14.8c2.4,5.4,6.8,11.2,12.6,13.2c2.2,0.8,4.7,0.7,6.4-1c1.5-1.7,2.1-4,1.8-6.3
		c-0.5-3.8-3.6-6.7-7-8.1c-2.7-1.1-6.5-1.4-8.9,0.6c-3.4,3-1.8,8.2-0.1,11.7c0.8,1.6,1.7,3.1,2.8,4.5c0.6,0.9,2,1.6,3.1,0.9
		s0.9-2.3,0.2-3.2c-1.4-1.9-2.5-4-3.3-6.2c-0.2-0.4,0,0.2-0.1-0.2c0-0.2-0.1-0.4-0.1-0.6l-0.1-0.6c0-0.1-0.1-0.7,0-0.4s0-0.2,0-0.3
		s0-0.3,0-0.5c0-0.4,0,0.1,0,0s0.1-0.3,0.1-0.5s0.2-0.6,0.1-0.2s0-0.1,0.1-0.1s0.6-0.7,0.2-0.3c0.2-0.2,0.4-0.3,0.6-0.4
		c0.5-0.4-0.2,0,0.3-0.2c0.2-0.1,0.5-0.2,0.7-0.2l0.4-0.1c0.5-0.1-0.3,0,0.1,0c0.6,0,1.2,0,1.7,0.1c0.1,0-0.4-0.1,0,0l0.4,0.1
		c0.3,0.1,0.6,0.2,0.9,0.3s1,0.4,0.4,0.1c0.3,0.1,0.6,0.3,0.9,0.5s0.5,0.3,0.8,0.5s-0.4-0.3,0,0c0.1,0.1,0.3,0.2,0.4,0.3
		s0.7,0.8,0.3,0.2c0.2,0.2,0.4,0.5,0.5,0.8s0.2,0.6,0,0c0,0.1,0.1,0.2,0.2,0.4c0,0.1,0.1,0.3,0.1,0.4c0.1,0.3-0.1-0.5,0,0
		c0,0.1,0,0.3,0.1,0.4c0.1,0.4,0-0.1,0,0c0,0.3,0,0.7-0.1,1c-0.1,0.7-0.4,1.3-0.8,1.8c-0.2,0.3,0,0.1-0.1,0.1s-0.3,0.2-0.4,0.3
		c0.3-0.2-0.7,0.1-0.3,0.1c-0.4,0-0.7,0-1.1,0c0.4,0.1-0.1,0-0.2-0.1l-0.7-0.2c-0.3-0.1-0.6-0.3-0.9-0.4c-0.5-0.3-0.9-0.6-1.4-0.9
		c0.2,0.1-0.3-0.2-0.4-0.3l-0.6-0.5c-0.5-0.4-0.9-0.9-1.4-1.3c-2.6-2.7-4.4-6-5.3-9.6c-0.3-1.1-0.4-2.2-0.4-3.4c0-0.7,0.2-1.4,0.5-2
		c-0.1,0.2,0.1-0.2,0.2-0.3s0.2-0.2,0.3-0.4s-0.3,0.2,0.1,0c0.1-0.1,0.3-0.2,0.4-0.3c0.3-0.2-0.3,0.1,0,0l0.4-0.1
		c0.1,0,0.3-0.1,0.4-0.1c-0.4,0.1-0.1,0,0.1,0h0.4c0.1,0-0.4-0.1,0,0l0.4,0.1c0.5,0.1-0.2-0.2,0.1,0s0.9,0.6,0.4,0.2l0.3,0.3
		c0.4,0.3,0,0,0,0l0.3,0.4c0.3,0.4,0-0.2,0,0s0.1,0.3,0.2,0.5c-0.2-0.4-0.1-0.1,0,0.1c0.1,0.4,0,0,0,0.1s0,0.4,0,0.6s-0.1,0.6,0,0.4
		s-0.1,0.4-0.2,0.5c-0.8,1.9-2.1,3.4-3.8,4.5c-0.2,0.2-0.5,0.3-0.8,0.4l-0.5,0.2l-0.3,0.1c-0.3,0,0.3,0,0,0h-0.5
		c-0.1,0,0.3,0.1-0.1,0l-0.5-0.2c-0.2-0.1,0.1,0.1,0.2,0.1s-0.2-0.1-0.3-0.2l-0.4-0.3c0.3,0.2,0.1,0.1,0,0l-0.4-0.4
		c-0.1-0.1-0.5-0.5-0.3-0.3s-0.1-0.2-0.2-0.3l-0.4-0.5c-0.2-0.4-0.5-0.7-0.7-1.1c-0.1-0.2-0.2-0.3-0.3-0.5c0.2,0.4,0,0.1-0.1-0.1
		c-0.2-0.4-0.4-0.8-0.6-1.3c-0.3-0.7-0.6-1.5-0.9-2.2s-0.4-1.3-0.6-1.9s0.1,0.4-0.1-0.2c0-0.2-0.1-0.4-0.2-0.6l-0.1-0.5
		c-0.2-1.3-1.2-2.3-2.5-2.4c-1,0-1.8,0.9-1.8,1.9c0,0.1,0,0.3,0.1,0.4L386.9,113z"></path><path class="st1" d="M203.8,235.1c0,0,37.2,37.2,46,36.7c12.5-0.7,25.6-51.9,17.4-61.2c0,0-51.1-19.4-66.4-19.4
		s-69.8,56.4-77.2,59.6s-32.3,12.5-36.2,11.3s-10.8-1-9.2,4.4c1,3.5,34.4,7.7,47.4,12.1c6.9,2.3,9.9-12.5,9.9-12.5
		S189.5,249.5,203.8,235.1z"></path><path class="st2" d="M201.5,236.1c8.6,8.6,17.5,16.9,26.9,24.7c3,2.5,6,4.9,9.1,7.1c2.3,1.7,4.7,3.2,7.3,4.4
		c5.6,2.3,11.1-1.9,14.2-6.3c4.6-6.5,7.3-14.3,9.4-21.9c2.2-7.8,3.8-16.1,3.6-24.2c0.1-2.9-0.4-5.8-1.5-8.5
		c-0.3-0.7-0.7-1.4-1.3-1.9c-0.4-0.2-0.8-0.3-1.2-0.5c-5.6-2.1-11.2-4.1-16.9-6.1c-8.5-2.9-17-5.8-25.6-8.2c-7-2-14.4-4.3-21.8-4.7
		c-5.6-0.3-11,2.7-15.6,5.6c-6.6,4.2-12.9,8.9-18.8,14c-12.9,10.6-25,22.1-37.4,33.2c-2.1,1.8-4.2,3.7-6.3,5.4l-1.1,0.9
		c-0.2,0.1-0.4,0.3-0.6,0.4s-0.8,0.6-0.2,0.2l-0.8,0.5c-0.2,0.1-0.8,0.4,0.1,0c-0.5,0.3,0.1,0,0.2-0.1c-0.7,0.2-1.4,0.5-2,0.8
		l-2.4,1c-2,0.8-4,1.5-6,2.3c-4.3,1.6-8.9,3.2-13.5,4.6c-2,0.6-3.8,1.1-5.6,1.6c-1.3,0.4-2.6,0.6-3.9,0.7c-0.4,0,0.3,0-0.1,0
		c-0.1,0-0.2,0-0.3,0c-0.2,0-0.3,0-0.5-0.1c-1.1-0.3-2.1-0.5-3.2-0.5c-2.5-0.2-5.1,0.3-7.3,1.5c-2,1.1-3.4,2.6-2.9,5
		c0.2,0.9,0.9,1.6,1.7,1.9c2.8,1.4,6.1,2,9.2,2.7c9.4,2.2,19,3.8,28.4,5.9c2.1,0.5,4.1,1,6.2,1.6c1.7,0.5,3.4,1.2,5.2,1
		c4.5-0.6,7.5-3.9,9.3-7.9c1-2.1,1.7-4.4,2.2-6.7l-2.5,1.5c6.6-2,13.2-4.3,19.7-6.7c12.3-4.5,24.6-9.3,36.1-15.4
		c5.3-2.9,10.7-6,15-10.3c0.8-0.8-0.9-0.7-1.2-0.6c-1.1,0.2-2.2,0.8-3.1,1.6c-3.2,3.2-7.5,5.8-11.5,7.9c-5.5,3-10.9,5.5-16.6,7.9
		c-10.5,4.4-20.4,8.1-31.1,11.6c-2.2,0.7-4.4,1.5-6.6,2.1c-0.7,0.2-2.5,0.8-2.6,1.7c-0.5,2.3-1.2,4.5-2.2,6.7
		c-0.6,1.5-1.5,2.9-2.6,4.1c-0.1,0.1-0.3,0.2-0.5,0.4c0.3-0.3-0.4,0.2,0.1-0.1c0.2-0.1,0.5-0.2,0.8-0.3s0,0-0.1,0
		c-0.7-0.1-1.5-0.3-2.2-0.6c-8.6-2.6-17.6-4.1-26.4-5.9c-4.2-0.9-8.4-1.7-12.5-2.7c-1.5-0.4-3-0.8-4.4-1.3c-0.9-0.2-1.7-0.7-2.5-1.2
		c-0.2-0.3-0.3-0.6-0.4-1c0-0.2,0-2.7,0.5-2.5c-0.2,0.1-0.5,0.3-0.8,0.4c0.4-0.1,0.8-0.1,1.2-0.1c1,0,2,0.1,3,0.3
		c1.2,0.3,2.4,0.4,3.6,0.3c1.6-0.2,3.1-0.5,4.7-0.9c8.8-2.3,17.3-5.2,25.7-8.7c2.6-0.9,5.2-2,7.6-3.3c1.6-1.1,3.2-2.2,4.6-3.5
		c11.3-9.4,21.9-19.8,33-29.4c6.2-5.4,12.5-10.8,19.1-15.8c2.7-2.1,5.3-3.9,8.3-5.8c0.6-0.4,1.2-0.7,1.8-1.1c0.1,0,0.6-0.4,0.1-0.1
		l0.5-0.3l0.9-0.5c0.3-0.2,0.6-0.3,0.9-0.5s0.3-0.1,0.4-0.2c0.5-0.2-0.4,0.2-0.1,0.1c0.6-0.2,1.1-0.5,1.7-0.7
		c-1.1,0.4,1.5-0.4,0.4-0.1l0.6-0.1c0.6-0.2-0.3,0,0.4-0.1h0.6c-0.4,0,0.1,0,0.4,0c0.6,0,1.3,0.1,1.9,0.1c3.3,0.4,6.5,1,9.7,1.7
		c8.3,1.9,16.5,4.5,24.6,7.1c7.3,2.4,14.6,4.9,21.8,7.6c2.1,0.8,4.1,1.5,6.2,2.3c0.4,0.1,0.8,0.3,1.2,0.5h0.1
		c-0.2-0.1,0.1,0.2,0.1,0.2c0.3,0.4,0.6,0.9,0.8,1.4c1,2.6,1.5,5.3,1.4,8.1c0.1,3.8-0.2,7.5-0.8,11.2c-1.2,8.3-3.4,16.4-6.5,24.2
		c-1.3,3.3-2.9,6.5-4.8,9.5c-0.8,1.2-1.7,2.3-2.7,3.4c-0.2,0.2-0.6,0.6-1.1,1s0.4-0.2,0,0l-0.4,0.2c-0.2,0.1-0.1,0.2,0.2-0.1
		c-0.1,0.1-0.8,0.4,0,0c-0.2,0.1-0.6,0.2,0.1,0c-0.2,0.1-0.5,0.1,0.1,0c-0.1,0-0.4,0-0.1,0s-0.1-0.1-0.1,0s-0.6,0,0,0h-0.3l-0.6-0.1
		c-0.9-0.3-1.8-0.6-2.7-1.1c-2.6-1.4-5.1-3-7.4-4.8c-11.5-8.5-22-18.5-32.2-28.5l-2.1-2.1C205.1,233.1,201.1,235.7,201.5,236.1z"></path><path class="st1" d="M214.3,265.5c4.2,1.4,8.5,2.6,12.8,3.8c10,2.7,20.2,4.8,30.5,6.3c13.1,2,26.3,2.8,39.5,2.2
		c13.4-0.7,26.8-3.1,39-8.8c12.2-5.5,22.3-14.8,28.9-26.4c0.9-1.6,1.7-3.1,2.4-4.8c0.9-2-3.7-4-4.6-1.9c-5.4,12-14.6,21.8-26.1,28
		c-11.4,6.2-24.2,9-37.1,10c-12.8,0.9-25.6,0.4-38.3-1.3c-10.5-1.4-21-3.4-31.3-6.1c-3.3-0.9-6.7-1.8-10-2.8c-1-0.3-2-0.6-3.1-0.9
		c-0.5-0.1,0.7,0.2,0,0l-0.4-0.1l-0.6-0.2l-0.2-0.1c-0.9-0.3-2.4-0.6-2.9,0.5S213.5,265.2,214.3,265.5L214.3,265.5z"></path></g></svg>