<svg transform="scale(1)" version="1.1" id="q6wUnCLmZh" xmlns="http://www.w3.org/2000/svg" xmlns:xlink="http://www.w3.org/1999/xlink" x="0px" y="0px" viewBox="0 0 500 500" xml:space="preserve" class="pbimage_pbimage__wrapper__image__0LEis false"><title>World Connection</title><style type="text/css"> .st0{fill:#FFFFFF;} .st1{fill:#D1D3D4;} .st2{fill:#231F20;} .st3{fill:#68E1FD;}
 .st3{fill:#5e4b69;}
 .st2{fill:#231F20;}
 .st1{fill:#D1D3D4;}
 .st0{fill:#FFFFFF;}</style><g id="Front_Back"><path class="st0" d="M107.6,319.6h37.2c9.3,0,16.8-6.1,16.8-13.6c0-7-6.4-12.7-14.8-13.5c0.2-0.9,0.3-1.8,0.3-2.8
		c0-7.9-7.9-14.3-17.7-14.3c-2.6,0-5.2,0.5-7.6,1.4c0-0.2,0-0.3,0-0.5c0-7.9-7.9-14.3-17.7-14.3c-7.2,0-13.4,3.5-16.2,8.6
		c-1.9-0.3-3.9-0.5-5.8-0.5c-15.6,0-28.3,9.9-29.3,22.3c-9.2,0.1-16.6,6.2-16.6,13.6s7.5,13.6,16.8,13.6" fill="#FFFFFF"></path><path class="st1" d="M144.8,320.3h-37.2c-0.4,0-0.7-0.3-0.7-0.7c0-0.4,0.3-0.7,0.7-0.7h37.2c8.9,0,16.1-5.8,16.1-13
		c0-6.5-6.1-12-14.1-12.9c-0.2,0-0.4-0.1-0.5-0.3c-0.1-0.2-0.2-0.4-0.1-0.6c0.2-0.9,0.3-1.7,0.3-2.6c0-7.5-7.6-13.6-17-13.6
		c-2.5,0-5,0.5-7.4,1.4c-0.2,0.1-0.5,0.1-0.7-0.1c-0.2-0.1-0.3-0.4-0.3-0.6v-0.2c0-0.1,0-0.1,0-0.2c0-7.5-7.6-13.6-17-13.6
		c-6.8,0-12.9,3.2-15.6,8.2c-0.1,0.3-0.4,0.4-0.7,0.4c-1.9-0.3-3.8-0.5-5.7-0.5c-15.1,0-27.7,9.5-28.6,21.6c0,0.3-0.2,0.6-0.6,0.7
		c-8.8,0.1-15.9,5.9-15.9,13s7.2,13,16.1,13c0.4,0,0.7,0.3,0.7,0.7c0,0.4-0.3,0.7-0.7,0.7c0,0,0,0,0,0c-9.7,0-17.5-6.4-17.5-14.4
		c0-7.6,7.4-14,16.7-14.3c1.4-12.6,14.4-22.3,29.9-22.3c1.8,0,3.7,0.1,5.5,0.4c3-5.2,9.5-8.5,16.6-8.5c9.9,0,18,6.5,18.3,14.5
		c2.2-0.7,4.6-1.1,6.9-1.1c10.1,0,18.4,6.8,18.4,15c0,0.7-0.1,1.5-0.2,2.2c8.4,1.1,14.6,7.1,14.6,14.1
		C162.3,313.9,154.5,320.3,144.8,320.3z" fill="#D1D3D4"></path></g><g id="Globe"><circle class="st0" cx="263.1" cy="257.7" r="145.5"></circle><path class="st2" d="M263.1,112.1c80.4,0,145.5,65.2,145.5,145.5s-65.2,145.5-145.5,145.5S117.6,338,117.6,257.7c0,0,0,0,0,0
		C117.6,177.3,182.7,112.1,263.1,112.1 M263.1,110.8c-81,0-146.8,65.9-146.8,146.8s65.9,146.8,146.8,146.8s146.8-65.9,146.8-146.8
		S344.1,110.8,263.1,110.8z"></path><path class="st3" d="M372.2,161.4c-1.1,0.4-2.2,0.5-3.4,0.2l1.9-1.8c-2.6-2.9-5.4-5.7-8.2-8.4c0,2,1.2,3.7,3.3,5.2
		c-3.1,0.2-5.5-1.7-8.2-2.5c-3.2-0.8-6.5-1.4-9.7-1.8l4.8,3.5c-0.9,0.4-1.8,0.6-2.8,0.9c-0.9-1.9-2.1-0.4-3.1-0.4
		c-2.4-0.1-5,2.6-6.8-0.2c-0.9,0.1-1.7,0.3-2.5,0.5c-2.2,0.9-4.6,1.6-6.3,3c-2.2,1.8-2.9,2-4.6-0.6l2.2-0.8l0.1-0.9l-4.5-1
		c-0.2,1.1-0.2,2.1-0.2,3.2c0.2,0.7,0.5,1.3,0.9,1.9c-1.3,0.1-2.7,0.3-4,0.6c-1.3,0.4-2.5,1-3.7,1.5l1.1,2.2l-6-1
		c-0.1,0.2-0.1,0.4-0.2,0.6l2.3,1.5c-3.5,1-5.6-0.8-5.6-4.3l-3-1.6c1.1-0.1,2.1,0,3.1,0.4c3.3,0.7,6.6,1.5,9.8-0.1
		c1.6-0.9,1.6-2,0-2.8c-1.9-1.1-4-1.9-6.1-2.6c-3.7-1-7.5-1.8-11.3-2.6l0.6-1c-1.7-0.5-3.5-0.9-5.3-1.1c-1-0.1-2,0.6-3.1,1l0.9-2
		c-1.8,0.8-3.2,2.1-4.2,1.9c-2.3-0.5-4.1,1.3-6.5,0.8c-1.4-0.3-3.2,1.8-4.2,2.4c-1.1,0.1-2.2,0.4-3.3,0.7c-1,0.6-1.9,1.3-2.8,2.1
		l3.7-0.9c-1.7,2.1-3.5,4.5-5.5,6.7c-1.4,1.5-2.9,3.5-4.7,4c-2.5,0.7-4.7,2-6.6,3.8c-0.7,0.8-1.1,1.9-1,2.9c0.2,1.5,0.7,3.1,1.3,4.5
		c0.7,1.6,2.5,2.5,4.2,1.9c1.4-0.7,3.3-2.5,4.1-2.1c1.3,0.6,1.9,2.7,2.9,4.2c0.2,0.3,0.3,0.6,0.5,0.9c0.8,1.7,0.7,5.8,4,1.6
		c2.6,0.6,2.6-1.6,2.8-3c0.1-1.5,1-2.8,2.3-3.5c1.8-1,1.8-2.6,0.2-3.7c-2-1.4-2.2-2.8-0.5-4.6c0.9-1,2.3-1.5,3.3-2.4s1.6-2.2,2.6-3
		c1.2-1,2.5-1.7,3.9-2.2c0.8-0.2,1.9,0.5,3.1,0.9c-2.4,1.9-4.2,3.3-5.9,4.7c-1,0.8-2.1,5.6-1.2,6.1c1.6,1,3.5,1.6,5.4,1.8
		c1.7,0.1,3.4-0.8,5.1-1.1c0.9,0,1.7,0.2,2.5,0.5v1.1c-1.5,0.1-3,0.3-4.5,0.4c-1.2,0.1-2.4,0.2-3.5,0.4c-1.6,0.4-1.8,1.4-0.7,2.5
		c1.5,1.4,1,2.3-0.2,3.4c-3-2.5-3.7-2.2-4.4,1.6c-0.1,0.9-0.1,1.8,0,2.7c-1.2,0.5-2.8,1.8-3.5,1.4c-3.2-1.5-5.3,1.3-8.1,1.5
		c-0.9-2.2-2.4-0.9-3.9-0.8c-1-0.1-1.9-0.5-2.6-1.2c-0.4-0.3-0.7-1.5-0.4-1.8c1.3-1.4,1.5-3,0.8-4.9c-3.8,2.1-3.8,2.1-2.9,6
		c0.1,0.8,0.2,1.6,0.2,2.4l-5.7,2.4c-1.8,1.8-3.1,3.1-4.4,4.4c-0.5,0.4-1.2,0.7-1.4,1.3c-1.2,2.3-3.3,3.2-5.7,2.2
		c0.1,0.8,0.2,1.5,0.3,2.4l-5-0.2c1.4,2.1,3.2,3.5,4.7,5.2c2,2.3,0.4,4.8,0.1,7.1c-4.2,0.3-8.5-1.6-12.6,0.9
		c2.3,4.7-1.6,9.6,1.2,14.3l2.8-0.3l1.6,2.2c4.2-1,8.3-1.6,9.6-5.3c0-1.4-0.3-2.4,0.1-3c1.1-1.3,2.2-2.5,3.4-3.7
		c0.7-0.8,2-1.8,1.9-2.7c-0.1-2.7,1.5-2.6,3-2c1.3,0.7,2.9,0.4,3.9-0.7c0.9-0.7,1.9-1.4,3-2c0.7,0.9,1.4,1.9,2.2,2.8
		c1.2,1.7,2.7,3.2,4.2,4.5c2.7,2,6,3.5,4.8,7.9c0.7-1,1.5-2,1.9-2.7l-0.9-3.2l3.2,1.4c-0.1-0.5-0.1-0.9-0.2-1c-1.9-1.2-3-3.4-5.4-4
		c-0.7-0.1-1.3-0.9-1.7-1.5c-0.7-0.9-1.2-2.1-1.9-3c-1.9-2.2-1.5-3.5,1-4.1c0.2,0.6,0.5,1.1,0.9,1.6c0.3,0.3,1.2,0.3,1.2,0.5
		c0.7,2.6,2.8,3.3,4.8,4.5c1.2,0.7,2.8,2.2,2.8,3.3c0,5.1,3.7,8.3,5.5,12.3c0.8-1.1,1.5-2.4,2.1-3.6c0.2-0.8,0.1-1.7-0.2-2.4
		c-0.6-1.2-1.3-2.3-2-3.3c1.1,0.1,2.2,0.5,2.6,0.1c2-1.8,1.9-1.9,3.6-0.9c-0.1,1.9-0.3,3.5-0.4,4.9c0.8,1.1,1.4,2.9,2.5,3.4
		c1.4,0.6,2.5,3,4.9,0.9c0.8-0.7,3.2,0.7,5,1.1c0.1,0,0.2,0,0.2-0.1l4.3-2c-0.9,3.9-1.6,7.1-2.3,10.2c-0.5,2-1.2,3.5-3.8,3.6
		c-1,0-1.9,1.1-2.4,1.4l4,4.1l-1.9,1.5c0.1,0.2,0.2,0.5,0.3,0.8l3.8-1.1c0.5,0.9,1.3,2.1,1.9,3.3c1,2.1,2,4.2,2.9,6.2
		c0.7,1.7,1.4,3.4,2.1,5.2c0.4,1.3,0.8,2.6,1.3,3.8c0.7,1.4,1.6,2.7,2.5,3.9c2.6,3.8,2.5,8.2,3.3,12.5c0.3,1.5,0.9,2.1,2.3,1.4
		c2.5-1.2,4.9-2.4,7.3-3.9c2.5-1.6,4.6-3.8,7.1-5.3c2.3-1.4,4.5-2.7,6.1-4.9c0.4-0.6,0.8-1.3,1.2-2c0.4-0.7,0.8-1.3,1.2-2
		c2.9-3.2,2.3-6.1-1.6-8c-0.8-0.5-1.4-1.2-1.7-2.1c-0.3-1.1-0.4-2.3-0.4-3.4c-1.1,1.2-2.1,2.4-3,3.8c-1.1,2.2-2.9,0.9-4.4,1.2
		c-0.2-0.9-0.3-1.9-0.5-2.8c-0.1-0.6-0.3-1.2-0.6-2.5l-1,2.4c-1.5-3.1-3-6.3-4.5-9.6c2.4-2.7,2.9-2.6,4.6,0.6c0.2,0.5,0.4,1,0.6,1.4
		c1.2,3.5,4.9,5.3,8.4,4.1c0.3-0.1,0.6-0.2,0.9-0.4c1.2,3.1,1.5,3.5,5,3.7s7.3,0,10.5,0c2,2.3,4,4.6,5.9,6.8l-1.7,0.7l3.9,3.4l2-2.5
		c0.9,4.9,1.7,10.6,3.1,16.2s2.7,11,5.3,16.4c3.4-4,5.1-9.1,4.7-14.3c-0.1-1.3-0.2-2.8,0.5-3.8c1.3-1.9,3.3-3.2,4.5-5
		c1.9-2.9,5.5-4.4,6.2-8.2c0.1-0.5,1.1-1,1.8-1.1c1.9-0.5,3.8-0.8,5.8-1.2c0.3,1.1,0.5,2.9,1.4,4.1c1.2,1.5,2.2,3.2,2.9,5
		c0.6-5.5,0.9-11,0.9-16.5C408.7,222,395.7,187.9,372.2,161.4z"></path><path class="st3" d="M170.5,369.9c0.4-0.9,0.7-1.9,0.8-2.9c0.2-2.5,1-4.1,3-5.1c2.4-1.1,4.9-1.8,7.4-2.7c0.5-0.2,1.2-0.5,1.5-0.9
		c1.1-2.1,2.5-4.2,3-6.4c0.6-3.1,0.9-6.3,1.1-9.5c0-0.3,0.1-0.7,0.2-1c1.3-1.6,2.7-3.1,3.8-4.9c1.2-1.9,3-4,3.1-6.1
		c0.3-2.5-1.5-4.7-3.9-5c-0.1,0-0.2,0-0.3,0c-0.4-0.1-0.8-0.4-1-0.8c-2.9-3.8-6.9-3-10.9-3c0.3-1.6-0.5-2.2-2.2-2.6
		c-4-0.9-7.2-2.8-8.4-7.3c-1.2-4.8-3.6-6.1-8.6-6.4c-1.4-0.1-2.8-1.1-4.1-2c-1-0.8-1.8-1.6-2.6-2.6c-0.4-0.5-0.8-1-1.3-1.4
		c-1.4-1-2.4-3-4.2-2.6c-2,0.4-3.9,0.9-5.8,0c-1.8-0.8-3.5-1.6-5.6-2.6l-1.9,5.3c-1.3-2.1,0-4.1,0.3-6.3c-3.9,2.4-8.3,3.7-9.2,9
		l-0.2-0.1C133,328.6,149,352.2,170.5,369.9z"></path><path class="st3" d="M141.3,210.3c4.9,1.1,8.5-1.4,12.4-3.2c0.7-0.4,1.2-1.1,1.3-1.9c-0.1-1-0.6-1.8-1.4-2.4
		c-1.1-0.5-2.3-0.7-3.4-0.9l1.5-1c-1.9-1.1-4-2-5.6-3.5c-0.9-0.8-0.6-2.6-1.2-3.8c-1.1-1.9-2.6-3.6-3.9-5.6
		c-1.3,1.9-1.7,5.2-4.9,4.4c-1-0.2-1.8-0.8-2.4-1.6c-9,17.4-14.3,36.4-15.8,55.9c0.5-0.5,1.1-1,1.7-1.4c4-2.3,4.2-3,3.2-7.6
		c-0.1-1.5-0.1-3,0-4.5c0.4,1.6,0.7,2.7,1,3.8c1-1.7,2.3-3,2.4-4.5c0.2-2.6,1.5-3.2,3.8-3.2c0.9-0.1,1.7-0.3,2.6-0.6l-0.7-0.3
		c0.1-1.3-0.2-3.3,0.5-3.8c2.8-1.7,5.7-3.2,8.6-4.5l-1.9,4l0.6,0.1l9.1-4.9l-0.4-0.7l-1.1,0.6c0.2-0.7,0.4-1.4,0.6-2.1
		c-0.4,0-0.8,0.2-1,0.6c-1.7,2.5-2.5,2.6-5,0.9c-1.8-1.3-2.5-2.8-0.6-4.7c0.2-0.2-0.3-1.5-0.5-1.5c-1-0.1-2.1,0-3.1,0.2
		c-1.3,0.5-2.6,1-3.9,1.6C136.1,212.4,138.2,209.6,141.3,210.3z"></path><path class="st3" d="M267.2,309.3c0.7,1.1,0.9,2.5,0.7,3.8c-1.1,3.9-1.2,7.1,2,10.3c2.7,2.9,4,6.7,3.7,10.6c0,0.5,0.1,1.1,0.4,1.5
		c1.3,1.7,0.5,3-0.4,4.7c-1.9,3.9-3.7,7.8-1,12.4c1.6,2.7,3.3,5.3,3.4,8.9c0.1,3.2,0.8,6.5,3.4,9.2c1.4,1.5,2.8,4,2.6,5.9
		c-0.3,2.6,0.8,3.7,2.5,4.8c0.8-0.4,1.6-0.6,2.5-0.8c2.4-0.3,4.9-0.1,7.1-0.8c5.9-1.7,8.8-6.8,11.9-11.6c0.5-0.9,0.2-2.3,0.3-4
		c0.4-0.2,1.2-0.7,2-1.1c2.4-1.1,3.1-2.7,2.4-5.3c-0.3-0.9-0.7-1.8-0.9-2.7c-0.1-0.5-0.2-1.4,0.1-1.6c2-1.8,4.1-3.4,6.1-5.2
		c1.3-1.2,2.9-2.5,3.2-4c0.3-2.3,0.2-4.7-0.4-6.9c-0.2-1.6-1.3-3-1.6-4.5c-0.3-1.7,0.8-3.7-1-5.2c-0.2-0.2-0.1-1.1,0.1-1.5
		c3-4.1,5.3-8.9,9.1-12c5-4.1,7.5-9.4,10.3-14.7c0.8-1.5,0.7-3.4,1-5c-3.8,1-7.2,1.9-10.6,2.7c-0.7,0-1.5-0.3-1.9-0.9
		c-0.6-1-0.5-2.4-1.2-3.2c-1.2-1.5-2.9-2.7-4.3-4.2c-0.8-0.7-1.4-1.6-1.8-2.6c-1.1-3.5-3.7-6.2-4.1-10.2c-0.2-2.4-2.5-4.6-3.6-7
		c-1.4-3-2.6-6-3.7-9.1c-0.8-2.3-2-2.1-3.9-1.6c-1.3,0.4-2.8,0.6-4.1,0.3c-2.7-0.8-5.4-1.7-8-2.8c-2.4-0.9-4.2,0.1-4.5,2.5
		c-0.1,1.7-0.9,2.6-2.5,1.4s-4.9-0.6-5.5-3.6c0-0.1-0.6,0-0.9-0.1c-2.5-1.1-5.9,0.3-7.3-2.4l1.9-5.5c-1.1-0.3-2.3-0.4-3.5-0.5
		c-3,0.1-6,0.3-9,0.6c-2.1,0.3-4.2,0.8-6.2,1.6c-3.2,1.3-6.2,2.5-9.1,0.2c-1.4,1.5-2.5,3.3-4.1,4.2c-1.9,0.9-3,2.8-3,4.9
		c0,3.2-1.7,4.3-4.2,5.1c-0.6,0.2-1.2,0.6-1.6,1.1c-1.5,2.4-3,4.9-4.3,7.5c-0.9,1.8-2.6,3.3-0.9,6c0.9,1.5,0.8,4.2,0.2,6.1
		c-0.8,2.6-1,5.3-0.7,8c0.1,0.6,0.6,1.1,1,1.6s1,0.7,1.3,1.2c1.5,2.2,2.8,4.6,4.6,6.6s4.1,3.4,6.1,5.1c1.3,1.1,2.4,1,4.1,0.6
		c2.1-0.6,4.4-0.4,6.6-0.6c0.9,0,1.7-0.2,2.5-0.4c1.7-0.6,3.4-1.5,5.1-1.8s4.1-1.5,5,1.2c0.7,2.4,2.1,2.3,4,2.1
		C265.5,308.2,266.5,308.6,267.2,309.3z"></path><path class="st3" d="M157.1,158c0.5-0.2,1-0.4,1.5-0.7l4.3,3l-5.5-0.8c0,0.3-0.1,0.6-0.1,0.8l5.2,2v2.6l-6.2,3.2l2.9,2.3
		c-0.1,0.8-0.1,1.5,0,2.3c2,4.1,4,8.1,6.1,12.1c0.6,1,1.5,1.9,2.5,2.4c1.5,0.8,3,1.5,4.6,2.1c1.2,0.5,2.3,1.1,2.6-0.9
		s0.9-3.9,1.3-5.8c0.1-0.3,0.2-0.8,0.5-1c2.2-1.1,2.6-2.9,2.5-5.2c0-0.7,1.3-2.1,1.8-2.1c4.2,0.4,6.9-1.8,9.2-4.9
		c0.6-0.9,1.7-2,2.6-2c5.6-0.3,10.2-2.8,15.2-5.7l-6.6-0.7l1.8-2.2l5.3,2.2c0.4-2.8-0.6-4-2.6-4.8c-2.3-0.9-2.5-2.1-1.3-3.7h6.1
		l-1.8-2l3.9-0.6c-0.8-0.8-1.3-1.3-1.7-1.8c3.1-2.1-0.9-3.1-0.7-4.7l3.8-0.2c-0.7-1.1-1.1-2.3-1.9-2.7c-1.1-0.5-2.4-0.2-3.8-0.3
		c3.5-5.2,9.5-6.9,14.9-9.6c-3-1.6-6.5-1.8-9.6-0.6c-2.8,0.8-5.7,1.4-8.6,1.7l1.3-2.1c-1.1,0.1-2.2,0.3-3.4,0.4c-0.6,0-1.2,0-1.9,0
		c0-0.4-0.1-0.7-0.1-1.1l6.9-1.2c-2.3-0.6-4.6-1.5-6.8-2C184.6,133.7,169.6,144.6,157.1,158z"></path><path class="st3" d="M138.6,182.4c-0.3,0.5-0.6,0.9-0.8,1.4c0.6,0.2,1.1,0.4,1.7,0.6C139.1,183.6,138.8,182.9,138.6,182.4z"></path><path class="st3" d="M146.5,170.8L146.5,170.8c-0.5,0.6-0.9,1.1-1.4,1.7L146.5,170.8z"></path><path class="st3" d="M141.1,181.6c0.2-1,0.1-2-0.2-3c-0.6,0.9-1.2,1.9-1.8,2.8L141.1,181.6z"></path><path class="st3" d="M324.2,356c-0.9,2-0.7,5.8,0.9,7.2c1.3,1.1,3.2,0.9,4.2-0.3c0.2-0.3,0.4-0.6,0.5-0.9c1.5-5,2.9-10.1,4.2-15.1
		c0.1-0.4,0-0.9,0.3-1.2c1.3-1.9,0.9-4.4-0.8-6c-2.9,2.2-3.2,7-8.5,6.8c0,1.7,0.1,3.3,0,4.9C325,352.9,324.7,354.5,324.2,356z"></path><path class="st3" d="M253.9,195.6c0.2-0.6,0.9-1.6,0.6-1.9c-0.4-0.3-0.9-0.6-1.4-0.6l-5.7-7.9c1.5-2.7,1.5-3.8-0.6-5.1
		c-1.3-0.8-4.2,0.3-5.5,2.2c-0.6,0.9,0.3,2.5,2.6,4.6c-0.1,0.5-0.2,1.1-0.3,1.6c0.4,0,0.8,0,1,0.1c0.8,0.6,2,1.1,2.3,2
		s-0.5,1.8-1.9,1.2c-0.3,0.2-0.6,0.6-0.7,1c-0.1,1,0,1.9,0,3.1l2.2,0.6l-3.9,3l10.4-1.8C253.5,196.7,253.7,196.1,253.9,195.6z"></path><path class="st3" d="M342.9,143.1c-1.8,2.2-4.1,3.9-6.3,6c2.8,2.7,6.3,3.1,10.7,2.9c-1.2-0.8-2.2-1.2-2.6-1.9s-0.8-2.1-0.4-2.6
		c1.9-2.3,4.3-4.2,7.1-5.5c-0.9-0.7-1.8-1.4-2.8-2.1C346.3,140.3,344.4,141.4,342.9,143.1z"></path><path class="st3" d="M211.4,181.6c1,0.3,2.1,0.3,3.1,0c1.6-0.4,3.2-1.1,4.5-2.1c1-0.8,3.3-1.5,2.2-3.4c-0.8-1.4-2.5-2.4-3.8-3.6
		l-0.2,0.9l-8,1.9l-1.9-2.6l0.3,0.9l-3.5,2l0.4,0.4h3.7l-3.4,1.8l3.8,1.1c-1.1,0.8-1.6,1.2-1.9,1.4
		C208.4,180.7,209.9,181.3,211.4,181.6z"></path><path class="st3" d="M279.7,137.7c1.7-1.4,3.1-2.6,4.6-3.6c0.6-0.3,1.2-0.3,1.8,0c0.4,0.3,0.5,1.1,0.9,1.8h5.1
		c0-0.3,0.1-0.6,0.1-0.9l-14.3-5.7c0.6,1.4,0.8,1.8,0.9,1.9l-8.5-0.7l-0.2,0.9c1.2,0.9,2.3,2.1,3.7,2.5s2.8-0.3,4.2-0.6l0.1,0.7
		l-3.2,1.2l0.1,0.4l2.6,0.2l-1.7,0.9L279.7,137.7z"></path><path class="st3" d="M241.9,190.8c1.2-0.7,1.4-1.8,0.2-2.4s-2.6-1.7-4-0.1c-0.7,0.9-1.6,1.6-2.7,2.5v4.1l-0.9,0.4
		c0.5,0.4,1,1.1,1.4,1c1.9-0.5,3.7-1.1,5.5-2c0.4-0.2,0.1-1.9,0.2-2.8C241.6,191.4,241.6,190.9,241.9,190.8z"></path><path class="st3" d="M119.6,273.9c-0.4-0.2-0.7-0.3-1.1-0.4l0.2,1.8c1.1,0.4,2.1,0.8,3.1,1.3c1,0.5,1.7,1.8,2.8,3.1l4.8-0.5
		C125.8,277.2,122.7,275.5,119.6,273.9z"></path><path class="st3" d="M138.5,282.7c0.2-2.4-4-3.8-7.8-2.8l2,2.3l-4-0.4C131.9,284,135.3,282.4,138.5,282.7z"></path><path class="st3" d="M296.3,129.4h-13.4c1.8,0.9,3.6,1.5,5.6,1.9c2.6,0,5.2-0.1,7.8-0.4V129.4z"></path><path class="st3" d="M385.8,305.1c0.8-0.3,1.8-1.8,1.6-2.3c-0.7-1.7-1.6-3.3-2.7-4.8l-0.8,0.4c0,1.6,0,3.2,0,4.8
		C383.9,304.7,384.4,305.7,385.8,305.1z"></path><path class="st3" d="M267.6,220.8l-1.7,0.7v4.5c3-0.1,1.6-2.6,2.2-3.9C268.2,221.9,267.8,221.3,267.6,220.8z"></path><path class="st3" d="M277.2,228.1h-4.7l-0.1,0.6l4.3,2.6C276.9,230.1,277.1,229.1,277.2,228.1z"></path></g><g id="Cloud_Front"><path class="st0" d="M458.9,130.4c0.2-0.6,0.2-1.3,0.2-1.9c0-5.4-5.4-9.8-12.1-9.8c-1.8,0-3.6,0.3-5.2,1c0-0.1,0-0.2,0-0.3
		c0-5.4-5.4-9.8-12.1-9.8c-5,0-9.2,2.4-11.1,5.9c-1.3-0.2-2.7-0.3-4-0.3c-10.7,0-19.4,6.8-20.1,15.3c-6.3,0.1-11.4,4.2-11.4,9.4
		s5.2,9.4,11.5,9.4h33.2"></path><path class="st1" d="M427.8,149.7h-33.2c-6.8,0-12.2-4.5-12.2-10.1c0-5.3,5.1-9.7,11.5-10c1.1-8.6,10-15.3,20.7-15.3
		c1.2,0,2.4,0.1,3.6,0.3c2.2-3.6,6.6-5.8,11.5-5.8c6.8,0,12.4,4.4,12.8,9.9c1.5-0.5,3-0.7,4.5-0.7c7.1,0,12.8,4.7,12.8,10.5
		c0,0.7-0.1,1.4-0.3,2.1c-0.1,0.4-0.5,0.6-0.8,0.5c0,0,0,0,0,0c-0.4-0.1-0.6-0.5-0.5-0.8c0.1-0.6,0.2-1.2,0.2-1.7
		c0-5-5.1-9.1-11.4-9.1c-1.7,0-3.4,0.3-5,0.9c-0.2,0.1-0.5,0.1-0.7-0.1c-0.2-0.1-0.3-0.4-0.3-0.6v-0.2c0-5.2-5.1-9.3-11.4-9.3
		c-4.5,0-8.7,2.2-10.5,5.5c-0.1,0.3-0.4,0.4-0.7,0.4c-1.3-0.2-2.6-0.3-3.9-0.3c-10.2,0-18.8,6.4-19.4,14.7c0,0.4-0.3,0.6-0.7,0.6
		c-5.9,0.1-10.7,3.9-10.7,8.7s4.9,8.7,10.9,8.7h33.2c0.4,0,0.7,0.3,0.7,0.7S428.1,149.8,427.8,149.7
		C427.7,149.8,427.7,149.8,427.8,149.7L427.8,149.7z"></path><path class="st0" d="M463.6,382.4c0-9.1-9-16.5-20.2-16.6c-1.2-15.1-16.7-27.1-35.6-27.1c-2.4,0-4.8,0.2-7.1,0.6
		c-3.3-6.1-10.9-10.5-19.7-10.5c-11.9,0-21.5,7.8-21.5,17.4c0,0.2,0,0.4,0,0.6c-3-1.1-6.1-1.7-9.3-1.7c-11.9,0-21.5,7.8-21.5,17.5
		c0,1.1,0.1,2.3,0.4,3.4c-10.1,1-18,8-18,16.5c0,9.2,9.2,16.6,20.5,16.6"></path><path class="st1" d="M331.6,399.7c-11.7,0-21.2-7.8-21.2-17.3c0-8.5,7.6-15.8,17.8-17.1c-0.2-0.9-0.3-1.8-0.3-2.8
		c0-10,10-18.1,22.2-18.1c2.9,0,5.8,0.5,8.5,1.4c0.3-9.8,10.1-17.7,22.2-17.7c8.6,0,16.4,4.1,20.1,10.4c2.2-0.3,4.5-0.5,6.7-0.5
		c18.9,0,34.7,11.9,36.3,27.1c11.2,0.4,20.3,8,20.3,17.3c0,0.4-0.3,0.7-0.7,0.7s-0.7-0.3-0.7-0.7c0,0,0,0,0,0
		c0-8.6-8.8-15.8-19.5-15.9c-0.4,0-0.7-0.3-0.7-0.6c-1.2-14.9-16.5-26.5-35-26.5c-2.3,0-4.7,0.2-7,0.6c-0.3,0-0.6-0.1-0.7-0.4
		c-3.3-6.1-10.8-10.1-19.1-10.1c-11.5,0-20.8,7.5-20.8,16.7c0,0.1,0,0.2,0,0.3v0.3c0,0.2-0.1,0.5-0.3,0.6c-0.2,0.1-0.4,0.2-0.7,0.1
		c-2.9-1.1-5.9-1.7-9-1.7c-11.5,0-20.8,7.5-20.8,16.8c0,1.1,0.1,2.2,0.4,3.2c0,0.2,0,0.4-0.1,0.6c-0.1,0.2-0.3,0.3-0.5,0.3
		c-9.9,1-17.4,7.8-17.4,15.8c0,8.8,8.9,15.9,19.8,15.9c0.4,0,0.7,0.3,0.7,0.7C332.3,399.4,332,399.7,331.6,399.7L331.6,399.7z"></path></g><g id="Line"><path class="st2" d="M277.1,272.2H277c-0.4-0.1-0.6-0.4-0.5-0.8c0.1-0.4,8.7-39.9,52.3-59.2c14.4-6.4,27-7.3,37.6-2.7
		c14.8,6.4,20.2,21.7,20.2,21.8c0.1,0.4-0.1,0.8-0.5,0.9c-0.3,0.1-0.7-0.1-0.8-0.4c0-0.1-5.3-14.8-19.5-21
		c-10.2-4.4-22.5-3.5-36.5,2.7c-42.9,19-51.4,57.9-51.5,58.2C277.8,272,277.5,272.2,277.1,272.2z"></path><path class="st2" d="M172.2,320.6c-0.1,0-0.2,0-0.3-0.1c-0.3-0.2-0.5-0.6-0.3-0.9c29.7-57.3,79.8-38.4,80.2-38.2
		c0.4,0.1,0.5,0.5,0.4,0.9c-0.1,0.4-0.5,0.5-0.9,0.4c-0.5-0.2-49.4-18.6-78.5,37.6C172.7,320.4,172.4,320.6,172.2,320.6z"></path><path class="st2" d="M249,201.6c-0.3,0-0.6-0.2-0.6-0.5c-0.2-0.4-16.1-42-55.7-47.1c-0.4-0.1-0.7-0.4-0.6-0.8
		c0.1-0.4,0.4-0.6,0.8-0.6c40.4,5.2,56.6,47.5,56.8,47.9c0.1,0.4,0,0.8-0.4,0.9C249.2,201.6,249.1,201.6,249,201.6z"></path></g><path class="st2" id="Location_Pointer_4" d="M260.3,282l-5-10c-5.3-10.6-10.5-21.3-15.8-31.9c-2.1-3.8-3.1-8-3.2-12.3
	c0.3-13.3,11.3-23.7,24.6-23.4c10.7,0.3,19.9,7.5,22.6,17.8c1.5,5.6,0.8,11.5-1.8,16.6l-13.2,26.7l-7.8,15.7L260.3,282z
	 M260.3,240.1c6.6,0,12-5.4,12-12s-5.4-12-12-12s-12,5.4-12,12C248.3,234.7,253.7,240,260.3,240.1L260.3,240.1z"></path><path class="st2" id="Location_Pointer_3" d="M393.7,235.4c-1.5-3.1-3-6-4.4-8.9c-4.7-9.4-9.3-18.9-14-28.3
	c-1.8-3.4-2.8-7.1-2.8-10.9c0.2-11.7,9.8-21.1,21.6-20.9c9.6,0.1,17.9,6.7,20.3,16c1.3,4.9,0.7,10.2-1.6,14.7l-11.8,23.7
	c-2.3,4.6-4.6,9.3-6.9,13.9C394,234.9,393.9,235.1,393.7,235.4z M393.7,198.2c5.9,0,10.6-4.7,10.7-10.6c0-5.9-4.7-10.6-10.6-10.7
	c-5.9,0-10.6,4.7-10.7,10.6c0,0,0,0,0,0C383.1,193.5,387.8,198.2,393.7,198.2L393.7,198.2z"></path><path class="st2" id="Location_Pointer_2" d="M182.4,153.4l-3.7-7.4c-3.9-7.9-7.8-15.8-11.8-23.7c-1.5-2.8-2.3-6-2.4-9.2
	c0.2-9.8,8.3-17.7,18.1-17.5c8,0.1,15,5.6,17,13.4c1.1,4.1,0.6,8.5-1.4,12.3l-9.8,19.8c-1.9,3.9-3.9,7.8-5.8,11.6L182.4,153.4z
	 M182.4,122.2c4.9,0,8.9-4,8.9-8.9c0-4.9-4-8.9-8.9-8.9c-4.9,0-8.9,4-8.9,8.9c0,0,0,0,0,0C173.6,118.2,177.5,122.2,182.4,122.2
	L182.4,122.2z"></path><path class="st2" id="Location_Pointer_1" d="M164.6,321.9c-1.3-2.5-2.5-5-3.7-7.5c-3.9-7.9-7.8-15.8-11.8-23.7
	c-1.5-2.8-2.3-6-2.4-9.2c0.2-9.8,8.3-17.7,18.1-17.5c8,0.1,15,5.6,17,13.4c1.1,4.1,0.6,8.5-1.3,12.4c-3.3,6.6-6.6,13.2-9.9,19.9
	c-1.9,3.9-3.8,7.8-5.8,11.6C164.8,321.5,164.7,321.7,164.6,321.9z M164.6,290.8c4.9,0,8.9-4,8.9-8.9s-4-8.9-8.9-8.9
	c-4.9,0-8.9,4-8.9,8.9c0,0,0,0,0,0C155.7,286.7,159.7,290.7,164.6,290.8L164.6,290.8z"></path></svg>